<svg width="128" height="128" viewBox="0 0 128 128" fill="none" xmlns="http://www.w3.org/2000/svg">
<path d="M28.921 59.4972C26.3501 60.7065 19.5457 66.1504 18.2351 67.7634C16.8741 69.3763 16.471 66.8562 17.8822 62.6726C18.9909 59.2955 21.8139 54.7085 26.5518 50.7771C29.3239 48.5088 35.4231 45.2327 39.1528 43.3171C39.9091 42.9137 49.6875 38.7806 58.4076 36.7141C59.1639 36.5124 57.5004 37.9741 57.2483 38.7806C55.9377 42.6113 29.7775 59.0433 29.7775 59.0433L28.921 59.4972ZM65.7666 105.718C66.2202 108.44 65.8171 108.642 62.9946 108.995C60.1718 109.347 58.1052 108.289 57.3492 107.583C56.593 106.877 56.442 105.315 57.198 103.904C57.6519 102.996 58.1055 102.694 58.3576 101.585C58.6095 100.527 58.8112 100.274 59.0127 99.8713C59.2141 99.5182 59.2648 99.1653 59.3151 96.6956C59.3655 94.226 59.3151 89.5885 59.5672 87.6229C59.8194 85.6069 68.5395 88.5301 68.5395 88.5301C68.5395 88.5301 66.4727 93.6714 65.9183 94.9315C65.3638 96.1918 65.4143 98.611 65.4143 99.1151C65.4143 99.6192 65.2128 100.627 65.0614 100.678C64.9102 100.728 65.5655 102.038 65.2628 102.795C65.0611 103.5 65.7164 105.315 65.7666 105.718ZM69.0935 28.6493C68.7909 26.7339 69.0935 22.9532 69.4966 22.3486C70.757 20.6347 77.4102 20.4333 78.8218 22.4494C79.4265 23.3566 79.3761 25.4736 79.2754 26.8346C79.1746 28.1954 78.8218 31.1189 78.7713 32.0769C78.721 32.7826 71.4122 33.8913 69.7993 31.9759C69.3454 31.4721 69.0935 28.6493 69.0935 28.6493ZM83.9125 100.829C86.9873 103.047 89.3562 103.45 90.9187 104.256C92.4812 105.063 92.078 106.626 89.4569 107.079C87.3399 107.482 84.0133 106.676 81.7955 106.676C79.5777 106.676 74.6379 106.928 73.3274 106.021C71.8154 104.962 72.4704 102.996 72.4704 102.996C72.8738 101.888 73.8817 99.4175 73.5793 97.4014C73.2769 95.3853 72.8735 94.2765 72.1175 92.4113C71.3615 90.5465 70.8072 85.9598 71.513 85.7076C72.2187 85.4554 72.0168 85.7076 72.9242 85.909C73.8314 86.1105 74.8396 86.4131 76.8054 86.4131C78.7713 86.4131 80.9385 86.1105 81.6948 85.9595C82.4508 85.8083 83.0556 85.6569 82.8034 87.2196C82.5515 88.7821 81.7955 91.7056 81.745 93.9738C81.6948 96.2421 81.6948 98.8632 81.846 99.3168C81.9969 99.7704 83.1061 100.274 83.9125 100.829Z" fill="#010101"/>
<path d="M73.1259 33.6899C67.5815 38.4785 56.8452 39.7888 40.9175 45.9383C36.8346 47.5007 25.9473 52.1884 23.3262 57.0778C32.147 51.987 35.4234 58.9931 36.1289 66.201C36.7839 72.9552 40.1613 76.4837 48.8308 76.2818C57.7526 76.0804 60.4744 81.2719 62.9441 87.3711C67.7325 64.0334 75.3942 59.4972 80.3335 55.5153C90.818 46.9967 77.9143 31.976 73.1259 33.6899Z" fill="#1F1F1F"/>
<path d="M73.1262 33.6899C59.8194 38.3271 46.6635 39.4865 31.1895 49.013C27.51 51.2813 19.7476 56.4223 18.2354 66.2515C23.8805 60.0011 36.9353 52.1382 52.9137 47.1482C60.9785 44.6278 66.876 42.9646 74.0333 40.1923C73.5295 36.9661 73.5295 35.706 73.1262 33.6899Z" fill="#1F1F1F"/>
<path d="M90.1123 61.3116C90.1123 61.3116 89.1546 64.588 87.2393 65.6466C87.2393 65.6466 85.828 66.1507 83.0054 64.5882C82.199 64.1346 81.5942 62.5721 81.6444 62.0678C81.6949 60.858 82.4509 60.3036 82.4509 60.3036C82.4509 60.3036 83.2576 58.9426 84.215 58.9931C85.173 59.0433 86.7859 59.1945 87.29 58.7409C87.7433 58.2368 90.2133 59.6481 90.1123 61.3116ZM69.5472 29.607C69.5472 29.607 69.3458 32.1778 68.9929 33.7906C68.9424 34.0932 67.4304 34.2442 66.3213 34.698C68.4383 40.7465 81.1908 40.696 82.8542 37.7222C82.0478 37.1679 80.4348 36.311 79.6788 36.0086C78.9226 35.7059 78.973 35.7564 78.9226 34.3451C78.8723 32.9336 78.7714 30.3127 78.6704 29.607C78.5697 28.9012 70.7568 28.9012 69.5472 29.607Z" fill="#010101"/>
<path d="M70.051 29.607C70.051 29.607 70.051 31.0687 69.8998 32.48C69.8495 33.1353 69.799 33.5384 69.6983 34.0425C69.6478 34.3451 71.412 35.5545 71.9161 38.2261C74.3355 43.6193 79.9306 40.9479 82.2491 38.3773C81.4426 37.8227 80.1321 37.0667 78.6201 36.4619C77.8638 36.1593 78.2167 35.5043 78.1665 34.093C78.116 32.6817 77.9143 30.6149 77.8136 29.8589C77.7124 29.1029 71.2608 28.9012 70.051 29.607Z" fill="#4C4C4C"/>
<path d="M69.5471 29.607C69.5471 29.607 69.4967 30.5144 69.3457 31.5728C70.0007 32.2278 70.8577 33.1353 71.5132 33.6898C71.9668 34.0932 73.0755 34.0427 74.0839 34.0427C74.9911 34.0427 75.7975 34.1434 76.1504 33.942C76.9571 33.5386 78.1163 32.5307 78.7715 31.7745C78.7213 30.8673 78.6708 30.0103 78.6206 29.607C78.5696 28.9012 70.7567 28.9012 69.5471 29.607Z" fill="#010101"/>
<path d="M74.1347 33.4377C73.5297 33.4377 72.8239 33.3875 72.2696 33.2865C72.0174 33.2363 71.7655 33.0851 71.5638 32.9841C71.2109 32.7319 70.8581 32.4298 70.4552 32.1271C69.6485 31.5223 69.5982 31.1695 69.5982 31.0185C69.9511 27.8428 69.4973 25.1715 69.4973 25.1715C69.4973 25.1715 69.1444 23.8104 71.0597 23.4576C72.9751 23.1047 74.1345 23.0544 74.1345 23.0544C74.1345 23.0544 75.3443 23.0544 77.2092 23.4576C79.1245 23.8104 78.7716 25.1715 78.7716 25.1715C78.7716 25.1715 78.318 27.8428 78.6709 31.0185C78.6709 31.1695 78.6207 31.5223 77.814 32.1271C77.1082 32.6312 76.5539 33.1855 75.9996 33.2865C75.445 33.3875 74.7393 33.4377 74.1347 33.4377Z" fill="#010101"/>
<path d="M74.1346 21.7439C70.8079 21.7439 70.1524 22.6511 69.1947 23.6593C68.9933 23.9112 69.1442 25.4234 69.4974 28.6493H69.951C69.951 28.6493 69.6483 27.7419 69.6988 26.6835C69.7493 25.6251 69.951 25.6756 69.7995 25.4234C69.5981 25.1208 69.1947 24.6167 70.1022 24.1129C71.0094 23.6088 72.4206 24.516 74.1346 24.5664C75.8482 24.516 77.31 23.6088 78.2172 24.1129C79.1244 24.6167 78.7213 25.1208 78.5198 25.4234C78.3182 25.7258 78.5701 25.6248 78.6206 26.6835C78.6708 27.7419 78.3684 28.6493 78.3684 28.6493H78.822C79.1244 25.4234 79.3261 24.0121 79.1749 23.76C78.3179 22.6511 77.4612 21.7941 74.1346 21.7439ZM90.1127 61.4628C90.1127 61.4628 89.155 64.5375 87.2901 65.5959C86.8868 65.3945 86.9373 65.0921 86.5844 64.6382C86.4834 64.4873 86.1305 64.3861 85.9796 64.2351C85.8284 64.0839 85.8789 63.8317 85.6267 63.6303C85.425 63.4286 85.2738 63.5798 85.0721 63.4286C84.8707 63.2272 84.82 62.975 84.669 62.8241C84.5681 62.7231 84.1649 62.6729 84.0642 62.5719C83.8121 62.3198 81.5946 61.8662 81.6953 61.3621C81.8967 60.6058 82.3001 60.0515 82.3001 60.0515C82.3001 60.0515 83.2577 58.6402 84.2152 58.6905C85.1729 58.741 86.0803 58.9426 86.5844 58.489C87.1389 57.9847 90.2641 59.8498 90.1127 61.4628Z" fill="#010101"/>
<path d="M83.5597 39.1841C83.5597 39.1841 86.7351 38.4279 88.9026 40.4947C91.0701 42.6117 90.9187 45.2326 90.2637 46.8455C90.818 47.5008 91.8261 49.3152 91.0701 51.4827C94.3968 54.3053 92.935 58.6403 89.9613 61.5134C89.9613 61.5134 89.2555 58.8922 86.4329 58.741C86.5337 57.7331 83.8118 56.9264 85.0719 54.3053C83.1565 53.8517 83.207 52.5411 82.9046 50.9284C82.6525 49.3152 83.5597 39.1841 83.5597 39.1841Z" fill="#010101"/>
<path d="M82.4 40.5953C82.4 40.5953 86.0795 38.7304 88.247 40.8475C90.4143 42.9645 89.8092 45.283 89.1542 46.8959C89.7085 47.551 91.0191 49.4163 90.2126 51.6338C90.0614 52.1379 88.9525 52.1379 88.1458 53.4485C90.1619 52.2889 91.4222 52.5915 91.8758 54.053C92.5815 56.3213 91.0188 59.0431 89.658 60.5553C89.658 60.5049 89.6075 60.4544 89.6075 60.4042C89.4061 61.1604 89.1539 62.6219 87.642 64.2349C86.8857 65.0413 86.2809 64.9406 85.4239 64.7389C84.416 64.4868 84.0632 64.0329 82.6519 63.2772C81.8454 62.8236 82.299 62.269 82.299 61.8154C82.299 61.7147 82.3997 61.5633 82.5512 61.3618C82.6519 61.1097 82.9543 60.7068 83.4079 60.2529C83.4079 60.2529 84.0632 59.3458 85.0211 59.396C85.9788 59.4465 86.9867 59.245 87.2388 58.9929C87.2388 57.2287 85.2228 57.1782 85.9283 54.154C85.9788 54.0028 86.2309 53.7506 87.0372 53.6499C85.8273 53.3978 85.273 53.3473 84.416 52.541C83.8112 51.9867 83.3576 51.281 83.2062 50.3738C82.904 48.8113 82.4 40.5953 82.4 40.5953Z" fill="#4C4C4C"/>
<path d="M71.7653 37.42C71.4629 37.0166 69.9004 35.0005 66.9264 34.194C66.0695 33.9419 65.5151 34.6476 64.6584 35.1517C64.4063 35.0005 63.2974 34.4964 62.6926 34.8491C62.0878 35.2017 61.6847 35.5548 61.0796 35.8068C60.777 35.6556 59.9708 35.6556 59.3155 35.9075C58.6602 36.1092 57.652 36.5627 56.6944 37.8733C56.0896 40.0408 67.38 38.4276 67.38 38.4276L71.7653 37.42Z" fill="#010101"/>
<path d="M71.866 37.4199C70.2528 36.8653 70.5049 35.0004 66.9261 34.698C66.2204 34.6476 65.7668 35.2019 65.2627 35.5548C65.5149 35.8069 65.7668 36.21 65.918 36.6132C65.4644 36.1093 64.6579 35.4538 63.8512 35.3026C63.0952 35.1516 62.5911 35.706 61.7846 36.1093C61.9356 36.2603 62.087 36.5124 62.2885 36.8151C61.5827 36.3615 61.0789 36.2103 60.1212 36.5629C59.4659 36.7644 58.2058 37.3189 57.2481 38.68C56.6434 40.8475 67.43 38.4278 67.43 38.4278L71.866 37.4199Z" fill="#1F1F1F"/>
<path d="M81.3424 38.2263C81.3424 38.2263 81.3424 37.6717 81.2919 37.1679C81.2919 37.0672 80.8888 36.815 80.8888 36.7143L80.7881 36.6133C80.7881 36.6133 81.5946 36.1597 82.1994 36.4119C82.8544 36.6133 83.2073 37.4703 83.2073 37.4703C84.3666 37.0672 84.4674 37.5208 85.0219 38.1256C86.2318 37.8734 86.3827 38.327 87.139 39.4361C87.139 39.4361 86.2318 39.2849 84.4676 39.5871C82.7537 39.839 81.3424 38.1758 81.3424 38.2263Z" fill="#010101"/>
<path d="M81.1408 37.9741C81.1408 37.9741 81.4432 37.722 81.3422 37.6715C81.8965 37.3691 82.6528 37.0165 83.0056 37.9741C84.165 37.5708 84.3162 38.1253 84.8705 38.7304C86.2818 38.0751 86.3825 38.8813 86.4835 39.2342C86.0299 39.2342 85.3749 39.2847 84.4674 39.3854C82.7537 39.6376 81.0903 37.9237 81.1408 37.9741Z" fill="#1F1F1F"/>
<path d="M64.003 36.7141C64.003 36.7141 66.876 37.722 69.2954 37.5708C71.7149 37.3694 75.848 37.1677 78.0658 38.4783C78.0658 38.4783 80.334 37.6715 82.451 38.2261C84.5683 38.7804 88.4493 42.4097 87.2901 46.2404C87.1892 46.4926 86.5339 46.8957 85.7779 47.1479C85.7779 47.1479 86.1813 48.8615 85.4755 50.2728C84.7697 51.6338 83.2073 54.255 83.1568 57.884C83.1066 58.4888 83.0058 59.7489 82.9049 60.3537C78.9732 60.2027 72.9247 58.7407 66.977 58.8417C67.0272 58.1866 67.0777 57.7833 67.1282 57.128H67.2791C66.9767 55.4646 66.876 54.6076 66.5734 53.3475C64.658 52.1379 62.6417 50.7267 60.9283 48.0551C59.2648 45.3835 64.003 36.7141 64.003 36.7141ZM83.4592 63.9327C83.4592 63.9327 86.5844 75.1227 82.9049 79.8104C82.9049 79.8104 83.4592 81.9776 82.1991 84.2964C81.9974 85.3043 81.7453 86.2117 81.5943 87.2196C80.939 91.4032 79.8299 93.1674 79.5275 99.8711L76.503 99.8209C76.503 99.8209 76.1501 94.982 75.0918 92.4114C74.4872 90.9499 72.1178 88.9838 72.219 87.0182C72.3197 85.506 72.6221 84.2459 75.193 82.2296C75.3944 79.3063 72.4709 76.5337 72.9247 65.6464L83.4592 63.9327Z" fill="#010101"/>
<path d="M82.5519 63.4789C83.3583 68.6201 85.2232 76.2313 81.8461 79.9611C82.0454 80.9068 82.0624 81.882 81.8963 82.8341C81.7956 83.4389 81.5939 84.0942 81.342 84.7997C80.8379 86.0095 80.6362 87.7737 80.4851 88.8321C79.8298 93.0157 79.8298 93.2176 79.5274 99.9214L76.5029 99.8709C76.5029 99.8709 76.15 95.032 75.0916 92.4616C74.4871 90.9999 73.2267 89.7398 73.126 87.7739C73.0253 86.262 74.0837 83.2377 76.6041 83.3384C76.4529 77.2395 73.6301 78.4491 72.8741 65.7471L82.5519 63.4789ZM64.0028 36.7141C64.0028 36.7141 65.1117 37.067 66.3213 37.1677C67.5312 37.2684 68.8417 37.1677 70.0008 37.1172C72.4203 36.9158 75.8479 36.6636 78.1161 37.9742C78.1161 37.9742 79.3762 37.5708 80.7372 37.6715C81.342 37.722 81.9471 38.2261 82.6526 38.4278C84.8703 38.9821 86.9874 42.6616 86.0294 45.9885C85.9287 46.2407 85.223 45.9885 84.4165 46.2407C84.5674 46.9464 84.6686 48.5594 83.8619 50.2731C83.0052 51.987 81.8963 54.2047 82.0978 58.4388C76.8053 58.1866 74.4363 57.834 69.1941 57.5818C68.7405 55.7167 68.4379 53.8518 68.3876 52.8942C69.0934 52.5413 69.4962 52.2391 70.0511 51.6341C68.5391 51.8863 67.934 51.7853 67.0266 51.2812C66.1194 50.7771 64.5064 49.1642 63.6999 48.1058C63.5992 48.0048 63.0449 49.668 61.7848 49.7187C61.331 49.0635 63.2463 47.1983 62.8935 46.4928C61.6336 43.9219 64.0028 36.7141 64.0028 36.7141Z" fill="#4C4C4C"/>
<path d="M82.9549 59.2952C82.9549 59.2952 83.0556 61.1098 83.0556 61.5634C83.0556 62.0675 83.459 63.5795 83.5092 64.2853C82.9549 65.243 80.5355 67.4105 76.1502 68.2169C71.8154 69.1241 66.0693 62.3197 66.0693 62.3197C66.2205 61.6644 66.7246 59.7488 67.0775 58.7409C67.128 58.6402 67.2287 58.388 67.2287 58.2873C67.6825 57.632 82.9549 59.2952 82.9549 59.2952Z" fill="#010101"/>
<path d="M81.8465 59.4468C81.8465 60.7068 82.0479 61.6143 82.1994 62.4208C82.4513 63.8825 82.8544 64.8402 82.8544 65.7979C82.8544 68.7212 79.0237 68.2171 75.7975 68.318C71.4627 69.2255 67.7832 62.4208 67.7832 62.4208C68.0856 61.2614 68.2873 59.9511 68.7409 58.842C68.7911 58.2372 68.8921 57.4812 68.9423 57.1283C75.0917 57.1283 79.4265 57.4812 81.9469 57.7328C82.0479 58.2874 81.9472 59.2451 81.8465 59.4468Z" fill="#4C4C4C"/>
<path d="M77.0072 65.9488C77.0072 65.9488 74.3358 60.0011 66.3213 61.7655C64.4062 67.1587 61.8353 73.3586 63.4987 80.0623C61.8353 82.3306 59.9199 83.5909 59.9199 87.7742C59.9199 91.9578 60.1216 92.6636 60.1216 92.6636L66.0189 92.9662C66.0189 92.9662 67.9342 90.4966 68.6902 87.825C68.8919 87.0687 69.0936 85.7079 68.9424 84.1455C69.1438 83.8431 70.0008 83.1376 70.1017 81.7765C70.1017 81.7765 72.9748 80.2645 74.6382 76.585C76.2009 73.2576 75.7976 70.3846 77.0072 65.9488Z" fill="#010101"/>
<path d="M77.0066 65.9488C76.8557 65.3945 74.8394 59.9508 67.3794 61.5635C62.9943 73.2576 64.6073 78.0964 65.2623 80.2132C62.2883 83.9935 60.9275 84.7999 61.5326 92.4616H65.4643C67.2786 89.5886 67.682 88.5299 67.7827 84.7497C67.7827 84.5985 67.2284 85.0521 66.8251 85.5562C67.1277 83.9937 67.9844 83.6913 68.6397 82.7336C68.9421 82.3303 69.194 81.7255 69.194 80.919C72.7223 78.55 74.0329 75.576 74.7889 72.5013C75.3939 70.3845 76.0994 66.9064 77.0066 65.9488Z" fill="#4C4C4C"/>
<path d="M64.5573 57.8337C64.5573 57.8337 65.9183 57.884 67.1282 58.2873C68.2875 58.6905 68.2875 58.9424 68.7411 59.4467C69.1947 59.951 70.3036 60.7068 70.1022 61.4628C70.0012 61.8661 69.7493 61.9669 69.3964 62.3197C69.2452 62.4709 68.1361 63.6805 67.8842 63.8317C67.733 63.9324 67.5313 64.0839 67.3801 64.1846L66.6241 64.6887C66.12 64.9409 65.7671 65.0921 65.2128 65.0416C65.2128 65.0416 63.9527 64.9911 63.146 64.1344C63.146 64.1344 63.0453 63.731 63.247 63.5296C63.247 63.5296 62.1883 62.6221 61.8859 62.0173C61.5833 61.4128 61.5833 60.5558 61.7852 60.1022C61.8859 59.6481 63.8515 58.3881 64.5573 57.8337ZM65.8176 106.878L65.6664 108.138C65.6664 108.138 65.2128 108.692 61.8357 108.642C58.4081 108.591 57.5009 107.533 57.1985 106.978L56.9971 105.668C56.9971 105.668 57.6523 104.71 57.8035 104.71C58.9124 104.811 62.6929 106.323 65.314 106.726C65.5654 106.726 65.6157 106.827 65.8176 106.878ZM73.1262 104.307C73.1262 104.861 73.0757 104.861 73.0757 105.416C73.6805 105.869 75.193 106.122 78.0657 106.071C82.2493 105.97 86.1305 107.331 90.8684 106.524L90.9189 105.617L90.4653 105.567L73.6805 104.206L73.1262 104.307Z" fill="#010101"/>
<path d="M76.8057 106.071H78.0657C80.7878 105.97 83.3585 106.575 86.1305 106.726C87.5923 106.676 89.4069 106.323 89.2557 105.265L74.9408 104.055C74.0838 105.012 74.7389 105.819 76.8057 106.071ZM60.3737 84.8507C60.8273 85.1531 63.902 86.9678 68.8921 86.7156C68.7911 87.6733 68.8416 89.5384 66.6238 92.8146C65.515 94.4275 64.557 97.2503 64.3556 100.829C64.4061 101.636 64.8597 102.341 64.2549 103.4C64.4563 104.055 65.2628 105.365 65.6662 106.172C66.0693 106.979 66.271 107.886 63.5994 107.936C60.8775 107.986 56.4922 107.684 57.0973 105.567C57.3999 104.458 58.2566 103.299 58.3576 102.845C58.4583 102.392 58.4583 101.031 59.315 100.123C60.0713 97.6032 59.8191 95.1838 59.6682 92.9155C59.416 90.5463 59.3655 86.7661 60.3737 84.8507ZM65.0614 43.7708C68.6402 38.9822 65.6157 35.1517 59.8699 36.3108C57.5511 36.7644 55.2327 38.3776 55.0812 41.3009C54.3252 41.4016 52.6115 41.5023 51.7546 44.6275C51.0995 47.047 50.7467 47.5006 49.5871 48.7101C48.8311 49.5671 49.6375 51.3313 50.1919 52.5916C52.057 56.9264 57.8031 57.3295 61.6842 60.6059C62.9948 60.253 64.3556 58.7915 64.759 57.8338C61.4826 53.9524 62.1881 52.4404 60.8775 50.4243C62.289 49.92 65.515 47.9544 65.0614 43.7708Z" fill="#010101"/>
<path d="M64.3554 43.4683C64.5569 43.1657 64.9098 42.5106 65.0612 42.2585C65.1117 42.208 65.666 43.1657 65.7165 43.1154C67.0773 40.8974 67.4302 37.6715 65.8674 37.3691C65.5146 37.3186 64.8595 37.1677 64.305 36.9658C63.2971 36.6129 62.3899 36.6129 60.7766 36.9155C58.5589 37.3186 56.3411 38.9316 56.3411 41.2503C56.3411 41.4015 57.9034 41.8551 58.3572 43.7202C57.601 42.6616 56.2904 41.5022 54.7279 42.5104C53.0645 43.5688 53.9215 45.9882 51.7037 48.5084C50.9475 49.3653 51.0484 50.3735 51.8547 52.3896C53.1652 55.5653 59.3651 57.2789 62.7422 60.3032C63.5487 59.9503 64.103 59.1438 64.5064 58.539C62.2382 56.1701 61.3307 53.9521 60.6757 52.3391C59.8692 50.4742 58.9618 49.4158 57.1976 48.0041C58.105 48.3569 58.8108 48.7098 59.2137 49.0122C59.6673 49.3146 60.3226 49.3651 60.9276 49.1634C63.0954 48.4079 64.2547 45.3834 64.3554 43.4683Z" fill="#4C4C4C"/>
<path d="M86.2814 44.2749C86.1302 46.1902 84.7189 45.2325 83.9629 44.8797C82.4507 44.2244 80.9384 43.7708 79.1743 43.7708C77.4101 43.7708 75.1419 43.922 73.1763 44.4261C70.4545 45.1821 69.6477 45.1318 68.4381 44.5268C67.2285 43.8715 65.1118 42.2585 65.1118 42.2585C65.1118 42.2585 65.0613 42.7626 65.5654 43.4179C66.2204 44.2244 67.6824 45.2325 69.648 45.8876C70.6057 46.1902 71.3619 45.9883 72.2189 45.7869C76.7049 44.678 81.4428 44.4763 85.4247 46.8957C85.6264 46.9965 86.3321 46.6941 86.6345 46.2405C87.0374 45.5854 86.2814 44.2749 86.2814 44.2749Z" fill="#010101"/>
<path d="M63.3477 63.4789C63.7508 63.731 64.2549 63.8822 64.8092 64.3358C64.8092 64.3358 64.3556 64.3358 64.1541 64.1344C63.902 63.9832 63.3979 63.5296 63.3477 63.4789Z" fill="#4C4C4C"/>
<path d="M77.9141 23.5081C77.7629 23.0545 76.6537 22.2478 74.0833 22.2478C71.311 22.2478 70.5045 23.1048 70.4543 23.5584C70.4543 23.7096 70.2526 25.3228 70.2021 25.9778C70.2021 25.9778 70.2021 26.7843 70.2524 27.9939C70.3029 28.8004 70.5045 29.2539 70.6053 30.3126C70.706 31.4212 71.0086 32.127 71.5629 33.0344C71.8151 33.1854 72.0165 33.3368 72.2687 33.3873C73.2769 33.5887 75.041 33.6392 75.9987 33.3873C76.553 33.2361 77.2588 32.2784 77.41 31.4215C77.6114 30.3631 77.8131 29.6068 77.8636 28.9518C77.9643 28.2968 78.0148 26.8348 78.065 26.4314C78.2165 25.3228 77.9643 23.6088 77.9141 23.5081Z" fill="#4C4C4C"/>
<path d="M72.6217 85.8083C72.6217 85.8083 75.2933 86.9677 81.8963 85.9595C81.8963 85.9595 80.0314 95.3349 80.8884 100.022C80.8884 100.022 81.7451 101.232 88.0962 103.551C88.0962 103.551 90.9188 104.256 90.8181 105.668C90.8181 105.668 90.9188 105.97 87.4914 105.869C84.0641 105.768 80.8379 105.164 78.5697 105.164C76.3014 105.164 73.882 105.264 73.4789 104.609C73.0253 104.004 73.5796 102.442 74.2349 101.534C74.9409 100.577 74.739 99.8709 74.6887 98.1575C74.537 93.6715 71.1094 89.0343 72.6217 85.8083Z" fill="#010101"/>
<path d="M72.0671 86.6653C71.7142 87.1694 72.1173 89.0845 72.6214 90.9497C73.1255 92.8145 74.2346 93.9237 74.4865 96.9981C74.7384 100.022 74.7889 100.426 73.9319 102.19C73.075 103.954 72.8231 105.567 75.7968 105.617C78.7706 105.668 80.3838 105.567 83.408 106.021C86.4325 106.474 87.4909 106.625 89.1543 106.373C90.8178 106.122 91.1704 105.567 90.4649 105.063C89.7591 104.559 86.8356 104.005 85.5755 102.996C84.3657 102.089 80.9383 100.577 80.8881 100.174C80.7369 98.8125 80.6864 93.8729 80.9383 92.26C81.1905 90.6468 81.5431 88.3283 81.6441 87.7235C81.7451 87.1187 82.2489 86.5137 81.3919 86.7153C80.5352 86.9168 77.3093 87.3706 74.8899 87.2194C72.4704 87.0685 72.2185 86.5139 72.0671 86.6653Z" fill="#1F1F1F"/>
<path opacity="0.3" d="M73.7813 102.24C74.638 102.643 75.8983 102.946 76.856 102.946C76.856 102.946 76.5029 104.61 77.0574 105.617C77.6117 106.626 73.025 106.021 73.025 106.021L72.8236 102.442L73.7813 102.24ZM87.1385 106.575C87.945 106.323 88.4996 105.416 87.8443 104.559C87.1385 103.702 86.5337 103.551 87.4409 103.501C88.3484 103.45 91.675 105.466 91.675 105.466L89.9611 107.029L87.1385 106.575ZM71.9161 88.6309C73.0755 89.0343 74.8397 89.135 76.3519 89.0845C77.8639 89.0343 80.1321 88.8323 81.5941 88.3285C83.0557 87.8244 82.4509 88.8828 82.4509 88.8828L81.6444 89.6391C81.6444 89.6391 79.729 90.395 76.6041 90.3448C72.9246 90.2943 71.8154 89.8912 71.8154 89.8912L71.9161 88.6309ZM72.0169 91.1513C73.1765 91.5547 74.9404 91.6554 76.4526 91.6049C77.9646 91.5547 79.9809 91.5547 81.4427 91.0001C82.0475 90.7987 81.6949 91.6554 81.6949 91.6554L81.4427 92.109C81.4427 92.109 79.4769 92.8147 76.4021 92.764C72.7226 92.7138 72.0673 92.4111 72.0673 92.4111L72.0169 91.1513Z" fill="#010101"/>
<path d="M68.6904 55.8176C68.6904 56.1705 72.6221 58.1361 74.7894 58.5395C76.9569 58.9426 81.4934 58.5395 82.1989 58.3883L82.0979 59.094C82.0979 59.094 76.7047 59.9005 72.5716 58.7916C68.4383 57.6827 68.8921 57.4306 68.8921 57.4306L68.6904 55.8176Z" fill="#010101"/>
<path d="M60.2729 98.8128C60.8777 99.1154 63.0452 99.6697 64.4565 99.3673C64.6579 99.3169 64.4565 95.8893 65.0111 94.3268C65.8175 92.1593 67.1281 90.3951 67.7326 86.5646C65.6156 86.363 63.1964 85.8084 61.9361 85.405C60.3234 90.3449 60.878 94.5787 60.2729 98.8128ZM63.6503 101.988C64.0031 102.089 64.2551 102.492 64.356 102.241C64.5575 101.787 64.0031 100.93 63.9527 100.325V100.275C63.4991 99.8717 60.4244 99.8212 60.626 100.023C60.2732 100.678 59.7188 100.577 59.5174 101.888C59.4167 102.543 60.2232 101.988 60.9789 101.938C59.6181 102.845 58.0556 104.005 57.8035 105.013C57.5011 106.424 58.0052 106.827 59.5174 107.584C60.828 107.886 62.3904 107.936 63.6 107.886C64.9611 107.634 65.2132 106.979 64.8099 106.071C64.2046 104.71 63.8015 102.946 63.6503 101.988Z" fill="#4C4C4C"/>
<path d="M64.2048 36.5125C65.8683 37.4701 68.187 37.2182 69.0437 37.1677C69.2454 37.1677 71.2617 36.8148 71.3624 36.8651C71.5638 36.9156 71.5638 37.0668 71.5638 37.0668C71.5638 37.0668 70.8078 37.4699 69.0942 37.5706C67.4812 37.6713 65.5659 37.5706 64.5075 37.0668C63.2471 36.5125 64.2048 36.5125 64.2048 36.5125ZM81.3426 37.4701C81.645 37.6716 83.6108 38.4278 84.4678 39.335C85.2237 40.1417 84.8206 40.0912 84.6692 39.8896C84.4678 39.6374 82.905 38.579 82.3002 38.3271C81.6954 38.0752 80.9392 37.6213 80.9392 37.5206C80.9392 37.4199 81.3426 37.4701 81.3426 37.4701Z" fill="#010101"/>
<path d="M63.9523 58.3881C65.4141 58.2874 66.9263 58.6403 67.884 59.6482C68.3881 60.1522 69.1946 60.7066 69.0939 61.2106C69.0939 61.3618 68.7912 61.7652 68.5395 62.0676C68.3883 62.269 67.9348 62.7226 67.7833 62.8741C67.5819 63.0253 66.8761 63.5798 66.7249 63.6806C66.5737 63.7815 66.372 64.0337 66.2208 64.0839C65.717 64.3361 65.1624 64.1344 64.6584 63.8825C64.1545 63.6303 64.7593 63.5798 64.2048 63.1767C62.844 62.219 62.0877 61.5635 62.6423 59.6986C62.6925 59.3458 63.2468 58.9424 63.9523 58.3881Z" fill="#4C4C4C"/>
<path opacity="0.4" d="M51.0996 46.8454C46.5632 48.66 35.0203 54.4063 31.7441 56.1705C34.466 57.8842 35.7261 62.0173 36.1294 66.2009C36.1797 66.6042 36.2301 66.9571 36.2806 67.3602C36.3309 67.7131 36.3813 67.965 36.4316 68.1165C36.4316 68.167 36.4316 68.2677 36.482 68.3179C39.456 60.2029 50.0912 51.634 50.4946 50.9787C50.696 50.6763 50.2424 49.3658 50.9482 48.106C51.8556 46.4925 53.62 45.7867 51.0996 46.8454ZM61.8863 84.9011C64.2047 80.2639 64.2552 75.8281 64.2047 70.6364C64.2047 68.4689 65.7672 65.3942 64.961 66.2511C61.9365 69.628 54.3255 75.9793 48.8314 76.332C56.5433 76.0801 59.5675 79.9613 61.8863 84.9011Z" fill="#010101"/>
<path d="M27.3076 60.4546C30.1807 58.3881 45.0502 50.4747 48.629 49.3656C52.2075 48.2063 51.0986 46.8452 51.0986 46.8452C51.0986 46.8452 36.582 53.0954 27.9124 58.4888" fill="#010101"/>
<path opacity="0.4" d="M69.6483 45.8878C68.4889 45.4342 67.5817 46.7953 67.8841 48.1058C68.1868 49.4164 70.9086 50.8779 70.7572 55.6665C70.6565 59.5982 69.7995 61.2109 69.7995 61.2109L67.8841 58.7917C67.8841 58.7917 67.5817 53.3478 66.9265 52.5413C66.2714 51.7348 64.2046 50.2731 63.3981 49.5171C62.5917 48.7608 64.3053 47.7529 64.2046 46.3414C64.1039 44.9806 65.0616 42.2588 65.0616 42.2588L69.6483 45.8878ZM76.6547 67.3601C76.554 71.1403 77.4109 76.7354 77.7636 79.407C78.1164 82.0784 78.57 82.2801 77.7636 83.4899C76.9571 84.6493 75.8987 86.5646 75.8987 86.5646L72.4206 86.262C72.4206 86.262 75.1929 82.7337 75.3439 82.0784C75.4951 81.4234 73.9326 76.4333 73.9326 76.4333L76.6547 67.3601ZM69.9509 32.0769C70.6567 33.6392 71.5134 34.3449 72.8742 34.7988C73.6807 35.1012 76.8561 35.5045 78.1164 34.093C78.6708 33.4377 78.3179 31.6736 78.3179 31.6736L75.4448 33.9921L71.5636 33.2865L71.1101 32.1272L69.9509 32.0769Z" fill="#010101"/>
<path d="M70.2527 35.5547C71.5633 36.4116 74.8397 37.2181 75.7469 37.3693C76.6541 37.5708 78.1158 36.4116 78.8216 36.1092C79.5778 35.7564 80.8884 35.5547 82.4004 36.9157C82.5516 37.0669 82.0475 37.7222 82.0475 37.7222C81.997 37.6717 81.6946 37.6717 81.2913 37.47C80.8882 37.2686 80.5353 37.1172 79.9305 37.1676C77.4101 37.47 77.007 38.327 74.7892 37.8227C72.5714 37.3183 72.0169 36.9155 69.8496 37.0162" fill="#1F1F1F"/>
<path d="M70.2527 35.5547C71.5633 36.4116 74.8397 37.2181 75.7469 37.3693C76.6541 37.5708 78.1158 36.4116 78.8216 36.1092C79.5778 35.7564 80.8884 35.5547 82.4004 36.9157C82.5516 37.0669 82.0475 37.7222 82.0475 37.7222C81.997 37.6717 81.6946 37.6717 81.2913 37.47C80.8882 37.2686 80.5353 37.1172 79.9305 37.1676C77.4101 37.47 77.007 38.327 74.7892 37.8227C72.5714 37.3183 72.0169 36.9155 69.8496 37.0162" stroke="#010101" stroke-width="0.392475" stroke-miterlimit="10" stroke-linejoin="round"/>
<path d="M69.7994 35.7059C71.4629 36.4117 74.6888 37.1677 75.596 37.3694C76.5032 37.5711 77.9649 36.6636 78.6707 36.21C79.931 35.4035 81.5437 36.0588 82.3 36.9158C82.8038 37.4701 83.0057 37.823 83.0057 37.9742C83.0057 38.1756 82.401 37.9742 82.401 37.9742C82.0481 37.823 81.6447 37.7727 81.3426 37.5708C80.9392 37.3694 80.5358 37.067 79.9313 37.1172C77.4109 37.4199 76.9068 38.2766 74.7395 37.7725C72.5723 37.2684 72.0177 36.8148 69.6992 36.9658" fill="#1F1F1F"/>
<path d="M61.9865 82.7839C61.8857 82.6832 62.0872 82.5825 61.9865 82.5825C61.3314 82.5825 60.424 82.0784 59.9197 81.3726C57.7524 78.2477 54.5767 76.1811 48.8306 76.3323C40.2113 76.5337 36.7837 73.0057 36.1287 66.2514C35.7758 62.5719 34.7676 58.9931 32.7011 56.9768L31.4912 57.7331C33.8097 59.7491 34.5659 63.0255 35.07 67.5115C35.8765 74.2657 41.3202 77.3909 47.6713 77.4917C54.2743 77.5924 56.6433 78.9534 59.1129 82.2803C59.9194 83.3387 60.8268 83.6916 61.5324 83.8428L61.9865 82.7839Z" fill="#010101"/>
<path opacity="0.4" d="M85.3744 50.3738C85.5256 51.1298 85.9287 52.5915 86.7352 53.297C87.0883 53.6499 87.1385 53.7506 86.8361 53.7506C86.5335 53.7506 84.3157 53.6499 84.3157 53.6499L83.7109 52.5915L85.3744 50.3738Z" fill="#010101"/>
</svg>
