<svg width="128" height="128" viewBox="0 0 128 128" fill="none" xmlns="http://www.w3.org/2000/svg">
<path d="M98.2229 50.6063V95.2201H86.3066V50.6063H98.2229ZM85.5645 38.9787C85.5645 37.247 86.1692 35.8176 87.3787 34.6905C88.5882 33.5635 90.21 33 92.2441 33C94.2508 33 95.8589 33.5635 97.0684 34.6905C98.3053 35.8176 98.9238 37.247 98.9238 38.9787C98.9238 40.7105 98.3053 42.1399 97.0684 43.2669C95.8589 44.394 94.2508 44.9575 92.2441 44.9575C90.21 44.9575 88.5882 44.394 87.3787 43.2669C86.1692 42.1399 85.5645 40.7105 85.5645 38.9787Z" fill="#1F1F1F"/>
<path d="M57.4813 45.4522L41.1532 95.22H28L50.3069 35.1853H58.6771L57.4813 45.4522ZM71.0469 95.22L54.6775 45.4522L53.3581 35.1853H61.8108L84.2413 95.22H71.0469ZM70.3047 72.8719V82.5616H38.5968V72.8719H70.3047Z" fill="#1F1F1F"/>
</svg>
