<svg width="128" height="128" viewBox="0 0 128 128" fill="none" xmlns="http://www.w3.org/2000/svg">
<path d="M90.775 62.0667C90.775 77.7136 78.4815 90.4098 63.3084 90.4098C48.1353 90.4098 35.8418 77.7136 35.8418 62.0667C35.8418 46.4199 48.1353 33.7236 63.3084 33.7236C78.4815 33.7236 90.775 46.4199 90.775 62.0667Z" fill="black"/>
<path d="M36.971 69.0858C36.971 69.0858 34.9775 39.5357 61.9789 38.6863L60.0961 35.5122L45.4547 40.4745L41.2682 45.325L37.6134 52.3884L35.5312 60.6142L36.1515 66.1129" fill="#575757"/>
<path d="M44.5026 42.7318C39.6959 47.7165 36.7056 54.5787 36.7056 62.1786C36.7056 69.7785 39.6959 76.6407 44.5026 81.6254C49.3314 86.61 55.9544 89.6723 63.3083 89.6723C70.6623 89.6723 77.2853 86.61 82.1141 81.6254C86.9208 76.6407 89.9111 69.7785 89.9111 62.1786C89.9111 54.5787 86.9208 47.7165 82.1141 42.7318C77.2853 37.7696 70.6623 34.6849 63.3083 34.6849C55.9765 34.6849 49.3314 37.7472 44.5026 42.7318ZM43.2843 82.8101C38.1675 77.5348 35 70.2255 35 62.1786C35 54.1317 38.1675 46.8224 43.2843 41.5248C48.4011 36.2496 55.4892 32.9637 63.3083 32.9637C71.1275 32.9637 78.2156 36.2496 83.3324 41.5248C88.4492 46.8 91.6167 54.1093 91.6167 62.1786C91.6167 70.2255 88.4492 77.5348 83.3324 82.8101C78.2156 88.1076 71.1275 91.3711 63.3083 91.3711C55.4892 91.3711 48.4011 88.1076 43.2843 82.8101Z" fill="#797979"/>
<path d="M74.8717 62.2235L70.6852 62.8494L65.0368 63.4976L61.382 63.587L57.8158 63.4753L55.0913 62.6259L52.6769 59.9882L50.7941 54.6013L50.3732 53.4389L47.8702 52.5895L46.4083 50.1531L45.3672 46.6661L46.519 43.6038L49.2435 42.6426L51.4364 43.6932L52.4775 46.0179L53.7401 45.8167L54.1609 45.2802L53.7401 42.8438L53.6293 39.7815L54.2495 35.5568L54.2274 33.1428L56.1323 30.0581L59.4771 27.6217L65.3248 25.0958L71.8149 26.057L77.4633 30.1699L80.077 34.3945L81.7605 37.4568L82.1813 45.0567L80.9187 51.606L78.6151 57.4177L76.4443 60.5247" fill="black"/>
<path d="M71.3264 80.4852L56.3748 81.111V83.6369L57.6374 92.5109L57.0172 93.2485L46.5622 89.6497L45.8312 88.3756L44.7901 76.4393L42.3314 69.2865L41.7998 67.5877L50.1727 61.776L52.7864 60.7255L55.0901 63.5866L57.0836 65.3748L59.3873 66.1124L60.4284 66.4254L61.6909 71.9241L62.6434 73.0865L65.0578 72.2371L63.3744 75.5229L72.4561 79.8593L71.3264 80.4852Z" fill="black"/>
<path d="M46.5185 43.6485L49.243 42.6873L51.4359 43.7379L52.477 46.0626L53.7396 45.8614L54.0497 44.5873L53.4295 42.1509L54.0497 36.3392L53.5181 33.1651L55.4009 30.9522L59.4766 27.6887L58.3247 26.1017L52.5656 28.9628L50.1512 30.8628L48.8 33.8133L46.7179 36.6745L46.0977 40.0497L46.5185 43.6485Z" fill="#575757"/>
<path d="M50.8167 33.7238C50.8167 33.7238 52.3894 29.8121 58.658 27.9121C64.9266 26.0122 58.9681 26.5486 58.9681 26.5486L52.1679 29.1862L49.5542 31.8238L48.4023 33.925L50.8167 33.7238Z" fill="#2E2E2E"/>
<path d="M47.6703 42.9105C47.6703 42.9105 45.4774 35.5118 53.8503 34.4612L53.5402 33.1871L47.7811 34.5506L46.0977 40.0494L46.5185 43.6482L47.6703 42.9105Z" fill="#2E2E2E"/>
<path d="M51.0156 52.7234L52.389 51.3822C52.389 51.3822 53.0092 51.4493 53.1199 52.1869C53.2307 52.9245 53.5408 59.5856 58.0373 63.162C58.4582 63.4973 54.6926 62.6256 54.6926 62.6256L51.3479 57.3503" fill="black"/>
<path d="M70.264 50.7116C70.264 50.7116 70.5077 47.5152 71.3716 47.761C72.2354 48.0069 72.2354 48.8787 72.2354 48.8787C72.2354 48.8787 70.1533 50.2198 70.264 50.7116Z" fill="black"/>
<path d="M78.9469 38.9989C78.9469 38.9989 77.2191 39.3565 77.0641 40.8989C76.909 42.4412 78.9469 41.2118 79.257 41.1" fill="black"/>
<path d="M66.2997 39.1108C66.2997 39.1108 63.9961 39.4238 63.9961 40.899C63.9961 42.3743 66.6099 42.2626 67.3408 41.6367" fill="black"/>
<path d="M52.0785 45.973C52.0785 45.973 48.1136 43.5365 47.6927 45.8612C47.2719 48.1859 46.3415 49.8623 48.3129 52.2987L46.9618 51.874L45.6992 48.6106L45.2783 45.4365L47.6927 42.9106L50.4172 43.1118L51.9899 44.3859L52.0785 45.973Z" fill="black"/>
<path d="M53.9613 39.3121C53.9613 39.3121 55.7334 30.0134 64.7265 28.2252C72.1248 26.7499 76.0232 28.5381 77.4852 30.2369C77.4852 30.2369 70.8843 22.3241 64.6157 24.7382C58.3471 27.1746 53.7398 31.6004 53.8506 34.4392C54.0278 39.3121 53.9613 39.3121 53.9613 39.3121Z" fill="black"/>
<path d="M78.2157 31.2873C78.2157 31.2873 75.1811 31.1755 75.0703 33.9249C75.0703 33.9249 75.0703 34.3496 75.2697 34.7743C75.2697 34.7743 77.6841 32.0249 79.146 33.5002" fill="black"/>
<path d="M64.9477 35.0647C64.9477 35.0647 64.416 30.8625 60.872 33.2989C58.5683 34.8859 58.7898 37.0988 59.1885 37.5235C59.6094 37.9482 59.4986 38.7976 59.8087 38.2165C60.1188 37.6353 60.0302 35.7353 61.1821 35.1989C62.3117 34.6624 64.2167 34.0812 64.9477 35.0647Z" fill="black"/>
<path d="M55.1126 63.5868L45.2777 68.0126C45.2777 68.0126 49.3534 84.3747 47.2713 89.4487L45.8094 88.9123L45.6986 82.6759L42.9741 70.8737L41.8223 67.6102L52.0779 60.6362L55.1126 63.5868Z" fill="#2E2E2E"/>
<path d="M56.1097 72.6399L57.5052 74.361V80.6868H55.8439C55.8439 80.6868 55.6445 76.261 55.6445 75.7246C55.6445 75.1881 55.8439 73.2881 55.8439 73.2881" fill="#2E2E2E"/>
<path d="M56.1536 81.6476L51.4355 81.8488L52.7867 82.8099L56.1315 83.3464" fill="#2E2E2E"/>
<path d="M72.2578 80.5974L76.1341 80.4856L77.0866 90.1866L73.1217 90.7231L72.2578 80.5974Z" fill="black"/>
<path d="M73.2988 80.5972L79.1466 80.2842C79.1466 80.2842 81.561 74.1596 81.561 73.8467C81.561 73.5337 83.6431 64.9727 83.6431 64.9727L78.9251 60.0104L77.9726 59.161L75.4696 61.6869V71.4997L73.2988 80.5972Z" fill="black"/>
<path d="M75.9126 79.8596L72.2578 80.5973L72.7894 83.5478C74.1406 84.1737 76.4443 82.4972 76.4443 82.4972" fill="#2E2E2E"/>
<path d="M76.0234 61.3738L83.3553 66.8725L83.5546 64.3467L78.017 59.1832L76.0234 61.3738Z" fill="#2E2E2E"/>
<path d="M59.7868 101.385L57.6161 92.5111L56.5307 85.9618L56.3535 81.1113L66.1662 80.5748H72.2576L71.7038 91.6617L72.6563 100.223L72.5455 101.81L64.5935 102.436L59.7868 101.385Z" fill="black"/>
<path d="M70.9062 80.4855C70.9062 80.4855 70.3746 91.4606 71.9473 99.284C71.9473 99.284 68.8019 101.296 64.2168 101.81L73.0105 101.497L74.0516 100.871L72.789 83.5702L72.4568 79.8596" fill="#2E2E2E"/>
<path d="M77.2413 89.3598L81.317 88.1974L89.0475 87.7727L90.1994 84.1739L88.1172 77.9376L85.7028 77.6246L82.3581 78.6752L79.1684 80.2622L77.4628 79.9493L76.1338 80.4858" fill="black"/>
<path d="M77.1748 87.2361C77.1748 87.2361 79.8993 85.962 80.3202 86.0737L79.1684 80.262L80.5195 79.7256C80.5195 79.7256 81.472 85.2243 81.472 85.8502C81.472 85.8502 87.3197 86.1631 87.8513 86.1631C87.8513 86.1631 89.1139 83.7267 88.8038 81.2009L89.9556 84.5761L90.0664 86.4761L88.383 89.0019L86.5002 89.4266L83.3548 89.3149L82.3137 87.9513L78.6589 88.4878L77.5071 88.9125" fill="#2E2E2E"/>
<path d="M73.055 79.7476L70.7513 73.8466L68.3369 70.3595C68.3369 70.3595 68.8685 68.8843 69.5995 68.8843H72.0139L74.3175 69.7337L74.1182 73.6454L73.055 79.7476Z" fill="black"/>
<path d="M73.5209 77.7359C73.5209 77.7359 70.597 72.036 70.597 71.1866C70.597 71.1866 71.1286 69.9125 71.8596 70.2255C72.5906 70.5384 74.1633 71.3878 74.1633 71.3878V69.3761L70.597 68.6384L68.1826 68.9514L72.2583 78.6971L73.1 78.8089" fill="#2E2E2E"/>
<path d="M60.717 63.8102L57.8153 63.4972L55.0908 62.6478V63.609L56.4199 65.0843L60.6063 66.9842" fill="black"/>
<path d="M56.0428 64.1233C56.0428 64.1233 59.2768 65.4868 60.34 65.1739L60.4508 66.448L57.5269 65.8221L55.7549 64.548L56.0428 64.1233Z" fill="#2E2E2E"/>
<path d="M77.2425 69.2422C75.4704 69.1975 73.8534 68.9739 72.458 68.5716C72.5466 67.9904 72.3694 67.4316 72.5244 67.0069C72.9231 66.7163 73.5655 66.7163 74.1636 66.6493C73.6541 66.4034 72.9231 66.2916 72.3472 66.4481C72.3251 66.0457 72.1479 65.7999 72.0371 65.4869C73.0339 65.1293 75.3818 62.7823 76.7109 63.5422C77.3532 63.9222 77.619 66.0234 77.6633 67.074C77.7076 67.9234 77.5747 68.7728 77.2425 69.2422Z" fill="black"/>
<path d="M77.2425 69.2422C75.4704 69.1975 73.8534 68.9739 72.458 68.5716C72.5466 67.9904 72.3694 67.4316 72.5244 67.0069C72.9231 66.7163 73.5655 66.7163 74.1636 66.6493C73.6541 66.4034 72.9231 66.2916 72.3472 66.4481C72.3251 66.0457 72.1479 65.7999 72.0371 65.4869C73.0339 65.1293 75.3818 62.7823 76.7109 63.5422C77.3532 63.9222 77.619 66.0234 77.6633 67.074C77.7076 67.9234 77.5747 68.7728 77.2425 69.2422Z" fill="#2E2E2E" stroke="black" stroke-width="0.585708"/>
<path d="M68.7586 66.3137C68.7586 66.4479 68.7586 66.582 68.7365 66.7161C68.1827 67.0737 67.2967 67.0737 66.6765 67.3867C67.5625 67.4314 68.2713 67.6549 68.8915 67.9455C68.8694 68.2808 68.8694 68.6384 68.8472 68.9737C67.8283 69.6666 66.898 70.7172 65.7018 71.3878C65.1259 71.7007 63.1545 72.5054 62.5565 72.3489C62.2242 72.2595 62.1799 71.8348 62.047 71.4325C61.759 70.5831 61.0945 69.1972 61.0281 67.9008C60.9616 66.269 60.7844 63.5197 62.5343 63.855C63.9519 64.1232 65.5911 64.7714 66.6765 65.3749C67.3631 65.7773 67.7397 66.2243 68.7586 66.3137Z" fill="black"/>
<path d="M68.7586 66.3137C68.7586 66.4479 68.7586 66.582 68.7365 66.7161C68.1827 67.0737 67.2967 67.0737 66.6765 67.3867C67.5625 67.4314 68.2713 67.6549 68.8915 67.9455C68.8694 68.2808 68.8694 68.6384 68.8472 68.9737C67.8283 69.6666 66.898 70.7172 65.7018 71.3878C65.1259 71.7007 63.1545 72.5054 62.5565 72.3489C62.2242 72.2595 62.1799 71.8348 62.047 71.4325C61.759 70.5831 61.0945 69.1972 61.0281 67.9008C60.9616 66.269 60.7844 63.5197 62.5343 63.855C63.9519 64.1232 65.5911 64.7714 66.6765 65.3749C67.3631 65.7773 67.7397 66.2243 68.7586 66.3137Z" fill="#2E2E2E" stroke="black" stroke-width="0.585708"/>
<path d="M69.7557 68.2583C69.6007 67.3642 69.4235 67.1183 69.4899 66.336C71.86 64.7489 72.2809 69.063 69.7557 68.2583Z" fill="black"/>
<path d="M69.7557 68.2583C69.6007 67.3642 69.4235 67.1183 69.4899 66.336C71.86 64.7489 72.2809 69.063 69.7557 68.2583Z" fill="#2E2E2E" stroke="black" stroke-width="0.585708"/>
<path d="M73.1663 68.9738C73.1663 68.9738 72.4354 67.9232 72.967 67.6102C73.4986 67.2973 74.0081 67.6102 74.3182 67.0738C74.6283 66.5373 74.3182 66.2244 74.4289 65.5985C74.5397 64.9726 75.0491 64.8609 75.5808 64.7491C76.1124 64.6373 77.5743 64.4362 77.7737 64.9503L77.1534 63.0503L75.8909 62.6256L71.9259 64.9503L71.7266 66.1126V68.4373" fill="#575757"/>
<path d="M62.1784 72.4608C62.0455 70.8067 61.9126 69.1749 61.7797 67.5208C61.5582 65.0621 62.3556 65.4868 64.4821 65.4868C64.8143 65.4868 66.4756 65.8668 66.5864 66.1126C67.1623 67.2973 65.6339 67.0291 67.2509 67.9232C68.6021 68.6608 71.0165 67.4761 70.4627 65.7997C70.1526 65.4197 68.8679 65.6879 68.4027 65.4421C67.5832 65.0174 66.7636 64.5927 65.944 64.168C64.9029 63.6315 62.5107 62.8268 61.4032 63.5868C58.5901 65.5091 61.5804 70.3373 62.5771 72.349" fill="#575757"/>
<path d="M64.948 35.0649C62.0906 34.3943 60.673 36.272 59.8091 38.2166C59.0339 38.0378 59.344 36.9649 59.5433 36.4284C60.0528 35.0202 62.1128 33.1202 63.7962 33.3885C64.505 33.4779 65.4796 34.1485 64.948 35.0649Z" fill="#797979"/>
<path d="M78.8357 38.3284H78.9686C79.611 39.6695 80.1647 41.1001 80.9843 42.3071C80.4305 43.6036 76.8643 44.7212 76.9086 42.4412C77.6839 42.106 79.0129 42.3742 79.6996 41.9271C79.3009 40.8319 78.7471 39.8931 78.8357 38.3284Z" fill="#797979"/>
<path d="M66.387 38.373C67.0072 39.513 67.2066 40.6977 68.0705 41.5471C68.4692 41.9271 69.2223 42.3965 68.8457 43.4694C68.7571 43.7153 68.1148 44.2741 67.7382 44.3859C66.387 44.7882 63.2195 44.4753 64.2827 42.7542C65.4124 42.7989 66.9186 43.4918 67.7604 42.6647C67.118 41.6365 65.9662 39.5801 66.387 38.373Z" fill="#797979"/>
<path d="M78.3275 49.8624C76.2897 51.1812 74.0082 52.6341 70.6413 52.2988C69.9325 51.6729 69.6445 50.2647 70.3533 49.3483C70.7077 49.9741 70.4862 51.1365 71.5052 51.3153C73.4101 51.6506 75.6252 50.1306 76.9985 49.6165C77.8402 48.1636 76.932 47.6495 76.1568 46.7107C74.5841 44.8107 72.5019 42.4413 72.5684 39.6025C73.2108 39.1331 73.2551 40.3178 73.3437 40.519C74.1632 42.4413 76.2232 44.9224 77.7073 46.5765C78.0839 46.9789 78.6819 47.3812 78.7484 47.6495C78.9477 48.4095 78.2389 49.3483 78.3275 49.8624Z" fill="#797979"/>
<path d="M51.3471 48.4765C50.7048 48.0965 50.5497 46.4871 49.7966 46.4424C48.7112 46.3754 48.9106 48.5436 48.9106 49.8177C48.1796 49.1471 48.0467 47.046 48.5783 45.973C47.9581 45.6601 47.6923 46.3083 47.3379 46.5318C47.8031 43.2907 52.0559 45.0342 51.3471 48.4765Z" fill="#797979"/>
<path d="M79.6113 51.2257C78.6588 53.0586 77.3076 55.0704 74.5167 55.1374C74.4502 54.5562 74.4059 53.6398 74.5167 53.2821C76.6653 53.0586 77.9943 51.9633 79.6113 51.2257Z" fill="#797979"/>
<path d="M66.2334 52.4105C68.0054 53.3493 71.2837 53.4611 73.7203 53.394C73.8532 53.9305 73.8532 54.6011 73.8532 55.2493C70.7299 55.3834 67.053 54.6011 66.2334 52.4105Z" fill="#797979"/>
<path d="M65.9009 54.1542C67.1413 57.2835 71.372 56.9259 74.9383 56.8365C74.7832 57.2388 74.451 57.7306 74.0079 57.8871C72.8561 58.3565 69.7108 58.7141 68.1159 57.8647C67.1191 57.3282 66.4546 56.0989 65.9009 55.3836C65.6572 55.0483 64.3282 54.1765 65.9009 54.1542Z" fill="#797979"/>
<path d="M78.1727 71.3878C76.7329 73.8913 75.3374 76.4618 73.6318 78.6524C74.3407 76.5289 74.6508 72.9525 74.7615 70.2254C76.2677 69.5102 77.5525 70.3819 78.1727 71.3878Z" fill="#575757"/>
<path d="M85.947 80.3737C84.33 80.7089 83.2003 82.296 81.6055 82.1842C82.4915 80.9548 83.9977 80.4184 85.947 80.3737Z" fill="#797979"/>
<path d="M86.6559 82.9221C85.3268 83.0562 83.7763 83.2797 82.4473 83.1679C83.0896 82.1844 85.5262 82.5421 86.6559 82.9221Z" fill="#797979"/>
<path d="M87.1201 85.1346C85.636 85.1569 83.7975 85.1346 82.3799 85.0228C83.2216 84.1063 86.1676 84.6875 87.1201 85.1346Z" fill="#797979"/>
<path d="M75.3811 91.1699C75.6026 93.0475 76.3335 94.9474 76.2449 97.0039C75.4254 97.2721 74.9602 97.518 73.8527 97.518C73.7862 95.7745 73.5426 93.0922 73.609 91.4157C74.1406 91.4604 74.9381 91.0357 75.3811 91.1699Z" fill="#2E2E2E"/>
<path d="M72.9883 63.4528C72.2352 63.9445 71.6149 64.548 70.884 65.0845C69.2891 65.1739 68.4253 64.9727 67.2734 64.0563C67.2956 63.9892 67.4063 64.0116 67.4063 63.9222C69.1119 64.6822 71.2827 63.6092 72.9883 63.4528Z" fill="black"/>
<path d="M64.084 75.1431C64.5491 73.109 66.3876 72.0361 68.0489 70.9185C69.7545 73.109 70.7956 75.9254 71.9474 78.6525C69.2229 77.8254 66.4541 76.5066 64.084 75.1431Z" fill="#575757"/>
<path d="M73.6078 91.4382C73.5413 93.1146 73.7628 95.7746 73.8514 97.5405C74.959 97.5405 75.4241 97.2946 76.2437 97.0264C76.3323 94.9699 75.6013 93.0699 75.3798 91.1923C74.9368 91.0359 74.1394 91.4605 73.6078 91.4382ZM56.5076 81.9607C57.2386 88.6888 58.2796 94.3217 60.2067 100.29C64.4818 101.609 69.6207 101.72 73.4084 100.536C72.7218 97.1828 73.0097 93.0923 72.611 89.4935C72.3009 86.7889 72.456 84.0842 72.0351 81.3348C67.4499 80.3737 60.982 81.1113 56.5076 81.9607ZM73.1205 81.3795C73.0762 84.263 73.2534 87.1241 73.4749 90.0076C74.5824 89.8512 75.3134 89.7394 76.3323 89.4935C76 86.7218 76.0443 83.5701 75.3577 81.1113C74.5824 81.1336 73.8957 81.1113 73.1205 81.3795ZM78.6802 80.9101C78.1486 80.7984 77.5506 80.9101 77.0633 80.9101C77.3069 83.2571 77.8607 85.85 78.06 88.3312C78.8353 88.3535 79.2562 87.9735 79.8985 87.8618C79.9428 85.6936 79.7213 82.6983 78.6802 80.9101ZM87.1196 88.6888C88.7587 88.2865 89.7776 86.2747 89.3125 84.1959C89.0024 82.8101 88.4708 80.1725 87.8727 79.2784C87.4518 78.6302 86.2779 77.7584 85.3254 78.3619C83.797 79.3454 81.1168 79.636 80.0093 80.8207C80.563 82.6983 80.7402 85.2465 80.9617 87.6159C82.8667 87.7277 85.1925 87.0794 86.7873 87.7724C85.6798 88.13 84.2622 88.13 83.3097 88.6665C84.1071 89.0465 85.9235 88.9794 87.1196 88.6888ZM71.9243 78.6525C70.7725 75.9255 69.7314 73.1091 68.0259 70.9185C66.3646 72.0361 64.5482 73.1091 64.0609 75.1431C66.4532 76.5067 69.222 77.8255 71.9243 78.6525ZM74.7596 70.2256C74.6489 72.9526 74.3387 76.529 73.6299 78.6525C75.3355 76.4396 76.731 73.8914 78.1708 71.3879C77.5506 70.382 76.2658 69.5103 74.7596 70.2256ZM71.5478 69.0856C70.9054 69.0185 70.3517 69.8456 69.5099 69.4879C69.3106 69.7115 69.1334 69.935 68.934 70.1585C70.7947 72.4385 71.6585 75.6573 73.0983 78.3172C73.8736 75.7467 73.785 72.9526 73.9622 70.1585C72.899 70.2032 72.3009 69.1526 71.5478 69.0856ZM69.4878 66.3362C69.4213 67.1186 69.5985 67.3644 69.7536 68.2585C72.2787 69.0632 71.8579 64.7492 69.4878 66.3362ZM66.6747 65.3974C65.5893 64.7939 63.9502 64.1457 62.5325 63.8774C60.7826 63.5421 60.9598 66.2915 61.0263 67.9233C61.0928 69.2197 61.7573 70.5832 62.0452 71.455C62.1781 71.8573 62.2224 72.282 62.5547 72.3714C63.1527 72.5055 65.1463 71.7232 65.7001 71.4103C66.8962 70.762 67.8265 69.7115 68.8454 68.9962C68.8676 68.6609 68.8676 68.3032 68.8897 67.968C68.2695 67.655 67.5828 67.4538 66.6747 67.4091C67.2727 67.0962 68.1809 67.0962 68.7347 66.7386C68.7347 66.6045 68.7347 66.4703 68.7568 66.3362C67.7379 66.2245 67.3613 65.7774 66.6747 65.3974ZM56.2639 63.4974C55.3558 64.4362 58.8113 65.688 59.8966 65.7551C59.8966 65.1739 60.2289 64.6151 60.1624 64.1904C58.8556 63.9668 57.15 64.1233 56.2639 63.4974ZM67.4278 63.9221C67.4278 64.0115 67.317 63.9892 67.2949 64.0563C68.4689 64.9727 69.3327 65.1739 70.9054 65.0845C71.6142 64.5704 72.2566 63.9445 73.0097 63.4527C71.282 63.6092 69.1112 64.6821 67.4278 63.9221ZM77.6613 67.0515C77.617 66.0233 77.3512 63.8998 76.7089 63.5198C75.3798 62.7374 73.0319 65.1068 72.0351 65.4645C72.1458 65.7774 72.3231 66.0233 72.3452 66.4256C72.9433 66.2692 73.6521 66.3809 74.1615 66.6268C73.5635 66.6939 72.9211 66.6939 72.5224 66.9844C72.3895 67.4091 72.5667 67.968 72.456 68.5491C73.8514 68.9515 75.4684 69.1526 77.2405 69.2197C77.5727 68.7727 77.7056 67.9233 77.6613 67.0515ZM54.7356 64.3915C54.4476 64.1904 52.5205 61.6645 52.2547 61.7763C48.7771 63.1621 45.521 65.5539 42.6192 67.8338C45.388 73.8467 46.5177 81.2007 46.7171 88.2865C49.8846 89.7841 52.6756 91.9523 56.9949 92.1758C56.4854 88.6218 56.0424 85.4253 55.7545 82.0725C54.6691 81.603 53.1186 82.0948 52.0996 81.9383C52.0996 80.7089 53.6502 81.4019 53.7831 80.5748C53.8717 79.949 52.9192 79.9043 53.2293 78.9207C54.0267 79.2113 54.4476 79.8595 55.2893 80.1054C56.0646 78.4066 55.2893 75.389 55.4001 73.9585C55.4222 73.6902 55.533 72.4832 56.131 72.6844C56.6627 72.8632 56.1089 75.9255 56.1532 77.2666C56.1975 78.5184 55.9981 79.7031 56.5076 80.4854C60.6719 79.9043 64.9026 79.5466 69.4213 79.4125C68.4246 78.9878 67.2506 78.5854 65.9659 77.8478C65.257 77.4455 63.0641 76.6184 62.8648 75.9478C62.5325 74.8749 63.7065 74.3161 63.9059 73.3996C61.8016 74.562 61.4029 72.282 60.8934 70.695C60.4504 69.2421 60.1846 68.1468 60.0738 67.3197C58.2353 66.3809 56.2861 65.5092 54.7356 64.3915ZM75.8228 62.0669C78.7245 60.6587 79.2562 67.3644 78.1043 69.5326C78.2815 70.1809 78.8796 70.4267 79.1233 71.0079C77.5063 73.9361 75.7121 76.6631 74.0508 79.5466C75.2691 78.7643 77.0411 79.4125 78.4809 78.8313C79.0125 78.6301 79.3891 77.4008 79.7878 76.4172C80.8953 73.7349 82.0471 70.3373 82.5566 67.7891C82.6673 67.208 82.9996 65.9339 82.911 65.4198C82.7781 64.481 81.5377 63.788 80.8953 63.2292C79.7213 62.1563 78.9904 61.2398 77.7499 60.234C77.2848 60.9716 76.2215 61.4633 75.8228 62.0669ZM48.1126 36.1155C46.7392 37.6578 47.0272 40.519 47.1822 42.5754C49.6852 40.9884 52.9857 42.7095 52.9635 45.3918C54.1596 45.3695 53.4065 43.8942 53.185 42.933C52.4762 39.826 54.3812 36.4731 53.2736 33.6344C51.125 33.8132 49.3751 34.6849 48.1126 36.1155ZM57.9917 27.1968C54.8685 28.0909 50.8592 30.3932 49.5745 33.232C50.5713 33.0755 51.2579 32.5838 52.2326 32.5167C52.6091 32.4944 53.0964 32.6732 53.5173 32.5614C54.359 32.3379 55.09 30.4156 55.7323 29.7003C56.3525 29.0074 57.1057 28.6944 57.6151 28.0686C57.9474 27.9121 58.4347 27.9121 58.4568 27.4203C58.3239 27.2639 58.1689 27.1521 57.9917 27.1968ZM74.2723 28.0462C71.0162 26.1909 65.5229 24.8051 62.0674 26.5486C59.2764 27.9568 55.5108 30.2815 54.2261 33.2097C55.4222 36.0484 53.8717 38.6413 53.7609 41.5248C53.7166 43.0672 54.4698 44.386 54.5362 46.0624C54.1153 46.7553 52.8749 46.8224 52.011 46.7777C51.7231 45.3024 51.2136 43.6483 49.7074 43.4695C47.5809 43.2236 46.0083 45.0118 45.9197 46.8671C45.8089 49.0576 47.5809 52.6788 50.1061 52.4329C51.0807 52.3435 51.3244 51.36 52.3876 51.36C52.9635 52.5223 51.5016 52.8799 51.3465 53.707C51.3022 53.9305 51.4573 54.7576 51.568 55.1599C52.0332 57.0599 53.0521 59.541 54.0489 60.9939C55.3336 62.8492 57.8366 63.1174 60.539 63.2963C61.0263 62.2457 62.7983 62.3351 63.9502 62.6033C62.5547 62.0445 61.27 60.7034 60.2067 59.5187C58.9885 58.1552 57.748 56.7022 57.6816 54.914C60.0074 58.1552 61.9123 60.9939 66.1209 62.4245C69.3106 63.4974 73.0319 61.9328 75.4906 60.1893C76.5095 59.474 77.1076 58.3116 77.8385 57.2834C80.5409 53.3494 81.8035 47.7612 81.5377 42.3295C81.4269 40.0943 81.4269 37.859 80.6738 36.3614C79.8985 34.7967 77.2626 33.3661 75.7121 34.7967C75.4241 33.2544 76.9968 32.3155 78.8353 32.8744C77.5284 31.1532 76.1551 29.1191 74.2723 28.0462ZM80.3415 78.5854C82.8888 77.3113 87.629 75.1655 89.2017 78.5854C89.7998 79.8595 90.4865 81.983 90.7744 83.3018C91.1953 85.1348 90.3093 89.0241 88.4265 89.6276C86.7652 90.1641 84.8381 90.1417 82.8445 89.7394C82.6009 89.5382 82.3572 89.2029 82.1579 88.8453C80.7402 88.8006 79.3891 88.9124 78.2815 89.5159C78.3923 90.5888 77.6835 90.7453 76.9968 90.9688C76.5095 92.9582 77.9936 95.5511 77.6392 97.3393C77.3955 98.6357 75.8228 98.8369 74.671 99.0604C74.6267 99.7757 74.7153 100.379 74.8039 100.983C74.5381 101.966 73.3641 102.525 72.2345 102.659C68.5353 103.106 62.9312 103.307 59.3872 102.011C58.3904 99.5522 57.6151 96.5793 56.7956 93.7852C53.3401 94.1652 50.527 92.2876 47.8911 91.0359C46.9829 90.6112 45.7203 90.3653 45.3659 89.6276C45.0336 88.9124 45.1665 87.5488 45.0779 86.2747C44.8786 82.9889 44.6792 79.8148 43.8375 76.4619C43.461 74.942 42.7743 73.6232 42.3091 72.1702C41.8661 70.8291 41.113 69.1526 40.9136 67.8115C40.6257 65.8221 42.4863 65.7103 43.6603 64.8386C45.4988 63.4974 46.9386 62.7598 48.9321 61.5528C49.5302 61.1951 51.3022 60.301 51.5016 59.8763C51.9003 59.0493 50.8149 57.8869 50.527 57.2387C50.0618 56.2105 49.8181 55.3387 49.7517 54.3329C48.0904 54.0646 46.8057 53.0588 46.0526 51.9411C44.79 50.0635 43.904 46.5989 45.0115 43.9836C45.1001 43.7824 45.521 43.3577 45.5874 43.0448C45.7203 42.4189 45.3437 41.5919 45.3216 40.9213C45.2108 37.5014 45.8975 34.5508 48.179 33.5226C49.1093 29.7897 52.4319 28.5603 55.5551 26.705C56.7291 26.0121 58.0138 25.5651 59.3429 25.0733C64.1052 23.3074 71.437 23.6427 75.402 26.6603C77.0854 27.9344 79.7656 30.6391 80.7181 32.6061C83.2654 37.7696 83.066 46.42 81.294 52.7235C81.0504 53.5729 80.7181 54.8023 80.2308 55.8305C79.8985 56.5458 78.8574 57.954 78.9682 58.5799C79.1011 59.2281 81.3605 60.9492 81.8478 61.4186C82.7116 62.268 84.3729 63.3857 84.5058 64.4586C84.6609 65.5986 84.0185 67.1633 83.6863 68.2585C82.623 71.9244 81.5598 75.2996 80.3415 78.5854Z" fill="#797979"/>
<path d="M63.3956 53.1928C63.5285 53.0139 64.2816 52.7234 65.3448 53.2375C65.3448 53.2375 64.0823 53.4386 64.193 55.5621L63.6614 55.4504C63.6835 55.4727 63.1298 53.5504 63.3956 53.1928Z" fill="black"/>
<path d="M72.5678 71.3431C72.5678 71.6561 72.302 71.9243 71.9919 71.9243C71.6818 71.9243 71.416 71.6561 71.416 71.3431C71.416 71.0302 71.6818 70.762 71.9919 70.762C72.3242 70.762 72.5678 71.0302 72.5678 71.3431Z" fill="#797979"/>
<path d="M73.143 74.0477C73.143 74.3607 72.8772 74.6289 72.5671 74.6289C72.257 74.6289 71.9912 74.3607 71.9912 74.0477C71.9912 73.7348 72.257 73.4666 72.5671 73.4666C72.8994 73.4666 73.143 73.7124 73.143 74.0477Z" fill="#797979"/>
</svg>
