<svg width="128" height="128" viewBox="0 0 128 128" fill="none" xmlns="http://www.w3.org/2000/svg">
<path fill-rule="evenodd" clip-rule="evenodd" d="M82.5251 47.6711C83.762 51.2493 84.6529 54.9022 84.9457 58.6885C85.3095 63.3856 85.143 68.0496 84.1527 72.6697C84.1257 72.7969 84.0687 72.9164 84.0263 73.0397C83.7158 73.0404 83.399 73.0019 83.0954 73.0489C80.5299 73.452 77.9666 73.8697 75.4034 74.285C72.7539 74.7143 70.1005 75.1266 67.4556 75.5851C66.5185 75.747 65.3587 75.5535 64.9803 76.8498C64.9695 76.8852 64.8616 76.8914 64.7992 76.9114L64.9271 69.1656L64.7969 50.4756L66.0315 50.2636C68.0506 49.933 70.0697 49.5978 72.0904 49.2764C74.5018 48.8934 76.9155 48.5212 79.3284 48.1474C80.3927 47.9817 81.4585 47.8299 82.5251 47.6711Z" fill="#1F1F1F"/>
<path fill-rule="evenodd" clip-rule="evenodd" d="M62.2499 99.4918C60.9475 98.3721 59.5996 97.3016 58.3512 96.124C51.6334 89.7877 46.7196 82.33 44.2998 73.3388C43.6332 70.8642 43.1885 68.3495 43.0459 65.7925C42.9457 64.003 42.8008 62.1974 42.9272 60.4172C43.264 55.6822 43.9484 50.9928 45.3371 46.432L45.4134 46.3257C45.5482 46.5052 45.7424 46.664 45.811 46.8667C47.1666 50.8587 48.5122 54.8538 49.8508 58.8512C54.0571 71.4129 58.2579 83.9777 62.4711 96.5363C62.5536 96.7814 62.767 96.9826 62.9204 97.2037L62.2499 99.4918Z" fill="#1F1F1F"/>
<path fill-rule="evenodd" clip-rule="evenodd" d="M82.5253 47.6712C81.4587 47.8299 80.3921 47.9817 79.3278 48.1459C76.9149 48.5196 74.5012 48.8919 72.0898 49.2749C70.0692 49.5963 68.05 49.9315 66.0309 50.2621L64.7963 50.474L64.7871 49.6687C64.7462 49.0067 64.6761 48.3455 64.6684 47.6835C64.6152 43.4618 64.5821 39.2402 64.5297 35.0185C64.4973 32.3759 64.4488 29.7341 64.3948 27.0923C64.3617 25.4508 64.3262 23.8085 64.2522 22.1693C64.2122 21.2885 64.0704 20.4122 64.0126 19.5314C63.9802 19.025 64.0249 18.5149 64.0349 18.0062C64.6645 19.2262 65.2803 20.4554 65.9276 21.6661C66.9503 23.5804 68.5795 24.9907 70.046 26.5297C75.8437 32.6117 79.9598 39.6833 82.5253 47.6712Z" fill="#1F1F1F"/>
<path fill-rule="evenodd" clip-rule="evenodd" d="M64.7988 76.9107C64.8612 76.8906 64.9699 76.8845 64.9799 76.849C65.3583 75.5528 66.5181 75.7462 67.4553 75.5844C70.1002 75.1266 72.7535 74.7135 75.4031 74.2843C77.9663 73.8689 80.5295 73.4512 83.095 73.0481C83.3986 73.0004 83.7154 73.0397 84.0259 73.0389C83.5466 74.7497 83.169 76.4976 82.5609 78.1615C81.8704 80.0488 81.035 81.8907 80.148 83.6963C78.8201 86.3895 77.1765 88.9152 75.252 91.2202C73.7731 92.9989 72.1247 94.6427 70.4724 96.2665C69.5592 97.1643 68.4825 97.8957 67.4807 98.7026L67.221 98.5253L66.2854 97.7254L65.3175 95.6038C64.6563 93.1288 64.2956 90.5832 64.2432 88.022L64.2609 87.5897L64.3927 85.7201C64.4366 85.082 64.4952 84.4446 64.5221 83.805C64.6216 81.5069 64.7079 79.2088 64.7988 76.9107Z" fill="#1F1F1F"/>
<path fill-rule="evenodd" clip-rule="evenodd" d="M64.7981 76.9107C64.7072 79.2088 64.6209 81.5069 64.523 83.8058C64.496 84.4454 64.4374 85.0828 64.3935 85.7209L63.804 85.9436C62.4946 82.0888 61.1845 78.2748 59.9029 74.4508C57.7836 68.1245 55.6897 61.7881 53.5735 55.4602C51.8642 50.3527 50.1431 45.2491 48.4101 40.1496C48.3291 39.9107 48.0964 39.7242 47.9346 39.513L51.7077 32.5756C51.8372 32.8006 52.0083 33.011 52.09 33.253C53.8375 38.418 55.5761 43.586 57.3058 48.7571C59.553 55.4849 61.7864 62.2181 64.0321 68.9468C64.1215 69.2157 64.2694 69.4639 64.4105 69.7652L64.9268 69.1641L64.7981 76.9107Z" fill="#1F1F1F"/>
<path fill-rule="evenodd" clip-rule="evenodd" d="M47.9357 39.5138C48.0975 39.725 48.3295 39.9115 48.4112 40.1504C50.1442 45.2499 51.8653 50.3535 53.5746 55.461C55.6908 61.7889 57.7847 68.1252 59.904 74.4516C61.1848 78.2748 62.4949 82.0895 63.805 85.9444L64.3946 85.7217L64.2628 87.5913L64.1434 88.0221C63.9384 90.0689 63.7657 92.1204 63.516 94.1627C63.3904 95.1861 63.1238 96.191 62.9211 97.2045C62.7685 96.9833 62.5543 96.7821 62.4718 96.5371C58.2586 83.9777 54.0578 71.4136 49.8515 58.8519C48.5133 54.8542 47.1667 50.8594 45.8117 46.8674C45.7431 46.6647 45.5497 46.506 45.4141 46.3264L47.9357 39.5138Z" fill="#1F1F1F"/>
<path fill-rule="evenodd" clip-rule="evenodd" d="M64.9261 69.1648L64.4098 69.7659C64.2688 69.4646 64.1208 69.2157 64.0314 68.9475C61.7865 62.2189 59.5523 55.4856 57.3051 48.7578C55.5754 43.5868 53.8368 38.4187 52.0893 33.2537C52.0084 33.0117 51.8373 32.8005 51.707 32.5763L56.3734 26.438C56.5206 26.6345 56.7302 26.8094 56.8065 27.0306C58.1019 30.823 59.3859 34.6201 60.6621 38.4194C61.8543 41.9675 63.0288 45.521 64.2348 49.0645C64.3158 49.3019 64.597 49.4699 64.7851 49.6702L64.7943 50.4756C64.839 56.704 64.883 62.9348 64.9261 69.1648Z" fill="#1F1F1F"/>
<path fill-rule="evenodd" clip-rule="evenodd" d="M64.7867 49.6687C64.5987 49.4684 64.3174 49.3004 64.2365 49.063C63.0304 45.5195 61.8559 41.966 60.6637 38.4179C59.3875 34.6186 58.1036 30.8223 56.8081 27.0291C56.7318 26.808 56.5222 26.633 56.375 26.4365C57.8924 24.9507 59.3628 23.4117 60.9411 21.9944C62.3445 20.7352 63.4728 19.385 63.5244 17.3951C63.5267 17.3127 63.5699 17.2302 63.6361 16.999L64.0361 18.0055C64.0261 18.5149 63.9806 19.0243 64.0138 19.5306C64.0716 20.4115 64.2134 21.2877 64.2534 22.1686C64.3274 23.8078 64.3629 25.4501 64.396 27.0916C64.4492 29.7334 64.4977 32.3752 64.5309 35.0178C64.5825 39.2394 64.6164 43.4611 64.6696 47.6828C64.6758 48.3463 64.7451 49.0067 64.7867 49.6687Z" fill="#1F1F1F"/>
<path fill-rule="evenodd" clip-rule="evenodd" d="M62.9195 97.2036C63.1222 96.1902 63.3888 95.1845 63.5144 94.1619C63.7649 92.1204 63.9368 90.0681 64.1418 88.0213L64.1926 88.0135L64.2435 88.022C64.2959 90.5832 64.6566 93.1288 65.3178 95.6038C65.1821 95.7825 64.9903 95.9421 64.9186 96.144C64.3583 97.7238 63.8304 99.316 63.2671 100.896C63.19 101.112 62.9758 101.28 62.8247 101.469L62.249 99.4917L62.9195 97.2036Z" fill="#1F1F1F"/>
<path fill-rule="evenodd" clip-rule="evenodd" d="M62.8252 101.47C62.9762 101.281 63.1913 101.113 63.2676 100.897C63.8309 99.3169 64.3596 97.7255 64.9191 96.1448C64.9907 95.9429 65.1819 95.7834 65.3183 95.6046L66.2854 97.727C66.0943 97.9983 65.8308 98.2426 65.7244 98.5447L63.8717 103.985C63.7955 104.203 63.535 104.357 63.3608 104.541L62.8252 101.47Z" fill="#1F1F1F"/>
<path fill-rule="evenodd" clip-rule="evenodd" d="M63.3613 104.54C63.5363 104.357 63.796 104.202 63.8723 103.984L65.7249 98.5439C65.8305 98.2425 66.0949 97.9975 66.286 97.7262L67.2223 98.5254C66.7699 98.9724 66.5187 99.4887 66.6698 100.141L66.3854 101.072C66.2559 101.232 66.0686 101.371 66.0047 101.553C65.3581 103.405 64.7408 105.267 64.0896 107.119C64.0071 107.354 63.7783 107.538 63.6164 107.745C63.5324 106.676 63.4469 105.609 63.3613 104.54Z" fill="#1F1F1F"/>
<path fill-rule="evenodd" clip-rule="evenodd" d="M63.6166 107.745C63.7777 107.537 64.0066 107.353 64.0898 107.119C64.741 105.268 65.3583 103.406 66.0049 101.553C66.0689 101.371 66.2554 101.232 66.3856 101.072L65.9933 105.346C65.8885 105.467 65.7367 105.572 65.6866 105.713C65.2435 106.957 64.8258 108.21 64.3811 109.454C64.2894 109.711 64.1137 109.937 63.9765 110.177C63.8548 110.017 63.6367 109.863 63.6267 109.697C63.5874 109.049 63.6143 108.396 63.6166 107.745Z" fill="#1F1F1F"/>
<path fill-rule="evenodd" clip-rule="evenodd" d="M63.9766 110.177C64.1137 109.937 64.2895 109.71 64.3812 109.454C64.8266 108.211 65.2435 106.958 65.6867 105.713C65.7367 105.572 65.8893 105.467 65.9934 105.346L66.0026 108.151L65.064 110.558L63.9766 110.177Z" fill="#1F1F1F"/>
<path fill-rule="evenodd" clip-rule="evenodd" d="M65.0635 110.559L66.0021 108.152L66.1956 111L65.0635 110.559Z" fill="#1F1F1F"/>
<path fill-rule="evenodd" clip-rule="evenodd" d="M66.669 100.142C66.518 99.4894 66.7685 98.9723 67.2216 98.5261L67.4813 98.7034L66.669 100.142Z" fill="#1F1F1F"/>
<path fill-rule="evenodd" clip-rule="evenodd" d="M64.2433 88.0229L64.1925 88.0144L64.1416 88.0221L64.2611 87.5913L64.2433 88.0229Z" fill="#1F1F1F"/>
</svg>
