<svg width="128" height="128" viewBox="0 0 128 128" fill="none" xmlns="http://www.w3.org/2000/svg">
<path d="M63.9997 71.1023C67.9222 71.1023 71.102 67.9226 71.102 64.0001C71.102 60.0776 67.9222 56.8978 63.9997 56.8978C60.0772 56.8978 56.8975 60.0776 56.8975 64.0001C56.8975 67.9226 60.0772 71.1023 63.9997 71.1023Z" fill="#1F1F1F"/>
<path d="M79.5127 28.8743C81.0504 28.8743 82.4111 29.1952 83.6465 29.9094H83.6475C85.7316 31.0818 87.1258 33.1727 87.833 35.9856C88.5392 38.795 88.5661 42.3434 87.9082 46.4788L87.9072 46.4827C87.6722 47.8338 87.3795 49.2396 87.0342 50.6497C88.0656 50.9571 89.0669 51.2902 90.0361 51.6321L91.0791 52.0051L91.084 52.0071C95.0001 53.5109 98.0465 55.3055 100.118 57.3215C102.193 59.3406 103.3 61.5945 103.3 64.0002C103.3 66.4059 102.193 68.6599 100.118 70.679C98.0475 72.6941 95.0024 74.4861 91.0889 75.9895C89.7874 76.5219 88.4333 76.9415 87.0352 77.3518C87.2884 78.3858 87.5141 79.4173 87.708 80.427L87.9072 81.5178L87.9082 81.5217L88.0234 82.2844C88.56 86.065 88.4951 89.3343 87.833 91.968C87.17 94.6052 85.9033 96.6197 84.0322 97.8528L83.6504 98.0891C82.4141 98.8048 81.0519 99.1262 79.5127 99.1262C77.2616 99.1262 74.7332 98.2917 72.0762 96.7903C69.4817 95.3242 66.7474 93.2106 64.001 90.5813C61.2843 93.2104 58.5652 95.3242 55.9707 96.7903C53.3129 98.2922 50.769 99.1262 48.4873 99.1262C46.9491 99.1262 45.5882 98.8048 44.3525 98.0901C42.2687 96.9177 40.8741 94.8276 40.167 92.0149C39.4607 89.2055 39.4339 85.6572 40.0918 81.5217L40.0928 81.5178C40.3278 80.1666 40.6185 78.7599 40.9639 77.3499C39.5591 76.9311 38.2107 76.4631 36.9219 75.9944L36.916 75.9924C33.0312 74.4886 29.9853 72.6945 27.9062 70.679C25.8245 68.6608 24.7003 66.4072 24.7002 64.0002C24.7002 61.5944 25.8081 59.3406 27.8828 57.3215C29.9544 55.3055 33 53.5109 36.916 52.0071C38.2156 51.4758 39.5679 51.0574 40.9639 50.6477C40.6188 49.2384 40.3276 47.8331 40.0928 46.4827L40.0918 46.4788C39.4338 42.3739 39.4607 38.8408 40.167 36.0315C40.8742 33.2189 42.2681 31.1149 44.3496 29.9114C45.586 29.1956 46.948 28.8743 48.4873 28.8743C50.7385 28.8743 53.2668 29.7087 55.9238 31.2102C58.5185 32.6764 61.2533 34.7896 64 37.4192C66.7467 34.7896 69.4815 32.6764 72.0762 31.2102C74.7332 29.7087 77.2615 28.8743 79.5127 28.8743ZM44.9688 78.3098C44.6286 79.6363 44.3464 80.9017 44.1738 82.1096L44.1729 82.1155C43.6466 85.366 43.6046 88.1165 44.001 90.2278C44.3736 92.2127 45.1243 93.59 46.1807 94.3186L46.3965 94.4553L46.3984 94.4573C46.9678 94.7989 47.6606 94.9748 48.4248 94.9749C50.2472 94.9749 52.3101 94.2262 54.5068 92.8928C56.6352 91.6009 58.8652 89.7721 61.0928 87.5959C58.9971 85.2466 56.9031 82.6655 54.8652 79.7981C51.3974 79.4942 48.0986 79.0157 44.9688 78.3098ZM83.0293 78.3069C79.9051 78.9585 76.6069 79.4923 73.1348 79.7981C71.0998 82.6629 69.0053 85.2984 66.9082 87.5969C69.1654 89.8019 71.4102 91.6305 73.5391 92.9153C75.7359 94.2411 77.7834 94.9748 79.5752 94.9749C80.3394 94.9749 81.0321 94.7989 81.6016 94.4573L81.6045 94.4553C82.7742 93.7705 83.6026 92.3449 84 90.2278C84.396 88.1182 84.3532 85.3704 83.8281 82.1233C83.5944 80.8964 83.3615 79.6284 83.0293 78.3069ZM67.6709 80.2112C66.4507 80.2631 65.2258 80.3108 64 80.3108C62.7739 80.3108 61.5487 80.2631 60.3281 80.2112C61.5073 81.742 62.7319 83.2206 64 84.6106C65.268 83.2208 66.4918 81.7418 67.6709 80.2112ZM64.0625 51.8401C61.7489 51.8401 59.4983 51.9002 57.251 52.0774C55.912 54.0286 54.6387 55.9744 53.5459 57.9172L53.5439 57.9202C52.389 59.9261 51.293 61.9912 50.3154 63.9993C51.2932 66.0078 52.3887 68.0739 53.5439 70.0803L53.5459 70.0833L53.9707 70.8274C54.9524 72.5254 56.0247 74.2241 57.1885 75.9231C59.3758 76.1001 61.6262 76.1604 64 76.1604C66.3133 76.1604 68.5635 76.0993 70.8105 75.9221C71.9788 74.2197 73.0979 72.5222 74.0898 70.8264L74.5166 70.0833C75.6717 68.0162 76.7078 66.0079 77.7441 63.9963C76.767 61.9894 75.6728 59.925 74.5186 57.9202L74.5166 57.9172C73.4218 55.9709 72.2072 54.024 70.873 52.0764C68.6861 51.8995 66.436 51.8401 64.0625 51.8401ZM79.9141 68.8665C79.3309 69.9391 78.733 71.0592 78.0957 72.175C77.5089 73.2953 76.8316 74.3706 76.1855 75.3899C78.1941 75.113 80.1072 74.7863 81.9268 74.3713C81.3318 72.5494 80.6883 70.7281 79.9141 68.8665ZM48.0869 68.804C47.3142 70.6701 46.6694 72.5297 46.0742 74.3088C47.8982 74.7248 49.8161 75.053 51.8301 75.3303C51.1941 74.2813 50.5527 73.2402 49.9121 72.0667L49.3594 71.1174C48.9217 70.3463 48.5009 69.5646 48.0869 68.804ZM42.0615 54.7102C40.7913 55.0646 39.5312 55.4702 38.3818 55.9299L38.374 55.9329C35.2795 57.0778 32.869 58.4175 31.2383 59.8196C29.6026 61.226 28.7891 62.6616 28.7891 64.0002C28.7892 65.5942 29.9778 67.3226 32.3223 68.9885C34.6016 70.608 37.9116 72.1209 42.0586 73.3469C42.9798 70.3414 44.2366 67.2268 45.666 64.0618C44.2345 60.8874 43.0338 57.7151 42.0615 54.7102ZM85.9404 54.6526C85.0192 57.6582 83.7625 60.7726 82.333 63.9377C83.7645 67.1122 84.9652 70.2844 85.9375 73.2893C87.2083 72.9348 88.4693 72.5295 89.6191 72.0696L89.625 72.0676C92.6886 70.9227 95.0993 69.5825 96.7383 68.1799C98.383 66.7723 99.2109 65.3373 99.2109 64.0002C99.2109 62.4062 98.0225 60.677 95.6777 59.011C93.3982 57.3913 90.088 55.8787 85.9404 54.6526ZM78.0879 55.8713C78.7322 56.9453 79.3298 58.0642 79.918 59.1838C80.6887 57.3213 81.3317 55.4653 81.9258 53.6897C80.1009 53.2736 78.1819 52.9456 76.167 52.6682L78.0879 55.8713ZM51.8135 52.6086C49.8049 52.8856 47.8918 53.2132 46.0723 53.6282C46.6671 55.4498 47.311 57.2708 48.085 59.1321C48.6695 58.0569 49.2691 56.9341 49.9082 55.8157C50.4941 54.6982 51.169 53.6255 51.8135 52.6086ZM48.4248 33.0256C47.6606 33.0257 46.9678 33.2016 46.3984 33.5432L46.3965 33.5452C45.2267 34.2299 44.3984 35.6555 44.001 37.7727C43.605 39.8823 43.6468 42.63 44.1719 45.8772L44.5605 47.8821C44.6818 48.4749 44.8152 49.0779 44.9697 49.6926C48.0939 49.041 51.3922 48.5072 54.8643 48.2014C56.8994 45.3364 58.9936 42.7002 61.0908 40.4016C58.8341 38.1972 56.5894 36.3687 54.4609 35.0842C52.2642 33.7586 50.2165 33.0256 48.4248 33.0256ZM79.5752 33.0256C77.7528 33.0256 75.69 33.7742 73.4932 35.1077C71.3648 36.3996 69.1348 38.2275 66.9072 40.4036C69.0029 42.7529 71.0968 45.334 73.1348 48.2014C76.6025 48.5053 79.9015 48.9829 83.0312 49.6887C83.3712 48.3629 83.6537 47.0983 83.8262 45.8909L83.8271 45.885C84.3534 42.6345 84.3963 39.884 84 37.7727C83.6026 35.6557 82.7741 34.23 81.6045 33.5452L81.6016 33.5432C81.0321 33.2015 80.3394 33.0256 79.5752 33.0256ZM64 43.3879C62.7319 44.7778 61.5074 46.2566 60.3281 47.7874C61.5486 47.7355 62.7739 47.6887 64 47.6887C65.2257 47.6887 66.4507 47.7355 67.6709 47.7874C66.4918 46.2568 65.268 44.7777 64 43.3879Z" fill="#1F1F1F" stroke="#1F1F1F" stroke-width="0.6"/>
</svg>
