<svg width="128" height="128" viewBox="0 0 128 128" fill="none" xmlns="http://www.w3.org/2000/svg">
<path d="M101.529 55.9921C101.529 50.9361 95.1975 46.1446 85.4898 43.1732C87.7301 33.2789 86.7345 25.407 82.3471 22.8868C81.3358 22.2956 80.1538 22.0155 78.8625 22.0155V25.4848C79.578 25.4848 80.1538 25.6248 80.6359 25.8893C82.7517 27.1027 83.6697 31.7232 82.9538 37.666C82.783 39.1284 82.5029 40.6685 82.1606 42.2398C79.1112 41.493 75.7821 40.9174 72.2818 40.5441C70.1817 37.666 68.0037 35.0524 65.81 32.7655C70.8816 28.0517 75.6422 25.4692 78.8781 25.4692V22C74.5997 22 68.9993 25.0492 63.3366 30.3386C57.6736 25.0803 52.0732 22.0622 47.7951 22.0622V25.5315C51.0153 25.5315 55.7913 28.0984 60.8629 32.7811C58.6849 35.068 56.5068 37.666 54.4377 40.5441C50.9218 40.9174 47.5926 41.493 44.5435 42.2553C44.1856 40.6996 43.9212 39.1906 43.7344 37.7438C43.0035 31.801 43.9055 27.1805 46.006 25.9515C46.4725 25.6715 47.0792 25.547 47.7951 25.547V22.0778C46.4881 22.0778 45.3057 22.3578 44.2792 22.949C39.9075 25.4692 38.9275 33.3256 41.1831 43.1888C31.5067 46.1757 25.2061 50.9518 25.2061 55.9921C25.2061 61.0484 31.5378 65.84 41.2454 68.8112C39.0051 78.7057 40.0007 86.5773 44.388 89.0976C45.3993 89.6887 46.5814 89.9687 47.8883 89.9687C52.1665 89.9687 57.7672 86.9196 63.4298 81.6302C69.0925 86.8887 74.6932 89.9068 78.9714 89.9068C80.278 89.9068 81.4604 89.6268 82.4873 89.0354C86.8586 86.5151 87.8389 78.6587 85.583 68.7959C95.2284 65.8243 101.529 61.0328 101.529 55.9921ZM81.2739 45.6156C80.6982 47.6227 79.9826 49.6914 79.1735 51.7606C78.5358 50.5163 77.8669 49.2716 77.1356 48.0269C76.4201 46.7824 75.6575 45.569 74.8953 44.3867C77.1043 44.7133 79.2357 45.1178 81.2739 45.6156ZM74.1485 62.1839C72.9351 64.2843 71.6907 66.2755 70.3994 68.1269C68.0812 68.329 65.7324 68.4379 63.3676 68.4379C61.0184 68.4379 58.6692 68.329 56.367 68.1422C55.0757 66.2908 53.8154 64.3153 52.602 62.2305C51.4196 60.1926 50.3464 58.1235 49.3661 56.0391C50.3307 53.9543 51.4196 51.8695 52.5867 49.8316C53.8001 47.7315 55.0444 45.7401 56.3357 43.8888C58.6539 43.6866 61.0027 43.5777 63.3676 43.5777C65.7167 43.5777 68.0659 43.6866 70.3681 43.8733C71.6594 45.7246 72.9198 47.7002 74.1331 49.785C75.3156 51.8229 76.3887 53.892 77.3691 55.9768C76.3887 58.0612 75.3156 60.146 74.1485 62.1839ZM79.1735 60.1617C79.9901 62.1891 80.7067 64.2554 81.3205 66.3531C79.2823 66.8509 77.1356 67.2711 74.911 67.5978C75.6732 66.4001 76.4354 65.171 77.1513 63.9107C77.8669 62.6664 78.5358 61.406 79.1735 60.1617ZM63.3985 76.7611C61.9517 75.2673 60.5049 73.6027 59.0738 71.7827C60.474 71.845 61.9051 71.8916 63.3519 71.8916C64.8144 71.8916 66.2612 71.8606 67.677 71.7827C66.3416 73.518 64.9134 75.1799 63.3985 76.7611ZM51.8241 67.5978C49.6152 67.2711 47.4837 66.8666 45.4459 66.3688C46.0213 64.3619 46.7372 62.2927 47.546 60.2236C48.184 61.4683 48.853 62.713 49.5839 63.9573C50.3151 65.202 51.062 66.4154 51.8241 67.5978ZM63.321 35.2235C64.7678 36.717 66.2146 38.3816 67.6457 40.2018C66.2455 40.1396 64.8144 40.0929 63.3676 40.0929C61.9051 40.0929 60.4583 40.124 59.0428 40.2018C60.3781 38.4665 61.8062 36.8046 63.321 35.2235ZM51.8085 44.3867C51.0463 45.5845 50.2841 46.8135 49.5685 48.0735C48.853 49.3182 48.184 50.5629 47.546 51.8072C46.7293 49.7798 46.0129 47.7135 45.3993 45.6156C47.4371 45.1334 49.5839 44.7133 51.8085 44.3867ZM37.7294 63.8641C32.2223 61.5149 28.6597 58.4349 28.6597 55.9921C28.6597 53.5497 32.2223 50.454 37.7294 48.1205C39.0673 47.5447 40.5298 47.0313 42.0389 46.5491C42.9256 49.5982 44.0924 52.7719 45.5392 56.0234C44.108 59.2593 42.9566 62.4173 42.0855 65.4511C40.5455 64.9686 39.083 64.4398 37.7294 63.8641ZM46.0992 86.0952C43.9835 84.8818 43.0654 80.2614 43.7814 74.3183C43.9525 72.8562 44.2322 71.3158 44.5745 69.7445C47.6239 70.4914 50.9531 71.0671 54.4534 71.4404C56.5535 74.3183 58.7315 76.9319 60.9252 79.2188C55.8535 83.9328 51.0929 86.515 47.857 86.515C47.1571 86.4997 46.5661 86.3596 46.0992 86.0952ZM83.0007 74.2407C83.7316 80.1834 82.8296 84.8039 80.7291 86.0329C80.2626 86.3129 79.656 86.4375 78.94 86.4375C75.7198 86.4375 70.9439 83.8705 65.8722 79.1878C68.0503 76.9009 70.2283 74.303 72.2974 71.4247C75.8134 71.0515 79.1425 70.4757 82.1916 69.7135C82.5496 71.2849 82.8296 72.794 83.0007 74.2407ZM88.9901 63.8641C87.6521 64.4398 86.1897 64.9533 84.6806 65.4354C83.7939 62.3863 82.6271 59.2127 81.1803 55.9611C82.6118 52.7252 83.7629 49.5673 84.634 46.5335C86.1744 47.0158 87.6365 47.5447 89.0057 48.1205C94.5129 50.4693 98.0754 53.5497 98.0754 55.9921C98.0598 58.4349 94.4972 61.5306 88.9901 63.8641Z" fill="#1F1F1F"/>
<path d="M63.3515 63.1018C67.2783 63.1018 70.4613 59.9188 70.4613 55.992C70.4613 52.0656 67.2783 48.8826 63.3515 48.8826C59.4251 48.8826 56.2421 52.0656 56.2421 55.992C56.2421 59.9188 59.4251 63.1018 63.3515 63.1018ZM28.6713 102.21H26.3244V106.252H25V96.2602H28.3076C29.433 96.2602 30.2977 96.5166 30.9016 97.029C31.51 97.5411 31.8143 98.2869 31.8143 99.2658C31.8143 99.8882 31.645 100.43 31.3065 100.892C30.9725 101.354 30.5059 101.7 29.9066 101.928L32.2535 106.169V106.252H30.8398L28.6713 102.21ZM26.3244 101.133H28.3488C29.003 101.133 29.5223 100.963 29.9066 100.625C30.2954 100.286 30.4898 99.8332 30.4898 99.2658C30.4898 98.6484 30.3046 98.1749 29.934 97.8455C29.568 97.5161 29.0373 97.3491 28.3419 97.3446H26.3244V101.133ZM36.5494 106.389C35.5428 106.389 34.7239 106.06 34.0926 105.401C33.4612 104.738 33.1456 103.852 33.1456 102.745V102.512C33.1456 101.775 33.2851 101.119 33.5641 100.543C33.8478 99.9612 34.2412 99.5083 34.7445 99.1838C35.2523 98.8543 35.8013 98.6894 36.3914 98.6894C37.3568 98.6894 38.1072 99.0074 38.6422 99.6433C39.1776 100.279 39.4451 101.19 39.4451 102.374V102.903H34.4151C34.4334 103.635 34.6461 104.228 35.0533 104.68C35.465 105.129 35.9866 105.353 36.6179 105.353C37.0663 105.353 37.4459 105.261 37.7569 105.078C38.0682 104.895 38.3403 104.653 38.5737 104.351L39.3491 104.955C38.7267 105.911 37.7937 106.389 36.5494 106.389ZM36.3914 99.7327C35.8791 99.7327 35.449 99.9202 35.1013 100.295C34.7536 100.666 34.5386 101.187 34.4563 101.86H38.1757V101.764C38.1392 101.119 37.9652 100.62 37.6542 100.268C37.3429 99.9112 36.922 99.7327 36.3914 99.7327ZM45.5047 106.252C45.4313 106.105 45.3718 105.845 45.3262 105.469C44.7359 106.082 44.0314 106.389 43.2125 106.389C42.4806 106.389 41.8792 106.183 41.4078 105.771C40.9413 105.355 40.7079 104.829 40.7079 104.193C40.7079 103.42 41.0008 102.821 41.5862 102.395C42.1762 101.965 43.0045 101.75 44.0704 101.75H45.3057V101.167C45.3057 100.723 45.1728 100.371 44.9077 100.11C44.6423 99.8447 44.2509 99.7122 43.734 99.7122C43.2811 99.7122 42.9015 99.8263 42.5951 100.055C42.2886 100.284 42.1352 100.561 42.1352 100.886H40.8588C40.8588 100.515 40.9893 100.158 41.2498 99.8148C41.5153 99.4673 41.8722 99.1928 42.3206 98.9914C42.7735 98.7903 43.2696 98.6894 43.8095 98.6894C44.6653 98.6894 45.3353 98.9044 45.8202 99.3347C46.3051 99.7602 46.5566 100.348 46.5751 101.098V104.516C46.5751 105.197 46.662 105.739 46.836 106.142V106.252H45.5047ZM43.398 105.284C43.7959 105.284 44.1734 105.181 44.5303 104.975C44.8868 104.77 45.1453 104.502 45.3057 104.173V102.649H44.3104C42.7551 102.649 41.9772 103.104 41.9772 104.015C41.9772 104.413 42.1101 104.724 42.3752 104.948C42.6406 105.172 42.9816 105.284 43.398 105.284ZM51.5434 105.353C51.9963 105.353 52.3922 105.215 52.7307 104.941C53.0691 104.667 53.2566 104.324 53.2932 103.912H54.4944C54.4714 104.337 54.325 104.742 54.055 105.126C53.7851 105.511 53.4236 105.817 52.9707 106.046C52.5223 106.275 52.0467 106.389 51.5434 106.389C50.5325 106.389 49.7271 106.053 49.1278 105.38C48.5332 104.703 48.2358 103.779 48.2358 102.608V102.395C48.2358 101.672 48.3683 101.03 48.6338 100.467C48.8992 99.9042 49.2787 99.4673 49.7731 99.1563C50.2716 98.8449 50.8595 98.6894 51.5364 98.6894C52.3692 98.6894 53.0601 98.9389 53.609 99.4377C54.1625 99.9362 54.4575 100.584 54.4944 101.38H53.2932C53.2566 100.899 53.0737 100.506 52.7442 100.199C52.4197 99.8882 52.0168 99.7327 51.5364 99.7327C50.8915 99.7327 50.3905 99.9658 50.0336 100.433C49.6816 100.895 49.5052 101.565 49.5052 102.443V102.683C49.5052 103.539 49.6816 104.198 50.0336 104.66C50.386 105.122 50.8894 105.353 51.5434 105.353ZM57.644 97.029V98.8268H59.0303V99.8082H57.644V104.413C57.644 104.71 57.7059 104.934 57.8294 105.085C57.9529 105.231 58.1634 105.305 58.4608 105.305C58.6069 105.305 58.8083 105.277 59.0644 105.222V106.252C58.7304 106.343 58.4058 106.389 58.09 106.389C57.5229 106.389 57.0951 106.217 56.8067 105.874C56.5186 105.531 56.3746 105.044 56.3746 104.413V99.8082H55.0224V98.8268H56.3746V97.029H57.644ZM71.8834 106.252H70.5587L65.5289 98.5524V106.252H64.2045V96.2602H65.5289L70.5727 103.994V96.2602H71.8834V106.252ZM78.6085 106.252C78.5351 106.105 78.4756 105.845 78.43 105.469C77.8397 106.082 77.1352 106.389 76.3164 106.389C75.5844 106.389 74.9826 106.183 74.5116 105.771C74.0451 105.355 73.8117 104.829 73.8117 104.193C73.8117 103.42 74.1042 102.821 74.6901 102.395C75.28 101.965 76.1083 101.75 77.1742 101.75H78.4095V101.167C78.4095 100.723 78.2766 100.371 78.0112 100.11C77.7461 99.8447 77.3548 99.7122 76.8378 99.7122C76.3849 99.7122 76.0054 99.8263 75.6989 100.055C75.3924 100.284 75.239 100.561 75.239 100.886H73.9627C73.9627 100.515 74.0931 100.158 74.3537 99.8148C74.6191 99.4673 74.976 99.1928 75.4244 98.9914C75.8773 98.7903 76.3734 98.6894 76.9133 98.6894C77.7687 98.6894 78.4391 98.9044 78.924 99.3347C79.4089 99.7602 79.6604 100.348 79.6789 101.098V104.516C79.6789 105.197 79.7659 105.739 79.9398 106.142V106.252H78.6085ZM76.5018 105.284C76.8997 105.284 77.2772 105.181 77.6341 104.975C77.9907 104.77 78.2491 104.502 78.4095 104.173V102.649H77.4142C75.8589 102.649 75.0811 103.104 75.0811 104.015C75.0811 104.413 75.214 104.724 75.479 104.948C75.7445 105.172 76.0854 105.284 76.5018 105.284ZM83.3914 97.029V98.8268H84.7776V99.8082H83.3914V104.413C83.3914 104.71 83.4533 104.934 83.5768 105.085C83.7003 105.231 83.9107 105.305 84.2082 105.305C84.3543 105.305 84.5557 105.277 84.8121 105.222V106.252C84.4778 106.343 84.1532 106.389 83.8373 106.389C83.2703 106.389 82.8424 106.217 82.554 105.874C82.266 105.531 82.122 105.044 82.122 104.413V99.8082H80.7702V98.8268H82.122V97.029H83.3914ZM87.6462 106.252H86.3765V98.8268H87.6462V106.252ZM86.2735 96.8572C86.2735 96.6516 86.3354 96.4777 86.4589 96.3357C86.5869 96.1938 86.7744 96.1232 87.0214 96.1232C87.2687 96.1232 87.4562 96.1938 87.5843 96.3357C87.7123 96.4777 87.7763 96.6516 87.7763 96.8572C87.7763 97.0631 87.7123 97.2346 87.5843 97.372C87.4562 97.5091 87.2687 97.578 87.0214 97.578C86.7744 97.578 86.5869 97.5091 86.4589 97.372C86.3354 97.2346 86.2735 97.0631 86.2735 96.8572ZM92.1341 104.529L93.9729 98.8268H95.2701L92.6075 106.252H91.6398L88.95 98.8268H90.2469L92.1341 104.529ZM99.4766 106.389C98.4702 106.389 97.6513 106.06 97.0199 105.401C96.3885 104.738 96.073 103.852 96.073 102.745V102.512C96.073 101.775 96.2125 101.119 96.4915 100.543C96.775 99.9612 97.1685 99.5083 97.6719 99.1838C98.1797 98.8543 98.7287 98.6894 99.3187 98.6894C100.284 98.6894 101.034 99.0074 101.57 99.6433C102.105 100.279 102.373 101.19 102.373 102.374V102.903H97.3424C97.3608 103.635 97.5734 104.228 97.9808 104.68C98.3923 105.129 98.9141 105.353 99.5451 105.353C99.9936 105.353 100.373 105.261 100.684 105.078C100.995 104.895 101.268 104.653 101.501 104.351L102.277 104.955C101.654 105.911 100.721 106.389 99.4766 106.389ZM99.3187 99.7327C98.8066 99.7327 98.3763 99.9202 98.0288 100.295C97.6809 100.666 97.4659 101.187 97.3838 101.86H101.103V101.764C101.066 101.119 100.892 100.62 100.581 100.268C100.27 99.9112 99.8495 99.7327 99.3187 99.7327Z" fill="#1F1F1F"/>
</svg>
