<svg width="128" height="128" viewBox="0 0 128 128" fill="none" xmlns="http://www.w3.org/2000/svg">
<path d="M30.0938 27.7773C30.2032 27.7756 30.3128 27.79 30.418 27.8203L104.451 49.1348C104.638 49.1885 104.807 49.291 104.941 49.4307C105.076 49.5704 105.171 49.7435 105.218 49.9316C105.264 50.1198 105.26 50.3167 105.206 50.5029C105.166 50.6426 105.099 50.7729 105.009 50.8857L104.911 50.9932L49.3486 104.438C49.2088 104.573 49.036 104.668 48.8477 104.715C48.6593 104.761 48.4618 104.757 48.2754 104.703C48.0891 104.649 47.9205 104.547 47.7861 104.407C47.6518 104.267 47.5561 104.095 47.5098 103.906L29.041 29.1465C29.0013 28.9855 28.9982 28.8176 29.0322 28.6553C29.0663 28.4929 29.1372 28.3405 29.2383 28.209C29.3393 28.0776 29.4682 27.9701 29.6162 27.8955C29.7644 27.8209 29.9279 27.7803 30.0938 27.7773ZM49.1963 101.518L101.999 50.7275L31.6436 30.4717L49.1963 101.518Z" fill="#1F1F1F" stroke="#1F1F1F" stroke-width="0.5"/>
<path d="M67.1396 38.437C67.3826 38.442 67.6178 38.5264 67.8076 38.6782C67.9973 38.83 68.1322 39.04 68.1904 39.2759L77.4141 76.6675C77.4604 76.8557 77.4562 77.0536 77.4023 77.2397C77.3484 77.4257 77.247 77.5948 77.1074 77.729C76.9677 77.8633 76.7946 77.9579 76.6064 78.0044C76.4184 78.0509 76.2213 78.0473 76.0352 77.9937L39.043 67.3325C38.8567 67.2789 38.6882 67.1762 38.5537 67.0366C38.4192 66.897 38.3231 66.7248 38.2764 66.5366C38.2297 66.3484 38.2334 66.1507 38.2871 65.9644C38.3408 65.7782 38.4426 65.6095 38.582 65.4751L66.3506 38.7446C66.4554 38.6438 66.5793 38.5641 66.7148 38.5112C66.8498 38.4586 66.9939 38.4341 67.1387 38.437H67.1396ZM41.4941 65.7388L74.8105 75.3413L66.5029 41.6646L41.4941 65.7388Z" fill="#1F1F1F" stroke="#1F1F1F" stroke-width="0.5"/>
<path d="M53.334 51.6653C53.4434 51.6635 53.553 51.678 53.6582 51.7083L72.0391 56.9836C72.2254 57.0372 72.3947 57.139 72.5293 57.2786C72.664 57.4182 72.7589 57.5913 72.8057 57.7795C72.8524 57.9676 72.8494 58.1646 72.7959 58.3508C72.7423 58.5371 72.6405 58.7065 72.501 58.8411L58.7041 72.1389C58.5644 72.2735 58.3914 72.3686 58.2031 72.4153C58.0147 72.462 57.8173 72.4584 57.6309 72.4045C57.4444 72.3507 57.2751 72.2486 57.1406 72.1086C57.0063 71.9687 56.9106 71.796 56.8643 71.6077L52.2812 53.0344C52.2416 52.8734 52.2384 52.7055 52.2725 52.5432C52.3066 52.3809 52.3774 52.2284 52.4785 52.0969C52.5796 51.9655 52.7084 51.8581 52.8564 51.7834C53.0046 51.7088 53.1681 51.6683 53.334 51.6653ZM58.5498 69.2161L69.5889 58.5774L54.8818 54.3567L58.5498 69.2161Z" fill="#1F1F1F" stroke="#1F1F1F" stroke-width="0.5"/>
<path d="M57.9883 70.2538C58.2091 70.2642 58.4227 70.3407 58.6006 70.4745C58.8038 70.6275 58.9479 70.8466 59.0088 71.0936L63.5938 89.6659C63.64 89.8539 63.6358 90.0512 63.582 90.2372C63.5283 90.423 63.4264 90.5912 63.2871 90.7255C63.1477 90.8597 62.975 90.9551 62.7871 91.0018C62.5994 91.0485 62.4028 91.0453 62.2168 90.9921L43.835 85.7167C43.6485 85.6631 43.4794 85.5613 43.3447 85.4218C43.2102 85.2822 43.1142 85.1098 43.0674 84.9218C43.0206 84.7336 43.0246 84.5359 43.0781 84.3495C43.1317 84.1631 43.2334 83.9939 43.373 83.8593L57.1699 70.5624V70.5614C57.3652 70.3735 57.6228 70.2642 57.8936 70.2538H57.9883ZM46.2852 84.1219L60.9902 88.3417L57.3232 73.4823L46.2852 84.1219ZM85.5498 43.7001C85.7923 43.7049 86.0273 43.789 86.2178 43.9413C86.4077 44.0932 86.5424 44.3038 86.6006 44.5399L91.1816 63.1122C91.2281 63.3003 91.2236 63.4973 91.1699 63.6835C91.1162 63.8696 91.0145 64.0383 90.875 64.1727C90.7354 64.3072 90.5631 64.4034 90.375 64.4501C90.187 64.4967 89.9899 64.4928 89.8037 64.4393L71.4248 59.1639C71.2384 59.1105 71.0693 59.0086 70.9346 58.869C70.7997 58.7293 70.7041 58.5565 70.6572 58.368C70.6104 58.1797 70.6143 57.9823 70.668 57.7958C70.7217 57.6092 70.824 57.4401 70.9639 57.3055L84.7607 44.0096C84.8654 43.9087 84.9897 43.8293 85.125 43.7762C85.2602 43.7233 85.4046 43.6972 85.5498 43.7001ZM73.876 57.5692L88.5781 61.7889L84.9131 46.9305L73.876 57.5692ZM48.791 33.1132C49.0335 33.1182 49.2686 33.2019 49.459 33.3544C49.6486 33.5064 49.7828 33.717 49.8408 33.953L54.4229 52.5253C54.4693 52.7133 54.4648 52.9104 54.4111 53.0966C54.3574 53.2828 54.2558 53.4523 54.1162 53.5868C53.9767 53.7211 53.8042 53.8165 53.6162 53.8632C53.4282 53.9098 53.2311 53.9059 53.0449 53.8524L34.667 48.576C34.4806 48.5225 34.3114 48.4207 34.1768 48.2811C34.0422 48.1416 33.9462 47.9692 33.8994 47.7811C33.8526 47.5929 33.8566 47.3953 33.9102 47.2089C33.9638 47.0224 34.0654 46.8533 34.2051 46.7186L48.001 33.4218C48.1057 33.3207 48.2297 33.2414 48.3652 33.1884C48.5007 33.1353 48.6456 33.1102 48.791 33.1132ZM37.1172 46.9803L51.8193 51.202L48.1543 36.3427L37.1172 46.9803Z" fill="#1F1F1F" stroke="#1F1F1F" stroke-width="0.5"/>
</svg>
