<svg width="547" height="113" viewBox="0 0 547 113" fill="none" xmlns="http://www.w3.org/2000/svg">
<path d="M90.9618 74.0875C90.9618 48.8426 63.9074 18.2997 51.1015 2.42249C49.7988 0.807582 47.64 0 45.4809 0C43.3221 0 41.163 0.807582 39.8603 2.42249C27.0544 18.2997 0 48.8423 0 74.0875C0 99.3326 18.6002 112.075 45.4809 112.075C72.3616 112.075 90.9618 99.3324 90.9618 74.0875Z" fill="#A00505"/>
<path d="M67.4612 58.9009H52.9124V45.8665C52.9124 44.7536 51.9055 43.8516 50.6633 43.8516H40.2968C39.0548 43.8516 38.0477 44.7536 38.0477 45.8665V58.9009H23.4988C22.2569 58.9009 21.25 59.803 21.25 60.9159V70.2032C21.25 71.3161 22.2569 72.2182 23.4988 72.2182H38.0477V85.2525C38.0477 86.3654 39.0546 87.2675 40.2968 87.2675H50.6633C51.9052 87.2675 52.9124 86.3654 52.9124 85.2525V72.2182H67.4612C68.7031 72.2182 69.7103 71.3161 69.7103 70.2032V60.9159C69.7103 59.803 68.7034 58.9009 67.4612 58.9009Z" fill="white"/>
<path d="M169.515 61.3732C169.515 65.784 169.002 69.379 167.975 72.1584C167.008 74.8774 165.467 76.9619 163.352 78.4121C161.298 79.8622 158.67 80.8591 155.467 81.4029C152.265 81.8863 148.428 82.128 143.957 82.128C141.238 82.128 138.64 82.128 136.163 82.128C133.686 82.128 131.359 82.0978 129.184 82.0374C127.009 82.0374 124.955 82.0374 123.021 82.0374C121.148 82.0374 119.396 82.0374 117.764 82.0374V46.3282C117.764 44.2135 118.187 42.703 119.033 41.7966C119.879 40.8903 121.45 40.4069 123.746 40.3465C125.317 40.3465 127.009 40.3465 128.822 40.3465C130.695 40.2861 132.568 40.2559 134.441 40.2559C136.374 40.2559 138.278 40.2559 140.151 40.2559C142.084 40.2559 143.867 40.2559 145.498 40.2559C149.788 40.3163 153.443 40.6486 156.464 41.2528C159.485 41.7966 161.963 42.8238 163.896 44.3343C165.83 45.7845 167.25 47.8992 168.156 50.6786C169.062 53.3976 169.515 56.9624 169.515 61.3732ZM132.628 74.5149C133.232 74.5149 133.927 74.5149 134.713 74.5149C135.559 74.5149 136.435 74.5451 137.341 74.6055C138.308 74.6055 139.244 74.6055 140.151 74.6055C141.057 74.6055 141.842 74.6055 142.507 74.6055C144.622 74.6055 146.434 74.4242 147.945 74.0617C149.456 73.6992 150.664 73.0345 151.57 72.0678C152.477 71.1011 153.141 69.7416 153.564 67.9894C153.987 66.2371 154.199 64.0317 154.199 61.3732C154.199 57.5666 153.806 54.6966 153.02 52.7631C152.295 50.8296 151.057 49.5306 149.304 48.8659C147.613 48.1409 145.226 47.7784 142.145 47.7784C141.419 47.7784 140.483 47.7784 139.335 47.7784C138.247 47.7784 137.16 47.8086 136.072 47.869C134.985 47.869 134.048 47.8992 133.263 47.9596C133.081 48.2617 132.93 48.6243 132.809 49.0472C132.689 49.4702 132.628 50.0744 132.628 50.8599V74.5149ZM196.37 82.5811C192.925 82.5811 189.874 82.3395 187.216 81.8561C184.557 81.3727 182.322 80.4664 180.509 79.1371C178.757 77.8078 177.427 75.9348 176.521 73.5179C175.615 71.0406 175.162 67.8685 175.162 64.0015C175.162 60.1346 175.615 56.9926 176.521 54.5758C177.427 52.0985 178.757 50.1952 180.509 48.8659C182.322 47.5367 184.557 46.6304 187.216 46.147C189.874 45.6636 192.925 45.4219 196.37 45.4219C199.874 45.4219 202.925 45.6636 205.523 46.147C208.121 46.6304 210.297 47.5367 212.049 48.8659C213.801 50.1952 215.13 52.0985 216.037 54.5758C216.943 56.9926 217.396 60.1346 217.396 64.0015C217.396 67.8685 216.943 71.0406 216.037 73.5179C215.13 75.9952 213.771 77.8985 211.958 79.2278C210.206 80.4966 208.031 81.3727 205.433 81.8561C202.835 82.3395 199.814 82.5811 196.37 82.5811ZM196.37 75.965C198.061 75.965 199.421 75.6629 200.448 75.0587C201.536 74.394 202.351 73.2158 202.895 71.524C203.439 69.7718 203.711 67.2643 203.711 64.0015C203.711 60.7388 203.439 58.2615 202.895 56.5697C202.351 54.8175 201.536 53.6392 200.448 53.035C199.421 52.3704 198.061 52.0381 196.37 52.0381C194.799 52.0381 193.439 52.3704 192.291 53.035C191.143 53.6392 190.267 54.8175 189.663 56.5697C189.119 58.2615 188.847 60.7388 188.847 64.0015C188.847 67.2643 189.119 69.7718 189.663 71.524C190.267 73.2158 191.143 74.394 192.291 75.0587C193.439 75.6629 194.799 75.965 196.37 75.965ZM227.844 82.0374C225.548 82.0374 224.4 80.8591 224.4 78.5027V48.0503C226.212 47.446 228.931 46.9023 232.557 46.4189C236.182 45.8751 240.17 45.6032 244.52 45.6032C249.172 45.6032 252.828 45.8751 255.487 46.4189C258.205 46.9023 260.199 47.7784 261.468 49.0472C262.798 50.2556 263.643 51.887 264.006 53.9414C264.429 55.9957 264.64 58.5636 264.64 61.6451V76.9619C264.64 78.2912 264.55 79.3486 264.368 80.1341C264.187 80.8591 263.704 81.3727 262.918 81.6748C262.193 81.9769 261.045 82.128 259.474 82.128L251.227 82.0374V58.473C251.227 56.4791 250.623 55.0592 249.414 54.2133C248.206 53.3674 246.574 52.9444 244.52 52.9444C243.795 52.9444 243.009 53.035 242.164 53.2163C241.318 53.3371 240.502 53.5184 239.717 53.7601C238.991 53.9414 238.387 54.2133 237.904 54.5758V82.0374H227.844ZM291.046 82.4905C286.816 82.4905 283.402 82.3395 280.804 82.0374C278.206 81.7957 276.182 81.2821 274.732 80.4966C273.342 79.7111 272.405 78.5933 271.922 77.1432C271.439 75.6931 271.197 73.82 271.197 71.524C271.197 68.4425 271.499 66.1163 272.103 64.5453C272.708 62.9139 273.765 61.7962 275.276 61.1919C276.786 60.5877 278.81 60.2856 281.348 60.2856C282.858 60.2856 284.58 60.3158 286.514 60.3762C288.508 60.3762 290.441 60.4065 292.314 60.4669C294.248 60.5273 295.909 60.6481 297.299 60.8294C298.749 60.9502 299.746 61.0711 300.29 61.1919C300.29 59.3189 300.109 57.8385 299.746 56.751C299.444 55.6634 298.931 54.8477 298.205 54.3039C297.48 53.6997 296.514 53.3069 295.305 53.1257C294.097 52.9444 292.616 52.8538 290.864 52.8538C288.749 52.8538 286.635 52.884 284.52 52.9444C282.466 53.0048 280.442 53.1257 278.448 53.3069C276.514 53.4882 274.732 53.6997 273.1 53.9414V51.4037C273.1 49.7723 273.463 48.5638 274.188 47.7784C274.913 46.9929 275.91 46.4793 277.179 46.2376C278.568 45.9355 280.623 45.724 283.342 45.6032C286.121 45.4823 289.112 45.4219 292.314 45.4219C296.363 45.4219 299.746 45.6334 302.465 46.0563C305.245 46.4793 307.42 47.2346 308.991 48.3222C310.562 49.4097 311.679 51.0411 312.344 53.2163C313.009 55.331 313.341 58.1709 313.341 61.7357V79.7715C312.374 80.6779 309.957 81.3727 306.09 81.8561C302.284 82.279 297.269 82.4905 291.046 82.4905ZM290.955 76.8713C292.647 76.8713 294.067 76.8411 295.215 76.7807C296.423 76.6598 297.45 76.5088 298.296 76.3275C299.142 76.1463 299.807 75.9348 300.29 75.6931V65.5423C299.625 65.361 298.689 65.21 297.48 65.0891C296.332 64.9683 295.154 64.8776 293.946 64.8172C292.737 64.7568 291.801 64.7266 291.136 64.7266C289.686 64.7266 288.508 64.8474 287.601 65.0891C286.695 65.3308 286.031 65.8746 285.608 66.7205C285.245 67.5664 285.064 68.8655 285.064 70.6177C285.064 72.1282 285.215 73.3669 285.517 74.3336C285.819 75.2399 286.393 75.9046 287.239 76.3275C288.085 76.6901 289.324 76.8713 290.955 76.8713ZM334.928 82.3999C331.665 82.3999 329.097 82.0676 327.224 81.4029C325.411 80.6779 324.143 79.5299 323.418 77.9589C322.692 76.3275 322.33 74.0919 322.33 71.2521V52.9444H318.433V45.8751H322.33V41.2528C322.33 39.7423 322.421 38.6245 322.602 37.8994C322.844 37.1744 323.297 36.7212 323.961 36.54C324.626 36.3587 325.683 36.2681 327.133 36.2681H335.834C335.834 36.5098 335.834 36.8119 335.834 37.1744C335.834 37.5369 335.834 37.9901 335.834 38.5339V45.8751H344.625V52.9444H335.925V70.1645C335.925 72.5814 336.136 74.3336 336.559 75.4212C337.043 76.5088 338.281 77.0526 340.275 77.0526C340.819 77.0526 341.514 76.9922 342.36 76.8713C343.266 76.7505 343.9 76.6296 344.263 76.5088V81.4936C343.84 81.554 342.783 81.7352 341.091 82.0374C339.459 82.279 337.405 82.3999 334.928 82.3999ZM370.199 82.5811C365.97 82.5811 362.496 82.3395 359.777 81.8561C357.058 81.3123 354.913 80.406 353.342 79.1371C351.771 77.8683 350.653 76.0858 349.988 73.7898C349.324 71.4938 348.991 68.5029 348.991 64.8172C348.991 60.1043 349.656 56.3582 350.985 53.5788C352.315 50.7994 354.611 48.7753 357.873 47.5065C361.197 46.2376 365.789 45.6032 371.649 45.6032C376.241 45.6032 379.897 46.0866 382.616 47.0533C385.335 48.02 387.299 49.5306 388.507 51.5849C389.715 53.6392 390.32 56.2676 390.32 59.4699V66.4486H365.124C365.124 65.1798 365.396 64.1224 365.94 63.2765C366.544 62.3702 367.631 61.917 369.202 61.917H378.266L378.175 60.0137C378.175 57.5364 377.661 55.6936 376.634 54.4851C375.667 53.2163 373.825 52.5819 371.106 52.5819C368.87 52.5819 367.118 52.9444 365.849 53.6695C364.641 54.3341 363.795 55.5425 363.311 57.2947C362.888 58.9866 362.677 61.4336 362.677 64.636C362.677 67.5362 362.949 69.7114 363.493 71.1615C364.097 72.6116 365.154 73.6086 366.665 74.1523C368.175 74.6357 370.32 74.8774 373.1 74.8774C374.127 74.8774 375.516 74.8472 377.269 74.7868C379.021 74.7264 380.803 74.6659 382.616 74.6055C384.489 74.4847 386.12 74.394 387.51 74.3336C388.96 74.2128 389.867 74.0919 390.229 73.9711V75.6025C390.229 76.4484 390.078 77.3547 389.776 78.3214C389.534 79.2278 389.021 79.983 388.235 80.5872C387.148 81.4331 385.123 81.9769 382.163 82.2186C379.263 82.4603 375.275 82.5811 370.199 82.5811ZM424.186 67.9894C424.186 67.9894 423.582 67.9894 422.374 67.9894C421.226 67.9894 419.745 68.0196 417.933 68.08C416.12 68.08 414.247 68.08 412.314 68.08V82.0374H397.45V45.8751C397.45 44.1229 397.843 42.7634 398.628 41.7966C399.414 40.8299 401.015 40.3465 403.432 40.3465C404.338 40.3465 405.697 40.3465 407.51 40.3465C409.323 40.2861 411.407 40.2559 413.764 40.2559C416.12 40.2559 418.537 40.2559 421.014 40.2559C423.552 40.1955 425.969 40.1955 428.265 40.2559C430.561 40.2559 432.555 40.2861 434.247 40.3465C435.999 40.3465 437.268 40.3767 438.053 40.4371C441.316 40.7393 443.763 41.7362 445.394 43.428C447.026 45.0594 447.841 47.7482 447.841 51.4943C447.841 54.8779 447.57 57.3552 447.026 58.9261C446.542 60.4367 445.727 61.6149 444.579 62.4608C444.156 62.7629 443.582 63.0046 442.857 63.1858C442.132 63.3671 441.316 63.4577 440.41 63.4577V63.8203C440.833 63.8203 441.286 63.8203 441.769 63.8203C442.313 63.8203 442.766 63.8505 443.129 63.9109C445.425 64.3339 446.784 65.21 447.207 66.5392C447.69 67.8685 447.932 69.2582 447.932 70.7083V78.684C447.932 79.832 448.053 80.6779 448.295 81.2217C448.536 81.705 448.687 81.9769 448.748 82.0374H437.691C436.12 82.0374 434.881 81.7957 433.975 81.3123C433.129 80.8289 432.706 79.8018 432.706 78.2308V72.2491C432.706 70.376 432.283 69.1978 431.437 68.7144C430.652 68.231 429.232 67.9894 427.177 67.9894H424.186ZM412.314 60.92C412.978 60.92 413.975 60.9502 415.304 61.0107C416.694 61.0107 418.205 61.0107 419.836 61.0107C421.467 61.0107 422.948 61.0107 424.277 61.0107C425.667 61.0107 426.664 61.0107 427.268 61.0107C428.718 61.0107 429.987 60.5575 431.074 59.6512C432.222 58.6844 432.796 56.902 432.796 54.3039C432.796 52.4912 432.464 51.0713 431.8 50.0442C431.195 49.017 430.168 48.443 428.718 48.3222C427.872 48.1409 426.724 48.0503 425.274 48.0503C423.884 48.0503 422.404 48.0503 420.833 48.0503C419.322 48.0503 417.933 48.0805 416.664 48.1409C415.395 48.1409 414.459 48.1409 413.854 48.1409C413.733 48.1409 413.431 48.2315 412.948 48.4128C412.525 48.5941 412.314 49.0472 412.314 49.7723V60.92ZM476.055 82.5811C471.825 82.5811 468.351 82.3395 465.632 81.8561C462.913 81.3123 460.768 80.406 459.197 79.1371C457.626 77.8683 456.509 76.0858 455.844 73.7898C455.179 71.4938 454.847 68.5029 454.847 64.8172C454.847 60.1043 455.512 56.3582 456.841 53.5788C458.17 50.7994 460.466 48.7753 463.729 47.5065C467.052 46.2376 471.644 45.6032 477.505 45.6032C482.097 45.6032 485.753 46.0866 488.472 47.0533C491.191 48.02 493.154 49.5306 494.363 51.5849C495.571 53.6392 496.175 56.2676 496.175 59.4699V66.4486H470.98C470.98 65.1798 471.251 64.1224 471.795 63.2765C472.399 62.3702 473.487 61.917 475.058 61.917H484.121L484.031 60.0137C484.031 57.5364 483.517 55.6936 482.49 54.4851C481.523 53.2163 479.68 52.5819 476.961 52.5819C474.726 52.5819 472.973 52.9444 471.705 53.6695C470.496 54.3341 469.65 55.5425 469.167 57.2947C468.744 58.9866 468.532 61.4336 468.532 64.636C468.532 67.5362 468.804 69.7114 469.348 71.1615C469.952 72.6116 471.01 73.6086 472.52 74.1523C474.031 74.6357 476.176 74.8774 478.955 74.8774C479.982 74.8774 481.372 74.8472 483.124 74.7868C484.876 74.7264 486.659 74.6659 488.472 74.6055C490.345 74.4847 491.976 74.394 493.366 74.3336C494.816 74.2128 495.722 74.0919 496.085 73.9711V75.6025C496.085 76.4484 495.934 77.3547 495.632 78.3214C495.39 79.2278 494.876 79.983 494.091 80.5872C493.003 81.4331 490.979 81.9769 488.018 82.2186C485.118 82.4603 481.13 82.5811 476.055 82.5811ZM501.402 63.9109C501.402 59.0168 502.127 55.2404 503.577 52.5819C505.028 49.8629 507.082 48.02 509.74 47.0533C512.459 46.0261 515.632 45.5126 519.257 45.5126C520.465 45.5126 521.734 45.573 523.063 45.6938C524.453 45.8147 525.782 45.9959 527.051 46.2376C528.38 46.4189 529.528 46.6908 530.495 47.0533C531.522 47.3554 532.308 47.7179 532.852 48.1409L529.589 49.4097V36.2681H543.002L542.912 63.8203C542.912 67.9289 542.549 71.2219 541.824 73.6992C541.099 76.116 539.891 77.9589 538.199 79.2278C536.568 80.4362 534.332 81.2519 531.492 81.6748C528.713 82.0374 525.269 82.2186 521.16 82.2186C517.354 82.2186 514.181 81.9769 511.644 81.4936C509.106 81.0102 507.082 80.1039 505.571 78.7746C504.121 77.4453 503.064 75.6025 502.399 73.246C501.735 70.8896 501.402 67.7779 501.402 63.9109ZM521.795 75.2399C523.426 75.2399 524.755 75.0889 525.782 74.7868C526.809 74.4847 527.595 73.9711 528.139 73.246C528.683 72.521 529.045 71.524 529.226 70.2552C529.468 68.9863 529.589 67.3549 529.589 65.361L529.498 53.3069C529.136 53.3069 528.622 53.3069 527.957 53.3069C527.353 53.2465 526.689 53.2163 525.964 53.2163C525.299 53.1559 524.634 53.1257 523.97 53.1257C521.674 53.1257 519.861 53.4278 518.532 54.032C517.263 54.5758 516.357 55.6332 515.813 57.2041C515.269 58.7147 514.997 61.0107 514.997 64.0922C514.997 67.2341 515.209 69.5905 515.632 71.1615C516.115 72.7324 516.87 73.82 517.897 74.4242C518.924 74.968 520.224 75.2399 521.795 75.2399Z" fill="#B00505"/>
</svg>
