<svg width="91" height="113" viewBox="0 0 91 113" fill="none" xmlns="http://www.w3.org/2000/svg">
<path d="M90.9618 74.0875C90.9618 48.8426 63.9074 18.2997 51.1015 2.42249C49.7988 0.807582 47.64 0 45.4809 0C43.3221 0 41.163 0.807582 39.8603 2.42249C27.0544 18.2997 0 48.8423 0 74.0875C0 99.3326 18.6002 112.075 45.4809 112.075C72.3616 112.075 90.9618 99.3324 90.9618 74.0875Z" fill="#A00505"/>
<path d="M67.4612 58.9009H52.9124V45.8665C52.9124 44.7536 51.9055 43.8516 50.6633 43.8516H40.2968C39.0548 43.8516 38.0477 44.7536 38.0477 45.8665V58.9009H23.4988C22.2569 58.9009 21.25 59.803 21.25 60.9159V70.2032C21.25 71.3161 22.2569 72.2182 23.4988 72.2182H38.0477V85.2525C38.0477 86.3654 39.0546 87.2675 40.2968 87.2675H50.6633C51.9052 87.2675 52.9124 86.3654 52.9124 85.2525V72.2182H67.4612C68.7031 72.2182 69.7103 71.3161 69.7103 70.2032V60.9159C69.7103 59.803 68.7034 58.9009 67.4612 58.9009Z" fill="white"/>
</svg>
