<svg width="426" height="47" viewBox="0 0 426 47" fill="none" xmlns="http://www.w3.org/2000/svg">
<path d="M51.7518 25.1051C51.7518 29.5159 51.2382 33.111 50.211 35.8904C49.2443 38.6093 47.7036 40.6939 45.5888 42.144C43.5345 43.5941 40.9061 44.5911 37.7038 45.1349C34.5015 45.6182 30.6647 45.8599 26.1935 45.8599C23.4745 45.8599 20.8764 45.8599 18.3991 45.8599C15.9218 45.8599 13.5956 45.8297 11.4204 45.7693C9.24526 45.7693 7.19093 45.7693 5.25745 45.7693C3.38438 45.7693 1.63216 45.7693 0.000775046 45.7693V10.0602C0.000775046 7.94543 0.423725 6.43489 1.26963 5.52857C2.11553 4.62224 3.68649 4.13887 5.9825 4.07845C7.55346 4.07845 9.24527 4.07845 11.0579 4.07845C12.931 4.01803 14.804 3.98782 16.6771 3.98782C18.6106 3.98782 20.5139 3.98782 22.3869 3.98782C24.3204 3.98782 26.1029 3.98782 27.7342 3.98782C32.0242 4.04824 35.6797 4.38056 38.7007 4.98477C41.7218 5.52857 44.1991 6.55573 46.1326 8.06627C48.0661 9.51639 49.486 11.6311 50.3923 14.4105C51.2986 17.1295 51.7518 20.6944 51.7518 25.1051ZM14.8645 38.2468C15.4687 38.2468 16.1635 38.2468 16.949 38.2468C17.7949 38.2468 18.671 38.277 19.5773 38.3374C20.5441 38.3374 21.4806 38.3374 22.3869 38.3374C23.2933 38.3374 24.0787 38.3374 24.7434 38.3374C26.8581 38.3374 28.6708 38.1562 30.1813 37.7936C31.6919 37.4311 32.9003 36.7665 33.8066 35.7997C34.7129 34.833 35.3776 33.4735 35.8005 31.7213C36.2235 29.9691 36.4349 27.7637 36.4349 25.1051C36.4349 21.2986 36.0422 18.4286 35.2567 16.4951C34.5317 14.5616 33.293 13.2625 31.5408 12.5979C29.849 11.8728 27.4623 11.5103 24.3809 11.5103C23.6558 11.5103 22.7193 11.5103 21.5713 11.5103C20.4837 11.5103 19.3961 11.5405 18.3085 11.6009C17.2209 11.6009 16.2844 11.6311 15.4989 11.6916C15.3176 11.9937 15.1666 12.3562 15.0457 12.7791C14.9249 13.2021 14.8645 13.8063 14.8645 14.5918V38.2468ZM78.6058 46.3131C75.1618 46.3131 72.1105 46.0714 69.452 45.588C66.7934 45.1047 64.5578 44.1983 62.7452 42.8691C60.993 41.5398 59.6637 39.6667 58.7574 37.2499C57.8511 34.7726 57.3979 31.6004 57.3979 27.7335C57.3979 23.8665 57.8511 20.7246 58.7574 18.3077C59.6637 15.8304 60.993 13.9272 62.7452 12.5979C64.5578 11.2686 66.7934 10.3623 69.452 9.87891C72.1105 9.39554 75.1618 9.15386 78.6058 9.15386C82.1103 9.15386 85.1616 9.39554 87.7597 9.87891C90.3578 10.3623 92.533 11.2686 94.2852 12.5979C96.0374 13.9272 97.3667 15.8304 98.273 18.3077C99.1794 20.7246 99.6325 23.8665 99.6325 27.7335C99.6325 31.6004 99.1794 34.7726 98.273 37.2499C97.3667 39.7271 96.0072 41.6304 94.1946 42.9597C92.4424 44.2285 90.2672 45.1047 87.6691 45.588C85.0709 46.0714 82.0499 46.3131 78.6058 46.3131ZM78.6058 39.6969C80.2976 39.6969 81.6571 39.3948 82.6843 38.7906C83.7719 38.126 84.5876 36.9477 85.1314 35.2559C85.6752 33.5037 85.9471 30.9962 85.9471 27.7335C85.9471 24.4707 85.6752 21.9934 85.1314 20.3016C84.5876 18.5494 83.7719 17.3712 82.6843 16.767C81.6571 16.1023 80.2976 15.77 78.6058 15.77C77.0349 15.77 75.6754 16.1023 74.5274 16.767C73.3794 17.3712 72.5033 18.5494 71.8991 20.3016C71.3553 21.9934 71.0834 24.4707 71.0834 27.7335C71.0834 30.9962 71.3553 33.5037 71.8991 35.2559C72.5033 36.9477 73.3794 38.126 74.5274 38.7906C75.6754 39.3948 77.0349 39.6969 78.6058 39.6969ZM110.08 45.7693C107.784 45.7693 106.636 44.5911 106.636 42.2346V11.7822C108.449 11.178 111.168 10.6342 114.793 10.1508C118.418 9.60702 122.406 9.33512 126.756 9.33512C131.409 9.33512 135.064 9.60702 137.723 10.1508C140.442 10.6342 142.436 11.5103 143.705 12.7791C145.034 13.9876 145.88 15.619 146.242 17.6733C146.665 19.7276 146.877 22.2955 146.877 25.377V40.6939C146.877 42.0232 146.786 43.0805 146.605 43.866C146.424 44.5911 145.94 45.1047 145.155 45.4068C144.43 45.7089 143.282 45.8599 141.711 45.8599L133.463 45.7693V22.2049C133.463 20.211 132.859 18.7911 131.65 17.9452C130.442 17.0993 128.811 16.6763 126.756 16.6763C126.031 16.6763 125.246 16.767 124.4 16.9482C123.554 17.0691 122.738 17.2503 121.953 17.492C121.228 17.6733 120.624 17.9452 120.14 18.3077V45.7693H110.08ZM173.282 46.2224C169.052 46.2224 165.639 46.0714 163.04 45.7693C160.442 45.5276 158.418 45.014 156.968 44.2285C155.578 43.4431 154.642 42.3253 154.158 40.8751C153.675 39.425 153.433 37.552 153.433 35.2559C153.433 32.1744 153.735 29.8482 154.34 28.2773C154.944 26.6459 156.001 25.5281 157.512 24.9239C159.022 24.3197 161.046 24.0175 163.584 24.0175C165.095 24.0175 166.817 24.0478 168.75 24.1082C170.744 24.1082 172.678 24.1384 174.551 24.1988C176.484 24.2592 178.146 24.3801 179.535 24.5613C180.986 24.6822 181.983 24.803 182.526 24.9239C182.526 23.0508 182.345 21.5705 181.983 20.4829C181.68 19.3953 181.167 18.5796 180.442 18.0358C179.717 17.4316 178.75 17.0389 177.542 16.8576C176.333 16.6763 174.853 16.5857 173.101 16.5857C170.986 16.5857 168.871 16.6159 166.756 16.6763C164.702 16.7368 162.678 16.8576 160.684 17.0389C158.75 17.2201 156.968 17.4316 155.337 17.6733V15.1356C155.337 13.5042 155.699 12.2958 156.424 11.5103C157.149 10.7248 158.146 10.2112 159.415 9.96955C160.805 9.66744 162.859 9.45597 165.578 9.33512C168.357 9.21428 171.348 9.15386 174.551 9.15386C178.599 9.15386 181.983 9.36533 184.702 9.78828C187.481 10.2112 189.656 10.9665 191.227 12.0541C192.798 13.1417 193.916 14.7731 194.58 16.9482C195.245 19.063 195.577 21.9028 195.577 25.4677V43.5035C194.611 44.4098 192.194 45.1047 188.327 45.588C184.52 46.011 179.505 46.2224 173.282 46.2224ZM173.191 40.6032C174.883 40.6032 176.303 40.573 177.451 40.5126C178.659 40.3918 179.687 40.2407 180.532 40.0595C181.378 39.8782 182.043 39.6667 182.526 39.425V29.2742C181.862 29.093 180.925 28.9419 179.717 28.8211C178.569 28.7002 177.391 28.6096 176.182 28.5492C174.974 28.4887 174.037 28.4585 173.372 28.4585C171.922 28.4585 170.744 28.5794 169.838 28.8211C168.931 29.0627 168.267 29.6065 167.844 30.4524C167.481 31.2983 167.3 32.5974 167.3 34.3496C167.3 35.8602 167.451 37.0988 167.753 38.0655C168.055 38.9719 168.629 39.6365 169.475 40.0595C170.321 40.422 171.56 40.6032 173.191 40.6032ZM217.164 46.1318C213.901 46.1318 211.333 45.7995 209.46 45.1349C207.648 44.4098 206.379 43.2618 205.654 41.6908C204.929 40.0595 204.566 37.8239 204.566 34.984V16.6763H200.669V9.60702H204.566V4.98477C204.566 3.47424 204.657 2.35644 204.838 1.63138C205.08 0.906323 205.533 0.453161 206.198 0.271896C206.862 0.0906334 207.92 2.33952e-06 209.37 2.33952e-06H218.07C218.07 0.241685 218.07 0.543792 218.07 0.906321C218.07 1.26885 218.07 1.72201 218.07 2.26581V9.60702H226.862V16.6763H218.161V33.8965C218.161 36.3133 218.373 38.0655 218.796 39.1531C219.279 40.2407 220.518 40.7845 222.511 40.7845C223.055 40.7845 223.75 40.7241 224.596 40.6032C225.502 40.4824 226.137 40.3616 226.499 40.2407V45.2255C226.076 45.2859 225.019 45.4672 223.327 45.7693C221.696 46.011 219.641 46.1318 217.164 46.1318ZM252.436 46.3131C248.206 46.3131 244.732 46.0714 242.013 45.588C239.294 45.0442 237.149 44.1379 235.578 42.8691C234.007 41.6002 232.889 39.8178 232.225 37.5218C231.56 35.2257 231.228 32.2349 231.228 28.5492C231.228 23.8363 231.892 20.0901 233.222 17.3108C234.551 14.5314 236.847 12.5073 240.11 11.2384C243.433 9.96955 248.025 9.33512 253.886 9.33512C258.478 9.33512 262.133 9.81849 264.852 10.7852C267.571 11.752 269.535 13.2625 270.743 15.3168C271.952 17.3712 272.556 19.9995 272.556 23.2019V30.1805H247.36C247.36 28.9117 247.632 27.8543 248.176 27.0084C248.78 26.1021 249.868 25.6489 251.439 25.6489H260.502L260.411 23.7456C260.411 21.2684 259.898 19.4255 258.871 18.2171C257.904 16.9482 256.061 16.3138 253.342 16.3138C251.106 16.3138 249.354 16.6763 248.085 17.4014C246.877 18.066 246.031 19.2745 245.548 21.0267C245.125 22.7185 244.913 25.1656 244.913 28.3679C244.913 31.2681 245.185 33.4433 245.729 34.8934C246.333 36.3435 247.39 37.3405 248.901 37.8843C250.412 38.3677 252.557 38.6093 255.336 38.6093C256.363 38.6093 257.753 38.5791 259.505 38.5187C261.257 38.4583 263.04 38.3979 264.852 38.3374C266.725 38.2166 268.357 38.126 269.746 38.0655C271.197 37.9447 272.103 37.8239 272.465 37.703V39.3344C272.465 40.1803 272.314 41.0866 272.012 42.0534C271.771 42.9597 271.257 43.715 270.471 44.3192C269.384 45.1651 267.36 45.7089 264.399 45.9506C261.499 46.1922 257.511 46.3131 252.436 46.3131ZM306.423 31.7213C306.423 31.7213 305.819 31.7213 304.61 31.7213C303.462 31.7213 301.982 31.7515 300.169 31.8119C298.356 31.8119 296.483 31.8119 294.55 31.8119V45.7693H279.686V9.60702C279.686 7.85479 280.079 6.49531 280.864 5.52857C281.65 4.56182 283.251 4.07845 285.668 4.07845C286.574 4.07845 287.934 4.07845 289.746 4.07845C291.559 4.01803 293.644 3.98782 296 3.98782C298.356 3.98782 300.773 3.98782 303.251 3.98782C305.788 3.9274 308.205 3.9274 310.501 3.98782C312.797 3.98782 314.791 4.01803 316.483 4.07845C318.235 4.07845 319.504 4.10866 320.289 4.16908C323.552 4.47119 325.999 5.46815 327.631 7.15995C329.262 8.79133 330.078 11.4801 330.078 15.2262C330.078 18.6098 329.806 21.0871 329.262 22.6581C328.779 24.1686 327.963 25.3468 326.815 26.1927C326.392 26.4948 325.818 26.7365 325.093 26.9178C324.368 27.099 323.552 27.1897 322.646 27.1897V27.5522C323.069 27.5522 323.522 27.5522 324.005 27.5522C324.549 27.5522 325.002 27.5824 325.365 27.6428C327.661 28.0658 329.02 28.9419 329.443 30.2712C329.927 31.6004 330.168 32.9901 330.168 34.4403V42.4159C330.168 43.5639 330.289 44.4098 330.531 44.9536C330.773 45.437 330.924 45.7089 330.984 45.7693H319.927C318.356 45.7693 317.117 45.5276 316.211 45.0442C315.365 44.5609 314.942 43.5337 314.942 41.9627V35.981C314.942 34.1079 314.519 32.9297 313.673 32.4463C312.888 31.963 311.468 31.7213 309.414 31.7213H306.423ZM294.55 24.652C295.215 24.652 296.212 24.6822 297.541 24.7426C298.93 24.7426 300.441 24.7426 302.072 24.7426C303.704 24.7426 305.184 24.7426 306.513 24.7426C307.903 24.7426 308.9 24.7426 309.504 24.7426C310.954 24.7426 312.223 24.2894 313.311 23.3831C314.459 22.4164 315.033 20.6339 315.033 18.0358C315.033 16.2232 314.7 14.8033 314.036 13.7761C313.432 12.7489 312.404 12.1749 310.954 12.0541C310.108 11.8728 308.96 11.7822 307.51 11.7822C306.121 11.7822 304.64 11.7822 303.069 11.7822C301.559 11.7822 300.169 11.8124 298.9 11.8728C297.631 11.8728 296.695 11.8728 296.091 11.8728C295.97 11.8728 295.668 11.9635 295.184 12.1447C294.761 12.326 294.55 12.7791 294.55 13.5042V24.652ZM358.291 46.3131C354.062 46.3131 350.588 46.0714 347.869 45.588C345.15 45.0442 343.005 44.1379 341.434 42.8691C339.863 41.6002 338.745 39.8178 338.08 37.5218C337.416 35.2257 337.083 32.2349 337.083 28.5492C337.083 23.8363 337.748 20.0901 339.077 17.3108C340.407 14.5314 342.703 12.5073 345.965 11.2384C349.288 9.96955 353.881 9.33512 359.741 9.33512C364.333 9.33512 367.989 9.81849 370.708 10.7852C373.427 11.752 375.391 13.2625 376.599 15.3168C377.807 17.3712 378.412 19.9995 378.412 23.2019V30.1805H353.216C353.216 28.9117 353.488 27.8543 354.032 27.0084C354.636 26.1021 355.723 25.6489 357.294 25.6489H366.358L366.267 23.7456C366.267 21.2684 365.753 19.4255 364.726 18.2171C363.759 16.9482 361.917 16.3138 359.198 16.3138C356.962 16.3138 355.21 16.6763 353.941 17.4014C352.733 18.066 351.887 19.2745 351.403 21.0267C350.98 22.7185 350.769 25.1656 350.769 28.3679C350.769 31.2681 351.041 33.4433 351.584 34.8934C352.189 36.3435 353.246 37.3405 354.757 37.8843C356.267 38.3677 358.412 38.6093 361.192 38.6093C362.219 38.6093 363.608 38.5791 365.361 38.5187C367.113 38.4583 368.895 38.3979 370.708 38.3374C372.581 38.2166 374.212 38.126 375.602 38.0655C377.052 37.9447 377.958 37.8239 378.321 37.703V39.3344C378.321 40.1803 378.17 41.0866 377.868 42.0534C377.626 42.9597 377.113 43.715 376.327 44.3192C375.24 45.1651 373.215 45.7089 370.255 45.9506C367.355 46.1922 363.367 46.3131 358.291 46.3131ZM383.639 27.6428C383.639 22.7487 384.364 18.9724 385.814 16.3138C387.264 13.5948 389.318 11.752 391.977 10.7852C394.696 9.75807 397.868 9.24449 401.493 9.24449C402.702 9.24449 403.97 9.30491 405.3 9.42575C406.689 9.5466 408.019 9.72786 409.288 9.96955C410.617 10.1508 411.765 10.4227 412.732 10.7852C413.759 11.0873 414.544 11.4499 415.088 11.8728L411.825 13.1417V2.33952e-06H425.239L425.148 27.5522C425.148 31.6609 424.786 34.9538 424.061 37.4311C423.336 39.848 422.127 41.6908 420.435 42.9597C418.804 44.1681 416.568 44.9838 413.728 45.4068C410.949 45.7693 407.505 45.9506 403.396 45.9506C399.59 45.9506 396.418 45.7089 393.88 45.2255C391.342 44.7421 389.318 43.8358 387.808 42.5065C386.358 41.1773 385.3 39.3344 384.636 36.978C383.971 34.6215 383.639 31.5098 383.639 27.6428ZM404.031 38.9719C405.662 38.9719 406.991 38.8208 408.019 38.5187C409.046 38.2166 409.831 37.703 410.375 36.978C410.919 36.2529 411.281 35.2559 411.463 33.9871C411.704 32.7182 411.825 31.0869 411.825 29.093L411.735 17.0389C411.372 17.0389 410.858 17.0389 410.194 17.0389C409.59 16.9784 408.925 16.9482 408.2 16.9482C407.535 16.8878 406.871 16.8576 406.206 16.8576C403.91 16.8576 402.097 17.1597 400.768 17.7639C399.499 18.3077 398.593 19.3651 398.049 20.936C397.505 22.4466 397.233 24.7426 397.233 27.8241C397.233 30.966 397.445 33.3225 397.868 34.8934C398.351 36.4644 399.106 37.552 400.134 38.1562C401.161 38.7 402.46 38.9719 404.031 38.9719Z" fill="#B00505"/>
</svg>
