<svg width="154" height="146" viewBox="0 0 154 146" fill="none" xmlns="http://www.w3.org/2000/svg">
<path d="M153.96 71.3186C153.96 71.3186 153.944 71.5282 153.913 71.9342C153.897 72.1371 153.879 72.3892 153.856 72.6888C153.844 72.8438 153.832 73.0112 153.818 73.1905C153.801 73.3956 153.782 73.6144 153.762 73.8467C153.742 74.0788 153.721 74.3245 153.699 74.5834C153.687 74.7128 153.676 74.8454 153.664 74.9813C153.657 75.0485 153.652 75.1198 153.645 75.1858C153.637 75.2517 153.629 75.3184 153.622 75.3858C153.561 75.9249 153.494 76.5133 153.422 77.1493C153.334 77.7836 153.245 78.465 153.138 79.1897C153.08 79.5515 153.02 79.9246 152.959 80.3089C152.928 80.5009 152.897 80.6955 152.865 80.893C152.829 81.0898 152.793 81.2893 152.756 81.4916C152.681 81.8955 152.604 82.3102 152.524 82.7355C152.436 83.1589 152.346 83.5929 152.254 84.0372C152.208 84.259 152.161 84.4835 152.113 84.7105C152.061 84.9364 152.007 85.1648 151.953 85.3957C151.899 85.6264 151.845 85.8597 151.789 86.0953C151.733 86.3308 151.68 86.5693 151.616 86.8081C151.134 88.7249 150.543 90.778 149.813 92.9344C149.722 93.2037 149.629 93.4753 149.537 93.749C149.438 94.0205 149.338 94.2941 149.237 94.5698C149.137 94.8454 149.036 95.123 148.934 95.4027C148.833 95.6823 148.719 95.96 148.61 96.2416C148.5 96.5225 148.389 96.8054 148.278 97.0903C148.168 97.3759 148.042 97.6577 147.925 97.9445C147.805 98.2304 147.684 98.5183 147.563 98.8081C147.443 99.0983 147.309 99.3848 147.18 99.6759C147.051 99.9661 146.92 100.258 146.788 100.552C146.655 100.845 146.512 101.136 146.373 101.431C146.233 101.725 146.093 102.021 145.951 102.319C145.803 102.613 145.654 102.91 145.504 103.207C145.352 103.504 145.205 103.805 145.047 104.103C144.888 104.4 144.728 104.699 144.567 105C144.252 105.604 143.907 106.199 143.566 106.805C143.479 106.956 143.395 107.109 143.306 107.259C143.217 107.409 143.127 107.56 143.037 107.711C142.857 108.012 142.676 108.315 142.494 108.619C142.312 108.923 142.119 109.222 141.929 109.526C141.738 109.828 141.551 110.135 141.352 110.437C141.153 110.737 140.953 111.04 140.751 111.344C140.651 111.495 140.55 111.647 140.449 111.8C140.344 111.95 140.24 112.101 140.135 112.252C139.925 112.553 139.715 112.856 139.503 113.16C139.291 113.464 139.067 113.761 138.848 114.064C137.972 115.273 137.03 116.465 136.058 117.659C135.81 117.953 135.56 118.248 135.31 118.545C135.185 118.693 135.06 118.841 134.934 118.989C134.805 119.135 134.676 119.281 134.547 119.427C134.288 119.72 134.029 120.013 133.769 120.308C133.502 120.597 133.234 120.886 132.966 121.177C130.814 123.498 128.445 125.729 125.908 127.86C125.264 128.383 124.626 128.919 123.96 129.426C123.628 129.681 123.301 129.944 122.963 130.194C122.626 130.444 122.287 130.695 121.948 130.947C121.779 131.074 121.607 131.197 121.434 131.319C121.261 131.441 121.088 131.563 120.914 131.686C120.567 131.93 120.222 132.178 119.866 132.412C119.512 132.649 119.157 132.887 118.801 133.125C118.441 133.356 118.08 133.587 117.718 133.819C111.908 137.492 105.404 140.493 98.4908 142.52C95.0359 143.536 91.4815 144.308 87.8793 144.825C87.4286 144.886 86.9777 144.948 86.5266 145.009C86.0746 145.064 85.6218 145.112 85.1691 145.162C84.9427 145.187 84.7166 145.215 84.4898 145.235L83.8089 145.294C83.3547 145.331 82.901 145.377 82.4461 145.405L81.0813 145.49C80.8538 145.506 80.6261 145.514 80.3982 145.522L79.7149 145.548L79.0315 145.572C78.8036 145.582 78.5758 145.58 78.3479 145.584L76.904 145.599L75.646 145.582L75.3314 145.578L75.1741 145.576C75.1238 145.576 75.0581 145.573 75.0009 145.571L74.29 145.546L73.5793 145.52L73.224 145.507C73.105 145.503 72.995 145.494 72.8801 145.487L71.5153 145.402C71.2877 145.39 71.0607 145.369 70.8338 145.349L70.1528 145.289L69.4721 145.229C69.2453 145.208 69.0193 145.18 68.7929 145.155C68.3403 145.104 67.8874 145.056 67.4356 145.002C66.9845 144.94 66.5336 144.879 66.0831 144.817C64.2834 144.552 62.4924 144.241 60.7235 143.848C58.9542 143.46 57.1996 143.022 55.475 142.505L54.8271 142.316L54.1842 142.113C53.7565 141.976 53.3265 141.847 52.9023 141.702C52.4783 141.556 52.0548 141.411 51.6319 141.265C51.4197 141.194 51.2103 141.116 51.001 141.038L50.3732 140.805L49.7461 140.572C49.5375 140.493 49.3315 140.409 49.1243 140.327C48.7109 140.162 48.2966 140.001 47.8857 139.832C47.069 139.484 46.2508 139.144 45.4506 138.77C44.6432 138.412 43.8557 138.018 43.0639 137.638C42.6732 137.438 42.2831 137.239 41.8936 137.04C41.6996 136.939 41.5033 136.842 41.3117 136.738C41.1198 136.633 40.9281 136.529 40.7366 136.425C39.2003 135.599 37.7091 134.717 36.2557 133.8C35.8938 133.569 35.5328 133.337 35.1726 133.107C34.8176 132.868 34.4634 132.629 34.1099 132.392C33.754 132.157 33.4084 131.91 33.0615 131.666C32.8882 131.543 32.7151 131.421 32.5422 131.299C32.3687 131.178 32.1966 131.055 32.028 130.928C31.6888 130.676 31.3503 130.425 31.0128 130.175C30.8429 130.051 30.6778 129.921 30.5125 129.792C30.3471 129.663 30.1819 129.535 30.0169 129.406C29.3521 128.897 28.7135 128.363 28.0702 127.841C27.753 127.575 27.4408 127.304 27.1272 127.037C26.9708 126.903 26.8145 126.769 26.6584 126.635C26.5054 126.498 26.3526 126.361 26.1999 126.224C25.895 125.95 25.591 125.677 25.2878 125.405C24.9905 125.126 24.694 124.848 24.3984 124.571C24.251 124.432 24.1038 124.293 23.9568 124.154C23.8128 124.012 23.6689 123.871 23.5252 123.73C23.2384 123.447 22.9526 123.164 22.6676 122.883C22.3888 122.595 22.1109 122.309 21.8339 122.023C21.6956 121.88 21.5556 121.739 21.4196 121.594C21.2846 121.449 21.1498 121.304 21.0152 121.159C20.7466 120.869 20.4789 120.579 20.212 120.291C19.9517 119.996 19.6923 119.703 19.4338 119.411C19.3047 119.264 19.1757 119.118 19.0471 118.972C18.9217 118.824 18.7965 118.676 18.6716 118.527C18.4214 118.231 18.1721 117.936 17.9238 117.642C16.9506 116.45 16.0108 115.257 15.1341 114.048C13.3696 111.639 11.7953 109.208 10.417 106.794C7.6496 101.968 5.62576 97.2387 4.16599 92.9289C3.43295 90.7738 2.84343 88.721 2.35989 86.805C2.29508 86.5663 2.24166 86.328 2.18548 86.0925C2.12998 85.8569 2.07501 85.6237 2.02072 85.3932C1.96661 85.1623 1.91302 84.9339 1.86004 84.7081C1.8124 84.4812 1.76527 84.2568 1.71867 84.035C1.62633 83.5908 1.53614 83.157 1.44812 82.7336C1.36855 82.3084 1.29097 81.8938 1.21537 81.49C1.17818 81.2878 1.14158 81.0884 1.10534 80.8916C1.07341 80.6943 1.04199 80.4996 1.01092 80.3077C0.949306 79.9236 0.889407 79.5505 0.831413 79.1888C0.724486 78.464 0.633699 77.7828 0.5455 77.1487C0.472835 76.5128 0.405608 75.9244 0.344075 75.3855C0.310073 75.1158 0.291351 74.8578 0.267446 74.6126C0.245007 74.3671 0.223774 74.1343 0.203753 73.9143C0.183903 73.6942 0.165176 73.4868 0.147571 73.2924C0.130138 73.0981 0.120042 72.9167 0.107528 72.7487C0.0841407 72.4123 0.0645478 72.1292 0.0487548 71.9012C0.0165647 71.4447 0 71.2092 0 71.2092H17.2601C17.2601 71.2092 17.2488 71.393 17.227 71.7493C17.2163 71.9276 17.2031 72.1491 17.1874 72.4123C17.1806 72.5439 17.1679 72.6863 17.1642 72.8387C17.1598 72.9911 17.1552 73.1537 17.1502 73.3265C17.145 73.4995 17.1396 73.6825 17.1339 73.8754C17.1294 74.0684 17.1182 74.2718 17.1203 74.4841C17.1206 74.9099 17.1208 75.3744 17.1212 75.8766C17.1371 76.378 17.1442 76.9187 17.1675 77.4947C17.1838 77.7825 17.2005 78.0793 17.2177 78.3849C17.2261 78.5379 17.2346 78.6932 17.2432 78.8506C17.2558 79.0076 17.2686 79.1668 17.2815 79.3282C17.3077 79.6514 17.3346 79.9831 17.3621 80.3235C17.3937 80.6635 17.4371 81.0104 17.4754 81.367C17.4951 81.5452 17.5151 81.7255 17.5353 81.908C17.5604 82.0896 17.5857 82.2733 17.6114 82.459C17.6368 82.6449 17.6626 82.833 17.6886 83.0229C17.7151 83.2129 17.7383 83.4057 17.7724 83.5983C17.8354 83.9851 17.8997 84.3797 17.9653 84.7821C18.0374 85.1834 18.1211 85.5904 18.1999 86.0067C18.2746 86.4242 18.3775 86.8427 18.4689 87.2723C18.517 87.4864 18.5606 87.7039 18.6133 87.9209C18.6668 88.1378 18.7208 88.3564 18.7751 88.5768C19.645 92.103 20.9825 96.0186 22.9664 100.072C23.0282 100.199 23.0872 100.327 23.1516 100.453C23.2163 100.579 23.2813 100.706 23.3465 100.833C23.4769 101.086 23.608 101.341 23.7397 101.597C23.8719 101.853 24.0153 102.104 24.1533 102.36C24.2941 102.615 24.4297 102.874 24.5763 103.129C24.7236 103.384 24.8715 103.639 25.0202 103.896C25.0947 104.025 25.1693 104.153 25.2441 104.282C25.3222 104.409 25.4003 104.537 25.4786 104.664C25.6353 104.92 25.7928 105.177 25.9509 105.434C26.1093 105.692 26.2791 105.944 26.4436 106.201C27.1003 107.231 27.823 108.242 28.566 109.264C28.757 109.516 28.9488 109.768 29.1412 110.022C29.2376 110.148 29.3343 110.275 29.431 110.402C29.531 110.527 29.6312 110.652 29.7314 110.777C29.932 111.027 30.1332 111.279 30.3351 111.531C30.5431 111.779 30.7517 112.027 30.961 112.276C31.0657 112.401 31.1707 112.526 31.2757 112.651C31.3818 112.775 31.4918 112.897 31.5998 113.02C31.8174 113.265 32.0356 113.512 32.2546 113.759C32.4793 114.001 32.7048 114.244 32.9309 114.487C33.0441 114.609 33.1574 114.731 33.2709 114.853C33.3872 114.973 33.5036 115.092 33.6203 115.212C33.854 115.452 34.0884 115.692 34.3236 115.933C34.5649 116.168 34.8069 116.404 35.0496 116.64C35.1711 116.758 35.2928 116.876 35.4147 116.995C35.5394 117.11 35.6643 117.226 35.7894 117.342C36.0397 117.573 36.2909 117.805 36.5426 118.038C38.584 119.869 40.7874 121.618 43.1574 123.211C47.8873 126.41 53.2519 129.037 58.9964 130.814C60.43 131.266 61.892 131.645 63.3665 131.988C63.736 132.071 64.1058 132.153 64.4758 132.236C64.848 132.309 65.2204 132.381 65.5931 132.454C65.9648 132.532 66.3408 132.588 66.7154 132.654C67.0905 132.716 67.4646 132.786 67.8422 132.836C69.347 133.073 70.8673 133.225 72.3911 133.347L73.536 133.421C73.6303 133.427 73.7292 133.435 73.8197 133.438L74.0929 133.449L74.6392 133.47L75.1855 133.493C75.233 133.495 75.2721 133.498 75.3266 133.498L75.4838 133.5L75.7984 133.505L77.0566 133.519C76.9277 133.518 77.0621 133.518 77.0519 133.518L77.1237 133.517L77.2673 133.515L77.5546 133.51L78.1291 133.502C78.3206 133.499 78.5122 133.501 78.7034 133.492L79.2771 133.469L79.8508 133.447C80.042 133.44 80.2333 133.433 80.4239 133.418L81.5688 133.344C81.7598 133.335 81.9499 133.315 82.1401 133.297L82.7105 133.244L83.2809 133.192C83.4709 133.174 83.6601 133.148 83.8496 133.126C84.2285 133.081 84.6071 133.036 84.9856 132.991C85.3628 132.937 85.7398 132.882 86.1166 132.828C86.4943 132.779 86.8682 132.708 87.2434 132.646C87.618 132.581 87.9936 132.523 88.3652 132.445C88.7376 132.371 89.1099 132.298 89.4818 132.224C89.8517 132.141 90.2214 132.059 90.5909 131.976C92.0655 131.634 93.5269 131.254 94.959 130.798L95.4973 130.633L96.0308 130.454C96.3855 130.334 96.7428 130.221 97.0945 130.094C97.4461 129.967 97.7973 129.84 98.148 129.713C98.324 129.651 98.4973 129.582 98.6705 129.514L99.1902 129.309L99.7094 129.106C99.882 129.037 100.052 128.962 100.223 128.89C100.565 128.745 100.907 128.604 101.247 128.457C101.92 128.151 102.597 127.857 103.256 127.529C103.922 127.217 104.569 126.871 105.22 126.54C105.54 126.365 105.861 126.19 106.181 126.016C106.34 125.928 106.501 125.845 106.658 125.753L107.13 125.481L107.6 125.209C107.757 125.119 107.914 125.028 108.067 124.932C108.375 124.743 108.682 124.554 108.989 124.366C109.296 124.178 109.594 123.977 109.896 123.784C110.046 123.687 110.196 123.59 110.347 123.493C110.496 123.395 110.642 123.292 110.79 123.192C111.085 122.991 111.379 122.79 111.672 122.59C111.96 122.382 112.248 122.174 112.534 121.967C112.824 121.764 113.102 121.548 113.383 121.335C113.523 121.229 113.663 121.123 113.803 121.017C113.944 120.912 114.083 120.805 114.219 120.695C114.493 120.477 114.766 120.259 115.038 120.042C115.176 119.935 115.309 119.822 115.441 119.71C115.574 119.598 115.707 119.487 115.84 119.375C116.375 118.935 116.884 118.469 117.401 118.019C117.652 117.786 117.903 117.554 118.154 117.323C118.279 117.207 118.404 117.092 118.529 116.977C118.65 116.858 118.772 116.74 118.893 116.621C119.135 116.385 119.377 116.149 119.618 115.914C119.853 115.673 120.087 115.433 120.321 115.193C120.438 115.074 120.554 114.954 120.671 114.835C120.784 114.713 120.898 114.591 121.011 114.469C121.237 114.226 121.462 113.983 121.687 113.741C121.905 113.494 122.123 113.247 122.34 113.001C122.448 112.878 122.558 112.757 122.664 112.633C122.769 112.508 122.874 112.383 122.979 112.258C123.188 112.009 123.397 111.761 123.605 111.514C123.807 111.262 124.008 111.011 124.209 110.76C124.309 110.635 124.409 110.51 124.509 110.386C124.605 110.258 124.702 110.131 124.798 110.004C124.99 109.751 125.182 109.499 125.373 109.248C126.118 108.228 126.838 107.215 127.495 106.186C128.825 104.14 129.985 102.087 130.972 100.06C132.956 96.0092 134.296 92.0961 135.167 88.5714C135.222 88.3511 135.276 88.1326 135.329 87.9159C135.382 87.699 135.426 87.4817 135.475 87.2677C135.566 86.8382 135.67 86.42 135.745 86.0028C135.823 85.5865 135.909 85.1802 135.979 84.7784C136.045 84.3763 136.11 83.9818 136.173 83.5952C136.208 83.4026 136.231 83.2099 136.258 83.0201C136.284 82.8302 136.31 82.6423 136.336 82.4564C136.361 82.2708 136.387 82.0872 136.412 81.9057C136.433 81.7233 136.453 81.543 136.473 81.3648C136.512 81.0086 136.554 80.6614 136.586 80.3216C136.614 79.9814 136.642 79.6498 136.668 79.3267C136.681 79.1654 136.694 79.0062 136.707 78.8492C136.716 78.6918 136.725 78.5367 136.733 78.3836C136.751 78.0781 136.768 77.7814 136.785 77.4937C136.807 76.9176 136.816 76.3772 136.832 75.8758C136.833 75.3738 136.834 74.9093 136.835 74.4836C136.835 74.4305 136.835 74.378 136.835 74.326C136.835 74.2742 136.832 74.2289 136.83 74.1808C136.827 74.0863 136.824 73.9941 136.821 73.9043C136.815 73.7248 136.81 73.5546 136.805 73.3937C136.8 73.2332 136.796 73.082 136.791 72.9404C136.79 72.8763 136.785 72.786 136.782 72.7058C136.778 72.6249 136.774 72.547 136.77 72.472C136.755 72.1719 136.743 71.9194 136.733 71.7161C136.712 71.3095 136.701 71.0996 136.701 71.0996L153.96 71.3186Z" fill="#6366F1"/>
<path d="M0.00195312 73.1C0.00195312 73.1 0.0950654 72.2213 0.269652 70.5737C0.29511 70.3421 0.322039 70.0971 0.350432 69.8387C0.364844 69.7097 0.379607 69.5775 0.39471 69.4419C0.402563 69.3749 0.409381 69.3038 0.418529 69.2381C0.427677 69.1723 0.436904 69.1058 0.446224 69.0384C0.51958 68.5011 0.599668 67.9145 0.686227 67.2805C0.788321 66.6485 0.893267 65.97 1.01642 65.2488C1.08218 64.8888 1.14992 64.5177 1.21974 64.1355C1.25486 63.9446 1.29042 63.7511 1.3265 63.5547C1.36637 63.3591 1.40693 63.1608 1.44792 62.9596C1.53086 62.5582 1.61612 62.146 1.70345 61.7234C1.79968 61.303 1.89823 60.8721 1.9992 60.4308C2.05004 60.2107 2.10156 59.9879 2.15352 59.7627C2.21082 59.5385 2.26881 59.312 2.3274 59.083C2.44788 58.6257 2.55758 58.1564 2.69065 57.6822C3.20293 55.7809 3.83647 53.7503 4.59557 51.6174C6.11739 47.3539 8.20112 42.6894 11.0088 37.9415C11.0965 37.7931 11.1815 37.6429 11.272 37.4952C11.3629 37.3477 11.454 37.2 11.5453 37.0518C11.7274 36.7554 11.9105 36.4576 12.0944 36.1582C12.2787 35.8594 12.4747 35.5655 12.666 35.2671C12.8599 34.9704 13.0491 34.669 13.2496 34.3728C13.451 34.0774 13.6532 33.7805 13.8565 33.4823C13.9579 33.3333 14.0596 33.1839 14.1615 33.0342C14.2664 32.8867 14.3716 32.7387 14.4771 32.5905C14.6883 32.2946 14.9005 31.9973 15.1135 31.6987C15.327 31.4007 15.5525 31.1091 15.7729 30.8125C16.6557 29.6266 17.5987 28.4568 18.574 27.2874C18.8229 26.9993 19.0728 26.7101 19.3235 26.4198C19.4489 26.2748 19.5744 26.1297 19.7002 25.9842C19.8289 25.8412 19.9579 25.698 20.0871 25.5545C20.3456 25.268 20.6049 24.9805 20.8653 24.692C21.132 24.4094 21.3995 24.1259 21.668 23.8415C23.817 21.5682 26.1784 19.3891 28.6992 17.3043C29.3391 16.7943 29.9726 16.2706 30.6344 15.7758C30.9642 15.5271 31.2871 15.2684 31.6232 15.0248C31.958 14.78 32.2938 14.5347 32.6303 14.2888C32.7976 14.1646 32.9684 14.0447 33.1404 13.9262C33.3118 13.8071 33.4836 13.6877 33.6554 13.5684C33.9994 13.3298 34.3419 13.088 34.6951 12.8597C35.0456 12.6279 35.3969 12.3956 35.7489 12.1628C36.1057 11.9374 36.4632 11.7116 36.8215 11.4853C42.5729 7.89978 48.9932 4.98058 55.804 3.00335C59.207 2.00848 62.7084 1.26465 66.2534 0.755647C66.6971 0.695754 67.1409 0.635861 67.585 0.575882C68.0299 0.523152 68.4757 0.476805 68.9212 0.427268C69.1442 0.403881 69.3667 0.376612 69.5901 0.356591L70.2603 0.299376L70.9306 0.241035C71.1541 0.221704 71.3775 0.200646 71.6015 0.188909L72.9449 0.105885C73.1688 0.0900054 73.393 0.0822392 73.6172 0.0743858L74.2899 0.0497977L74.9626 0.0255468C75.1869 0.0165715 75.4112 0.0184636 75.6356 0.0145801L76.9816 0L78.3014 0.0142324L78.616 0.0176878L78.7732 0.0194155C78.824 0.0195881 78.887 0.0228661 78.9433 0.0244195L79.6382 0.0487548L80.3329 0.0739539L80.6803 0.0869011C80.7964 0.0909573 80.9054 0.0997639 81.0183 0.106064L82.3618 0.189078C82.5858 0.200815 82.8092 0.221872 83.0326 0.241204L83.703 0.299545L84.3732 0.356759C84.5964 0.376781 84.819 0.40406 85.042 0.427447C85.4875 0.476984 85.9333 0.523321 86.3782 0.57605C86.8223 0.635943 87.2662 0.695923 87.7098 0.755815C91.2548 1.26482 94.7562 2.00865 98.1592 3.00352C104.97 4.98075 111.39 7.89995 117.142 11.4855C117.5 11.7119 117.857 11.9376 118.214 12.163C118.566 12.3957 118.918 12.628 119.268 12.8598C119.621 13.0882 119.964 13.3301 120.308 13.5685C120.48 13.688 120.651 13.8073 120.823 13.9264C120.995 14.0449 121.166 14.1648 121.333 14.289C121.669 14.5349 122.005 14.7802 122.34 15.0249C122.676 15.2686 122.999 15.5273 123.329 15.776C123.991 16.2709 124.624 16.7945 125.264 17.3045C127.785 19.3892 130.146 21.5683 132.295 23.8417C132.564 24.1261 132.831 24.4096 133.098 24.6922C133.358 24.9807 133.618 25.2682 133.876 25.5547C134.005 25.6982 134.134 25.8413 134.263 25.9843C134.389 26.1298 134.515 26.2751 134.64 26.42C134.891 26.7103 135.14 26.9995 135.389 27.2876C136.365 28.4569 137.308 29.6267 138.19 30.8127C138.411 31.1093 138.636 31.4008 138.85 31.6989C139.063 31.9974 139.275 32.2947 139.486 32.5907C139.592 32.7389 139.697 32.8868 139.802 33.0344C139.904 33.1841 140.005 33.3334 140.107 33.4825C140.31 33.7807 140.512 34.0775 140.714 34.3729C140.914 34.6691 141.104 34.9705 141.298 35.2673C141.489 35.5657 141.685 35.8595 141.869 36.1583C142.053 36.4576 142.236 36.7554 142.418 37.0519C142.509 37.2001 142.6 37.3479 142.691 37.4953C142.782 37.643 142.867 37.7932 142.954 37.9416C145.762 42.6895 147.846 47.354 149.368 51.6174C150.127 53.7505 150.76 55.781 151.273 57.6823C151.406 58.1565 151.515 58.6258 151.636 59.083C151.695 59.3121 151.752 59.5387 151.81 59.7628C151.862 59.988 151.913 60.2107 151.964 60.4309C152.065 60.8721 152.164 61.303 152.26 61.7235C152.347 62.1461 152.432 62.5583 152.515 62.9597C152.556 63.1608 152.597 63.3591 152.637 63.5548C152.673 63.7512 152.709 63.9447 152.744 64.1355C152.813 64.5178 152.881 64.8889 152.947 65.2489C153.07 65.9702 153.175 66.6487 153.277 67.2806C153.364 67.9145 153.444 68.5011 153.517 69.0385C153.557 69.3075 153.582 69.5649 153.612 69.8096C153.64 70.0546 153.666 70.287 153.692 70.5066C153.742 70.946 153.786 71.3348 153.816 71.6707C153.847 72.0069 153.874 72.2897 153.895 72.5176C153.939 72.9738 153.962 73.2093 153.962 73.2093H136.702C136.702 73.2093 136.719 73.0254 136.753 72.6692C136.769 72.4906 136.789 72.2689 136.814 72.0055C136.824 71.8738 136.842 71.7311 136.85 71.5785C136.859 71.4259 136.868 71.2629 136.878 71.0898C136.889 70.9164 136.9 70.7329 136.911 70.5395C136.921 70.3461 136.938 70.142 136.942 69.929C136.954 69.5017 136.967 69.0353 136.98 68.5312C136.978 68.0277 136.985 67.4843 136.978 66.9047C136.97 66.6152 136.961 66.3165 136.952 66.009C136.947 65.855 136.943 65.6986 136.939 65.5401C136.932 65.3818 136.921 65.2218 136.912 65.0592C136.893 64.7337 136.874 64.3994 136.854 64.0566C136.83 63.714 136.796 63.3639 136.766 63.0043C136.75 62.8244 136.735 62.6424 136.719 62.4584C136.698 62.275 136.677 62.0895 136.656 61.9021C136.635 61.7144 136.613 61.5245 136.591 61.3327C136.569 61.141 136.549 60.9463 136.519 60.7517C136.464 60.3609 136.408 59.9621 136.35 59.5555C136.287 59.1496 136.212 58.7379 136.142 58.3165C136.107 58.1058 136.071 57.8932 136.027 57.6806C135.985 57.4672 135.942 57.252 135.899 57.035C135.855 56.8183 135.815 56.598 135.766 56.3784C135.716 56.1588 135.666 55.9373 135.615 55.7141C134.808 52.1416 133.53 48.1615 131.586 44.0303C130.62 41.9633 129.475 39.8675 128.156 37.775C127.506 36.7221 126.786 35.6883 126.045 34.6436C125.855 34.3862 125.663 34.1278 125.472 33.8684C125.376 33.7385 125.279 33.6085 125.183 33.4782C125.083 33.3507 124.983 33.223 124.883 33.0951C124.682 32.8387 124.481 32.5814 124.279 32.3233C124.071 32.0699 123.862 31.8157 123.652 31.5605C123.548 31.4328 123.443 31.3049 123.337 31.1767C123.231 31.0495 123.121 30.9252 123.013 30.799C122.795 30.5472 122.577 30.2946 122.357 30.0412C122.132 29.7933 121.906 29.5447 121.679 29.2952C121.565 29.1704 121.451 29.0454 121.337 28.9203C121.22 28.7978 121.103 28.6751 120.986 28.5522C120.751 28.3066 120.516 28.0602 120.28 27.8131C120.037 27.5718 119.794 27.3298 119.551 27.087C119.428 26.966 119.306 26.8448 119.183 26.7234C119.058 26.6051 118.932 26.4866 118.806 26.368C118.554 26.1306 118.301 25.8926 118.047 25.654C115.993 23.7725 113.766 21.9805 111.37 20.3405C106.585 17.0521 101.139 14.3444 95.2937 12.5158C93.8368 12.0448 92.3473 11.6592 90.8466 11.3043C89.3465 10.943 87.8218 10.6688 86.2892 10.4287C85.9055 10.3728 85.5213 10.3169 85.137 10.2609C84.7514 10.2142 84.3657 10.1675 83.9799 10.1208C83.7869 10.0985 83.594 10.0722 83.4006 10.0531L82.8195 9.99914L82.2382 9.94632C82.0443 9.92871 81.8507 9.9093 81.6562 9.89894L80.4899 9.823C80.3937 9.8173 80.2936 9.80858 80.2004 9.8053L79.9192 9.79443L79.3569 9.77182L78.7945 9.74835C78.7459 9.74671 78.7043 9.74351 78.6502 9.74317L78.493 9.74092L78.1784 9.73643L76.9819 9.71883L75.8115 9.73609C75.6164 9.74023 75.4213 9.73833 75.2265 9.74722L74.6421 9.77079L74.0577 9.79391C73.8629 9.80107 73.6681 9.80824 73.4738 9.82308L72.3076 9.89903C72.113 9.90938 71.9194 9.9288 71.7256 9.9464L71.1442 9.99922L70.5632 10.0532C70.3696 10.0723 70.1769 10.0986 69.9838 10.1209C69.5979 10.1676 69.2123 10.2143 68.8266 10.261C68.4425 10.3169 68.0584 10.3729 67.6745 10.4288C66.1421 10.6689 64.6173 10.9431 63.1172 11.3043C61.6165 11.6593 60.1269 12.045 58.6701 12.5158C52.8251 14.3445 47.379 17.0521 42.5943 20.3405C40.1979 21.9806 37.9708 23.7727 35.9165 25.6541C35.6629 25.8927 35.4101 26.1306 35.1578 26.368C35.0319 26.4867 34.9062 26.6052 34.7806 26.7235C34.6579 26.8449 34.5354 26.9662 34.413 27.0872C34.1693 27.3299 33.9263 27.5719 33.6841 27.8132C33.4479 28.0604 33.2123 28.3068 32.9774 28.5524C32.8603 28.6753 32.7433 28.7979 32.6265 28.9205C32.5125 29.0456 32.3987 29.1706 32.285 29.2954C32.0581 29.5449 31.8318 29.7935 31.6063 30.0413C31.3871 30.2948 31.1686 30.5474 30.9509 30.7991C30.8427 30.9255 30.7326 31.0497 30.6263 31.1769C30.5211 31.3049 30.416 31.4329 30.3112 31.5607C30.1016 31.8158 29.8928 32.0701 29.6847 32.3235C29.4828 32.5817 29.2815 32.8389 29.081 33.0953C28.9807 33.2232 28.8806 33.351 28.7806 33.4784C28.6843 33.6087 28.5881 33.7388 28.4921 33.8687C28.3002 34.128 28.109 34.3865 27.9186 34.6438C27.1776 35.6886 26.4581 36.7224 25.8077 37.7753C24.4882 39.8678 23.3441 41.9636 22.3774 44.0306C20.4338 48.1618 19.1561 52.1417 18.3483 55.7144C18.2978 55.9376 18.2475 56.159 18.1977 56.3787C18.1487 56.5983 18.1089 56.8184 18.0644 57.0352C18.0216 57.2523 17.9792 57.4675 17.9372 57.6808C17.8929 57.8934 17.8566 58.106 17.8217 58.3168C17.7518 58.7382 17.6762 59.1499 17.6134 59.5557C17.556 59.9623 17.4997 60.3612 17.4444 60.7519C17.4143 60.9466 17.395 61.1412 17.3724 61.333C17.3505 61.5248 17.329 61.7145 17.3076 61.9023C17.2863 62.0898 17.2654 62.2752 17.2446 62.4586C17.2289 62.6427 17.2132 62.8247 17.1978 63.0046C17.1676 63.3642 17.1338 63.7143 17.1097 64.0568C17.0899 64.3996 17.0707 64.7339 17.0519 65.0595C17.043 65.222 17.0316 65.382 17.025 65.5403C17.0205 65.6989 17.0161 65.8552 17.0118 66.0093C17.0028 66.3168 16.9939 66.6155 16.9855 66.905C16.9783 67.4846 16.9855 68.028 16.9834 68.5315C16.9971 69.0355 17.0097 69.5019 17.0212 69.9292C17.0229 69.9826 17.0246 70.0352 17.0263 70.0873C17.028 70.1395 17.0324 70.185 17.0353 70.2332C17.0417 70.328 17.0479 70.4205 17.0539 70.5107C17.0657 70.6907 17.0768 70.8615 17.0873 71.0229C17.0974 71.1839 17.1069 71.3354 17.1158 71.4774C17.1192 71.5417 17.1265 71.632 17.1328 71.7121C17.1392 71.7931 17.1453 71.8711 17.1512 71.9461C17.1747 72.2462 17.1945 72.4988 17.2106 72.7022C17.244 73.109 17.2612 73.3189 17.2612 73.3189L0.00195312 73.1Z" fill="#6366F1"/>
<path d="M76.9812 143.666C90.9225 143.666 102.224 132.365 102.224 118.423C102.224 104.482 90.9225 93.1804 76.9812 93.1804C63.0399 93.1804 51.7383 104.482 51.7383 118.423C51.7383 132.365 63.0399 143.666 76.9812 143.666Z" fill="#6366F1"/>
<path d="M76.9812 51.2383C90.9225 51.2383 102.224 39.9367 102.224 25.9954C102.224 12.0541 90.9225 0.752441 76.9812 0.752441C63.0399 0.752441 51.7383 12.0541 51.7383 25.9954C51.7383 39.9367 63.0399 51.2383 76.9812 51.2383Z" fill="#6366F1"/>
</svg>
