<svg width="297" height="75" viewBox="0 0 297 75" fill="none" xmlns="http://www.w3.org/2000/svg">
<path d="M65.1542 1.13591V73.9319H44.9158V44.7102H20.2375V73.9319H-0.000827824V1.13591H20.2375V28.4989H44.9158V1.13591H65.1542ZM113.598 73.9319L99.1425 47.0851H96.9741V73.9319H76.7358V1.13591H108.642C114.493 1.13591 119.45 2.16848 123.511 4.23361C127.573 6.22991 130.636 9.01784 132.701 12.5974C134.766 16.1081 135.799 20.0663 135.799 24.4719C135.799 29.4282 134.422 33.7994 131.668 37.5855C128.984 41.3028 125.026 43.953 119.794 45.5363L136.212 73.9319H113.598ZM96.9741 33.2487H106.99C109.744 33.2487 111.809 32.5948 113.185 31.2869C114.562 29.9789 115.251 28.0859 115.251 25.6077C115.251 23.2673 114.528 21.4431 113.082 20.1351C111.705 18.7584 109.675 18.07 106.99 18.07H96.9741V33.2487ZM229.982 1.13591V73.9319H209.744V33.765L196.011 73.9319H179.077L165.241 33.4553V73.9319H145.002V1.13591H169.474L187.75 48.4275L205.614 1.13591H229.982ZM268.969 74.6547C260.502 74.6547 253.549 72.6584 248.111 68.6658C242.673 64.6044 239.748 58.822 239.334 51.3187H260.915C261.122 53.8657 261.879 55.7243 263.187 56.8945C264.495 58.0648 266.181 58.6499 268.246 58.6499C270.105 58.6499 271.619 58.2024 272.79 57.3076C274.029 56.3438 274.648 55.0359 274.648 53.3838C274.648 51.2498 273.65 49.5977 271.654 48.4275C269.658 47.2572 266.422 45.9493 261.948 44.5037C257.198 42.9205 253.343 41.406 250.383 39.9604C247.492 38.446 244.945 36.2776 242.742 33.4553C240.608 30.5641 239.541 26.8124 239.541 22.2003C239.541 17.5193 240.711 13.5267 243.052 10.2225C245.392 6.84945 248.628 4.30245 252.758 2.5815C256.888 0.860558 261.569 8.64448e-05 266.801 8.64448e-05C275.268 8.64448e-05 282.014 1.99638 287.039 5.98897C292.133 9.91273 294.852 15.4542 295.196 22.6133H273.203C273.134 20.4105 272.445 18.7584 271.138 17.657C269.898 16.5556 268.281 16.0049 266.284 16.0049C264.77 16.0049 263.531 16.4523 262.567 17.3472C261.604 18.2421 261.122 19.5156 261.122 21.1677C261.122 22.5445 261.638 23.7491 262.67 24.7817C263.772 25.7454 265.114 26.6059 266.698 27.3631C268.281 28.0515 270.621 28.9464 273.719 30.0478C278.331 31.6311 282.117 33.2143 285.077 34.7976C288.106 36.312 290.687 38.4804 292.821 41.3028C295.024 44.0563 296.126 47.567 296.126 51.8349C296.126 56.1717 295.024 60.0611 292.821 63.503C290.687 66.9448 287.555 69.6639 283.425 71.6602C279.364 73.6565 274.545 74.6547 268.969 74.6547Z" fill="#6366F1"/>
</svg>
