<svg width="482" height="155" viewBox="0 0 482 155" fill="none" xmlns="http://www.w3.org/2000/svg">
<path d="M153.96 76.0191C153.96 76.0191 153.944 76.2286 153.913 76.6346C153.897 76.8376 153.879 77.0896 153.856 77.3893C153.844 77.5443 153.832 77.7116 153.818 77.8909C153.801 78.096 153.782 78.3149 153.762 78.5472C153.742 78.7792 153.721 79.0249 153.699 79.2838C153.687 79.4132 153.676 79.5458 153.664 79.6818C153.657 79.7489 153.652 79.8202 153.645 79.8862C153.637 79.9522 153.629 80.0189 153.622 80.0863C153.561 80.6254 153.494 81.2138 153.422 81.8497C153.334 82.484 153.245 83.1654 153.138 83.8901C153.08 84.2519 153.02 84.6251 152.959 85.0094C152.928 85.2013 152.897 85.396 152.865 85.5934C152.829 85.7902 152.793 85.9897 152.756 86.192C152.681 86.5959 152.604 87.0106 152.524 87.436C152.436 87.8594 152.346 88.2934 152.254 88.7376C152.208 88.9594 152.161 89.1839 152.113 89.411C152.061 89.6368 152.007 89.8652 151.953 90.0962C151.899 90.3269 151.845 90.5601 151.789 90.7957C151.733 91.0312 151.68 91.2698 151.616 91.5085C151.134 93.4253 150.543 95.4784 149.813 97.6348C149.722 97.9042 149.629 98.1757 149.537 98.4494C149.438 98.7209 149.338 98.9946 149.237 99.2703C149.137 99.5458 149.036 99.8235 148.934 100.103C148.833 100.383 148.719 100.66 148.61 100.942C148.5 101.223 148.389 101.506 148.278 101.791C148.168 102.076 148.042 102.358 147.925 102.645C147.805 102.931 147.684 103.219 147.563 103.509C147.443 103.799 147.309 104.085 147.18 104.376C147.051 104.667 146.92 104.959 146.788 105.253C146.655 105.546 146.512 105.837 146.373 106.132C146.233 106.426 146.093 106.722 145.951 107.019C145.803 107.314 145.654 107.61 145.504 107.908C145.352 108.205 145.205 108.506 145.047 108.804C144.888 109.101 144.728 109.4 144.567 109.7C144.252 110.304 143.907 110.9 143.566 111.506C143.479 111.657 143.395 111.809 143.306 111.96C143.217 112.11 143.127 112.26 143.037 112.411C142.857 112.712 142.676 113.015 142.494 113.32C142.312 113.624 142.119 113.923 141.929 114.226C141.738 114.528 141.551 114.835 141.352 115.137C141.153 115.438 140.953 115.74 140.751 116.044C140.651 116.196 140.55 116.348 140.449 116.5C140.344 116.65 140.24 116.801 140.135 116.952C139.925 117.254 139.715 117.556 139.503 117.861C139.291 118.164 139.067 118.462 138.848 118.764C137.972 119.974 137.03 121.165 136.058 122.359C135.81 122.653 135.56 122.949 135.31 123.245C135.185 123.393 135.06 123.541 134.934 123.69C134.805 123.835 134.676 123.982 134.547 124.128C134.288 124.42 134.029 124.714 133.769 125.008C133.502 125.297 133.234 125.587 132.966 125.877C130.814 128.198 128.445 130.429 125.908 132.561C125.264 133.083 124.626 133.619 123.96 134.126C123.628 134.381 123.301 134.644 122.963 134.894C122.626 135.145 122.287 135.396 121.948 135.648C121.779 135.775 121.607 135.898 121.434 136.019C121.261 136.141 121.088 136.264 120.914 136.386C120.567 136.63 120.222 136.878 119.866 137.113C119.512 137.35 119.157 137.588 118.801 137.826C118.441 138.057 118.08 138.288 117.718 138.52C111.908 142.193 105.404 145.193 98.4908 147.22C95.0359 148.236 91.4815 149.009 87.8793 149.525C87.4286 149.587 86.9777 149.648 86.5266 149.71C86.0746 149.764 85.6218 149.812 85.1691 149.863C84.9427 149.887 84.7166 149.915 84.4898 149.936L83.8089 149.995C83.3547 150.031 82.901 150.077 82.4461 150.105L81.0813 150.19C80.8538 150.206 80.6261 150.215 80.3982 150.223L79.7149 150.248L79.0315 150.273C78.8036 150.282 78.5758 150.28 78.3479 150.284L76.904 150.3L75.646 150.282L75.3314 150.279L75.1741 150.277C75.1238 150.277 75.0581 150.273 75.0009 150.272L74.29 150.247L73.5793 150.221L73.224 150.207C73.105 150.203 72.995 150.194 72.8801 150.188L71.5153 150.103C71.2877 150.09 71.0607 150.069 70.8338 150.049L70.1528 149.99L69.4721 149.93C69.2453 149.909 69.0193 149.88 68.7929 149.856C68.3403 149.804 67.8874 149.757 67.4356 149.702C66.9845 149.641 66.5336 149.579 66.0831 149.518C64.2834 149.253 62.4924 148.941 60.7235 148.549C58.9542 148.16 57.1996 147.722 55.475 147.205L54.8271 147.017L54.1842 146.814C53.7565 146.677 53.3265 146.547 52.9023 146.403C52.4783 146.257 52.0548 146.111 51.6319 145.966C51.4197 145.895 51.2103 145.817 51.001 145.739L50.3732 145.506L49.7461 145.272C49.5375 145.194 49.3315 145.109 49.1243 145.028C48.7109 144.863 48.2966 144.701 47.8857 144.533C47.069 144.184 46.2508 143.844 45.4506 143.47C44.6432 143.112 43.8557 142.718 43.0639 142.339C42.6732 142.139 42.2831 141.939 41.8936 141.74C41.6996 141.639 41.5033 141.543 41.3117 141.438C41.1198 141.334 40.9281 141.23 40.7366 141.126C39.2003 140.3 37.7091 139.417 36.2557 138.501C35.8938 138.269 35.5328 138.038 35.1726 137.807C34.8176 137.568 34.4634 137.33 34.1099 137.092C33.754 136.858 33.4084 136.61 33.0615 136.366C32.8882 136.244 32.7151 136.122 32.5422 136C32.3687 135.878 32.1966 135.755 32.028 135.628C31.6888 135.377 31.3503 135.126 31.0128 134.875C30.8429 134.751 30.6778 134.622 30.5125 134.493C30.3471 134.364 30.1819 134.235 30.0169 134.106C29.3521 133.598 28.7135 133.064 28.0702 132.541C27.753 132.275 27.4408 132.005 27.1272 131.737C26.9708 131.603 26.8145 131.469 26.6584 131.335C26.5054 131.198 26.3526 131.061 26.1999 130.925C25.895 130.651 25.591 130.378 25.2878 130.105C24.9905 129.826 24.694 129.548 24.3984 129.271C24.251 129.132 24.1038 128.993 23.9568 128.854C23.8128 128.713 23.6689 128.572 23.5252 128.43C23.2384 128.147 22.9526 127.865 22.6676 127.583C22.3888 127.296 22.1109 127.009 21.8339 126.723C21.6956 126.58 21.5556 126.439 21.4196 126.295C21.2846 126.149 21.1498 126.004 21.0152 125.859C20.7466 125.569 20.4789 125.28 20.212 124.991C19.9517 124.697 19.6923 124.403 19.4338 124.111C19.3047 123.965 19.1757 123.819 19.0471 123.673C18.9217 123.524 18.7965 123.376 18.6716 123.228C18.4214 122.932 18.1721 122.637 17.9238 122.343C16.9506 121.15 16.0108 119.958 15.1341 118.749C13.3696 116.339 11.7953 113.909 10.417 111.494C7.6496 106.668 5.62576 101.939 4.16599 97.6294C3.43295 95.4743 2.84343 93.4214 2.35989 91.5055C2.29508 91.2668 2.24166 91.0284 2.18548 90.793C2.12998 90.5574 2.07501 90.3242 2.02072 90.0936C1.96661 89.8627 1.91302 89.6344 1.86004 89.4085C1.8124 89.1817 1.76527 88.9573 1.71867 88.7355C1.62633 88.2913 1.53614 87.8575 1.44812 87.4341C1.36855 87.0089 1.29097 86.5943 1.21537 86.1905C1.17818 85.9883 1.14158 85.7888 1.10534 85.5921C1.07341 85.3947 1.04199 85.2001 1.01092 85.0082C0.949306 84.624 0.889407 84.251 0.831413 83.8892C0.724486 83.1644 0.633699 82.4833 0.5455 81.8491C0.472835 81.2133 0.405608 80.6249 0.344075 80.0859C0.310073 79.8162 0.291351 79.5583 0.267446 79.313C0.245007 79.0676 0.223774 78.8347 0.203753 78.6147C0.183903 78.3946 0.165176 78.1872 0.147571 77.9929C0.130138 77.7985 0.120042 77.6171 0.107528 77.4491C0.0841407 77.1127 0.0645478 76.8296 0.0487548 76.6016C0.0165647 76.1452 0 75.9097 0 75.9097H17.2601C17.2601 75.9097 17.2488 76.0935 17.227 76.4497C17.2163 76.628 17.2031 76.8495 17.1874 77.1128C17.1806 77.2444 17.1679 77.3868 17.1642 77.5391C17.1598 77.6915 17.1552 77.8542 17.1502 78.0269C17.145 78.1999 17.1396 78.3829 17.1339 78.5758C17.1294 78.7688 17.1182 78.9723 17.1203 79.1846C17.1206 79.6103 17.1208 80.0749 17.1212 80.5771C17.1371 81.0785 17.1442 81.6191 17.1675 82.1952C17.1838 82.4829 17.2005 82.7797 17.2177 83.0854C17.2261 83.2384 17.2346 83.3936 17.2432 83.5511C17.2558 83.708 17.2686 83.8673 17.2815 84.0287C17.3077 84.3519 17.3346 84.6836 17.3621 85.024C17.3937 85.3639 17.4371 85.7108 17.4754 86.0674C17.4951 86.2456 17.5151 86.426 17.5353 86.6084C17.5604 86.7901 17.5857 86.9737 17.6114 87.1595C17.6368 87.3453 17.6626 87.5334 17.6886 87.7234C17.7151 87.9133 17.7383 88.1061 17.7724 88.2987C17.8354 88.6855 17.8997 89.0802 17.9653 89.4825C18.0374 89.8838 18.1211 90.2908 18.1999 90.7071C18.2746 91.1246 18.3775 91.5431 18.4689 91.9727C18.517 92.1868 18.5606 92.4044 18.6133 92.6213C18.6668 92.8382 18.7208 93.0568 18.7751 93.2772C19.645 96.8034 20.9825 100.719 22.9664 104.772C23.0282 104.899 23.0872 105.028 23.1516 105.154C23.2163 105.28 23.2813 105.406 23.3465 105.533C23.4769 105.787 23.608 106.041 23.7397 106.297C23.8719 106.553 24.0153 106.805 24.1533 107.061C24.2941 107.315 24.4297 107.575 24.5763 107.83C24.7236 108.084 24.8715 108.34 25.0202 108.597C25.0947 108.725 25.1693 108.854 25.2441 108.983C25.3222 109.11 25.4003 109.237 25.4786 109.365C25.6353 109.62 25.7928 109.877 25.9509 110.135C26.1093 110.393 26.2791 110.644 26.4436 110.902C27.1003 111.932 27.823 112.943 28.566 113.965C28.757 114.216 28.9488 114.469 29.1412 114.722C29.2376 114.849 29.3343 114.976 29.431 115.103C29.531 115.227 29.6312 115.352 29.7314 115.477C29.932 115.728 30.1332 115.979 30.3351 116.232C30.5431 116.479 30.7517 116.728 30.961 116.977C31.0657 117.101 31.1707 117.226 31.2757 117.352C31.3818 117.476 31.4918 117.597 31.5998 117.72C31.8174 117.966 32.0356 118.212 32.2546 118.459C32.4793 118.701 32.7048 118.944 32.9309 119.188C33.0441 119.309 33.1574 119.431 33.2709 119.554C33.3872 119.673 33.5036 119.793 33.6203 119.913C33.854 120.152 34.0884 120.393 34.3236 120.634C34.5649 120.869 34.8069 121.104 35.0496 121.341C35.1711 121.459 35.2928 121.577 35.4147 121.695C35.5394 121.811 35.6643 121.926 35.7894 122.042C36.0397 122.274 36.2909 122.506 36.5426 122.738C38.584 124.57 40.7874 126.318 43.1574 127.912C47.8873 131.111 53.2519 133.737 58.9964 135.514C60.43 135.966 61.892 136.345 63.3665 136.688C63.736 136.771 64.1058 136.854 64.4758 136.936C64.848 137.009 65.2204 137.082 65.5931 137.155C65.9648 137.232 66.3408 137.289 66.7154 137.354C67.0905 137.416 67.4646 137.487 67.8422 137.536C69.347 137.773 70.8673 137.926 72.3911 138.048L73.536 138.122C73.6303 138.127 73.7292 138.136 73.8197 138.139L74.0929 138.149L74.6392 138.171L75.1855 138.194C75.233 138.195 75.2721 138.198 75.3266 138.199L75.4838 138.201L75.7984 138.205L77.0566 138.22C76.9277 138.218 77.0621 138.219 77.0519 138.218L77.1237 138.217L77.2673 138.215L77.5546 138.211L78.1291 138.203C78.3206 138.199 78.5122 138.201 78.7034 138.192L79.2771 138.169L79.8508 138.147C80.042 138.14 80.2333 138.133 80.4239 138.119L81.5688 138.045C81.7598 138.035 81.9499 138.016 82.1401 137.998L82.7105 137.945L83.2809 137.892C83.4709 137.874 83.6601 137.848 83.8496 137.827C84.2285 137.782 84.6071 137.737 84.9856 137.692C85.3628 137.637 85.7398 137.583 86.1166 137.529C86.4943 137.479 86.8682 137.408 87.2434 137.347C87.618 137.282 87.9936 137.224 88.3652 137.145C88.7376 137.072 89.1099 136.998 89.4818 136.924C89.8517 136.842 90.2214 136.759 90.5909 136.677C92.0655 136.335 93.5269 135.954 94.959 135.499L95.4973 135.334L96.0308 135.155C96.3855 135.034 96.7428 134.922 97.0945 134.795C97.4461 134.668 97.7973 134.54 98.148 134.413C98.324 134.351 98.4973 134.283 98.6705 134.214L99.1902 134.01L99.7094 133.806C99.882 133.737 100.052 133.662 100.223 133.591C100.565 133.446 100.907 133.305 101.247 133.158C101.92 132.851 102.597 132.557 103.256 132.229C103.922 131.917 104.569 131.571 105.22 131.24C105.54 131.065 105.861 130.891 106.181 130.717C106.34 130.629 106.501 130.545 106.658 130.454L107.13 130.181L107.6 129.909C107.757 129.819 107.914 129.728 108.067 129.632C108.375 129.443 108.682 129.255 108.989 129.067C109.296 128.879 109.594 128.678 109.896 128.485C110.046 128.388 110.196 128.291 110.347 128.194C110.496 128.095 110.642 127.993 110.79 127.893C111.085 127.692 111.379 127.491 111.672 127.29C111.96 127.082 112.248 126.875 112.534 126.668C112.824 126.465 113.102 126.248 113.383 126.036C113.523 125.93 113.663 125.823 113.803 125.717C113.944 125.612 114.083 125.506 114.219 125.395C114.493 125.177 114.766 124.959 115.038 124.742C115.176 124.636 115.309 124.523 115.441 124.411C115.574 124.299 115.707 124.187 115.84 124.075C116.375 123.636 116.884 123.17 117.401 122.719C117.652 122.487 117.903 122.255 118.154 122.024C118.279 121.908 118.404 121.792 118.529 121.677C118.65 121.559 118.772 121.44 118.893 121.322C119.135 121.085 119.377 120.849 119.618 120.614C119.853 120.373 120.087 120.133 120.321 119.894C120.438 119.774 120.554 119.655 120.671 119.535C120.784 119.413 120.898 119.291 121.011 119.169C121.237 118.926 121.462 118.683 121.687 118.442C121.905 118.194 122.123 117.947 122.34 117.702C122.448 117.579 122.558 117.457 122.664 117.333C122.769 117.208 122.874 117.083 122.979 116.959C123.188 116.71 123.397 116.462 123.605 116.214C123.807 115.962 124.008 115.711 124.209 115.461C124.309 115.336 124.409 115.211 124.509 115.086C124.605 114.959 124.702 114.832 124.798 114.705C124.99 114.452 125.182 114.199 125.373 113.948C126.118 112.928 126.838 111.916 127.495 110.887C128.825 108.84 129.985 106.788 130.972 104.761C132.956 100.71 134.296 96.7965 135.167 93.2718C135.222 93.0516 135.276 92.833 135.329 92.6163C135.382 92.3995 135.426 92.1821 135.475 91.9681C135.566 91.5386 135.67 91.1205 135.745 90.7032C135.823 90.2869 135.909 89.8806 135.979 89.4789C136.045 89.0767 136.11 88.6822 136.173 88.2956C136.208 88.1031 136.231 87.9104 136.258 87.7205C136.284 87.5306 136.31 87.3428 136.336 87.1569C136.361 86.9712 136.387 86.7877 136.412 86.6061C136.433 86.4238 136.453 86.2435 136.473 86.0653C136.512 85.709 136.554 85.3618 136.586 85.0221C136.614 84.6819 136.642 84.3502 136.668 84.0271C136.681 83.8658 136.694 83.7067 136.707 83.5497C136.716 83.3923 136.725 83.2371 136.733 83.0841C136.751 82.7785 136.768 82.4818 136.785 82.1942C136.807 81.618 136.816 81.0776 136.832 80.5763C136.833 80.0743 136.834 79.6097 136.835 79.1841C136.835 79.1309 136.835 79.0784 136.835 79.0265C136.835 78.9746 136.832 78.9293 136.83 78.8813C136.827 78.7868 136.824 78.6946 136.821 78.6047C136.815 78.4252 136.81 78.255 136.805 78.0942C136.8 77.9337 136.796 77.7825 136.791 77.6408C136.79 77.5767 136.785 77.4865 136.782 77.4063C136.778 77.3253 136.774 77.2474 136.77 77.1724C136.755 76.8723 136.743 76.6198 136.733 76.4166C136.712 76.0099 136.701 75.8 136.701 75.8L153.96 76.0191Z" fill="#6366F1"/>
<path d="M0.00195312 77.8005C0.00195312 77.8005 0.0950654 76.9217 0.269652 75.2742C0.29511 75.0425 0.322039 74.7975 0.350432 74.5391C0.364844 74.4101 0.379607 74.2779 0.39471 74.1423C0.402563 74.0754 0.409381 74.0043 0.418529 73.9385C0.427677 73.8727 0.436904 73.8062 0.446224 73.7389C0.51958 73.2015 0.599668 72.6149 0.686227 71.9809C0.788321 71.349 0.893267 70.6705 1.01642 69.9492C1.08218 69.5893 1.14992 69.2181 1.21974 68.8359C1.25486 68.6451 1.29042 68.4515 1.3265 68.2552C1.36637 68.0595 1.40693 67.8612 1.44792 67.66C1.53086 67.2587 1.61612 66.8465 1.70345 66.4239C1.79968 66.0034 1.89823 65.5725 1.9992 65.1313C2.05004 64.9111 2.10156 64.6884 2.15352 64.4631C2.21082 64.239 2.26881 64.0124 2.3274 63.7834C2.44788 63.3261 2.55758 62.8569 2.69065 62.3827C3.20293 60.4814 3.83647 58.4507 4.59557 56.3178C6.11739 52.0544 8.20112 47.3898 11.0088 42.6419C11.0965 42.4936 11.1815 42.3433 11.272 42.1956C11.3629 42.0482 11.454 41.9004 11.5453 41.7522C11.7274 41.4559 11.9105 41.1581 12.0944 40.8587C12.2787 40.5598 12.4747 40.266 12.666 39.9675C12.8599 39.6708 13.0491 39.3694 13.2496 39.0732C13.451 38.7778 13.6532 38.4809 13.8565 38.1828C13.9579 38.0337 14.0596 37.8843 14.1615 37.7347C14.2664 37.5871 14.3716 37.4392 14.4771 37.2909C14.6883 36.995 14.9005 36.6977 15.1135 36.3992C15.327 36.1011 15.5525 35.8096 15.7729 35.513C16.6557 34.327 17.5987 33.1572 18.574 31.9878C18.8229 31.6998 19.0728 31.4106 19.3235 31.1203C19.4489 30.9753 19.5744 30.8301 19.7002 30.6846C19.8289 30.5416 19.9579 30.3984 20.0871 30.2549C20.3456 29.9685 20.6049 29.6809 20.8653 29.3924C21.132 29.1099 21.3995 28.8264 21.668 28.5419C23.817 26.2686 26.1784 24.0895 28.6992 22.0048C29.3391 21.4947 29.9726 20.971 30.6344 20.4763C30.9642 20.2276 31.2871 19.9688 31.6232 19.7252C31.958 19.4805 32.2938 19.2351 32.6303 18.9892C32.7976 18.865 32.9684 18.7451 33.1404 18.6267C33.3118 18.5075 33.4836 18.3881 33.6554 18.2688C33.9994 18.0303 34.3419 17.7885 34.6951 17.5601C35.0456 17.3283 35.3969 17.0961 35.7489 16.8632C36.1057 16.6379 36.4632 16.412 36.8215 16.1858C42.5729 12.6002 48.9932 9.68102 55.804 7.70379C59.207 6.70892 62.7084 5.96509 66.2534 5.45609C66.6971 5.39619 67.1409 5.3363 67.585 5.27632C68.0299 5.22359 68.4757 5.17724 68.9212 5.12771C69.1442 5.10432 69.3667 5.07705 69.5901 5.05703L70.2603 4.99982L70.9306 4.94147C71.1541 4.92214 71.3775 4.90109 71.6015 4.88935L72.9449 4.80632C73.1688 4.79044 73.393 4.78268 73.6172 4.77483L74.2899 4.75024L74.9626 4.72599C75.1869 4.71701 75.4112 4.7189 75.6356 4.71502L76.9816 4.70044L78.3014 4.71467L78.616 4.71813L78.7732 4.71985C78.824 4.72003 78.887 4.72331 78.9433 4.72486L79.6382 4.74919L80.3329 4.77439L80.6803 4.78734C80.7964 4.7914 80.9054 4.8002 81.0183 4.8065L82.3618 4.88952C82.5858 4.90125 82.8092 4.92231 83.0326 4.94164L83.703 4.99998L84.3732 5.0572C84.5964 5.07722 84.819 5.1045 85.042 5.12789C85.4875 5.17742 85.9333 5.22376 86.3782 5.27649C86.8223 5.33638 87.2662 5.39636 87.7098 5.45625C91.2548 5.96526 94.7562 6.70909 98.1592 7.70396C104.97 9.68119 111.39 12.6004 117.142 16.1859C117.5 16.4123 117.857 16.6381 118.214 16.8634C118.566 17.0961 118.918 17.3285 119.268 17.5603C119.621 17.7886 119.964 18.0305 120.308 18.269C120.48 18.3884 120.651 18.5078 120.823 18.6269C120.995 18.7453 121.166 18.8652 121.333 18.9894C121.669 19.2354 122.005 19.4806 122.34 19.7254C122.676 19.969 122.999 20.2277 123.329 20.4765C123.991 20.9713 124.624 21.495 125.264 22.0049C127.785 24.0897 130.146 26.2688 132.295 28.5421C132.564 28.8266 132.831 29.1101 133.098 29.3926C133.358 29.6811 133.618 29.9687 133.876 30.2551C134.005 30.3986 134.134 30.5418 134.263 30.6848C134.389 30.8303 134.515 30.9755 134.64 31.1204C134.891 31.4107 135.14 31.6999 135.389 31.988C136.365 33.1574 137.308 34.3272 138.19 35.5131C138.411 35.8097 138.636 36.1013 138.85 36.3994C139.063 36.6979 139.275 36.9952 139.486 37.2911C139.592 37.4394 139.697 37.5873 139.802 37.7349C139.904 37.8846 140.005 38.0339 140.107 38.1829C140.31 38.4811 140.512 38.778 140.714 39.0734C140.914 39.3696 141.104 39.6709 141.298 39.9677C141.489 40.2661 141.685 40.5599 141.869 40.8588C142.053 41.1581 142.236 41.4559 142.418 41.7523C142.509 41.9005 142.6 42.0483 142.691 42.1957C142.782 42.3434 142.867 42.4936 142.954 42.642C145.762 47.3899 147.846 52.0545 149.368 56.3179C150.127 58.4509 150.76 60.4815 151.273 62.3827C151.406 62.857 151.515 63.3263 151.636 63.7835C151.695 64.0125 151.752 64.2392 151.81 64.4632C151.862 64.6884 151.913 64.9111 151.964 65.1313C152.065 65.5725 152.164 66.0034 152.26 66.424C152.347 66.8466 152.432 67.2587 152.515 67.6601C152.556 67.8612 152.597 68.0595 152.637 68.2553C152.673 68.4516 152.709 68.6452 152.744 68.836C152.813 69.2182 152.881 69.5894 152.947 69.9493C153.07 70.6706 153.175 71.3491 153.277 71.981C153.364 72.615 153.444 73.2016 153.517 73.739C153.557 74.008 153.582 74.2653 153.612 74.5101C153.64 74.7551 153.666 74.9875 153.692 75.207C153.742 75.6465 153.786 76.0353 153.816 76.3711C153.847 76.7074 153.874 76.9902 153.895 77.218C153.939 77.6743 153.962 77.9098 153.962 77.9098H136.702C136.702 77.9098 136.719 77.7259 136.753 77.3696C136.769 77.1911 136.789 76.9694 136.814 76.706C136.824 76.5742 136.842 76.4315 136.85 76.279C136.859 76.1263 136.868 75.9634 136.878 75.7902C136.889 75.6169 136.9 75.4334 136.911 75.24C136.921 75.0465 136.938 74.8425 136.942 74.6294C136.954 74.2021 136.967 73.7358 136.98 73.2317C136.978 72.7281 136.985 72.1848 136.978 71.6052C136.97 71.3156 136.961 71.017 136.952 70.7095C136.947 70.5554 136.943 70.399 136.939 70.2405C136.932 70.0822 136.921 69.9222 136.912 69.7596C136.893 69.4341 136.874 69.0998 136.854 68.757C136.83 68.4145 136.796 68.0643 136.766 67.7047C136.75 67.5249 136.735 67.3429 136.719 67.1588C136.698 66.9754 136.677 66.7899 136.656 66.6025C136.635 66.4148 136.613 66.2249 136.591 66.0332C136.569 65.8414 136.549 65.6467 136.519 65.4521C136.464 65.0613 136.408 64.6626 136.35 64.2559C136.287 63.85 136.212 63.4384 136.142 63.017C136.107 62.8062 136.071 62.5937 136.027 62.381C135.985 62.1677 135.942 61.9525 135.899 61.7354C135.855 61.5187 135.815 61.2985 135.766 61.0788C135.716 60.8592 135.666 60.6378 135.615 60.4146C134.808 56.842 133.53 52.862 131.586 48.7308C130.62 46.6638 129.475 44.568 128.156 42.4754C127.506 41.4226 126.786 40.3888 126.045 39.344C125.855 39.0867 125.663 38.8282 125.472 38.5689C125.376 38.439 125.279 38.3089 125.183 38.1786C125.083 38.0511 124.983 37.9234 124.883 37.7955C124.682 37.5391 124.481 37.2819 124.279 37.0237C124.071 36.7704 123.862 36.5161 123.652 36.2609C123.548 36.1332 123.443 36.0053 123.337 35.8771C123.231 35.7499 123.121 35.6257 123.013 35.4994C122.795 35.2477 122.577 34.9951 122.357 34.7416C122.132 34.4938 121.906 34.2451 121.679 33.9956C121.565 33.8708 121.451 33.7459 121.337 33.6207C121.22 33.4983 121.103 33.3755 120.986 33.2527C120.751 33.007 120.516 32.7607 120.28 32.5135C120.037 32.2722 119.794 32.0302 119.551 31.7874C119.428 31.6664 119.306 31.5452 119.183 31.4239C119.058 31.3055 118.932 31.1871 118.806 31.0684C118.554 30.8311 118.301 30.593 118.047 30.3544C115.993 28.473 113.766 26.681 111.37 25.0409C106.585 21.7525 101.139 19.0448 95.2937 17.2162C93.8368 16.7452 92.3473 16.3597 90.8466 16.0047C89.3465 15.6434 87.8218 15.3693 86.2892 15.1292C85.9055 15.0733 85.5213 15.0173 85.137 14.9613C84.7514 14.9146 84.3657 14.8679 83.9799 14.8213C83.7869 14.799 83.594 14.7727 83.4006 14.7535L82.8195 14.6996L82.2382 14.6468C82.0443 14.6292 81.8507 14.6097 81.6562 14.5994L80.4899 14.5234C80.3937 14.5177 80.2936 14.509 80.2004 14.5057L79.9192 14.4949L79.3569 14.4723L78.7945 14.4488C78.7459 14.4471 78.7043 14.444 78.6502 14.4436L78.493 14.4414L78.1784 14.4369L76.9819 14.4193L75.8115 14.4365C75.6164 14.4407 75.4213 14.4388 75.2265 14.4477L74.6421 14.4712L74.0577 14.4944C73.8629 14.5015 73.6681 14.5087 73.4738 14.5235L72.3076 14.5995C72.113 14.6098 71.9194 14.6292 71.7256 14.6468L71.1442 14.6997L70.5632 14.7536C70.3696 14.7728 70.1769 14.7991 69.9838 14.8213C69.5979 14.868 69.2123 14.9147 68.8266 14.9614C68.4425 15.0173 68.0584 15.0733 67.6745 15.1293C66.1421 15.3694 64.6173 15.6435 63.1172 16.0048C61.6165 16.3597 60.1269 16.7454 58.6701 17.2163C52.8251 19.0449 47.379 21.7525 42.5943 25.041C40.1979 26.681 37.9708 28.4732 35.9165 30.3545C35.6629 30.5931 35.4101 30.8311 35.1578 31.0685C35.0319 31.1871 34.9062 31.3056 34.7806 31.424C34.6579 31.5454 34.5354 31.6666 34.413 31.7876C34.1693 32.0304 33.9263 32.2724 33.6841 32.5137C33.4479 32.7608 33.2123 33.0072 32.9774 33.2528C32.8603 33.3757 32.7433 33.4984 32.6265 33.6209C32.5125 33.746 32.3987 33.871 32.285 33.9958C32.0581 34.2453 31.8318 34.4939 31.6063 34.7418C31.3871 34.9952 31.1686 35.2478 30.9509 35.4996C30.8427 35.6259 30.7326 35.7501 30.6263 35.8773C30.5211 36.0054 30.416 36.1334 30.3112 36.2611C30.1016 36.5163 29.8928 36.7705 29.6847 37.0239C29.4828 37.2821 29.2815 37.5394 29.081 37.7957C28.9807 37.9237 28.8806 38.0514 28.7806 38.1789C28.6843 38.3092 28.5881 38.4392 28.4921 38.5691C28.3002 38.8285 28.109 39.0869 27.9186 39.3443C27.1776 40.389 26.4581 41.4228 25.8077 42.4757C24.4882 44.5682 23.3441 46.664 22.3774 48.731C20.4338 52.8622 19.1561 56.8422 18.3483 60.4148C18.2978 60.638 18.2475 60.8595 18.1977 61.0791C18.1487 61.2987 18.1089 61.5189 18.0644 61.7357C18.0216 61.9527 17.9792 62.1679 17.9372 62.3813C17.8929 62.5938 17.8566 62.8064 17.8217 63.0172C17.7518 63.4386 17.6762 63.8503 17.6134 64.2562C17.556 64.6627 17.4997 65.0616 17.4444 65.4524C17.4143 65.647 17.395 65.8417 17.3724 66.0334C17.3505 66.2252 17.329 66.415 17.3076 66.6028C17.2863 66.7902 17.2654 66.9757 17.2446 67.1591C17.2289 67.3431 17.2132 67.5252 17.1978 67.705C17.1676 68.0646 17.1338 68.4147 17.1097 68.7573C17.0899 69.1 17.0707 69.4344 17.0519 69.7599C17.043 69.9225 17.0316 70.0825 17.025 70.2408C17.0205 70.3993 17.0161 70.5556 17.0118 70.7097C17.0028 71.0172 16.9939 71.3159 16.9855 71.6054C16.9783 72.185 16.9855 72.7284 16.9834 73.232C16.9971 73.736 17.0097 74.2024 17.0212 74.6297C17.0229 74.683 17.0246 74.7356 17.0263 74.7878C17.028 74.8399 17.0324 74.8854 17.0353 74.9336C17.0417 75.0285 17.0479 75.121 17.0539 75.2112C17.0657 75.3912 17.0768 75.562 17.0873 75.7234C17.0974 75.8843 17.1069 76.0359 17.1158 76.1778C17.1192 76.2421 17.1265 76.3324 17.1328 76.4126C17.1392 76.4935 17.1453 76.5715 17.1512 76.6465C17.1747 76.9467 17.1945 77.1993 17.2106 77.4027C17.244 77.8094 17.2612 78.0194 17.2612 78.0194L0.00195312 77.8005Z" fill="#6366F1"/>
<path d="M76.9812 148.367C90.9225 148.367 102.224 137.065 102.224 123.124C102.224 109.183 90.9225 97.8809 76.9812 97.8809C63.0399 97.8809 51.7383 109.183 51.7383 123.124C51.7383 137.065 63.0399 148.367 76.9812 148.367Z" fill="#6366F1"/>
<path d="M76.9812 55.9388C90.9225 55.9388 102.224 44.6371 102.224 30.6958C102.224 16.7545 90.9225 5.45288 76.9812 5.45288C63.0399 5.45288 51.7383 16.7545 51.7383 30.6958C51.7383 44.6371 63.0399 55.9388 76.9812 55.9388Z" fill="#6366F1"/>
<path d="M246.9 41.204V114H226.662V84.7784H201.984V114H181.745V41.204H201.984V68.567H226.662V41.204H246.9ZM295.345 114L280.889 87.1533H278.72V114H258.482V41.204H290.388C296.239 41.204 301.196 42.2366 305.257 44.3017C309.319 46.298 312.382 49.086 314.447 52.6655C316.512 56.1762 317.545 60.1344 317.545 64.54C317.545 69.4964 316.168 73.8676 313.414 77.6536C310.73 81.3709 306.772 84.0211 301.54 85.6044L317.958 114H295.345ZM278.72 73.3169H288.736C291.49 73.3169 293.555 72.6629 294.932 71.355C296.308 70.0471 296.997 68.154 296.997 65.6759C296.997 63.3354 296.274 61.5112 294.828 60.2033C293.452 58.8265 291.421 58.1381 288.736 58.1381H278.72V73.3169ZM411.729 41.204V114H391.49V73.8331L377.757 114H360.823L346.987 73.5234V114H326.748V41.204H351.22L369.497 88.4956L387.36 41.204H411.729ZM450.715 114.723C442.248 114.723 435.296 112.727 429.857 108.734C424.419 104.672 421.494 98.8901 421.081 91.3868H442.661C442.868 93.9338 443.625 95.7924 444.933 96.9626C446.241 98.1329 447.927 98.718 449.992 98.718C451.851 98.718 453.365 98.2706 454.536 97.3757C455.775 96.4119 456.394 95.104 456.394 93.4519C456.394 91.3179 455.396 89.6658 453.4 88.4956C451.404 87.3254 448.168 86.0174 443.694 84.5718C438.944 82.9886 435.089 81.4741 432.129 80.0285C429.238 78.5141 426.691 76.3457 424.488 73.5234C422.354 70.6322 421.287 66.8805 421.287 62.2684C421.287 57.5874 422.457 53.5948 424.798 50.2906C427.138 46.9176 430.374 44.3706 434.504 42.6496C438.634 40.9287 443.315 40.0682 448.547 40.0682C457.014 40.0682 463.76 42.0645 468.785 46.0571C473.879 49.9808 476.598 55.5223 476.942 62.6814H454.949C454.88 60.4786 454.192 58.8265 452.884 57.7251C451.645 56.6237 450.027 56.073 448.031 56.073C446.516 56.073 445.277 56.5204 444.313 57.4153C443.35 58.3102 442.868 59.5837 442.868 61.2358C442.868 62.6126 443.384 63.8172 444.417 64.8498C445.518 65.8135 446.86 66.674 448.444 67.4312C450.027 68.1196 452.367 69.0145 455.465 70.1159C460.077 71.6992 463.863 73.2824 466.823 74.8657C469.852 76.3801 472.434 78.5485 474.568 81.3709C476.77 84.1244 477.872 87.6351 477.872 91.9031C477.872 96.2398 476.77 100.129 474.568 103.571C472.434 107.013 469.301 109.732 465.171 111.728C461.11 113.725 456.291 114.723 450.715 114.723Z" fill="#6366F1"/>
</svg>
