<svg width="379" height="125" viewBox="0 0 379 125" fill="none" xmlns="http://www.w3.org/2000/svg">
<circle cx="62.334" cy="62.334" r="62.334" fill="#BBBBBB"/>
<path d="M86.2306 82.0828C84.098 77.4574 79.0451 75.8269 76.7852 75.59L87.6425 60.3446C92.7846 69.2111 88.8438 78.5311 86.2306 82.0828Z" fill="#515151" stroke="#BBBBBB" stroke-width="0.96066"/>
<path d="M35.5 47.2102C40.6537 47.5936 43.9444 51.6986 44.9454 53.703L55.8028 38.4578C45.5624 36.7502 38.0006 43.5812 35.5 47.2102Z" fill="#515151" stroke="#BBBBBB" stroke-width="0.96066"/>
<path fill-rule="evenodd" clip-rule="evenodd" d="M47.1208 55.9237C47.1459 55.8551 47.1802 55.79 47.2228 55.7302L61.6428 35.4828C61.8798 35.15 62.1599 34.8481 62.4805 34.5914C69.3113 29.1213 77.4153 25.6359 85.8775 24.2944C88.1076 23.9408 90.2006 25.3795 90.6267 27.559C92.2434 35.8291 91.6876 44.5033 88.7974 52.6825C88.6618 53.0663 88.4692 53.4282 88.2322 53.7611L73.8133 74.0071C73.7706 74.0671 73.7202 74.1211 73.6631 74.1679C73.3733 74.4048 72.9584 74.4186 72.6496 74.2062L47.4307 56.8706C47.1225 56.6586 46.9938 56.2716 47.1208 55.9237Z" fill="#515151"/>
<mask id="mask0_227_3" style="mask-type:luminance" maskUnits="userSpaceOnUse" x="47" y="24" width="45" height="51">
<path fill-rule="evenodd" clip-rule="evenodd" d="M47.1208 55.9237C47.1459 55.8551 47.1802 55.79 47.2228 55.7302L61.6428 35.4828C61.8798 35.15 62.1599 34.8481 62.4805 34.5914C69.3113 29.1213 77.4153 25.6359 85.8775 24.2944C88.1076 23.9408 90.2006 25.3795 90.6267 27.559C92.2434 35.8291 91.6876 44.5033 88.7974 52.6825C88.6618 53.0663 88.4692 53.4282 88.2322 53.7611L73.8133 74.0071C73.7706 74.0671 73.7202 74.1211 73.6631 74.1679C73.3733 74.4048 72.9584 74.4186 72.6496 74.2062L47.4307 56.8706C47.1225 56.6586 46.9938 56.2716 47.1208 55.9237Z" fill="white"/>
</mask>
<g mask="url(#mask0_227_3)">
<path d="M48.2561 56.4401L62.6761 36.1927L60.6092 34.7719L46.1892 55.0193L48.2561 56.4401ZM85.6765 23.0705C77.0006 24.4459 68.6901 28.0195 61.6835 33.6303L63.2772 35.5515C69.9324 30.2218 77.8297 26.8249 86.0784 25.5172L85.6765 23.0705ZM89.9888 53.0885C92.9534 44.6988 93.5229 35.8036 91.8652 27.3247L89.3877 27.7922C90.9638 35.8537 90.4216 44.3068 87.6057 52.2758L89.9888 53.0885ZM87.1986 53.0502L72.7797 73.2962L74.8466 74.7171L89.2655 54.471L87.1986 53.0502ZM73.3726 73.1904L48.1537 55.8546L46.7075 57.8855L71.9264 75.2211L73.3726 73.1904ZM48.1537 55.8546C48.3035 55.9577 48.3763 56.1545 48.3079 56.3417L45.9336 55.5046C45.611 56.3877 45.9412 57.3587 46.7075 57.8855L48.1537 55.8546ZM72.8558 73.2151C73.011 73.0881 73.2233 73.0879 73.3726 73.1904L71.9264 75.2211C72.6932 75.7482 73.7355 75.7204 74.47 75.1197L72.8558 73.2151ZM72.7797 73.2962C72.8005 73.2669 72.8258 73.2396 72.8558 73.2151L74.47 75.1197C74.6142 75.0017 74.7405 74.866 74.8466 74.7171L72.7797 73.2962ZM87.6057 52.2758C87.5109 52.544 87.3736 52.8044 87.1986 53.0502L89.2655 54.471C89.5647 54.051 89.8124 53.5875 89.9888 53.0885L87.6057 52.2758ZM86.0784 25.5172C87.6351 25.2703 89.0903 26.2708 89.3877 27.7922L91.8652 27.3247C91.3104 24.4873 88.5799 22.6102 85.6765 23.0705L86.0784 25.5172ZM62.6761 36.1927C62.8511 35.947 63.053 35.7309 63.2772 35.5515L61.6835 33.6303C61.2666 33.9641 60.9084 34.3517 60.6092 34.7719L62.6761 36.1927ZM46.1892 55.0193C46.0832 55.1683 45.9969 55.3313 45.9336 55.5046L48.3079 56.3417C48.2947 56.3779 48.2771 56.4109 48.2561 56.4401L46.1892 55.0193Z" fill="#BBBBBB"/>
</g>
<path d="M46.3787 58.9184L71.3065 76.0541L67.7535 81.043C66.283 83.1079 63.3871 83.6106 61.2854 82.1659L43.9685 70.2619C41.8669 68.8171 41.3552 65.9722 42.8258 63.9073L46.3787 58.9184Z" fill="#515151" stroke="#BBBBBB" stroke-width="0.981016"/>
<path d="M40.6736 73.5378L40.6736 73.5378C39.8172 72.9491 38.6373 73.1539 38.0382 73.9952L32.2521 82.1196C31.6529 82.9609 31.8614 84.1201 32.7177 84.7088C33.5741 85.2975 34.754 85.0926 35.3532 84.2513L41.1392 76.1269C41.7384 75.2856 41.5299 74.1264 40.6736 73.5378Z" fill="#515151"/>
<path d="M40.6736 73.5378L40.6736 73.5378C41.5299 74.1264 41.7384 75.2856 41.1392 76.1269L35.3532 84.2513C34.754 85.0926 33.5741 85.2975 32.7177 84.7088L32.7177 84.7088C31.8614 84.1201 31.6529 82.9609 32.2521 82.1196L38.0382 73.9952C38.6373 73.1539 39.8172 72.9491 40.6736 73.5378Z" stroke="#BBBBBB" stroke-width="0.981236"/>
<path d="M59.281 86.3287L59.281 86.3287C58.4247 85.7401 57.2447 85.9449 56.6456 86.7862L50.8595 94.9106C50.2603 95.7519 50.4688 96.9111 51.3252 97.4998C52.1815 98.0884 53.3614 97.8836 53.9606 97.0423L59.7466 88.9179C60.3458 88.0766 60.1373 86.9174 59.281 86.3287Z" fill="#515151"/>
<path d="M59.281 86.3287L59.281 86.3287C60.1373 86.9174 60.3458 88.0766 59.7466 88.9179L53.9606 97.0423C53.3614 97.8836 52.1815 98.0884 51.3252 97.4998L51.3252 97.4998C50.4688 96.9111 50.2603 95.7519 50.8595 94.9106L56.6456 86.7862C57.2447 85.9449 58.4247 85.7401 59.281 86.3287Z" stroke="#BBBBBB" stroke-width="0.981236"/>
<path d="M50.7009 78.9183L50.7009 78.9183C49.8446 78.3296 48.6647 78.5344 48.0655 79.3757L36.855 95.1167C36.2559 95.958 36.4643 97.1172 37.3207 97.7059C38.177 98.2945 39.3569 98.0897 39.9561 97.2484L51.1666 81.5074C51.7657 80.6661 51.5573 79.5069 50.7009 78.9183Z" fill="#515151"/>
<path d="M50.7009 78.9183L50.7009 78.9183C51.5573 79.5069 51.7657 80.6661 51.1666 81.5074L39.9561 97.2484C39.3569 98.0897 38.177 98.2945 37.3207 97.7059L37.3207 97.7059C36.4643 97.1172 36.2559 95.958 36.855 95.1167L48.0655 79.3757C48.6647 78.5344 49.8446 78.3296 50.7009 78.9183Z" stroke="#BBBBBB" stroke-width="0.981236"/>
<path d="M180.096 70.1769H163.9V59.9615H180.096C182.599 59.9615 184.636 59.554 186.208 58.7391C187.779 57.8951 188.929 56.731 189.656 55.2467C190.384 53.7624 190.748 52.089 190.748 50.2263C190.748 48.3346 190.384 46.5738 189.656 44.944C188.929 43.3142 187.779 42.0046 186.208 41.015C184.636 40.0255 182.599 39.5308 180.096 39.5308H168.44V92.834H155.343V29.2717H180.096C185.073 29.2717 189.336 30.174 192.887 31.9784C196.467 33.7537 199.202 36.213 201.094 39.3561C202.986 42.4993 203.932 46.0936 203.932 50.139C203.932 54.2426 202.986 57.7933 201.094 60.7909C199.202 63.7886 196.467 66.1024 192.887 67.7322C189.336 69.362 185.073 70.1769 180.096 70.1769ZM224.56 25.7793V92.834H211.943V25.7793H224.56ZM259.55 82.1821V61.1402C259.55 59.6268 259.303 58.3317 258.808 57.2549C258.313 56.1489 257.542 55.2904 256.494 54.6792C255.476 54.068 254.152 53.7624 252.522 53.7624C251.125 53.7624 249.917 54.0098 248.898 54.5046C247.88 54.9702 247.094 55.6542 246.541 56.5564C245.988 57.4295 245.712 58.4627 245.712 59.6559H233.139C233.139 57.6478 233.605 55.7415 234.536 53.937C235.467 52.1326 236.82 50.5465 238.596 49.1786C240.371 47.7816 242.481 46.6903 244.926 45.9045C247.4 45.1187 250.164 44.7258 253.22 44.7258C256.887 44.7258 260.147 45.3369 262.999 46.5593C265.851 47.7816 268.092 49.6152 269.722 52.0599C271.381 54.5046 272.21 57.5604 272.21 61.2275V81.44C272.21 84.0302 272.371 86.1547 272.691 87.8136C273.011 89.4434 273.476 90.8695 274.088 92.0919V92.834H261.384C260.773 91.5535 260.307 89.9528 259.987 88.0319C259.696 86.082 259.55 84.132 259.55 82.1821ZM261.209 64.0651L261.297 71.1809H254.268C252.609 71.1809 251.169 71.3701 249.946 71.7485C248.724 72.1268 247.72 72.6652 246.934 73.3637C246.148 74.0331 245.566 74.8189 245.188 75.7211C244.839 76.6233 244.664 77.6128 244.664 78.6897C244.664 79.7665 244.911 80.7415 245.406 81.6146C245.901 82.4586 246.614 83.128 247.545 83.6227C248.476 84.0884 249.568 84.3212 250.819 84.3212C252.711 84.3212 254.355 83.9429 255.752 83.1862C257.149 82.4295 258.226 81.4982 258.983 80.3922C259.769 79.2863 260.176 78.2386 260.205 77.249L263.523 82.575C263.057 83.7682 262.417 85.0051 261.602 86.2857C260.816 87.5663 259.812 88.7741 258.59 89.9091C257.368 91.015 255.898 91.9318 254.181 92.6594C252.464 93.3579 250.426 93.7071 248.069 93.7071C245.071 93.7071 242.35 93.1105 239.905 91.9173C237.49 90.6949 235.569 89.0214 234.143 86.8969C232.746 84.7432 232.047 82.2985 232.047 79.5628C232.047 77.089 232.513 74.8916 233.444 72.9708C234.376 71.05 235.744 69.4347 237.548 68.1251C239.382 66.7863 241.666 65.7822 244.402 65.1128C247.138 64.4143 250.31 64.0651 253.919 64.0651H261.209ZM293.319 55.6833V92.834H280.746V45.5989H292.533L293.319 55.6833ZM291.485 67.5575H288.08C288.08 64.0651 288.531 60.9219 289.433 58.128C290.336 55.3049 291.602 52.9039 293.231 50.9248C294.861 48.9167 296.797 47.3887 299.038 46.341C301.308 45.2642 303.84 44.7258 306.634 44.7258C308.845 44.7258 310.868 45.0459 312.702 45.6862C314.535 46.3265 316.107 47.3451 317.416 48.7421C318.755 50.139 319.774 51.9871 320.472 54.2863C321.2 56.5855 321.564 59.394 321.564 62.7118V92.834H308.904V62.6681C308.904 60.5727 308.613 58.9429 308.031 57.7787C307.448 56.6146 306.59 55.7997 305.455 55.334C304.349 54.8393 302.981 54.5919 301.351 54.5919C299.663 54.5919 298.194 54.9266 296.942 55.596C295.72 56.2653 294.701 57.1967 293.886 58.3899C293.1 59.554 292.504 60.9219 292.096 62.4935C291.689 64.0651 291.485 65.7531 291.485 67.5575ZM343.501 45.5989V92.834H330.885V45.5989H343.501ZM330.099 33.288C330.099 31.4545 330.74 29.9411 332.02 28.7479C333.301 27.5546 335.018 26.958 337.171 26.958C339.296 26.958 340.999 27.5546 342.279 28.7479C343.589 29.9411 344.244 31.4545 344.244 33.288C344.244 35.1216 343.589 36.635 342.279 37.8282C340.999 39.0215 339.296 39.6181 337.171 39.6181C335.018 39.6181 333.301 39.0215 332.02 37.8282C330.74 36.635 330.099 35.1216 330.099 33.288ZM376.135 45.5989V54.5046H348.632V45.5989H376.135ZM355.442 33.9429H368.015V78.6024C368.015 79.9702 368.189 81.018 368.539 81.7455C368.917 82.4731 369.47 82.9824 370.198 83.2735C370.925 83.5354 371.842 83.6664 372.948 83.6664C373.734 83.6664 374.432 83.6373 375.043 83.5791C375.684 83.4918 376.222 83.4044 376.659 83.3171L376.702 92.5721C375.625 92.9213 374.461 93.1978 373.21 93.4015C371.958 93.6053 370.576 93.7071 369.063 93.7071C366.298 93.7071 363.882 93.256 361.816 92.3538C359.779 91.4225 358.207 89.9382 357.101 87.901C355.995 85.8637 355.442 83.1862 355.442 79.8684V33.9429Z" fill="#BBBBBB"/>
</svg>
