<svg width="550" height="119" viewBox="0 0 550 119" fill="none" xmlns="http://www.w3.org/2000/svg">
<path d="M102.759 54.3747C102.759 81.5279 83.0399 106.96 56.1 114.4C54.267 114.9 52.2672 114.9 50.4342 114.4C23.4943 106.96 3.77539 81.5279 3.77539 54.3747V29.9979C3.77539 25.4446 7.21934 20.2805 11.4964 18.5592L42.4355 5.89897C49.3788 3.06704 57.2108 3.06704 64.1541 5.89897L95.0933 18.5592C99.3148 20.2805 102.814 25.4446 102.814 29.9979L102.759 54.3747Z" stroke="#079455" stroke-width="7.55" stroke-linecap="round" stroke-linejoin="round"/>
<rect x="25.1836" y="51.5333" width="55.5001" height="15.7888" rx="7.89441" fill="#146440"/>
<rect x="21.959" y="58.6116" width="55.5001" height="15.7888" rx="7.89441" transform="rotate(-40.6804 21.959 58.6116)" fill="#079455"/>
<rect x="31.8809" y="84.3616" width="55.5001" height="15.7888" rx="7.89441" transform="rotate(-40.6804 31.8809 84.3616)" fill="#079455"/>
<path d="M168.722 39.0693C166.203 37.6897 163.624 36.55 160.984 35.6503C158.405 34.7505 155.976 34.3006 153.696 34.3006C150.877 34.3006 148.658 34.8705 147.038 36.0102C145.419 37.1498 144.609 38.8594 144.609 41.1387C144.609 42.6983 145.209 44.1079 146.408 45.3675C147.668 46.5672 149.258 47.6469 151.177 48.6066C153.156 49.5663 155.196 50.4361 157.295 51.2159C159.215 51.9357 161.104 52.8054 162.964 53.8251C164.883 54.7849 166.593 56.0145 168.092 57.5141C169.592 58.9537 170.792 60.7832 171.691 63.0025C172.591 65.1619 173.041 67.8312 173.041 71.0103C173.041 74.3693 172.171 77.4885 170.432 80.3677C168.692 83.2468 166.143 85.5862 162.784 87.3857C159.425 89.1252 155.286 89.9949 150.367 89.9949C147.848 89.9949 145.269 89.755 142.629 89.2751C140.05 88.7353 137.501 87.9555 134.982 86.9358C132.462 85.8561 130.033 84.5065 127.694 82.8869L133.452 72.7198C135.012 73.8595 136.691 74.8792 138.491 75.7789C140.35 76.6187 142.21 77.2785 144.069 77.7584C145.929 78.2383 147.638 78.4782 149.198 78.4782C150.757 78.4782 152.317 78.2682 153.876 77.8484C155.496 77.3685 156.815 76.5887 157.835 75.509C158.915 74.4293 159.455 72.9298 159.455 71.0103C159.455 69.6907 159.005 68.491 158.105 67.4113C157.265 66.3316 156.096 65.3419 154.596 64.4421C153.156 63.5424 151.567 62.7626 149.827 62.1028C147.788 61.323 145.689 60.4233 143.529 59.4036C141.37 58.3838 139.33 57.1542 137.411 55.7146C135.551 54.215 134.022 52.3855 132.822 50.2261C131.683 48.0068 131.113 45.3075 131.113 42.1284C131.113 38.2895 131.952 34.9604 133.632 32.1412C135.371 29.322 137.801 27.1027 140.92 25.4831C144.039 23.8036 147.638 22.8739 151.717 22.6939C157.055 22.6939 161.374 23.3237 164.673 24.5834C168.032 25.843 171.031 27.3426 173.671 29.0821L168.722 39.0693ZM200.304 90.3548C196.645 90.3548 193.316 89.635 190.317 88.1955C187.378 86.6959 185.038 84.4165 183.299 81.3574C181.559 78.2982 180.689 74.3993 180.689 69.6607C180.689 65.2219 181.589 61.383 183.389 58.1439C185.188 54.9048 187.557 52.4155 190.497 50.676C193.436 48.8765 196.555 47.9768 199.854 47.9768C203.753 47.9768 206.692 48.6366 208.672 49.9562C210.711 51.2159 212.39 52.6255 213.71 54.185L213.17 55.7146L214.34 49.9562H226.037V89.2751H213.44V80.7276L214.43 83.4268C214.31 83.4268 213.95 83.7867 213.35 84.5065C212.75 85.1663 211.851 85.9761 210.651 86.9358C209.511 87.8356 208.072 88.6153 206.332 89.2751C204.653 89.9949 202.643 90.3548 200.304 90.3548ZM203.903 80.0977C205.402 80.0977 206.752 79.8878 207.952 79.4679C209.151 78.988 210.201 78.3282 211.101 77.4885C212.001 76.5887 212.78 75.479 213.44 74.1594V64.5321C212.96 63.2125 212.241 62.1028 211.281 61.2031C210.321 60.2433 209.181 59.5235 207.862 59.0437C206.542 58.5038 205.073 58.2339 203.453 58.2339C201.654 58.2339 199.974 58.7138 198.414 59.6735C196.915 60.5732 195.715 61.8329 194.815 63.4524C193.916 65.072 193.466 66.9314 193.466 69.0308C193.466 71.1303 193.946 73.0197 194.905 74.6993C195.865 76.3788 197.125 77.6984 198.684 78.6581C200.304 79.6179 202.043 80.0977 203.903 80.0977ZM242.795 89.2751V60.9331H236.137V49.7763H242.795V36.1001C242.795 30.9416 244.265 26.7428 247.204 23.5037C250.203 20.2046 254.522 18.5551 260.16 18.5551C261.84 18.5551 263.699 18.825 265.739 19.3648C267.838 19.8447 269.668 20.6545 271.227 21.7942L265.919 30.8816C265.319 30.1018 264.599 29.592 263.759 29.352C262.979 29.0521 262.23 28.9022 261.51 28.9022C259.71 28.9022 258.241 29.502 257.101 30.7016C255.961 31.9013 255.392 33.8208 255.392 36.46V49.7763H267.268V60.9331H255.392V89.2751H242.795ZM294.825 90.3548C290.026 90.3548 285.948 89.4551 282.589 87.6556C279.289 85.8561 276.77 83.3668 275.031 80.1877C273.291 77.0086 272.421 73.3496 272.421 69.2108C272.421 65.2519 273.441 61.6829 275.481 58.5038C277.52 55.3247 280.249 52.8054 283.668 50.9459C287.087 49.0265 290.896 48.0668 295.095 48.0668C300.733 48.0668 305.352 49.7163 308.951 53.0154C312.61 56.2544 314.979 60.9631 316.059 67.1414L285.468 76.8586L282.678 70.0206L304.812 62.5527L302.203 63.7223C301.723 62.1628 300.853 60.8132 299.594 59.6735C298.394 58.4738 296.565 57.874 294.105 57.874C292.246 57.874 290.596 58.3239 289.157 59.2236C287.777 60.0634 286.697 61.293 285.918 62.9126C285.198 64.4721 284.838 66.3316 284.838 68.491C284.838 70.9503 285.288 73.0197 286.188 74.6993C287.087 76.3188 288.317 77.5485 289.876 78.3882C291.436 79.228 293.176 79.6479 295.095 79.6479C296.475 79.6479 297.794 79.4079 299.054 78.9281C300.374 78.4482 301.663 77.8184 302.923 77.0386L308.501 86.396C306.402 87.5956 304.122 88.5553 301.663 89.2751C299.264 89.9949 296.984 90.3548 294.825 90.3548ZM328.902 32.6811H341.498V49.7763H351.035V59.5835H341.498V89.2751H328.902V59.5835H322.783V49.7763H328.902V32.6811ZM371.959 49.9562L373.129 60.7532L372.859 59.1336C373.999 56.7943 375.558 54.8149 377.538 53.1953C379.517 51.5158 381.467 50.2261 383.386 49.3264C385.366 48.4267 386.865 47.9768 387.885 47.9768L387.255 60.5732C384.316 60.2133 381.797 60.6932 379.697 62.0128C377.598 63.3325 375.978 65.072 374.839 67.2314C373.699 69.3907 373.129 71.6101 373.129 73.8895V89.2751H360.623V49.9562H371.959ZM412.764 90.3548C409.105 90.3548 405.776 89.635 402.776 88.1955C399.837 86.6959 397.498 84.4165 395.758 81.3574C394.019 78.2982 393.149 74.3993 393.149 69.6607C393.149 65.2219 394.049 61.383 395.848 58.1439C397.648 54.9048 400.017 52.4155 402.956 50.676C405.895 48.8765 409.015 47.9768 412.314 47.9768C416.213 47.9768 419.152 48.6366 421.131 49.9562C423.171 51.2159 424.85 52.6255 426.17 54.185L425.63 55.7146L426.8 49.9562H438.496V89.2751H425.9V80.7276L426.89 83.4268C426.77 83.4268 426.41 83.7867 425.81 84.5065C425.21 85.1663 424.31 85.9761 423.111 86.9358C421.971 87.8356 420.531 88.6153 418.792 89.2751C417.112 89.9949 415.103 90.3548 412.764 90.3548ZM416.363 80.0977C417.862 80.0977 419.212 79.8878 420.411 79.4679C421.611 78.988 422.661 78.3282 423.561 77.4885C424.46 76.5887 425.24 75.479 425.9 74.1594V64.5321C425.42 63.2125 424.7 62.1028 423.74 61.2031C422.781 60.2433 421.641 59.5235 420.321 59.0437C419.002 58.5038 417.532 58.2339 415.913 58.2339C414.113 58.2339 412.434 58.7138 410.874 59.6735C409.375 60.5732 408.175 61.8329 407.275 63.4524C406.375 65.072 405.925 66.9314 405.925 69.0308C405.925 71.1303 406.405 73.0197 407.365 74.6993C408.325 76.3788 409.584 77.6984 411.144 78.6581C412.764 79.6179 414.503 80.0977 416.363 80.0977ZM484.856 85.7661C483.117 87.1457 480.928 88.2554 478.288 89.0952C475.709 89.935 473.16 90.3548 470.64 90.3548C466.142 90.3548 462.213 89.5451 458.854 87.9255C455.555 86.246 452.975 83.8767 451.116 80.8175C449.316 77.6984 448.417 73.9495 448.417 69.5707C448.417 65.1919 449.406 61.473 451.386 58.4138C453.365 55.2947 455.945 52.9254 459.124 51.3058C462.363 49.6863 465.752 48.8765 469.291 48.8765C472.83 48.8765 475.889 49.3564 478.468 50.3161C481.108 51.2759 483.357 52.5355 485.216 54.0951L479.098 62.1928C478.258 61.533 477.089 60.8731 475.589 60.2133C474.149 59.4935 472.44 59.1336 470.461 59.1336C468.721 59.1336 467.131 59.5835 465.692 60.4833C464.252 61.383 463.113 62.6127 462.273 64.1722C461.433 65.7318 461.013 67.5313 461.013 69.5707C461.013 71.4902 461.463 73.2597 462.363 74.8792C463.263 76.4987 464.492 77.7884 466.052 78.7481C467.671 79.6479 469.561 80.0977 471.72 80.0977C473.1 80.0977 474.359 79.9178 475.499 79.5579C476.699 79.138 477.718 78.5682 478.558 77.8484L484.856 85.7661ZM494.53 89.2751V18.2851H507.127V89.2751H494.53ZM517.114 62.5527L534.929 89.2751H520.263L508.836 69.7506L517.114 62.5527ZM503.348 78.3882L502.088 66.4216L525.841 48.9665L533.489 55.7146L503.348 78.3882Z" fill="#079455"/>
</svg>
