<svg width="425" height="75" viewBox="0 0 425 75" fill="none" xmlns="http://www.w3.org/2000/svg">
<path d="M43.9076 20.7841C41.3883 19.4045 38.8091 18.2648 36.1698 17.3651C33.5905 16.4654 31.1612 16.0155 28.8819 16.0155C26.0627 16.0155 23.8433 16.5853 22.2237 17.725C20.6042 18.8647 19.7944 20.5742 19.7944 22.8536C19.7944 24.4131 20.3943 25.8227 21.5939 27.0824C22.8536 28.282 24.4431 29.3617 26.3626 30.3214C28.342 31.2812 30.3814 32.1509 32.4809 32.9307C34.4003 33.6505 36.2898 34.5203 38.1493 35.54C40.0687 36.4997 41.7782 37.7294 43.2778 39.2289C44.7774 40.6685 45.977 42.498 46.8768 44.7174C47.7765 46.8768 48.2264 49.546 48.2264 52.7251C48.2264 56.0842 47.3567 59.2033 45.6171 62.0825C43.8776 64.9617 41.3284 67.301 37.9693 69.1005C34.6102 70.84 30.4714 71.7098 25.5528 71.7098C23.0335 71.7098 20.4542 71.4699 17.815 70.99C15.2357 70.4501 12.6864 69.6704 10.1671 68.6506C7.64785 67.571 5.21853 66.2213 2.87919 64.6018L8.63757 54.4347C10.1971 55.5743 11.8767 56.594 13.6761 57.4938C15.5356 58.3336 17.3951 58.9934 19.2546 59.4732C21.1141 59.9531 22.8236 60.193 24.3831 60.193C25.9427 60.193 27.5023 59.9831 29.0618 59.5632C30.6814 59.0833 32.001 58.3036 33.0207 57.2239C34.1004 56.1442 34.6402 54.6446 34.6402 52.7251C34.6402 51.4055 34.1904 50.2058 33.2906 49.1261C32.4509 48.0465 31.2812 47.0567 29.7816 46.157C28.342 45.2572 26.7525 44.4775 25.013 43.8176C22.9735 43.0379 20.8741 42.1381 18.7147 41.1184C16.5553 40.0987 14.5159 38.869 12.5965 37.4294C10.737 35.9299 9.20741 34.1004 8.00774 31.941C6.86806 29.7216 6.29823 27.0224 6.29823 23.8433C6.29823 20.0044 7.13799 16.6753 8.81752 13.8561C10.557 11.0369 12.9863 8.8175 16.1055 7.19796C19.2246 5.51843 22.8236 4.5887 26.9024 4.40875C32.2409 4.40875 36.5597 5.03857 39.8588 6.29821C43.2178 7.55786 46.217 9.05744 48.8562 10.7969L43.9076 20.7841ZM75.4894 72.0697C71.8305 72.0697 68.5014 71.3499 65.5022 69.9103C62.5631 68.4107 60.2237 66.1314 58.4842 63.0722C56.7447 60.0131 55.875 56.1142 55.875 51.3755C55.875 46.9368 56.7747 43.0978 58.5742 39.8588C60.3737 36.6197 62.743 34.1304 65.6822 32.3909C68.6214 30.5914 71.7405 29.6916 75.0396 29.6916C78.9385 29.6916 81.8776 30.3514 83.8571 31.6711C85.8965 32.9307 87.576 34.3403 88.8957 35.8999L88.3558 37.4294L89.5255 31.6711H101.222V70.99H88.6257V62.4424L89.6155 65.1416C89.4955 65.1416 89.1356 65.5015 88.5358 66.2213C87.9359 66.8811 87.0362 67.6909 85.8365 68.6506C84.6968 69.5504 83.2572 70.3302 81.5177 70.99C79.8382 71.7098 77.8288 72.0697 75.4894 72.0697ZM79.0884 61.8126C80.588 61.8126 81.9376 61.6026 83.1373 61.1828C84.3369 60.7029 85.3866 60.0431 86.2864 59.2033C87.1861 58.3036 87.9659 57.1939 88.6257 55.8742V46.247C88.1459 44.9273 87.4261 43.8176 86.4663 42.9179C85.5066 41.9582 84.3669 41.2384 83.0473 40.7585C81.7277 40.2187 80.2581 39.9487 78.6385 39.9487C76.8391 39.9487 75.1595 40.4286 73.6 41.3883C72.1004 42.2881 70.9007 43.5477 70.001 45.1673C69.1012 46.7868 68.6514 48.6463 68.6514 50.7457C68.6514 52.8451 69.1312 54.7346 70.091 56.4141C71.0507 58.0936 72.3103 59.4133 73.8699 60.373C75.4894 61.3327 77.2289 61.8126 79.0884 61.8126ZM117.981 70.99V42.648H111.323V31.4911H117.981V17.815C117.981 12.6564 119.45 8.45761 122.389 5.21852C125.389 1.91945 129.707 0.269916 135.346 0.269916C137.025 0.269916 138.885 0.53984 140.924 1.07969C143.024 1.55955 144.853 2.36932 146.413 3.509L141.104 12.5964C140.504 11.8167 139.785 11.3068 138.945 11.0669C138.165 10.767 137.415 10.617 136.695 10.617C134.896 10.617 133.426 11.2168 132.287 12.4165C131.147 13.6162 130.577 15.5356 130.577 18.1749V31.4911H142.454V42.648H130.577V70.99H117.981ZM170.011 72.0697C165.212 72.0697 161.133 71.1699 157.774 69.3704C154.475 67.571 151.956 65.0817 150.216 61.9026C148.477 58.7234 147.607 55.0645 147.607 50.9256C147.607 46.9668 148.627 43.3978 150.666 40.2187C152.705 37.0396 155.435 34.5203 158.854 32.6608C162.273 30.7413 166.082 29.7816 170.281 29.7816C175.919 29.7816 180.538 31.4311 184.137 34.7302C187.796 37.9693 190.165 42.678 191.245 48.8562L160.653 58.5735L157.864 51.7354L179.998 44.2675L177.389 45.4372C176.909 43.8776 176.039 42.528 174.779 41.3883C173.58 40.1887 171.75 39.5888 169.291 39.5888C167.431 39.5888 165.782 40.0387 164.342 40.9385C162.963 41.7782 161.883 43.0079 161.103 44.6274C160.383 46.187 160.023 48.0465 160.023 50.2058C160.023 52.6652 160.473 54.7346 161.373 56.4141C162.273 58.0336 163.502 59.2633 165.062 60.1031C166.622 60.9428 168.361 61.3627 170.281 61.3627C171.66 61.3627 172.98 61.1228 174.239 60.6429C175.559 60.163 176.849 59.5332 178.108 58.7534L183.687 68.1108C181.587 69.3105 179.308 70.2702 176.849 70.99C174.449 71.7098 172.17 72.0697 170.011 72.0697ZM204.087 14.3959H216.684V31.4911H226.221V41.2984H216.684V70.99H204.087V41.2984H197.969V31.4911H204.087V14.3959ZM247.145 31.6711L248.315 42.468L248.045 40.8485C249.184 38.5091 250.744 36.5297 252.723 34.9102C254.703 33.2306 256.652 31.941 258.572 31.0412C260.551 30.1415 262.051 29.6916 263.07 29.6916L262.441 42.2881C259.501 41.9282 256.982 42.408 254.883 43.7277C252.783 45.0473 251.164 46.7868 250.024 48.9462C248.884 51.1056 248.315 53.325 248.315 55.6043V70.99H235.808V31.6711H247.145ZM287.949 72.0697C284.29 72.0697 280.961 71.3499 277.962 69.9103C275.023 68.4107 272.683 66.1314 270.944 63.0722C269.204 60.0131 268.335 56.1142 268.335 51.3755C268.335 46.9368 269.234 43.0978 271.034 39.8588C272.833 36.6197 275.203 34.1304 278.142 32.3909C281.081 30.5914 284.2 29.6916 287.499 29.6916C291.398 29.6916 294.337 30.3514 296.317 31.6711C298.356 32.9307 300.036 34.3403 301.355 35.8999L300.815 37.4294L301.985 31.6711H313.682V70.99H301.085V62.4424L302.075 65.1416C301.955 65.1416 301.595 65.5015 300.995 66.2213C300.396 66.8811 299.496 67.6909 298.296 68.6506C297.157 69.5504 295.717 70.3302 293.977 70.99C292.298 71.7098 290.288 72.0697 287.949 72.0697ZM291.548 61.8126C293.048 61.8126 294.397 61.6026 295.597 61.1828C296.797 60.7029 297.846 60.0431 298.746 59.2033C299.646 58.3036 300.426 57.1939 301.085 55.8742V46.247C300.606 44.9273 299.886 43.8176 298.926 42.9179C297.966 41.9582 296.827 41.2384 295.507 40.7585C294.187 40.2187 292.718 39.9487 291.098 39.9487C289.299 39.9487 287.619 40.4286 286.06 41.3883C284.56 42.2881 283.36 43.5477 282.461 45.1673C281.561 46.7868 281.111 48.6463 281.111 50.7457C281.111 52.8451 281.591 54.7346 282.551 56.4141C283.51 58.0936 284.77 59.4133 286.33 60.373C287.949 61.3327 289.689 61.8126 291.548 61.8126ZM360.042 67.481C358.302 68.8606 356.113 69.9703 353.474 70.81C350.895 71.6498 348.345 72.0697 345.826 72.0697C341.327 72.0697 337.398 71.2599 334.039 69.6404C330.74 67.9608 328.161 65.5915 326.302 62.5324C324.502 59.4133 323.602 55.6643 323.602 51.2855C323.602 46.9068 324.592 43.1878 326.571 40.1287C328.551 37.0096 331.13 34.6402 334.309 33.0207C337.548 31.4011 340.937 30.5914 344.476 30.5914C348.015 30.5914 351.075 31.0712 353.654 32.031C356.293 32.9907 358.542 34.2503 360.402 35.8099L354.284 43.9076C353.444 43.2478 352.274 42.588 350.775 41.9282C349.335 41.2084 347.625 40.8485 345.646 40.8485C343.907 40.8485 342.317 41.2984 340.877 42.1981C339.438 43.0978 338.298 44.3275 337.458 45.8871C336.619 47.4466 336.199 49.2461 336.199 51.2855C336.199 53.205 336.649 54.9745 337.548 56.594C338.448 58.2136 339.678 59.5032 341.237 60.463C342.857 61.3627 344.746 61.8126 346.906 61.8126C348.285 61.8126 349.545 61.6326 350.685 61.2727C351.884 60.8528 352.904 60.283 353.744 59.5632L360.042 67.481ZM369.716 70.99V-9.7495e-06H382.312V70.99H369.716ZM392.299 44.2675L410.114 70.99H395.448L384.022 51.4655L392.299 44.2675ZM378.533 60.1031L377.274 48.1364L401.027 30.6813L408.675 37.4294L378.533 60.1031Z" fill="#079455"/>
</svg>
