<svg width="107" height="119" viewBox="0 0 107 119" fill="none" xmlns="http://www.w3.org/2000/svg">
<path d="M102.759 54.3747C102.759 81.5279 83.0399 106.96 56.1 114.4C54.267 114.9 52.2672 114.9 50.4342 114.4C23.4943 106.96 3.77539 81.5279 3.77539 54.3747V29.9979C3.77539 25.4446 7.21934 20.2805 11.4964 18.5592L42.4355 5.89897C49.3788 3.06704 57.2108 3.06704 64.1541 5.89897L95.0933 18.5592C99.3148 20.2805 102.814 25.4446 102.814 29.9979L102.759 54.3747Z" stroke="#079455" stroke-width="7.55" stroke-linecap="round" stroke-linejoin="round"/>
<rect x="25.1836" y="51.5333" width="55.5001" height="15.7888" rx="7.89441" fill="#146440"/>
<rect x="21.959" y="58.6116" width="55.5001" height="15.7888" rx="7.89441" transform="rotate(-40.6804 21.959 58.6116)" fill="#079455"/>
<rect x="31.8809" y="84.3616" width="55.5001" height="15.7888" rx="7.89441" transform="rotate(-40.6804 31.8809 84.3616)" fill="#079455"/>
</svg>
