<svg width="364" height="101" viewBox="0 0 364 101" fill="none" xmlns="http://www.w3.org/2000/svg">
<path d="M1.1 22.8999C1.1 18.4332 2.26667 14.4999 4.6 11.0999C6.93333 7.63323 10.1333 4.93323 14.2 2.9999C18.3333 0.999901 23.0333 -9.84669e-05 28.3 -9.84669e-05C33.6333 -9.84669e-05 38.2333 0.933235 42.1 2.7999C45.9667 4.66657 48.9333 7.2999 51 10.6999C53.1333 14.0999 54.2 18.1332 54.2 22.7999H38.1C38.1 20.1999 37.2 18.1666 35.4 16.6999C33.6 15.1666 31.1667 14.3999 28.1 14.3999C24.8333 14.3999 22.2 15.0999 20.2 16.4999C18.2667 17.8999 17.3 19.8332 17.3 22.2999C17.3 24.5666 17.9 26.2999 19.1 27.4999C20.3 28.6999 22.2 29.5666 24.8 30.0999L35.9 32.3999C42.5 33.7332 47.4 36.0666 50.6 39.3999C53.8 42.6666 55.4 47.2332 55.4 53.0999C55.4 57.8332 54.2333 61.9999 51.9 65.5999C49.5667 69.1332 46.2667 71.8666 42 73.7999C37.8 75.7332 32.8667 76.6999 27.2 76.6999C21.7333 76.6999 16.9333 75.7666 12.8 73.8999C8.73333 72.0332 5.56667 69.3999 3.3 65.9999C1.1 62.5332 3.72529e-08 58.4999 3.72529e-08 53.8999H16.1C16.1 56.5666 17.0667 58.6332 19 60.0999C20.9333 61.5666 23.7 62.2999 27.3 62.2999C30.9667 62.2999 33.8667 61.6332 36 60.2999C38.1333 58.8999 39.2 57.0332 39.2 54.6999C39.2 52.6332 38.6667 51.0332 37.6 49.8999C36.6 48.7666 34.8667 47.9666 32.4 47.4999L21.1 45.1999C14.5 43.8666 9.5 41.3332 6.1 37.5999C2.76667 33.8666 1.1 28.9666 1.1 22.8999ZM60.2375 99.3999V25.3999H74.7375L75.5375 31.4999C76.9375 29.1666 79.1042 27.2999 82.0375 25.8999C84.9708 24.4999 88.2042 23.7999 91.7375 23.7999C96.4042 23.7999 100.504 24.8332 104.038 26.8999C107.571 28.9666 110.338 31.9332 112.338 35.7999C114.338 39.5999 115.338 44.1999 115.338 49.5999C115.338 54.8666 114.404 59.5666 112.538 63.6999C110.738 67.7666 108.071 70.9666 104.538 73.2999C101.071 75.6332 96.8375 76.7999 91.8375 76.7999C88.3708 76.7999 85.1708 76.1999 82.2375 74.9999C79.3042 73.7999 77.1042 72.2666 75.6375 70.3999V99.3999H60.2375ZM75.7375 50.3999C75.7375 52.8666 76.2375 55.0666 77.2375 56.9999C78.3042 58.8666 79.7375 60.3332 81.5375 61.3999C83.4042 62.3999 85.5375 62.8999 87.9375 62.8999C90.4042 62.8999 92.5042 62.3666 94.2375 61.2999C96.0375 60.2332 97.4042 58.7666 98.3375 56.8999C99.3375 55.0332 99.8375 52.8666 99.8375 50.3999C99.8375 47.9332 99.3375 45.7666 98.3375 43.8999C97.4042 42.0332 96.0375 40.5666 94.2375 39.4999C92.5042 38.4332 90.4042 37.8999 87.9375 37.8999C85.5375 37.8999 83.4042 38.4332 81.5375 39.4999C79.7375 40.4999 78.3042 41.9332 77.2375 43.7999C76.2375 45.6666 75.7375 47.8666 75.7375 50.3999ZM143.402 76.6999C138.402 76.6999 133.936 75.5666 130.002 73.2999C126.136 71.0332 123.069 67.9332 120.802 63.9999C118.602 59.9999 117.502 55.4332 117.502 50.2999C117.502 45.0999 118.569 40.5332 120.702 36.5999C122.902 32.5999 125.936 29.4666 129.802 27.1999C133.669 24.9332 138.102 23.7999 143.102 23.7999C148.369 23.7999 152.902 24.8999 156.702 27.0999C160.502 29.2332 163.436 32.2999 165.502 36.2999C167.569 40.2332 168.602 44.9332 168.602 50.3999V54.2999L125.602 54.4999L125.802 44.9999H153.302C153.302 42.3332 152.402 40.2332 150.602 38.6999C148.802 37.0999 146.336 36.2999 143.202 36.2999C140.602 36.2999 138.469 36.7999 136.802 37.7999C135.202 38.7999 134.002 40.3666 133.202 42.4999C132.402 44.5666 132.002 47.2332 132.002 50.4999C132.002 55.1666 132.936 58.6332 134.802 60.8999C136.736 63.0999 139.702 64.1999 143.702 64.1999C146.636 64.1999 149.069 63.6999 151.002 62.6999C152.936 61.6999 154.169 60.2999 154.702 58.4999H168.802C167.936 64.0332 165.202 68.4666 160.602 71.7999C156.002 75.0666 150.269 76.6999 143.402 76.6999ZM189.122 75.3999H173.722V25.3999H188.222L189.222 30.5999C190.755 28.4666 192.855 26.7999 195.522 25.5999C198.255 24.3999 201.255 23.7999 204.522 23.7999C210.455 23.7999 215.055 25.6332 218.322 29.2999C221.655 32.8999 223.322 37.9666 223.322 44.4999V75.3999H207.922V48.1999C207.922 45.0666 207.122 42.5666 205.522 40.6999C203.922 38.7666 201.789 37.7999 199.122 37.7999C196.055 37.7999 193.622 38.7332 191.822 40.5999C190.022 42.3999 189.122 44.8666 189.122 47.9999V75.3999ZM251.366 76.6999C246.566 76.6999 242.4 75.6332 238.866 73.4999C235.333 71.3666 232.566 68.3666 230.566 64.4999C228.633 60.5666 227.666 55.9666 227.666 50.6999C227.666 45.3666 228.666 40.6999 230.666 36.6999C232.666 32.6332 235.5 29.4666 239.166 27.1999C242.9 24.9332 247.3 23.7999 252.366 23.7999C255.5 23.7999 258.4 24.3666 261.066 25.4999C263.8 26.6332 265.9 28.1332 267.366 29.9999V-9.84669e-05H282.766V75.3999H268.266L267.466 68.9999C266.133 71.2666 264 73.1332 261.066 74.5999C258.2 75.9999 254.966 76.6999 251.366 76.6999ZM255.066 62.5999C257.466 62.5999 259.566 62.0999 261.366 61.0999C263.233 60.0332 264.666 58.5666 265.666 56.6999C266.733 54.7666 267.266 52.5666 267.266 50.0999C267.266 47.5666 266.733 45.3666 265.666 43.4999C264.666 41.6332 263.233 40.1999 261.366 39.1999C259.566 38.1332 257.466 37.5999 255.066 37.5999C252.666 37.5999 250.566 38.1332 248.766 39.1999C246.966 40.2666 245.566 41.7332 244.566 43.5999C243.633 45.4666 243.166 47.6332 243.166 50.0999C243.166 52.5666 243.633 54.7332 244.566 56.5999C245.566 58.4666 246.966 59.9332 248.766 60.9999C250.566 62.0666 252.666 62.5999 255.066 62.5999ZM305.731 75.3999H290.331V-9.84669e-05H305.731V75.3999ZM324.484 25.3999L339.184 68.5999L331.684 86.3999L307.984 25.3999H324.484ZM309.284 99.3999V86.4999H317.784C319.518 86.4999 320.951 86.2666 322.084 85.7999C323.218 85.3999 324.184 84.6999 324.984 83.6999C325.784 82.6999 326.518 81.2999 327.184 79.4999L347.484 25.3999H363.484L338.084 86.2999C336.018 91.3666 333.484 95.0332 330.484 97.2999C327.551 99.6332 323.884 100.8 319.484 100.8C317.618 100.8 315.818 100.667 314.084 100.4C312.418 100.2 310.818 99.8666 309.284 99.3999Z" fill="#5A31C9"/>
</svg>
