<svg width="505" height="135" viewBox="0 0 505 135" fill="none" xmlns="http://www.w3.org/2000/svg">
<rect x="53.207" y="46.4565" width="62.3821" height="62.8372" transform="rotate(45 53.207 46.4565)" fill="#5A31C9"/>
<rect x="50.8164" y="1.78223" width="62.8406" height="62.8367" transform="rotate(45 50.8164 1.78223)" fill="#B6A6DF"/>
<g filter="url(#filter0_d_226_3)">
<path d="M51.8509 44.9454L97.3206 90.5654L50.7297 90.5654L6.38133 46.2171L51.8509 44.9454Z" fill="#7B5FC4"/>
</g>
<path d="M140.995 53.5C140.995 49.0333 142.161 45.1 144.495 41.7C146.828 38.2333 150.028 35.5333 154.095 33.6C158.228 31.6 162.928 30.6 168.195 30.6C173.528 30.6 178.128 31.5333 181.995 33.4C185.861 35.2667 188.828 37.9 190.895 41.3C193.028 44.7 194.095 48.7333 194.095 53.4H177.995C177.995 50.8 177.095 48.7667 175.295 47.3C173.495 45.7667 171.061 45 167.995 45C164.728 45 162.095 45.7 160.095 47.1C158.161 48.5 157.195 50.4333 157.195 52.9C157.195 55.1667 157.795 56.9 158.995 58.1C160.195 59.3 162.095 60.1667 164.695 60.7L175.795 63C182.395 64.3333 187.295 66.6667 190.495 70C193.695 73.2667 195.295 77.8333 195.295 83.7C195.295 88.4333 194.128 92.6 191.795 96.2C189.461 99.7333 186.161 102.467 181.895 104.4C177.695 106.333 172.761 107.3 167.095 107.3C161.628 107.3 156.828 106.367 152.695 104.5C148.628 102.633 145.461 100 143.195 96.6C140.995 93.1333 139.895 89.1 139.895 84.5H155.995C155.995 87.1667 156.961 89.2333 158.895 90.7C160.828 92.1667 163.595 92.9 167.195 92.9C170.861 92.9 173.761 92.2333 175.895 90.9C178.028 89.5 179.095 87.6333 179.095 85.3C179.095 83.2333 178.561 81.6333 177.495 80.5C176.495 79.3667 174.761 78.5667 172.295 78.1L160.995 75.8C154.395 74.4667 149.395 71.9333 145.995 68.2C142.661 64.4667 140.995 59.5667 140.995 53.5ZM200.132 130V56H214.632L215.432 62.1C216.832 59.7667 218.999 57.9 221.932 56.5C224.865 55.1 228.099 54.4 231.632 54.4C236.299 54.4 240.399 55.4333 243.932 57.5C247.465 59.5667 250.232 62.5333 252.232 66.4C254.232 70.2 255.232 74.8 255.232 80.2C255.232 85.4667 254.299 90.1667 252.432 94.3C250.632 98.3667 247.965 101.567 244.432 103.9C240.965 106.233 236.732 107.4 231.732 107.4C228.265 107.4 225.065 106.8 222.132 105.6C219.199 104.4 216.999 102.867 215.532 101V130H200.132ZM215.632 81C215.632 83.4667 216.132 85.6667 217.132 87.6C218.199 89.4667 219.632 90.9333 221.432 92C223.299 93 225.432 93.5 227.832 93.5C230.299 93.5 232.399 92.9667 234.132 91.9C235.932 90.8333 237.299 89.3667 238.232 87.5C239.232 85.6333 239.732 83.4667 239.732 81C239.732 78.5333 239.232 76.3667 238.232 74.5C237.299 72.6333 235.932 71.1667 234.132 70.1C232.399 69.0333 230.299 68.5 227.832 68.5C225.432 68.5 223.299 69.0333 221.432 70.1C219.632 71.1 218.199 72.5333 217.132 74.4C216.132 76.2667 215.632 78.4667 215.632 81ZM283.297 107.3C278.297 107.3 273.83 106.167 269.897 103.9C266.03 101.633 262.964 98.5333 260.697 94.6C258.497 90.6 257.397 86.0333 257.397 80.9C257.397 75.7 258.464 71.1333 260.597 67.2C262.797 63.2 265.83 60.0667 269.697 57.8C273.564 55.5333 277.997 54.4 282.997 54.4C288.264 54.4 292.797 55.5 296.597 57.7C300.397 59.8333 303.33 62.9 305.397 66.9C307.464 70.8333 308.497 75.5333 308.497 81V84.9L265.497 85.1L265.697 75.6H293.197C293.197 72.9333 292.297 70.8333 290.497 69.3C288.697 67.7 286.23 66.9 283.097 66.9C280.497 66.9 278.364 67.4 276.697 68.4C275.097 69.4 273.897 70.9667 273.097 73.1C272.297 75.1667 271.897 77.8333 271.897 81.1C271.897 85.7667 272.83 89.2333 274.697 91.5C276.63 93.7 279.597 94.8 283.597 94.8C286.53 94.8 288.964 94.3 290.897 93.3C292.83 92.3 294.064 90.9 294.597 89.1H308.697C307.83 94.6333 305.097 99.0667 300.497 102.4C295.897 105.667 290.164 107.3 283.297 107.3ZM329.016 106H313.616V56H328.116L329.116 61.2C330.65 59.0667 332.75 57.4 335.416 56.2C338.15 55 341.15 54.4 344.416 54.4C350.35 54.4 354.95 56.2333 358.216 59.9C361.55 63.5 363.216 68.5667 363.216 75.1V106H347.816V78.8C347.816 75.6667 347.016 73.1667 345.416 71.3C343.816 69.3667 341.683 68.4 339.016 68.4C335.95 68.4 333.516 69.3333 331.716 71.2C329.916 73 329.016 75.4667 329.016 78.6V106ZM391.261 107.3C386.461 107.3 382.294 106.233 378.761 104.1C375.228 101.967 372.461 98.9667 370.461 95.1C368.528 91.1667 367.561 86.5667 367.561 81.3C367.561 75.9667 368.561 71.3 370.561 67.3C372.561 63.2333 375.394 60.0667 379.061 57.8C382.794 55.5333 387.194 54.4 392.261 54.4C395.394 54.4 398.294 54.9667 400.961 56.1C403.694 57.2333 405.794 58.7333 407.261 60.6V30.6H422.661V106H408.161L407.361 99.6C406.028 101.867 403.894 103.733 400.961 105.2C398.094 106.6 394.861 107.3 391.261 107.3ZM394.961 93.2C397.361 93.2 399.461 92.7 401.261 91.7C403.128 90.6333 404.561 89.1667 405.561 87.3C406.628 85.3667 407.161 83.1667 407.161 80.7C407.161 78.1667 406.628 75.9667 405.561 74.1C404.561 72.2333 403.128 70.8 401.261 69.8C399.461 68.7333 397.361 68.2 394.961 68.2C392.561 68.2 390.461 68.7333 388.661 69.8C386.861 70.8667 385.461 72.3333 384.461 74.2C383.528 76.0667 383.061 78.2333 383.061 80.7C383.061 83.1667 383.528 85.3333 384.461 87.2C385.461 89.0667 386.861 90.5333 388.661 91.6C390.461 92.6667 392.561 93.2 394.961 93.2ZM445.626 106H430.226V30.6H445.626V106ZM464.379 56L479.079 99.2L471.579 117L447.879 56H464.379ZM449.179 130V117.1H457.679C459.412 117.1 460.846 116.867 461.979 116.4C463.112 116 464.079 115.3 464.879 114.3C465.679 113.3 466.412 111.9 467.079 110.1L487.379 56H503.379L477.979 116.9C475.912 121.967 473.379 125.633 470.379 127.9C467.446 130.233 463.779 131.4 459.379 131.4C457.512 131.4 455.712 131.267 453.979 131C452.312 130.8 450.712 130.467 449.179 130Z" fill="#5A31C9"/>
<defs>
<filter id="filter0_d_226_3" x="-0.00083828" y="39.3613" width="103.703" height="58.3835" filterUnits="userSpaceOnUse" color-interpolation-filters="sRGB">
<feFlood flood-opacity="0" result="BackgroundImageFix"/>
<feColorMatrix in="SourceAlpha" type="matrix" values="0 0 0 0 0 0 0 0 0 0 0 0 0 0 0 0 0 0 127 0" result="hardAlpha"/>
<feOffset dy="0.797712"/>
<feGaussianBlur stdDeviation="3.19085"/>
<feComposite in2="hardAlpha" operator="out"/>
<feColorMatrix type="matrix" values="0 0 0 0 0 0 0 0 0 0 0 0 0 0 0 0 0 0 0.25 0"/>
<feBlend mode="normal" in2="BackgroundImageFix" result="effect1_dropShadow_226_3"/>
<feBlend mode="normal" in="SourceGraphic" in2="effect1_dropShadow_226_3" result="shape"/>
</filter>
</defs>
</svg>
