<svg width="128" height="128" viewBox="0 0 128 128" fill="none" xmlns="http://www.w3.org/2000/svg">
<g clip-path="url(#clip0_158_1105)">
<path d="M71.0274 60.4651H78.0025C78.1643 60.4651 78.3195 60.401 78.4342 60.2869C78.549 60.1728 78.6138 60.0179 78.6147 59.8561V53.6447C78.6147 53.4824 78.5502 53.3266 78.4354 53.2118C78.3206 53.097 78.1648 53.0325 78.0025 53.0325H71.0274C70.8659 53.0325 70.711 53.0967 70.5968 53.2109C70.4826 53.3251 70.4185 53.48 70.4185 53.6415V59.8561C70.4185 60.1919 70.6917 60.4651 71.0274 60.4651ZM61.3038 42.5913H68.2756C68.438 42.5913 68.5937 42.5268 68.7085 42.412C68.8233 42.2972 68.8878 42.1415 68.8878 41.9791V35.7644C68.887 35.6026 68.8221 35.4477 68.7074 35.3336C68.5926 35.2195 68.4374 35.1555 68.2756 35.1555H61.3038C61.1423 35.1555 60.9874 35.2196 60.8732 35.3338C60.759 35.448 60.6949 35.6029 60.6949 35.7644V41.9791C60.6949 42.3148 60.9648 42.5913 61.3038 42.5913ZM61.3038 51.5282H68.2756C68.4377 51.5273 68.5929 51.4626 68.7076 51.3479C68.8222 51.2333 68.887 51.0781 68.8878 50.916V44.7046C68.887 44.5428 68.8221 44.3879 68.7074 44.2738C68.5926 44.1597 68.4374 44.0956 68.2756 44.0956H61.3038C61.1423 44.0956 60.9874 44.1598 60.8732 44.274C60.759 44.3882 60.6949 44.5431 60.6949 44.7046V50.916C60.6949 51.2517 60.9648 51.5249 61.3038 51.5282ZM51.6593 51.5282H58.6376C58.7988 51.5265 58.9529 51.4612 59.0663 51.3466C59.1797 51.2319 59.2433 51.0772 59.2433 50.916V44.7046C59.2433 44.5431 59.1791 44.3882 59.0649 44.274C58.9507 44.1598 58.7958 44.0956 58.6343 44.0956H51.6626C51.501 44.0956 51.3462 44.1598 51.232 44.274C51.1178 44.3882 51.0536 44.5431 51.0536 44.7046V50.916C51.0536 51.2517 51.3268 51.5249 51.6626 51.5282M41.9061 51.5282H48.8811C49.0429 51.5273 49.1978 51.4624 49.3119 51.3477C49.426 51.233 49.4901 51.0778 49.4901 50.916V44.7046C49.4901 44.5431 49.4259 44.3882 49.3117 44.274C49.1975 44.1598 49.0426 44.0956 48.8811 44.0956H41.9061C41.7442 44.0956 41.589 44.1597 41.4743 44.2738C41.3596 44.3879 41.2947 44.5428 41.2938 44.7046V50.916C41.2938 51.2517 41.5703 51.5249 41.9061 51.5282ZM61.3038 60.4651H68.2756C68.4374 60.4651 68.5926 60.401 68.7074 60.2869C68.8221 60.1728 68.887 60.0179 68.8878 59.8561V53.6447C68.8878 53.4824 68.8233 53.3266 68.7085 53.2118C68.5937 53.097 68.438 53.0325 68.2756 53.0325H61.3038C61.1423 53.0325 60.9874 53.0967 60.8732 53.2109C60.759 53.3251 60.6949 53.48 60.6949 53.6415V59.8561C60.6949 60.1919 60.9648 60.4651 61.3038 60.4651ZM51.6593 60.4651H58.6376C58.7985 60.4642 58.9526 60.3997 59.0661 60.2856C59.1796 60.1715 59.2433 60.0171 59.2433 59.8561V53.6447C59.2437 53.5648 59.2284 53.4855 59.1982 53.4115C59.168 53.3374 59.1235 53.27 59.0672 53.2132C59.011 53.1563 58.9441 53.1111 58.8704 53.0801C58.7967 53.0491 58.7176 53.0329 58.6376 53.0325H51.6593C51.4983 53.0334 51.3443 53.0979 51.2308 53.212C51.1173 53.3261 51.0536 53.4805 51.0536 53.6415V59.8561C51.0536 60.1919 51.3268 60.4651 51.6626 60.4651M41.9061 60.4651H48.8811C49.0426 60.4651 49.1975 60.4009 49.3117 60.2867C49.4259 60.1725 49.4901 60.0176 49.4901 59.8561V53.6447C49.4905 53.5648 49.4752 53.4855 49.445 53.4115C49.4148 53.3374 49.3703 53.27 49.314 53.2132C49.2578 53.1563 49.1909 53.1111 49.1172 53.0801C49.0435 53.0491 48.9644 53.0329 48.8844 53.0325H41.9061C41.7437 53.0325 41.5879 53.097 41.4731 53.2118C41.3583 53.3266 41.2938 53.4824 41.2938 53.6447V59.8561C41.2938 60.1919 41.5703 60.4651 41.9061 60.4651ZM32.2944 60.4651H39.2727C39.4337 60.4642 39.5877 60.3997 39.7012 60.2856C39.8147 60.1715 39.8784 60.0171 39.8784 59.8561V53.6447C39.8788 53.5648 39.8635 53.4855 39.8333 53.4115C39.8031 53.3374 39.7586 53.27 39.7024 53.2132C39.6461 53.1563 39.5792 53.1111 39.5055 53.0801C39.4318 53.0491 39.3527 53.0329 39.2727 53.0325H32.2944C32.1335 53.0334 31.9794 53.0979 31.8659 53.212C31.7524 53.3261 31.6887 53.4805 31.6887 53.6415V59.8561C31.6887 60.1919 31.9553 60.4651 32.2944 60.4651ZM103.22 56.5546C103.006 56.3867 101.008 54.8758 96.788 54.8758C95.6754 54.8791 94.5628 54.9746 93.4634 55.1622C92.6471 49.5664 88.0223 46.8343 87.8149 46.7158L86.6826 46.0607L85.9387 47.1371C85.0038 48.5789 84.3258 50.172 83.9242 51.8442C83.1671 55.0371 83.6279 58.0391 85.2507 60.6033C83.2922 61.6962 80.1486 61.9628 79.51 61.9858H27.4721C26.8187 61.9867 26.1923 62.2462 25.7297 62.7075C25.2671 63.1689 25.006 63.7947 25.0033 64.448C24.9424 69.0064 25.7143 73.5376 27.2812 77.8188C29.0751 82.5193 31.7414 85.9821 35.2141 88.1019C39.0983 90.4818 45.4183 91.8445 52.5776 91.8445C55.8133 91.8544 59.0392 91.5615 62.2222 90.969C66.6424 90.157 70.8957 88.6116 74.8063 86.3968C78.0321 84.5305 80.9288 82.1572 83.3975 79.3658C87.5187 74.6982 89.9743 69.5007 91.8011 64.8825H92.5286C97.0448 64.8825 99.8196 63.0754 101.35 61.5612C102.367 60.5967 103.161 59.4216 103.677 58.1181L104 57.1701L103.22 56.5546Z" fill="white"/>
</g>
<defs>
<clipPath id="clip0_158_1105">
<rect width="79" height="79" fill="white" transform="translate(25 24)"/>
</clipPath>
</defs>
</svg>
