<svg width="128" height="128" viewBox="0 0 128 128" fill="none" xmlns="http://www.w3.org/2000/svg">
<g clip-path="url(#clip0_158_1326)">
<path fill-rule="evenodd" clip-rule="evenodd" d="M79.5801 37.2212C75.3644 34.843 68.1614 33.0449 63.6306 35.3024C60.0081 37.1189 55.0469 40.1324 53.3957 43.9439C54.9707 47.6241 52.96 50.9946 52.8025 54.73C52.7552 56.7171 53.7475 58.4575 53.8289 60.6152C53.3039 61.5025 51.6632 61.6127 50.5214 61.5497C50.1381 59.6361 49.4714 57.4836 47.4895 57.271C44.6965 56.9665 42.6464 59.2765 42.5282 61.6889C42.3707 64.5239 44.7149 69.2069 48.0014 68.8945C49.2824 68.7737 49.5974 67.477 50.9912 67.477C51.7394 68.9732 49.8231 69.4457 49.6184 70.5062C49.5764 70.7819 49.7759 71.8476 49.8914 72.3569C50.503 74.8349 51.8444 78.0269 53.1595 79.9169C54.8264 82.2794 58.105 82.6757 61.6356 82.912C62.2656 81.5339 64.5887 81.652 66.1139 82.0037C64.3 81.295 62.6069 79.5231 61.192 77.9901C59.5776 76.2156 57.9632 74.2889 57.8819 72.0051C60.9137 76.2156 63.3944 79.8801 68.9069 81.7281C73.0806 83.1062 77.9631 81.0614 81.1499 78.817C82.4886 77.8746 83.2788 76.3757 84.2211 75.0396C87.7649 69.9576 89.4186 62.6759 89.0669 55.6304C88.9094 52.714 88.9094 49.8002 87.9224 47.8735C86.9013 45.8234 83.473 44.0121 81.4255 45.8234C81.0318 43.8179 83.0793 42.5946 85.4811 43.3034C83.7486 41.0616 81.9741 38.4261 79.5329 37.0454L79.5801 37.2212ZM80.4726 74.575C80.133 74.5826 79.7888 74.5922 79.442 74.6019C75.0139 74.7251 70.1441 74.8607 68.647 71.1021L68.6181 71.0759C66.9667 71.078 67.7572 71.8172 68.3182 72.3419C68.4554 72.4702 68.5789 72.5858 68.6496 72.6745C68.8253 72.8983 69.0072 73.1599 69.2005 73.4381C69.81 74.3154 70.534 75.3573 71.5424 75.8954C73.6214 76.9979 77.7558 76.5359 79.252 75.9269C79.8006 75.7169 80.2521 75.0842 80.4726 74.575ZM69.0963 68.8281C69.09 68.8248 69.0837 68.8216 69.0775 68.8184V68.8131H69.0906C69.0925 68.8181 69.0944 68.8231 69.0963 68.8281C71.4444 70.0371 75.701 70.1752 78.8714 70.0784C79.0395 70.7584 79.0445 71.5841 79.0494 72.3998L79.0499 72.475C74.9882 72.6846 70.1784 71.6805 69.0963 68.8281ZM86.5833 67.3106C86.5887 67.3004 86.594 67.2903 86.5994 67.2801L86.6099 67.2985C86.601 67.3025 86.5922 67.3066 86.5833 67.3106C85.3426 69.6651 83.578 72.2601 79.9345 72.3411C79.8741 71.5956 79.8164 70.4117 79.9345 69.9681C81.947 69.7733 83.413 68.9788 84.8765 68.1856C85.4357 67.8826 85.9945 67.5797 86.5833 67.3106ZM84.8395 65.5656C84.8583 65.5535 84.877 65.5414 84.8958 65.5292L84.8433 65.5896C84.8419 65.5817 84.8406 65.5737 84.8395 65.5656C82.1765 67.2879 79.2108 69.1356 74.8577 68.7055C73.9364 67.8917 73.5846 66.0805 74.4902 64.8782C74.6456 65.1469 74.7162 65.4883 74.7877 65.8339C74.9348 66.5452 75.0855 67.2743 75.9865 67.4245C77.8291 67.7466 79.8894 66.7493 81.5717 65.935C82.1518 65.6542 82.687 65.3952 83.1528 65.2195C84.0654 63.6702 83.3844 62.9304 82.5659 62.0411C82.3956 61.856 82.2194 61.6645 82.0503 61.4579C81.9532 61.3425 81.8547 61.2257 81.7549 61.1075C79.7438 58.7249 77.25 55.7704 77.32 52.2441C77.9794 51.7737 78.165 52.6372 78.2734 53.1412C78.3005 53.2672 78.3227 53.3708 78.3464 53.4254C79.4069 55.9454 82.0844 59.1347 84.0531 61.3004C84.2503 61.5304 84.5023 61.7467 84.7347 61.9462C85.0594 62.2249 85.346 62.4709 85.3919 62.6759C85.5284 63.2548 85.2973 63.8959 85.0921 64.4652C84.9386 64.8907 84.7997 65.2762 84.8395 65.5656ZM47.6024 61.1061C48.1515 61.1354 48.4589 61.8068 48.7664 62.4787C49.0101 63.0111 49.254 63.5438 49.6184 63.7574L49.6289 63.8204C50.5476 59.3736 44.9826 57.1266 44.4051 61.3004C44.5254 61.2169 44.639 61.0978 44.7561 60.975C45.0812 60.6342 45.433 60.2654 46.0274 60.5549C45.316 61.933 45.4866 64.6499 46.4579 65.5161C46.4572 65.3117 46.4528 65.0893 46.4481 64.8566C46.415 63.2062 46.3716 61.0371 47.6024 61.1061ZM69.3242 50.6827C69.3199 50.6747 69.3155 50.6666 69.3111 50.6586L69.3452 50.6192C69.3379 50.6402 69.3309 50.6614 69.3242 50.6827C69.6008 51.193 69.8124 51.7106 70.0187 52.2149C70.4056 53.1613 70.7736 54.0612 71.5161 54.7799C71.5832 54.8453 71.6587 54.9127 71.738 54.9835C72.2634 55.4529 72.9585 56.0739 72.532 57.2736C72.4139 57.5912 71.5739 58.3 71.0856 58.4549C69.3164 58.9667 65.1689 58.5336 66.568 56.3286C67.0116 56.3404 67.4997 56.4303 67.9952 56.5215C69.1506 56.7343 70.3466 56.9545 71.1145 56.2105C70.3012 54.8533 68.8311 52.2643 69.3242 50.6827ZM85.7594 50.6245H85.5809L85.6071 50.6271C85.514 52.1751 85.9404 53.2317 86.3727 54.3032C86.5012 54.6217 86.6303 54.9416 86.7464 55.276C86.2623 55.5777 85.5419 55.6168 84.8198 55.6561C84.1911 55.6903 83.561 55.7245 83.0845 55.9322C83.0058 58.9064 87.6861 57.4311 88.3949 55.7826C87.6454 54.6881 87.0716 53.4402 86.4937 52.1834C86.2539 51.6618 86.0134 51.1388 85.7594 50.6245ZM60.6775 50.4565C61.8036 47.9339 63.6647 45.5136 67.3975 46.3799V46.3746C68.1115 45.1986 66.8279 44.335 65.8855 44.1854C63.6831 43.852 60.9925 46.2985 60.3231 48.1386C60.0711 48.8421 59.6695 50.2097 60.6775 50.4565Z" fill="white"/>
<path d="M45.3711 47.737C43.573 49.7215 43.9536 53.4437 44.1662 56.1055C47.4317 54.0449 51.7735 56.263 51.7341 59.7647C53.296 59.7227 52.3195 57.8117 52.036 56.5754C51.1094 52.5644 53.59 48.2095 52.1436 44.5266C49.3506 44.7471 47.0537 45.8916 45.3764 47.716L45.3711 47.737Z" fill="white"/>
<path d="M58.3097 36.1817C54.2147 37.3367 48.9647 40.3135 47.2847 43.9885C48.5841 43.8047 49.4897 43.1459 50.776 43.0671C51.2642 43.0251 51.8995 43.2614 52.4586 43.1065C53.5716 42.8335 54.5061 40.3109 55.3514 39.4052C56.1651 38.4996 57.1495 38.1032 57.8189 37.279C58.2572 37.0427 58.8925 37.0847 58.9214 36.4127C58.7297 36.2159 58.5276 36.0584 58.3124 36.1371L58.3097 36.1817Z" fill="white"/>
<path d="M62.326 93.3805L62.053 92.4775C61.4624 90.5875 61.108 89.17 60.9899 88.0675C58.5906 86.923 56.068 85.7837 54.0231 84.3242C53.6294 84.0486 51.112 80.7805 50.7944 80.8986C46.2295 82.6731 41.977 85.7811 38.1576 88.7316C38.8296 90.1937 39.4176 91.7267 39.9689 93.2991H62.2945L62.326 93.3805Z" fill="white"/>
<path d="M55.9945 83.1876C54.8132 84.3872 59.3282 86.0279 60.7562 86.1145C60.7562 85.3532 61.1894 84.634 61.1106 84.0932C59.4044 83.7835 57.1679 83.983 56.005 83.1824L55.9945 83.1876Z" fill="white"/>
<path d="M69.6865 85.7076C68.2559 84.9201 66.1139 84.0749 64.2659 83.7205C61.9821 83.29 62.2184 86.839 62.2971 88.9547C62.3759 90.6426 63.2421 92.4092 63.6359 93.5327C63.8354 94.0499 63.8721 94.609 64.3079 94.7114C65.0954 94.8899 67.6941 93.8556 68.4422 93.454C70.0172 92.593 71.2352 91.2385 72.574 90.3329C72.616 89.8866 72.616 89.4404 72.6527 88.9994C71.7581 88.5531 70.7776 88.3051 69.7784 88.2722C70.6026 87.8785 71.7471 87.8785 72.4952 87.4007L72.5372 86.8941C71.2352 86.8154 70.726 86.2274 69.8571 85.7496L69.6865 85.7076Z" fill="white"/>
<path d="M73.3116 86.8889C73.1961 87.8732 73.4324 88.2276 73.6266 89.3642C76.9341 90.3906 76.3409 84.7967 73.2722 86.8469L73.3116 86.8889Z" fill="white"/>
<path d="M84.0216 87.8339C83.9455 86.4899 83.5911 83.7389 82.7616 83.2664C81.0291 82.2426 77.9159 85.3139 76.6191 85.7417C76.7372 86.1355 76.9735 86.4531 77.0129 87.0017C77.761 86.8075 78.706 86.9256 79.3701 87.2432C78.5853 87.322 77.719 87.322 77.2071 87.6737C77.0129 88.1856 77.2491 88.9337 77.131 89.6792C78.9422 90.1964 81.0685 90.4746 83.3916 90.5507C83.8221 89.9549 83.9823 88.8576 83.9455 87.7105L84.0216 87.8339Z" fill="white"/>
<path d="M89.2533 93.412C89.7381 91.9007 90.1455 90.3658 90.4739 88.813C90.6314 88.0596 91.0383 86.4032 90.9411 85.726C90.7863 84.5211 89.1456 83.6286 88.3056 82.8752C86.7726 81.4971 85.8119 80.3159 84.2106 79.0191C83.557 80.0035 82.1631 80.6335 81.6302 81.4184C85.4286 79.6097 86.119 88.309 84.6254 91.1046C84.8616 91.9682 85.6518 92.2859 85.9746 93.034L85.7489 93.4697H89.1351C89.1693 93.4697 89.2139 93.4697 89.2506 93.5065L89.2533 93.412Z" fill="white"/>
<path fill-rule="evenodd" clip-rule="evenodd" d="M71.839 93.3805L71.8139 93.3437H71.8364L71.839 93.3805ZM79.1149 93.2624C79.1133 93.3016 79.1118 93.3409 79.1103 93.3805L79.1444 93.2624H79.1149ZM84.6405 93.344C84.6487 93.3561 84.6568 93.3683 84.6647 93.3805V93.3437L84.6405 93.344ZM79.442 74.6019C75.0139 74.7251 70.1441 74.8607 68.647 71.1021L68.6181 71.0759C66.9667 71.078 67.7572 71.8172 68.3182 72.3419C68.4554 72.4702 68.5789 72.5858 68.6496 72.6745C68.8253 72.8983 69.0072 73.1599 69.2005 73.4381C69.81 74.3154 70.534 75.3573 71.5424 75.8954C73.6214 76.9979 77.7558 76.5359 79.252 75.9269C79.8006 75.7169 80.2521 75.0842 80.4726 74.575C80.133 74.5826 79.7888 74.5922 79.442 74.6019ZM69.0963 68.8281L69.0775 68.8184V68.8131H69.0906L69.0963 68.8281ZM78.8714 70.0784C75.701 70.1752 71.4444 70.0371 69.0963 68.8281C70.1784 71.6805 74.9882 72.6846 79.0499 72.475L79.0494 72.3998C79.0445 71.5841 79.0395 70.7584 78.8714 70.0784ZM86.5833 67.3106L86.5994 67.2801L86.6099 67.2985L86.5833 67.3106ZM86.5833 67.3106C85.9945 67.5797 85.4357 67.8826 84.8765 68.1856C83.413 68.9788 81.947 69.7733 79.9345 69.9681C79.8164 70.4117 79.8741 71.5956 79.9345 72.3411C83.578 72.2601 85.3426 69.6651 86.5833 67.3106ZM84.8395 65.5656L84.8958 65.5292L84.8433 65.5896L84.8395 65.5656ZM74.8577 68.7055C79.2108 69.1356 82.1765 67.2879 84.8395 65.5656C84.7997 65.2762 84.9386 64.8907 85.0921 64.4652C85.2973 63.8959 85.5284 63.2548 85.3919 62.6759C85.346 62.4709 85.0594 62.2249 84.7347 61.9462C84.5023 61.7467 84.2503 61.5304 84.0531 61.3004C82.0844 59.1347 79.4069 55.9454 78.3464 53.4254C78.3227 53.3708 78.3005 53.2672 78.2734 53.1412C78.165 52.6372 77.9794 51.7737 77.32 52.2441C77.25 55.7704 79.7438 58.7249 81.7549 61.1075C81.8547 61.2257 81.9532 61.3425 82.0503 61.4579C82.2194 61.6645 82.3956 61.856 82.5659 62.0411C83.3844 62.9304 84.0654 63.6702 83.1528 65.2195C82.687 65.3952 82.1518 65.6542 81.5717 65.935C79.8894 66.7493 77.8291 67.7466 75.9865 67.4245C75.0855 67.2743 74.9348 66.5452 74.7877 65.8339C74.7162 65.4883 74.6456 65.1469 74.4902 64.8782C73.5846 66.0805 73.9364 67.8917 74.8577 68.7055ZM48.7664 62.4787C49.0101 63.0111 49.254 63.5438 49.6184 63.7574L49.6289 63.8204C50.5476 59.3736 44.9826 57.1266 44.4051 61.3004C44.5254 61.2169 44.639 61.0978 44.7561 60.975C45.0812 60.6342 45.433 60.2654 46.0274 60.5549C45.316 61.933 45.4866 64.6499 46.4579 65.5161C46.4572 65.3117 46.4528 65.0893 46.4481 64.8566C46.415 63.2062 46.3716 61.0371 47.6024 61.1061C48.1515 61.1354 48.4589 61.8068 48.7664 62.4787ZM69.3242 50.6827L69.3111 50.6586L69.3452 50.6192C69.3379 50.6402 69.3309 50.6614 69.3242 50.6827ZM70.0187 52.2149C69.8124 51.7106 69.6008 51.193 69.3242 50.6827C68.8311 52.2643 70.3012 54.8533 71.1145 56.2105C70.3466 56.9545 69.1506 56.7343 67.9952 56.5215C67.4997 56.4303 67.0116 56.3404 66.568 56.3286C65.1689 58.5336 69.3164 58.9667 71.0856 58.4549C71.5739 58.3 72.4139 57.5912 72.532 57.2736C72.9585 56.0739 72.2634 55.4529 71.738 54.9835C71.6587 54.9127 71.5832 54.8453 71.5161 54.7799C70.7736 54.0612 70.4056 53.1613 70.0187 52.2149ZM85.7594 50.6245H85.5809L85.6071 50.6271C85.514 52.1751 85.9404 53.2317 86.3727 54.3032C86.5012 54.6217 86.6303 54.9416 86.7464 55.276C86.2623 55.5777 85.5419 55.6168 84.8198 55.6561C84.1911 55.6903 83.561 55.7245 83.0845 55.9322C83.0058 58.9064 87.6861 57.4311 88.3949 55.7826C87.6454 54.6881 87.0716 53.4402 86.4937 52.1834C86.2539 51.6618 86.0134 51.1388 85.7594 50.6245ZM60.6775 50.4565C61.8036 47.9339 63.6647 45.5136 67.3975 46.3799V46.3746C68.1115 45.1986 66.8279 44.335 65.8855 44.1854C63.6831 43.852 60.9925 46.2985 60.3231 48.1386C60.0711 48.8421 59.6695 50.2097 60.6775 50.4565Z" fill="white"/>
<path d="M70.6026 83.752C70.6026 83.8649 70.4425 83.8307 70.4241 83.92C71.9466 85.1039 73.0859 85.3506 75.1544 85.2587C76.0836 84.571 76.9131 83.7809 77.8922 83.1404C75.6479 83.3346 72.8234 84.7337 70.6105 83.7441L70.6026 83.752Z" fill="white"/>
<path d="M79.189 91.8107C77.7978 91.8869 77.0234 90.5507 76.0495 90.4274C75.199 90.3092 74.4745 91.375 73.372 90.9392C73.1226 91.2149 72.8916 91.5351 72.6265 91.7687C73.0307 92.2412 73.4009 92.7531 73.7395 93.3017H75.8789C75.9156 92.8712 76.2332 92.5536 76.6664 92.5536C77.0995 92.5536 77.4119 92.8712 77.4119 93.2624H79.1149C79.1351 92.7581 79.1598 92.2833 79.189 91.8107Z" fill="white"/>
<path d="M80.2548 91.9236L80.176 93.3437L84.6405 93.344C83.8083 92.102 82.1602 91.032 80.2548 91.9236Z" fill="white"/>
<path d="M71.4452 92.8319L70.6551 93.3437H71.8139C71.7566 93.2608 71.6994 93.1835 71.6421 93.1062C71.5765 93.0176 71.5109 92.929 71.4452 92.8319Z" fill="white"/>
<path d="M40.5385 95H37.9791C37.9132 94.8293 37.852 94.6569 37.7954 94.4829C37.231 92.7346 36.2361 90.5716 35.9789 88.8286C35.5956 86.2456 38.0264 86.1012 39.5856 84.983C41.9875 83.2505 43.8775 82.2924 46.4815 80.7305C47.2559 80.2606 49.5842 79.0925 49.8441 78.5544C50.3717 77.4834 48.9385 75.9766 48.5579 75.1419C47.9672 73.811 47.6522 72.6822 47.5709 71.375C45.4079 71.0337 43.7515 69.7291 42.7304 68.2644C41.0766 65.8362 39.9321 61.3475 41.3522 57.9324C41.4704 57.662 42.019 57.1317 42.1004 56.717C42.2579 55.9085 41.8247 54.827 41.7854 53.966C41.6279 49.5245 42.5309 45.6972 45.526 44.3585C46.7414 39.5285 51.0726 37.9194 55.1676 35.5201C56.6901 34.6224 58.3806 34.0449 60.1289 33.4017C66.3554 31.0996 75.9498 31.5327 81.1131 35.4571C83.3076 37.1187 86.8251 40.6284 88.0851 43.172C91.3979 49.8789 91.1564 61.0876 88.8385 69.2487C88.5235 70.3539 88.0773 71.9577 87.4394 73.2729C86.9984 74.1916 85.6308 76.0291 85.7988 76.8429C85.9668 77.6671 88.9225 79.9141 89.5577 80.5047C90.697 81.6125 92.8653 83.0641 93.0333 84.4422C93.217 85.9044 92.3822 87.9492 91.957 89.3641C91.3874 91.2567 90.8125 93.1467 90.2403 94.958H40.5332L40.5385 95ZM69.6865 85.7075C68.2559 84.92 66.1139 84.0747 64.2659 83.7204C61.9821 83.2899 62.2184 86.8389 62.2971 88.9546C62.3759 90.6425 63.2421 92.4091 63.6359 93.5326C63.8354 94.0497 63.8721 94.6089 64.3079 94.7112C65.0954 94.8897 67.6941 93.8555 68.4422 93.4539C70.0172 92.5929 71.2352 91.2384 72.574 90.3327C72.616 89.8865 72.616 89.4402 72.6527 88.9992C71.7581 88.553 70.7776 88.305 69.7784 88.2721C70.6026 87.8784 71.7471 87.8784 72.4952 87.4006L72.5372 86.894C71.2352 86.8152 70.726 86.2272 69.8571 85.7495L69.6865 85.7075ZM89.2533 93.4119C89.7381 91.9006 90.1455 90.3656 90.4739 88.8129C90.6314 88.0595 91.0383 86.4031 90.9411 85.7259C90.7863 84.521 89.1456 83.6285 88.3056 82.8751C86.7726 81.497 85.8119 80.3157 84.2106 79.019C83.557 80.0034 82.1631 80.6334 81.6302 81.4182C85.4286 79.6096 86.119 88.3089 84.6254 91.1045C84.8616 91.9681 85.6518 92.2857 85.9746 93.0339L85.7489 93.4696H89.1351C89.1693 93.4696 89.2139 93.4696 89.2506 93.5064L89.2533 93.4119ZM71.839 93.3804C71.7077 93.1861 71.5765 93.026 71.4452 92.8317L70.6551 93.3436H71.8364L71.839 93.3804ZM79.1103 93.3804C79.1313 92.8317 79.1575 92.3199 79.189 91.8106C77.7978 91.8867 77.0234 90.5506 76.0495 90.4272C75.199 90.3091 74.4745 91.3749 73.372 90.9391C73.1226 91.2147 72.8916 91.535 72.6265 91.7686C73.0307 92.2411 73.4009 92.753 73.7395 93.3016H75.8789C75.9156 92.8711 76.2332 92.5535 76.6664 92.5535C77.0995 92.5535 77.4119 92.8711 77.4119 93.2622H79.1444L79.1103 93.3804ZM84.6647 93.3804C83.8405 92.123 82.1789 91.0231 80.2548 91.9235L80.176 93.3436H84.6647V93.3804ZM62.326 93.3804L62.053 92.4774C61.4624 90.5874 61.108 89.1699 60.9899 88.0674C58.5906 86.9229 56.068 85.7836 54.0231 84.3241C53.6294 84.0485 51.112 80.7804 50.7944 80.8985C46.2295 82.673 41.977 85.781 38.1576 88.7315C38.8296 90.1936 39.4176 91.7266 39.9689 93.299H62.2945L62.326 93.3804ZM84.0216 87.8337C83.9455 86.4897 83.5911 83.7387 82.7616 83.2662C81.0291 82.2425 77.9159 85.3137 76.6191 85.7416C76.7372 86.1354 76.9735 86.453 77.0129 87.0016C77.761 86.8074 78.706 86.9255 79.3701 87.2431C78.5853 87.3219 77.719 87.3219 77.2071 87.6736C77.0129 88.1855 77.2491 88.9336 77.131 89.6791C78.9422 90.1962 81.0685 90.4745 83.3916 90.5506C83.8221 89.9547 83.9823 88.8575 83.9455 87.7104L84.0216 87.8337ZM73.3116 86.8887C73.1961 87.8731 73.4324 88.2275 73.6266 89.3641C76.9341 90.3905 76.3409 84.7966 73.2722 86.8467L73.3116 86.8887ZM55.9945 83.1875C54.8132 84.3871 59.3282 86.0277 60.7562 86.1144C60.7562 85.3531 61.1894 84.6339 61.1106 84.0931C59.4044 83.7834 57.1679 83.9829 56.005 83.1822L55.9945 83.1875ZM70.6026 83.7519C70.6026 83.8647 70.4425 83.8306 70.4241 83.9199C71.9466 85.1037 73.0859 85.3505 75.1544 85.2586C76.0836 84.5709 76.9131 83.7807 77.8922 83.1402C75.6479 83.3345 72.8234 84.7336 70.6105 83.744L70.6026 83.7519ZM79.5801 37.2211C75.3644 34.8429 68.1614 33.0447 63.6306 35.3022C60.0081 37.1187 55.0469 40.1322 53.3957 43.9437C54.9707 47.624 52.96 50.9945 52.8025 54.7299C52.7552 56.717 53.7475 58.4574 53.8289 60.6151C53.3039 61.5024 51.6632 61.6126 50.5214 61.5496C50.1381 59.636 49.4714 57.4835 47.4895 57.2709C44.6965 56.9664 42.6464 59.2764 42.5282 61.6887C42.3707 64.5237 44.7149 69.2067 48.0014 68.8944C49.2824 68.7736 49.5974 67.4769 50.9912 67.4769C51.7394 68.9731 49.8231 69.4456 49.6184 70.5061C49.5764 70.7817 49.7759 71.8475 49.8914 72.3567C50.503 74.8347 51.8444 78.0267 53.1595 79.9167C54.8264 82.2792 58.105 82.6756 61.6356 82.9119C62.2656 81.5337 64.5887 81.6519 66.1139 82.0036C64.3 81.2949 62.6069 79.523 61.192 77.99C59.5776 76.2155 57.9632 74.2887 57.8819 72.005C60.9137 76.2155 63.3944 79.88 68.9069 81.728C73.0806 83.1061 77.9631 81.0612 81.1499 78.8169C82.4886 77.8745 83.2788 76.3756 84.2211 75.0395C87.7649 69.9575 89.4186 62.6757 89.0669 55.6302C88.9094 52.7139 88.9094 49.8001 87.9224 47.8734C86.9013 45.8232 83.473 44.012 81.4255 45.8232C81.0318 43.8177 83.0793 42.5945 85.4811 43.3032C83.7486 41.0615 81.9741 38.426 79.5329 37.0452L79.5801 37.2211ZM68.647 71.102C70.2614 75.155 75.7975 74.6799 80.4726 74.5749C80.2521 75.0841 79.8006 75.7167 79.252 75.9267C77.7558 76.5357 73.6214 76.9977 71.5424 75.8952C70.2141 75.1865 69.3794 73.6036 68.6496 72.6744C68.29 72.2229 66.5627 71.0784 68.6181 71.0757L68.647 71.102ZM69.0775 68.8182C71.4216 70.0362 75.6925 70.1754 78.8714 70.0782C79.0446 70.7791 79.0446 71.6349 79.0499 72.4749C74.9811 72.6849 70.1616 71.6769 69.0906 68.813H69.0775V68.8182ZM86.5994 67.28C85.3578 69.6425 83.5937 72.2596 79.9345 72.341C79.8741 71.5955 79.8164 70.4116 79.9345 69.968C82.7275 69.6976 84.4679 68.2722 86.6099 67.2984L86.5994 67.28ZM84.8958 65.5291C82.2183 67.2616 79.2415 69.1385 74.8577 68.7054C73.9364 67.8916 73.5846 66.0804 74.4902 64.8781C74.9654 65.6997 74.6477 67.2012 75.9865 67.4244C78.4645 67.8575 81.3363 65.9045 83.1528 65.2194C84.2553 63.3477 83.032 62.6574 82.0503 61.4577C79.9975 59.0165 77.2465 55.9452 77.32 52.244C78.1443 51.656 78.2282 53.1522 78.3464 53.4252C79.4069 55.9452 82.0844 59.1346 84.0531 61.3002C84.5256 61.8515 85.3131 62.324 85.3919 62.6757C85.6334 63.6995 84.7251 64.9175 84.8433 65.5895L84.8958 65.5291ZM49.6184 63.7572C48.7941 63.2742 48.5867 61.1585 47.6024 61.106C46.198 61.0272 46.4526 63.8622 46.4579 65.516C45.4866 64.6497 45.316 61.9329 46.0274 60.5547C45.2189 60.161 44.8592 60.9852 44.4051 61.3002C44.9826 57.1265 50.5476 59.3735 49.6289 63.8202L49.6184 63.7572ZM45.3711 47.7369C43.573 49.7214 43.9536 53.4436 44.1662 56.1054C47.4317 54.0447 51.7735 56.2629 51.7341 59.7646C53.296 59.7226 52.3195 57.8116 52.036 56.5752C51.1094 52.5642 53.59 48.2094 52.1436 44.5265C49.3506 44.747 47.0537 45.8915 45.3764 47.7159L45.3711 47.7369ZM69.3111 50.6585C70.117 52.1337 70.3716 53.672 71.5161 54.7797C72.028 55.2785 73.0229 55.8927 72.532 57.2735C72.4139 57.5911 71.5739 58.2999 71.0856 58.4547C69.3164 58.9666 65.1689 58.5335 66.568 56.3285C68.0459 56.3679 70.0172 57.2735 71.1145 56.2104C70.2902 54.8349 68.7914 52.1941 69.3452 50.6191L69.3111 50.6585ZM85.5809 50.6244H85.7594C86.6256 52.3779 87.3344 54.2337 88.3949 55.7825C87.6861 57.431 83.0058 58.9062 83.0845 55.9321C84.1083 55.4859 85.8408 55.8402 86.7464 55.2759C86.2398 53.8164 85.4864 52.6351 85.6071 50.627L85.5809 50.6244ZM67.3975 46.3797C63.6647 45.5135 61.8036 47.9337 60.6775 50.4564C59.6695 50.2096 60.0711 48.842 60.3231 48.1385C60.9925 46.2984 63.6831 43.8519 65.8855 44.1852C66.8279 44.3349 68.1115 45.1985 67.3975 46.3745V46.3797ZM58.3097 36.1816C54.2147 37.3366 48.9647 40.3134 47.2847 43.9884C48.5841 43.8046 49.4897 43.1457 50.776 43.067C51.2642 43.025 51.8995 43.2612 52.4586 43.1064C53.5716 42.8334 54.5061 40.3107 55.3514 39.4051C56.1651 38.4995 57.1495 38.1031 57.8189 37.2789C58.2572 37.0426 58.8925 37.0846 58.9214 36.4126C58.7297 36.2157 58.5276 36.0582 58.3124 36.137L58.3097 36.1816Z" fill="#BBBBBB"/>
</g>
<defs>
<clipPath id="clip0_158_1326">
<rect width="63" height="63" fill="white" transform="translate(33 32)"/>
</clipPath>
</defs>
</svg>
