<svg width="128" height="128" viewBox="0 0 128 128" fill="none" xmlns="http://www.w3.org/2000/svg">
<path d="M90.7741 62.0667C90.7741 77.7135 78.4805 90.4098 63.3074 90.4098C48.1343 90.4098 35.8408 77.7135 35.8408 62.0667C35.8408 46.4199 48.1343 33.7236 63.3074 33.7236C78.4805 33.7236 90.7741 46.4199 90.7741 62.0667Z" fill="white"/>
<path d="M36.971 69.0858C36.971 69.0858 34.9775 39.5356 61.9789 38.6862L60.0961 35.5121L45.4547 40.4744L41.2682 45.3249L37.6134 52.3884L35.5312 60.6141L36.1515 66.1129" fill="#F1F1F1"/>
<path d="M44.5026 42.7318C39.6959 47.7164 36.7056 54.5787 36.7056 62.1785C36.7056 69.7784 39.6959 76.6407 44.5026 81.6253C49.3314 86.6099 55.9544 89.6722 63.3083 89.6722C70.6623 89.6722 77.2853 86.6099 82.1141 81.6253C86.9208 76.6407 89.9111 69.7784 89.9111 62.1785C89.9111 54.5787 86.9208 47.7164 82.1141 42.7318C77.2853 37.7695 70.6623 34.6848 63.3083 34.6848C55.9765 34.6848 49.3314 37.7471 44.5026 42.7318ZM43.2843 82.81C38.1675 77.5348 35 70.2255 35 62.1785C35 54.1316 38.1675 46.8223 43.2843 41.5247C48.4011 36.2495 55.4892 32.9637 63.3083 32.9637C71.1275 32.9637 78.2156 36.2495 83.3324 41.5247C88.4491 46.7999 91.6167 54.1092 91.6167 62.1785C91.6167 70.2255 88.4491 77.5348 83.3324 82.81C78.2156 88.1076 71.1275 91.371 63.3083 91.371C55.4892 91.371 48.4011 88.1076 43.2843 82.81Z" fill="#ABABAB"/>
<path d="M74.8707 62.2235L70.6842 62.8494L65.0359 63.4976L61.381 63.587L57.8148 63.4753L55.0903 62.6259L52.6759 59.9882L50.7931 54.6013L50.3722 53.4389L47.8692 52.5895L46.4073 50.1531L45.3662 46.6661L46.518 43.6038L49.2425 42.6426L51.4354 43.6932L52.4765 46.0179L53.7391 45.8167L54.16 45.2802L53.7391 42.8438L53.6283 39.7815L54.2486 35.5568L54.2264 33.1428L56.1314 30.0581L59.4761 27.6217L65.3238 25.0958L71.8139 26.057L77.4623 30.1699L80.076 34.3945L81.7595 37.4568L82.1803 45.0567L80.9178 51.606L78.6141 57.4177L76.4434 60.5247" fill="white"/>
<path d="M71.3264 80.4852L56.3748 81.1111V83.6369L57.6374 92.5109L57.0172 93.2486L46.5622 89.6498L45.8312 88.3757L44.7901 76.4394L42.3314 69.2866L41.7998 67.5878L50.1727 61.7761L52.7864 60.7255L55.0901 63.5867L57.0836 65.3749L59.3873 66.1125L60.4284 66.4254L61.6909 71.9242L62.6434 73.0865L65.0578 72.2371L63.3744 75.5229L72.4561 79.8594L71.3264 80.4852Z" fill="white"/>
<path d="M46.5185 43.6485L49.243 42.6873L51.4359 43.7379L52.477 46.0626L53.7396 45.8614L54.0497 44.5873L53.4295 42.1509L54.0497 36.3392L53.5181 33.1651L55.4009 30.9522L59.4766 27.6887L58.3247 26.1017L52.5656 28.9628L50.1512 30.8628L48.8 33.8133L46.7179 36.6745L46.0977 40.0497L46.5185 43.6485Z" fill="#F1F1F1"/>
<path d="M50.8148 33.7238C50.8148 33.7238 52.3875 29.8121 58.6561 27.9121C64.9247 26.0121 58.9662 26.5486 58.9662 26.5486L52.166 29.1862L49.5522 31.8238L48.4004 33.9249L50.8148 33.7238Z" fill="#EAEAEA"/>
<path d="M47.6703 42.9105C47.6703 42.9105 45.4774 35.5118 53.8503 34.4612L53.5402 33.1871L47.7811 34.5506L46.0977 40.0494L46.5185 43.6482L47.6703 42.9105Z" fill="#EAEAEA"/>
<path d="M51.0146 52.7234L52.388 51.3822C52.388 51.3822 53.0082 51.4493 53.1189 52.1869C53.2297 52.9245 53.5398 59.5856 58.0364 63.162C58.4572 63.4973 54.6916 62.6256 54.6916 62.6256L51.3469 57.3503" fill="white"/>
<path d="M70.2631 50.7116C70.2631 50.7116 70.5067 47.5152 71.3706 47.761C72.2345 48.0069 72.2345 48.8787 72.2345 48.8787C72.2345 48.8787 70.1523 50.2198 70.2631 50.7116Z" fill="white"/>
<path d="M78.9459 38.9989C78.9459 38.9989 77.2181 39.3565 77.0631 40.8989C76.908 42.4412 78.9459 41.2118 79.256 41.1" fill="white"/>
<path d="M66.2978 39.1108C66.2978 39.1108 63.9941 39.4238 63.9941 40.899C63.9941 42.3743 66.6079 42.2626 67.3389 41.6367" fill="white"/>
<path d="M52.0785 45.973C52.0785 45.973 48.1136 43.5366 47.6927 45.8613C47.2719 48.1859 46.3415 49.8624 48.3129 52.2988L46.9618 51.8741L45.6992 48.6106L45.2783 45.4365L47.6927 42.9107L50.4172 43.1119L51.9899 44.386L52.0785 45.973Z" fill="white"/>
<path d="M53.9604 39.3121C53.9604 39.3121 55.7324 30.0134 64.7255 28.2252C72.1238 26.7499 76.0223 28.5381 77.4842 30.2369C77.4842 30.2369 70.8833 22.3241 64.6148 24.7382C58.3462 27.1746 53.7389 31.6004 53.8496 34.4392C54.0268 39.3121 53.9604 39.3121 53.9604 39.3121Z" fill="white"/>
<path d="M78.2157 31.2873C78.2157 31.2873 75.1811 31.1755 75.0703 33.9249C75.0703 33.9249 75.0703 34.3496 75.2697 34.7743C75.2697 34.7743 77.6841 32.0249 79.146 33.5002" fill="white"/>
<path d="M64.9467 35.0647C64.9467 35.0647 64.4151 30.8625 60.871 33.2989C58.5673 34.8859 58.7888 37.0988 59.1876 37.5235C59.6084 37.9482 59.4977 38.7976 59.8078 38.2165C60.1179 37.6353 60.0293 35.7353 61.1811 35.1989C62.3108 34.6624 64.2157 34.0812 64.9467 35.0647Z" fill="white"/>
<path d="M55.1126 63.5867L45.2777 68.0125C45.2777 68.0125 49.3534 84.3746 47.2713 89.4487L45.8094 88.9122L45.6986 82.6758L42.9741 70.8737L41.8223 67.6102L52.0779 60.6362L55.1126 63.5867Z" fill="#EAEAEA"/>
<path d="M56.1097 72.6398L57.5052 74.361V80.6868H55.8439C55.8439 80.6868 55.6445 76.261 55.6445 75.7245C55.6445 75.188 55.8439 73.2881 55.8439 73.2881" fill="#EAEAEA"/>
<path d="M56.1526 81.6476L51.4346 81.8488L52.7858 82.81L56.1305 83.3464" fill="#EAEAEA"/>
<path d="M72.2559 80.5973L76.1322 80.4855L77.0847 90.1866L73.1197 90.723L72.2559 80.5973Z" fill="white"/>
<path d="M73.2979 80.5972L79.1456 80.2842C79.1456 80.2842 81.56 74.1596 81.56 73.8467C81.56 73.5337 83.6421 64.9727 83.6421 64.9727L78.9241 60.0104L77.9716 59.161L75.4686 61.6869V71.4997L73.2979 80.5972Z" fill="white"/>
<path d="M75.9107 79.8596L72.2559 80.5973L72.7875 83.5478C74.1387 84.1737 76.4423 82.4972 76.4423 82.4972" fill="#EAEAEA"/>
<path d="M76.0215 61.3738L83.3533 66.8725L83.5527 64.3467L78.015 59.1832L76.0215 61.3738Z" fill="#EAEAEA"/>
<path d="M59.7859 101.385L57.6151 92.5111L56.5297 85.9618L56.3525 81.1113L66.1652 80.5748H72.2566L71.7028 91.6617L72.6553 100.223L72.5446 101.81L64.5925 102.436L59.7859 101.385Z" fill="white"/>
<path d="M70.9053 80.4855C70.9053 80.4855 70.3737 91.4606 71.9463 99.284C71.9463 99.284 68.801 101.296 64.2158 101.81L73.0096 101.497L74.0506 100.871L72.7881 83.5702L72.4558 79.8596" fill="#EAEAEA"/>
<path d="M77.2394 89.3598L81.3151 88.1974L89.0456 87.7727L90.1974 84.1739L88.1153 77.9376L85.7009 77.6246L82.3561 78.6752L79.1665 80.2622L77.4609 79.9493L76.1318 80.4858" fill="white"/>
<path d="M77.1748 87.2361C77.1748 87.2361 79.8993 85.962 80.3202 86.0737L79.1684 80.262L80.5195 79.7256C80.5195 79.7256 81.472 85.2243 81.472 85.8502C81.472 85.8502 87.3197 86.1631 87.8513 86.1631C87.8513 86.1631 89.1139 83.7267 88.8038 81.2009L89.9556 84.5761L90.0664 86.4761L88.383 89.0019L86.5002 89.4266L83.3548 89.3149L82.3137 87.9513L78.6589 88.4878L77.5071 88.9125" fill="#EAEAEA"/>
<path d="M73.054 79.7477L70.7503 73.8466L68.3359 70.3596C68.3359 70.3596 68.8675 68.8843 69.5985 68.8843H72.0129L74.3166 69.7337L74.1172 73.6454L73.054 79.7477Z" fill="white"/>
<path d="M73.5189 77.7359C73.5189 77.7359 70.5951 72.036 70.5951 71.1866C70.5951 71.1866 71.1267 69.9125 71.8576 70.2255C72.5886 70.5384 74.1613 71.3878 74.1613 71.3878V69.3761L70.5951 68.6384L68.1807 68.9514L72.2564 78.6971L73.0981 78.8089" fill="#EAEAEA"/>
<path d="M60.7161 63.8102L57.8144 63.4972L55.0898 62.6478V63.609L56.4189 65.0843L60.6053 66.9842" fill="white"/>
<path d="M56.0428 64.1233C56.0428 64.1233 59.2768 65.4868 60.34 65.1739L60.4508 66.448L57.5269 65.8221L55.7549 64.548L56.0428 64.1233Z" fill="#EAEAEA"/>
<path d="M77.2415 69.2421C75.4695 69.1974 73.8525 68.9739 72.457 68.5715C72.5456 67.9903 72.3684 67.4315 72.5234 67.0068C72.9222 66.7163 73.5645 66.7163 74.1626 66.6492C73.6531 66.4033 72.9222 66.2916 72.3462 66.448C72.3241 66.0457 72.1469 65.7998 72.0361 65.4869C73.0329 65.1292 75.3809 62.7822 76.7099 63.5422C77.3523 63.9222 77.6181 66.0233 77.6624 67.0739C77.7067 67.9233 77.5738 68.7727 77.2415 69.2421Z" fill="white"/>
<path d="M77.2415 69.2421C75.4695 69.1974 73.8525 68.9739 72.457 68.5715C72.5456 67.9903 72.3684 67.4315 72.5234 67.0068C72.9222 66.7163 73.5645 66.7163 74.1626 66.6492C73.6531 66.4033 72.9222 66.2916 72.3462 66.448C72.3241 66.0457 72.1469 65.7998 72.0361 65.4869C73.0329 65.1292 75.3809 62.7822 76.7099 63.5422C77.3523 63.9222 77.6181 66.0233 77.6624 67.0739C77.7067 67.9233 77.5738 68.7727 77.2415 69.2421Z" fill="#EAEAEA" stroke="white" stroke-width="0.585708"/>
<path d="M68.7576 66.3137C68.7576 66.4479 68.7576 66.582 68.7355 66.7161C68.1817 67.0737 67.2957 67.0737 66.6755 67.3867C67.5615 67.4314 68.2703 67.6549 68.8905 67.9455C68.8684 68.2808 68.8684 68.6384 68.8462 68.9737C67.8273 69.6666 66.897 70.7172 65.7009 71.3878C65.1249 71.7007 63.1536 72.5054 62.5555 72.3489C62.2232 72.2595 62.1789 71.8348 62.046 71.4325C61.7581 70.5831 61.0936 69.1972 61.0271 67.9008C60.9607 66.269 60.7834 63.5197 62.5333 63.855C63.951 64.1232 65.5901 64.7714 66.6755 65.3749C67.3621 65.7773 67.7387 66.2243 68.7576 66.3137Z" fill="white"/>
<path d="M68.7576 66.3137C68.7576 66.4479 68.7576 66.582 68.7355 66.7161C68.1817 67.0737 67.2957 67.0737 66.6755 67.3867C67.5615 67.4314 68.2703 67.6549 68.8905 67.9455C68.8684 68.2808 68.8684 68.6384 68.8462 68.9737C67.8273 69.6666 66.897 70.7172 65.7009 71.3878C65.1249 71.7007 63.1536 72.5054 62.5555 72.3489C62.2232 72.2595 62.1789 71.8348 62.046 71.4325C61.7581 70.5831 61.0936 69.1972 61.0271 67.9008C60.9607 66.269 60.7834 63.5197 62.5333 63.855C63.951 64.1232 65.5901 64.7714 66.6755 65.3749C67.3621 65.7773 67.7387 66.2243 68.7576 66.3137Z" fill="#EAEAEA" stroke="white" stroke-width="0.585708"/>
<path d="M69.7548 68.2583C69.5997 67.3642 69.4225 67.1184 69.489 66.336C71.8591 64.749 72.2799 69.063 69.7548 68.2583Z" fill="white"/>
<path d="M69.7548 68.2583C69.5997 67.3642 69.4225 67.1184 69.489 66.336C71.8591 64.749 72.2799 69.063 69.7548 68.2583Z" fill="#EAEAEA" stroke="white" stroke-width="0.585708"/>
<path d="M73.1654 68.9738C73.1654 68.9738 72.4344 67.9232 72.966 67.6103C73.4976 67.2974 74.0071 67.6103 74.3172 67.0738C74.6273 66.5374 74.3172 66.2244 74.4279 65.5986C74.5387 64.9727 75.0482 64.8609 75.5798 64.7492C76.1114 64.6374 77.5733 64.4362 77.7727 64.9503L77.1525 63.0504L75.8899 62.6257L71.9249 64.9503L71.7256 66.1127V68.4374" fill="#F1F1F1"/>
<path d="M62.1775 72.4608C62.0446 70.8067 61.9117 69.1749 61.7787 67.5208C61.5572 65.0621 62.3547 65.4868 64.4811 65.4868C64.8134 65.4868 66.4747 65.8668 66.5854 66.1126C67.1613 67.2973 65.6329 67.0291 67.2499 67.9232C68.6011 68.6608 71.0155 67.4761 70.4617 65.7997C70.1516 65.4197 68.8669 65.6879 68.4017 65.4421C67.5822 65.0174 66.7626 64.5927 65.943 64.168C64.902 63.6315 62.5097 62.8268 61.4022 63.5868C58.5891 65.5091 61.5794 70.3373 62.5762 72.349" fill="#F1F1F1"/>
<path d="M64.9461 35.065C62.0887 34.3944 60.671 36.272 59.8072 38.2167C59.0319 38.0379 59.342 36.9649 59.5414 36.4285C60.0508 35.0203 62.1108 33.1203 63.7943 33.3885C64.5031 33.4779 65.4777 34.1485 64.9461 35.065Z" fill="#ABABAB"/>
<path d="M78.8357 38.3284H78.9686C79.611 39.6695 80.1647 41.1001 80.9843 42.3071C80.4305 43.6036 76.8643 44.7212 76.9086 42.4412C77.6839 42.106 79.0129 42.3742 79.6996 41.9271C79.3009 40.8319 78.7471 39.8931 78.8357 38.3284Z" fill="#ABABAB"/>
<path d="M66.3861 38.3731C67.0063 39.5131 67.2056 40.6978 68.0695 41.5472C68.4682 41.9272 69.2213 42.3966 68.8448 43.4695C68.7562 43.7154 68.1138 44.2742 67.7372 44.386C66.3861 44.7883 63.2185 44.4754 64.2818 42.7542C65.4114 42.7989 66.9177 43.4919 67.7594 42.6648C67.117 41.6366 65.9652 39.5801 66.3861 38.3731Z" fill="#ABABAB"/>
<path d="M78.3265 49.8623C76.2887 51.1811 74.0072 52.634 70.6403 52.2987C69.9315 51.6729 69.6435 50.2647 70.3524 49.3482C70.7068 49.9741 70.4853 51.1364 71.5042 51.3152C73.4091 51.6505 75.6242 50.1305 76.9975 49.6164C77.8392 48.1635 76.9311 47.6494 76.1558 46.7106C74.5831 44.8106 72.501 42.4412 72.5674 39.6025C73.2098 39.1331 73.2541 40.3178 73.3427 40.5189C74.1622 42.4412 76.2222 44.9224 77.7063 46.5765C78.0829 46.9788 78.6809 47.3812 78.7474 47.6494C78.9468 48.4094 78.2379 49.3482 78.3265 49.8623Z" fill="#ABABAB"/>
<path d="M51.3452 48.4765C50.7028 48.0965 50.5478 46.4871 49.7946 46.4424C48.7093 46.3754 48.9086 48.5436 48.9086 49.8177C48.1777 49.1471 48.0448 47.046 48.5764 45.973C47.9562 45.6601 47.6903 46.3083 47.3359 46.5318C47.8011 43.2907 52.054 45.0342 51.3452 48.4765Z" fill="#ABABAB"/>
<path d="M79.6103 51.2257C78.6578 53.0586 77.3067 55.0704 74.5157 55.1374C74.4493 54.5562 74.4049 53.6398 74.5157 53.2821C76.6643 53.0586 77.9933 51.9633 79.6103 51.2257Z" fill="#ABABAB"/>
<path d="M66.2324 52.4106C68.0045 53.3494 71.2827 53.4612 73.7193 53.3941C73.8522 53.9306 73.8522 54.6011 73.8522 55.2494C70.729 55.3835 67.052 54.6011 66.2324 52.4106Z" fill="#ABABAB"/>
<path d="M65.8999 54.1541C67.1403 57.2835 71.3711 56.9258 74.9373 56.8364C74.7822 57.2388 74.45 57.7305 74.007 57.887C72.8551 58.3564 69.7098 58.714 68.1149 57.8646C67.1182 57.3282 66.4537 56.0988 65.8999 55.3835C65.6562 55.0482 64.3272 54.1765 65.8999 54.1541Z" fill="#ABABAB"/>
<path d="M78.1717 71.3878C76.7319 73.8913 75.3364 76.4618 73.6309 78.6524C74.3397 76.5289 74.6498 72.9525 74.7605 70.2254C76.2668 69.5102 77.5515 70.3819 78.1717 71.3878Z" fill="#F1F1F1"/>
<path d="M85.946 80.3737C84.329 80.7089 83.1993 82.296 81.6045 82.1842C82.4905 80.9548 83.9967 80.4184 85.946 80.3737Z" fill="#ABABAB"/>
<path d="M86.6549 82.9221C85.3259 83.0562 83.7753 83.2797 82.4463 83.1679C83.0887 82.1844 85.5252 82.5421 86.6549 82.9221Z" fill="#ABABAB"/>
<path d="M87.1191 85.1346C85.635 85.157 83.7965 85.1346 82.3789 85.0229C83.2206 84.1064 86.1666 84.6876 87.1191 85.1346Z" fill="#ABABAB"/>
<path d="M75.3801 91.1699C75.6016 93.0475 76.3326 94.9474 76.244 97.0039C75.4244 97.2721 74.9592 97.518 73.8517 97.518C73.7853 95.7745 73.5416 93.0922 73.6081 91.4157C74.1397 91.4604 74.9371 91.0357 75.3801 91.1699Z" fill="#EAEAEA"/>
<path d="M72.9883 63.4528C72.2352 63.9445 71.6149 64.548 70.884 65.0845C69.2891 65.1739 68.4253 64.9727 67.2734 64.0563C67.2956 63.9892 67.4063 64.0116 67.4063 63.9222C69.1119 64.6822 71.2827 63.6092 72.9883 63.4528Z" fill="white"/>
<path d="M64.084 75.1432C64.5491 73.1091 66.3876 72.0361 68.0489 70.9185C69.7545 73.1091 70.7956 75.9255 71.9474 78.6525C69.2229 77.8255 66.4541 76.5067 64.084 75.1432Z" fill="#F1F1F1"/>
<path d="M73.6088 91.4382C73.5423 93.1146 73.7638 95.7746 73.8524 97.5405C74.9599 97.5405 75.4251 97.2946 76.2447 97.0263C76.3333 94.9699 75.6023 93.0699 75.3808 91.1923C74.9378 91.0358 74.1404 91.4605 73.6088 91.4382ZM56.5086 81.9607C57.2395 88.6888 58.2806 94.3217 60.2077 100.29C64.4828 101.609 69.6217 101.72 73.4094 100.536C72.7227 97.1828 73.0107 93.0923 72.612 89.4935C72.3019 86.7889 72.4569 84.0842 72.0361 81.3348C67.4509 80.3737 60.983 81.1113 56.5086 81.9607ZM73.1214 81.3795C73.0771 84.263 73.2543 87.1241 73.4759 90.0076C74.5834 89.8512 75.3143 89.7394 76.3333 89.4935C76.001 86.7218 76.0453 83.5701 75.3586 81.1113C74.5834 81.1336 73.8967 81.1113 73.1214 81.3795ZM78.6812 80.9101C78.1496 80.7984 77.5515 80.9101 77.0642 80.9101C77.3079 83.2571 77.8617 85.85 78.061 88.3312C78.8363 88.3535 79.2571 87.9735 79.8995 87.8618C79.9438 85.6936 79.7223 82.6983 78.6812 80.9101ZM87.1206 88.6888C88.7597 88.2865 89.7786 86.2747 89.3135 84.1959C89.0034 82.8101 88.4717 80.1725 87.8737 79.2784C87.4528 78.6302 86.2788 77.7584 85.3264 78.3619C83.798 79.3454 81.1178 79.636 80.0102 80.8207C80.564 82.6983 80.7412 85.2465 80.9627 87.6159C82.8677 87.7277 85.1935 87.0794 86.7883 87.7724C85.6808 88.13 84.2631 88.13 83.3107 88.6665C84.1081 89.0465 85.9244 88.9794 87.1206 88.6888ZM71.9253 78.6525C70.7735 75.9255 69.7324 73.1091 68.0268 70.9185C66.3655 72.0361 64.5492 73.1091 64.0619 75.1431C66.4541 76.5067 69.223 77.8255 71.9253 78.6525ZM74.7606 70.2256C74.6498 72.9526 74.3397 76.529 73.6309 78.6525C75.3365 76.4396 76.732 73.8914 78.1718 71.3879C77.5515 70.382 76.2668 69.5103 74.7606 70.2256ZM71.5488 69.0856C70.9064 69.0185 70.3526 69.8456 69.5109 69.4879C69.3116 69.7115 69.1344 69.935 68.935 70.1585C70.7956 72.4385 71.6595 75.6573 73.0993 78.3172C73.8746 75.7467 73.786 72.9526 73.9632 70.1585C72.8999 70.2032 72.3019 69.1526 71.5488 69.0856ZM69.4888 66.3362C69.4223 67.1186 69.5995 67.3644 69.7546 68.2585C72.2797 69.0632 71.8589 64.7492 69.4888 66.3362ZM66.6757 65.3974C65.5903 64.7939 63.9511 64.1457 62.5335 63.8774C60.7836 63.5421 60.9608 66.2915 61.0273 67.9233C61.0937 69.2197 61.7582 70.5832 62.0462 71.455C62.1791 71.8573 62.2234 72.282 62.5557 72.3714C63.1537 72.5055 65.1473 71.7232 65.701 71.4103C66.8972 70.762 67.8275 69.7115 68.8464 68.9962C68.8686 68.6609 68.8686 68.3032 68.8907 67.968C68.2705 67.655 67.5838 67.4538 66.6757 67.4091C67.2737 67.0962 68.1819 67.0962 68.7356 66.7386C68.7356 66.6044 68.7356 66.4703 68.7578 66.3362C67.7389 66.2245 67.3623 65.7774 66.6757 65.3974ZM56.2649 63.4974C55.3567 64.4362 58.8122 65.688 59.8976 65.7551C59.8976 65.1739 60.2299 64.6151 60.1634 64.1904C58.8565 63.9668 57.1509 64.1233 56.2649 63.4974ZM67.4288 63.9221C67.4288 64.0115 67.318 63.9892 67.2959 64.0563C68.4698 64.9727 69.3337 65.1739 70.9064 65.0845C71.6152 64.5704 72.2576 63.9445 73.0107 63.4527C71.283 63.6092 69.1122 64.6821 67.4288 63.9221ZM77.6623 67.0515C77.618 66.0233 77.3522 63.8998 76.7098 63.5198C75.3808 62.7374 73.0328 65.1068 72.0361 65.4645C72.1468 65.7774 72.324 66.0233 72.3462 66.4256C72.9442 66.2692 73.6531 66.3809 74.1625 66.6268C73.5645 66.6939 72.9221 66.6939 72.5234 66.9844C72.3905 67.4091 72.5677 67.968 72.4569 68.5491C73.8524 68.9515 75.4694 69.1526 77.2414 69.2197C77.5737 68.7727 77.7066 67.9233 77.6623 67.0515ZM54.7365 64.3915C54.4486 64.1904 52.5215 61.6645 52.2557 61.7763C48.7781 63.1621 45.5219 65.5539 42.6202 67.8338C45.389 73.8467 46.5187 81.2007 46.7181 88.2865C49.8856 89.7841 52.6765 91.9523 56.9959 92.1758C56.4864 88.6218 56.0434 85.4253 55.7555 82.0725C54.6701 81.603 53.1195 82.0948 52.1006 81.9383C52.1006 80.7089 53.6512 81.4019 53.7841 80.5748C53.8727 79.949 52.9202 79.9042 53.2303 78.9207C54.0277 79.2113 54.4486 79.8595 55.2903 80.1054C56.0656 78.4066 55.2903 75.389 55.401 73.9585C55.4232 73.6902 55.534 72.4832 56.132 72.6844C56.6636 72.8632 56.1099 75.9255 56.1542 77.2666C56.1985 78.5184 55.9991 79.7031 56.5086 80.4854C60.6729 79.9043 64.9036 79.5466 69.4223 79.4125C68.4255 78.9878 67.2516 78.5854 65.9668 77.8478C65.258 77.4455 63.0651 76.6184 62.8658 75.9478C62.5335 74.8749 63.7075 74.3161 63.9068 73.3996C61.8025 74.562 61.4038 72.282 60.8944 70.695C60.4514 69.2421 60.1856 68.1468 60.0748 67.3197C58.2363 66.3809 56.2871 65.5092 54.7365 64.3915ZM75.8238 62.0669C78.7255 60.6587 79.2571 67.3644 78.1053 69.5326C78.2825 70.1809 78.8806 70.4267 79.1242 71.0079C77.5072 73.9361 75.7131 76.6631 74.0518 79.5466C75.27 78.7643 77.0421 79.4125 78.4819 78.8313C79.0135 78.6302 79.39 77.4008 79.7887 76.4172C80.8963 73.7349 82.0481 70.3373 82.5576 67.7891C82.6683 67.208 83.0006 65.9339 82.912 65.4198C82.7791 64.481 81.5386 63.788 80.8963 63.2292C79.7223 62.1563 78.9913 61.2398 77.7509 60.234C77.2857 60.9716 76.2225 61.4633 75.8238 62.0669ZM48.1135 36.1155C46.7402 37.6578 47.0282 40.519 47.1832 42.5754C49.6862 40.9884 52.9866 42.7095 52.9645 45.3918C54.1606 45.3695 53.4075 43.8942 53.186 42.933C52.4772 39.826 54.3821 36.4731 53.2746 33.6344C51.126 33.8132 49.3761 34.6849 48.1135 36.1155ZM57.9927 27.1968C54.8694 28.0909 50.8602 30.3932 49.5755 33.232C50.5722 33.0755 51.2589 32.5838 52.2335 32.5167C52.6101 32.4944 53.0974 32.6732 53.5183 32.5614C54.36 32.3379 55.0909 30.4156 55.7333 29.7003C56.3535 29.0074 57.1066 28.6944 57.6161 28.0686C57.9484 27.9121 58.4357 27.9121 58.4578 27.4203C58.3249 27.2639 58.1699 27.1521 57.9927 27.1968ZM74.2733 28.0462C71.0171 26.1909 65.5238 24.8051 62.0683 26.5486C59.2774 27.9568 55.5118 30.2815 54.2271 33.2097C55.4232 36.0484 53.8727 38.6413 53.7619 41.5248C53.7176 43.0672 54.4707 44.386 54.5372 46.0624C54.1163 46.7553 52.8759 46.8224 52.012 46.7777C51.7241 45.3024 51.2146 43.6483 49.7084 43.4695C47.5819 43.2236 46.0092 45.0118 45.9206 46.8671C45.8099 49.0577 47.5819 52.6788 50.1071 52.4329C51.0817 52.3435 51.3254 51.36 52.3886 51.36C52.9645 52.5223 51.5026 52.8799 51.3475 53.707C51.3032 53.9305 51.4583 54.7576 51.569 55.1599C52.0342 57.0599 53.0531 59.541 54.0499 60.9939C55.3346 62.8492 57.8376 63.1174 60.54 63.2963C61.0273 62.2457 62.7993 62.3351 63.9511 62.6033C62.5557 62.0445 61.2709 60.7034 60.2077 59.5187C58.9894 58.1552 57.749 56.7022 57.6826 54.914C60.0084 58.1552 61.9133 60.9939 66.1219 62.4245C69.3116 63.4974 73.0328 61.9328 75.4916 60.1893C76.5105 59.474 77.1085 58.3116 77.8395 57.2834C80.5419 53.3494 81.8044 47.7612 81.5386 42.3295C81.4279 40.0943 81.4279 37.859 80.6748 36.3614C79.8995 34.7967 77.2636 33.3661 75.7131 34.7967C75.4251 33.2544 76.9978 32.3155 78.8363 32.8744C77.5294 31.1532 76.1561 29.1191 74.2733 28.0462ZM80.3425 78.5854C82.8898 77.3113 87.63 75.1655 89.2027 78.5854C89.8008 79.8595 90.4874 81.983 90.7754 83.3018C91.1963 85.1348 90.3102 89.0241 88.4274 89.6276C86.7662 90.1641 84.8391 90.1417 82.8455 89.7394C82.6019 89.5382 82.3582 89.2029 82.1589 88.8453C80.7412 88.8006 79.39 88.9124 78.2825 89.5159C78.3933 90.5888 77.6844 90.7453 76.9978 90.9688C76.5105 92.9582 77.9946 95.5511 77.6401 97.3393C77.3965 98.6357 75.8238 98.8369 74.672 99.0604C74.6277 99.7757 74.7163 100.379 74.8049 100.983C74.5391 101.966 73.3651 102.525 72.2354 102.659C68.5363 103.106 62.9322 103.307 59.3881 102.011C58.3914 99.5522 57.6161 96.5793 56.7965 93.7852C53.3411 94.1652 50.5279 92.2876 47.892 91.0358C46.9839 90.6111 45.7213 90.3653 45.3669 89.6276C45.0346 88.9124 45.1675 87.5488 45.0789 86.2747C44.8796 82.9889 44.6802 79.8148 43.8385 76.462C43.4619 74.942 42.7753 73.6232 42.3101 72.1702C41.8671 70.8291 41.114 69.1526 40.9146 67.8115C40.6267 65.8221 42.4873 65.7103 43.6613 64.8386C45.4998 63.4974 46.9396 62.7598 48.9331 61.5528C49.5312 61.1951 51.3032 60.301 51.5026 59.8763C51.9013 59.0493 50.8159 57.8869 50.5279 57.2387C50.0628 56.2105 49.8191 55.3387 49.7527 54.3329C48.0914 54.0646 46.8067 53.0588 46.0535 51.9411C44.791 50.0635 43.9049 46.5989 45.0125 43.9836C45.1011 43.7824 45.5219 43.3577 45.5884 43.0448C45.7213 42.4189 45.3447 41.5919 45.3226 40.9213C45.2118 37.5014 45.8985 34.5508 48.18 33.5226C49.1103 29.7897 52.4329 28.5603 55.5561 26.705C56.7301 26.0121 58.0148 25.5651 59.3438 25.0733C64.1062 23.3074 71.438 23.6427 75.4029 26.6603C77.0864 27.9344 79.7666 30.6391 80.7191 32.6061C83.2664 37.7696 83.067 46.42 81.295 52.7235C81.0513 53.5729 80.7191 54.8023 80.2318 55.8305C79.8995 56.5458 78.8584 57.954 78.9692 58.5799C79.1021 59.2281 81.3614 60.9492 81.8487 61.4186C82.7126 62.268 84.3739 63.3857 84.5068 64.4586C84.6619 65.5986 84.0195 67.1633 83.6872 68.2585C82.624 71.9244 81.5608 75.2996 80.3425 78.5854Z" fill="#ABABAB"/>
<path d="M63.3966 53.1928C63.5295 53.014 64.2826 52.7234 65.3458 53.2375C65.3458 53.2375 64.0832 53.4387 64.194 55.5622L63.6624 55.4504C63.6845 55.4728 63.1308 53.5505 63.3966 53.1928Z" fill="white"/>
<path d="M72.5669 71.3431C72.5669 71.656 72.3011 71.9242 71.991 71.9242C71.6808 71.9242 71.415 71.656 71.415 71.3431C71.415 71.0301 71.6808 70.7619 71.991 70.7619C72.3232 70.7619 72.5669 71.0301 72.5669 71.3431Z" fill="#ABABAB"/>
<path d="M73.1421 74.0478C73.1421 74.3607 72.8763 74.6289 72.5661 74.6289C72.256 74.6289 71.9902 74.3607 71.9902 74.0478C71.9902 73.7348 72.256 73.4666 72.5661 73.4666C72.8984 73.4666 73.1421 73.7125 73.1421 74.0478Z" fill="#ABABAB"/>
</svg>
