<svg width="128" height="128" viewBox="0 0 128 128" fill="none" xmlns="http://www.w3.org/2000/svg">
<g clip-path="url(#clip0_158_1121)">
<path d="M38.6719 35C37.1922 35 36 36.1922 36 37.6719V89.3281C36 90.8078 37.1922 92 38.6719 92H90.3281C91.8078 92 93 90.8078 93 89.3281V37.6719C93 36.1922 91.8078 35 90.3281 35H38.6719ZM79.909 58.1562C81.3625 58.1562 82.6497 58.2441 83.7731 58.4199C84.8327 58.5786 85.8724 58.8493 86.8749 59.2274V65.0651C86.3937 64.7323 85.8824 64.4453 85.3477 64.2078C84.7964 63.9596 84.2271 63.7532 83.6449 63.5903C82.5419 63.2829 81.4031 63.1232 80.2581 63.1153C79.5456 63.1153 78.8972 63.1817 78.313 63.3195C77.7923 63.4309 77.2927 63.6249 76.8334 63.8943C76.4296 64.1413 76.1209 64.4381 75.9 64.7825C75.6778 65.1296 75.5623 65.5342 75.5675 65.9462C75.5675 66.4117 75.6934 66.8321 75.938 67.2026C76.185 67.5731 76.5365 67.9246 76.9901 68.2571C77.4438 68.5896 77.9947 68.9126 78.6431 69.2309C79.2915 69.5515 80.0254 69.8816 80.8424 70.2189C81.9586 70.6868 82.9609 71.1855 83.8491 71.7104C84.7374 72.2376 85.4998 72.8337 86.1363 73.4987C86.7728 74.1614 87.2573 74.919 87.5945 75.7716C87.9318 76.6242 88.1027 77.6146 88.1027 78.7475C88.1027 80.3079 87.8059 81.6213 87.2169 82.6805C86.6414 83.7252 85.8155 84.6106 84.8134 85.2574C83.7332 85.9423 82.536 86.4222 81.2817 86.6729C79.9375 86.9579 78.5196 87.1004 77.0305 87.1004C75.5649 87.1068 74.1019 86.9764 72.6605 86.7109C71.4134 86.4952 70.204 86.1008 69.0695 85.54V79.2937C71.216 81.1204 73.9389 82.1298 76.7574 82.1438C77.5482 82.1438 78.2394 82.0725 78.8284 81.93C79.4198 81.7875 79.9114 81.588 80.308 81.3363C80.7023 81.0798 80.9967 80.7805 81.1939 80.4337C81.4117 80.03 81.5109 79.5729 81.4798 79.1152C81.4487 78.6575 81.2886 78.2179 81.0181 77.8474C80.6653 77.3804 80.2337 76.9786 79.7427 76.6599C79.1339 76.2563 78.4929 75.9036 77.8261 75.6054C77.0358 75.2445 76.2385 74.8992 75.4345 74.5699C73.2543 73.6602 71.6297 72.5464 70.5586 71.233C69.4899 69.9196 68.9531 68.3308 68.9531 66.4711C68.9531 65.0129 69.2453 63.7612 69.8295 62.7139C70.4138 61.6665 71.207 60.8044 72.214 60.1275C73.2791 59.4249 74.4616 58.9189 75.7053 58.6336C77.0827 58.3089 78.4938 58.1486 79.909 58.1562ZM44.0156 58.6027H66.7277V63.747H58.5767V86.6562H52.1239V63.747H44.0156V58.6027Z" fill="white"/>
</g>
<defs>
<clipPath id="clip0_158_1121">
<rect width="57" height="57" fill="white" transform="translate(36 35)"/>
</clipPath>
</defs>
</svg>
