<svg width="128" height="128" viewBox="0 0 128 128" fill="none" xmlns="http://www.w3.org/2000/svg">
<path d="M91.2883 62.0691C91.2883 77.7169 78.8819 90.4139 63.5694 90.4139C48.257 90.4139 35.8506 77.7169 35.8506 62.0691C35.8506 46.4214 48.257 33.7244 63.5694 33.7244C78.8819 33.7244 91.2883 46.4214 91.2883 62.0691Z" fill="#D33833"/>
<path d="M36.9891 69.088C36.9891 69.088 34.9773 39.5362 62.2267 38.6867L60.3266 35.5125L45.5507 40.475L41.3258 45.3258L37.6374 52.3897L35.5361 60.6159L36.162 66.115" fill="#EF3D3A"/>
<path d="M44.5898 42.733C39.739 47.7179 36.7213 54.5806 36.7213 62.1809C36.7213 69.7813 39.739 76.6439 44.5898 81.6288C49.463 86.6138 56.1468 89.6762 63.5683 89.6762C70.9898 89.6762 77.6736 86.6138 82.5468 81.6288C87.3976 76.6439 90.4154 69.7813 90.4154 62.1809C90.4154 54.5806 87.3976 47.7179 82.5468 42.733C77.6736 37.7704 70.9898 34.6856 63.5683 34.6856C56.1692 34.6856 49.463 37.7481 44.5898 42.733ZM43.3604 82.8136C38.1966 77.5381 35 70.2283 35 62.1809C35 54.1335 38.1966 46.8238 43.3604 41.5259C48.5241 36.2504 55.6774 32.9644 63.5683 32.9644C71.4592 32.9644 78.6125 36.2504 83.7763 41.5259C88.94 46.8014 92.1366 54.1112 92.1366 62.1809C92.1366 70.2283 88.94 77.5381 83.7763 82.8136C78.6125 88.1115 71.4592 91.3751 63.5683 91.3751C55.6774 91.3751 48.5241 88.1115 43.3604 82.8136Z" fill="#231F20"/>
<path d="M75.2373 62.2256L71.0124 62.8515L65.3122 63.4997L61.6238 63.5892L58.0248 63.4774L55.2753 62.6279L52.8387 59.9902L50.9386 54.6029L50.5139 53.4405L47.9879 52.591L46.5125 50.1544L45.4619 46.6672L46.6243 43.6047L49.3739 42.6435L51.5869 43.6942L52.6375 46.019L53.9117 45.8178L54.3364 45.2813L53.9117 42.8447L53.7999 39.7822L54.4258 35.5573L54.4035 33.1431L56.3259 30.0583L59.7014 27.6217L65.6028 25.0957L72.1525 26.0569L77.8527 30.17L80.4905 34.3949L82.1894 37.4574L82.6141 45.0578L81.34 51.6075L79.0151 57.4195L76.8245 60.5267" fill="#F0D6B7"/>
<path d="M71.6611 80.4886L56.5722 81.1146V83.6405L57.8463 92.5151L57.2204 93.2527L46.6694 89.6538L45.9317 88.3796L44.8811 76.4426L42.3998 69.2893L41.8633 67.5904L50.3131 61.7784L52.9508 60.7278L55.2756 63.5891L57.2875 65.3774L59.6123 66.1151L60.6629 66.428L61.9371 71.9271L62.8983 73.0895L65.3349 72.2401L63.636 75.5261L72.8011 79.8627L71.6611 80.4886Z" fill="#335061"/>
<path d="M46.6249 43.6496L49.3745 42.6884L51.5875 43.739L52.6381 46.0639L53.9123 45.8627L54.2253 44.5885L53.5993 42.1519L54.2253 36.3399L53.6888 33.1656L55.5888 30.9526L59.702 27.6889L58.5396 26.1018L52.7275 28.9631L50.291 30.8632L48.9274 33.8139L46.8261 36.6752L46.2002 40.0507L46.6249 43.6496Z" fill="#6D6B6D"/>
<path d="M50.961 33.7242C50.961 33.7242 52.5481 29.8123 58.8743 27.9122C65.2004 26.0121 59.1872 26.5486 59.1872 26.5486L52.3246 29.1864L49.6868 31.8242L48.5244 33.9254L50.961 33.7242Z" fill="#DCD9D8"/>
<path d="M47.7873 42.9117C47.7873 42.9117 45.5743 35.5126 54.0241 34.4619L53.7111 33.1877L47.8991 34.5513L46.2002 40.0504L46.6249 43.6494L47.7873 42.9117Z" fill="#DCD9D8"/>
<path d="M51.1621 52.725L52.5481 51.3838C52.5481 51.3838 53.174 51.4509 53.2857 52.1885C53.3975 52.9262 53.7105 59.5877 58.2483 63.1643C58.673 63.4996 54.8729 62.6278 54.8729 62.6278L51.4974 57.3523" fill="#F7E4CD"/>
<path d="M70.5883 50.7132C70.5883 50.7132 70.8342 47.5166 71.706 47.7625C72.5778 48.0084 72.5778 48.8802 72.5778 48.8802C72.5778 48.8802 70.4765 50.2214 70.5883 50.7132Z" fill="#F7E4CD"/>
<path d="M79.349 38.9998C79.349 38.9998 77.6054 39.3574 77.4489 40.8998C77.2924 42.4423 79.349 41.2128 79.6619 41.101" fill="#F7E4CD"/>
<path d="M66.5865 39.1116C66.5865 39.1116 64.2617 39.4245 64.2617 40.8999C64.2617 42.3752 66.8995 42.2635 67.6372 41.6376" fill="#F7E4CD"/>
<path d="M52.2347 45.9744C52.2347 45.9744 48.2334 43.5378 47.8086 45.8626C47.3839 48.1874 46.4451 49.8639 48.4346 52.3005L47.071 51.8758L45.7968 48.6121L45.3721 45.4379L47.8086 42.9119L50.5582 43.113L52.1453 44.3872L52.2347 45.9744Z" fill="#F7E4CD"/>
<path d="M54.1352 39.3129C54.1352 39.3129 55.9235 30.0137 64.9992 28.2254C72.4654 26.75 76.3997 28.5383 77.8751 30.2372C77.8751 30.2372 71.2136 22.324 64.8875 24.7382C58.5613 27.1748 53.9117 31.6008 54.0235 34.4398C54.2023 39.3129 54.1352 39.3129 54.1352 39.3129Z" fill="#F7E4CD"/>
<path d="M78.6137 31.2877C78.6137 31.2877 75.5512 31.176 75.4395 33.9255C75.4395 33.9255 75.4395 34.3502 75.6406 34.775C75.6406 34.775 78.0772 32.0254 79.5526 33.5008" fill="#F7E4CD"/>
<path d="M65.2226 35.0654C65.2226 35.0654 64.6861 30.8628 61.1095 33.2994C58.7847 34.8865 59.0082 37.0996 59.4106 37.5243C59.8353 37.949 59.7235 38.7985 60.0365 38.2173C60.3494 37.6361 60.26 35.736 61.4224 35.1995C62.5625 34.663 64.4849 34.0818 65.2226 35.0654Z" fill="#F7E4CD"/>
<path d="M55.2981 63.5891L45.373 68.0152C45.373 68.0152 49.4861 84.3783 47.3848 89.4526L45.9094 88.9161L45.7977 82.6794L43.0481 70.8765L41.8857 67.6128L52.2356 60.6384L55.2981 63.5891Z" fill="#49728B"/>
<path d="M56.3034 72.6423L57.7117 74.3636V80.6897H56.0352C56.0352 80.6897 55.834 76.2637 55.834 75.7272C55.834 75.1907 56.0352 73.2906 56.0352 73.2906" fill="#49728B"/>
<path d="M56.3493 81.6509L51.5879 81.8521L52.9515 82.8133L56.3269 83.3498" fill="#49728B"/>
<path d="M72.5996 80.6005L76.5115 80.4888L77.4728 90.1904L73.4714 90.7269L72.5996 80.6005Z" fill="#335061"/>
<path d="M73.6494 80.6005L79.5508 80.2875C79.5508 80.2875 81.9874 74.1626 81.9874 73.8496C81.9874 73.5367 84.0887 64.9751 84.0887 64.9751L79.3273 60.0125L78.3661 59.1631L75.8401 61.6891V71.5025L73.6494 80.6005Z" fill="#335061"/>
<path d="M76.288 79.8625L72.5996 80.6002L73.1361 83.5509C74.4997 84.1769 76.8245 82.5003 76.8245 82.5003" fill="#49728B"/>
<path d="M76.3994 61.376L83.7986 66.8751L83.9997 64.3491L78.4113 59.1853L76.3994 61.376Z" fill="#49728B"/>
<path d="M60.0147 101.39L57.824 92.5151L56.7286 85.9654L56.5498 81.1146L66.4526 80.5781H72.5999L72.0411 91.6657L73.0023 100.227L72.8905 101.814L64.8655 102.44L60.0147 101.39Z" fill="white"/>
<path d="M71.2362 80.4885C71.2362 80.4885 70.6997 91.4642 72.2869 99.2881C72.2869 99.2881 69.1126 101.3 64.4854 101.814L73.3599 101.501L74.4105 100.875L73.1363 83.5733L72.801 79.8625" fill="#DCD9D8"/>
<path d="M77.6294 89.3632L81.7425 88.2008L89.5441 87.7761L90.7065 84.1771L88.6052 77.9404L86.1686 77.6274L82.7932 78.6781L79.5742 80.2652L77.853 79.9522L76.5117 80.4887" fill="white"/>
<path d="M77.5625 87.2394C77.5625 87.2394 80.312 85.9653 80.7368 86.077L79.5744 80.265L80.9379 79.7285C80.9379 79.7285 81.8992 85.2276 81.8992 85.8535C81.8992 85.8535 87.8006 86.1664 88.3371 86.1664C88.3371 86.1664 89.6113 83.7299 89.2983 81.2039L90.4607 84.5793L90.5725 86.4794L88.8736 89.0054L86.9735 89.4301L83.7992 89.3183L82.7486 87.9548L79.0602 88.4913L77.8978 88.916" fill="#DCD9D8"/>
<path d="M73.404 79.751L71.0792 73.8495L68.6426 70.3623C68.6426 70.3623 69.1791 68.887 69.9168 68.887H72.3533L74.6781 69.7364L74.4769 73.6483L73.404 79.751Z" fill="white"/>
<path d="M73.8736 77.7389C73.8736 77.7389 70.9229 72.0387 70.9229 71.1892C70.9229 71.1892 71.4594 69.915 72.1971 70.228C72.9348 70.541 74.5219 71.3904 74.5219 71.3904V69.3785L70.9229 68.6409L68.4863 68.9538L72.5995 78.7001L73.4489 78.8119" fill="#DCD9D8"/>
<path d="M60.9543 63.8126L58.0259 63.4996L55.2764 62.6501V63.6114L56.6176 65.0867L60.8425 66.9868" fill="white"/>
<path d="M56.2359 64.1255C56.2359 64.1255 59.4996 65.4891 60.5726 65.1761L60.6843 66.4503L57.7336 65.8244L55.9453 64.5502L56.2359 64.1255Z" fill="#DCD9D8"/>
<path d="M77.6291 69.2446C75.8408 69.1999 74.209 68.9763 72.8007 68.574C72.8901 67.9928 72.7113 67.4339 72.8678 67.0092C73.2701 66.7186 73.9184 66.7186 74.522 66.6515C74.0078 66.4056 73.2701 66.2939 72.6889 66.4503C72.6666 66.048 72.4877 65.8021 72.376 65.4891C73.3819 65.1315 75.7514 62.7843 77.0927 63.5443C77.7409 63.9243 78.0092 66.0256 78.0539 67.0762C78.0986 67.9257 77.9645 68.7751 77.6291 69.2446Z" fill="#D33833"/>
<path d="M77.6291 69.2446C75.8408 69.1999 74.209 68.9763 72.8007 68.574C72.8901 67.9928 72.7113 67.4339 72.8678 67.0092C73.2701 66.7186 73.9184 66.7186 74.522 66.6515C74.0078 66.4056 73.2701 66.2939 72.6889 66.4503C72.6666 66.048 72.4877 65.8021 72.376 65.4891C73.3819 65.1315 75.7514 62.7843 77.0927 63.5443C77.7409 63.9243 78.0092 66.0256 78.0539 67.0762C78.0986 67.9257 77.9645 68.7751 77.6291 69.2446Z" fill="black" stroke="#D33833" stroke-width="2.31088"/>
<path d="M69.0673 66.3161C69.0673 66.4502 69.0673 66.5843 69.0449 66.7185C68.4861 67.0761 67.5919 67.0761 66.966 67.3891C67.8601 67.4338 68.5755 67.6573 69.2014 67.9479C69.179 68.2832 69.179 68.6409 69.1567 68.9762C68.1284 69.6692 67.1895 70.7198 65.9824 71.3904C65.4012 71.7034 63.4117 72.5081 62.8082 72.3516C62.4729 72.2622 62.4281 71.8375 62.294 71.4351C62.0034 70.5857 61.3328 69.1997 61.2657 67.9032C61.1987 66.2714 61.0198 63.5218 62.7858 63.8572C64.2165 64.1254 65.8706 64.7737 66.966 65.3772C67.659 65.7796 68.039 66.2267 69.0673 66.3161Z" fill="#D33833"/>
<path d="M69.0673 66.3161C69.0673 66.4502 69.0673 66.5843 69.0449 66.7185C68.4861 67.0761 67.5919 67.0761 66.966 67.3891C67.8601 67.4338 68.5755 67.6573 69.2014 67.9479C69.179 68.2832 69.179 68.6409 69.1567 68.9762C68.1284 69.6692 67.1895 70.7198 65.9824 71.3904C65.4012 71.7034 63.4117 72.5081 62.8082 72.3516C62.4729 72.2622 62.4281 71.8375 62.294 71.4351C62.0034 70.5857 61.3328 69.1997 61.2657 67.9032C61.1987 66.2714 61.0198 63.5218 62.7858 63.8572C64.2165 64.1254 65.8706 64.7737 66.966 65.3772C67.659 65.7796 68.039 66.2267 69.0673 66.3161Z" fill="black" stroke="#D33833" stroke-width="2.31088"/>
<path d="M70.0737 68.2611C69.9173 67.3669 69.7384 67.121 69.8055 66.3387C72.1974 64.7515 72.6221 69.0658 70.0737 68.2611Z" fill="#D33833"/>
<path d="M70.0737 68.2611C69.9173 67.3669 69.7384 67.121 69.8055 66.3387C72.1974 64.7515 72.6221 69.0658 70.0737 68.2611Z" fill="black" stroke="#D33833" stroke-width="2.31088"/>
<path d="M73.5175 68.9764C73.5175 68.9764 72.7798 67.9258 73.3163 67.6129C73.8528 67.2999 74.3669 67.6129 74.6799 67.0764C74.9928 66.5399 74.6799 66.2269 74.7916 65.601C74.9034 64.9751 75.4175 64.8633 75.954 64.7516C76.4905 64.6398 77.9659 64.4386 78.1671 64.9527L77.5412 63.0527L76.267 62.6279L72.2656 64.9527L72.0645 66.1151V68.44" fill="#EF3D3A"/>
<path d="M62.4288 72.4635C62.2946 70.8093 62.1605 69.1775 62.0264 67.5233C61.8029 65.0644 62.6076 65.4891 64.7536 65.4891C65.0889 65.4891 66.7654 65.8691 66.8772 66.115C67.4584 67.2998 65.916 67.0315 67.5478 67.9257C68.9114 68.6633 71.348 67.4786 70.7891 65.802C70.4762 65.422 69.1797 65.6903 68.7102 65.4444C67.8831 65.0197 67.056 64.5949 66.2289 64.1702C65.1783 63.6337 62.7641 62.829 61.6464 63.589C58.8074 65.5114 61.8252 70.3399 62.8311 72.3517" fill="#EF3D3A"/>
<path d="M65.2225 35.0654C62.3388 34.3948 60.9082 36.2725 60.0364 38.2173C59.254 38.0385 59.5669 36.9655 59.7681 36.429C60.2822 35.0207 62.3612 33.1206 64.0601 33.3888C64.7754 33.4783 65.759 34.1489 65.2225 35.0654Z" fill="#231F20"/>
<path d="M79.2382 38.3291H79.3723C80.0206 39.6703 80.5794 41.101 81.4065 42.3081C80.8477 43.6046 77.2487 44.7223 77.2934 42.4422C78.0758 42.1069 79.417 42.3752 80.11 41.9281C79.7076 40.8327 79.1488 39.8939 79.2382 38.3291Z" fill="#231F20"/>
<path d="M66.6759 38.374C67.3018 39.5141 67.503 40.6988 68.3748 41.5483C68.7772 41.9283 69.5372 42.3977 69.1572 43.4707C69.0678 43.7166 68.4195 44.2755 68.0395 44.3872C66.6759 44.7896 63.4793 44.4766 64.5523 42.7554C65.6923 42.8001 67.2124 43.4931 68.0619 42.666C67.4136 41.6377 66.2512 39.5811 66.6759 38.374Z" fill="#231F20"/>
<path d="M78.7238 49.8637C76.6673 51.1826 74.3648 52.6356 70.967 52.3003C70.2517 51.6744 69.9611 50.2661 70.6764 49.3496C71.0341 49.9755 70.8105 51.1379 71.8388 51.3167C73.7613 51.652 75.9967 50.132 77.3826 49.6178C78.2321 48.1648 77.3155 47.6507 76.5332 46.7118C74.946 44.8117 72.8448 42.4422 72.9118 39.6033C73.5601 39.1338 73.6048 40.3186 73.6942 40.5198C74.5213 42.4422 76.6002 44.9235 78.0979 46.5777C78.4779 46.9801 79.0815 47.3824 79.1486 47.6507C79.3497 48.4107 78.6344 49.3496 78.7238 49.8637Z" fill="#231F20"/>
<path d="M51.4972 48.478C50.849 48.0979 50.6925 46.4885 49.9325 46.4438C48.8371 46.3767 49.0383 48.545 49.0383 49.8192C48.3006 49.1486 48.1665 47.0473 48.703 45.9743C48.0771 45.6614 47.8088 46.3096 47.4512 46.5332C47.9206 43.2918 52.2126 45.0355 51.4972 48.478Z" fill="#231F20"/>
<path d="M80.021 51.2275C79.0598 53.0606 77.6962 55.0724 74.8796 55.1395C74.8125 54.5583 74.7678 53.6418 74.8796 53.2841C77.0479 53.0606 78.3892 51.9652 80.021 51.2275Z" fill="#231F20"/>
<path d="M66.5195 52.4121C68.3078 53.351 71.6162 53.4627 74.0752 53.3957C74.2093 53.9322 74.2093 54.6028 74.2093 55.2511C71.0574 55.3852 67.3466 54.6028 66.5195 52.4121Z" fill="#231F20"/>
<path d="M66.1852 54.1558C67.437 57.2853 71.7066 56.9276 75.3056 56.8382C75.1491 57.2406 74.8138 57.7324 74.3667 57.8889C73.2043 58.3583 70.03 58.716 68.4205 57.8665C67.4146 57.33 66.744 56.1006 66.1852 55.3852C65.9393 55.0499 64.598 54.1781 66.1852 54.1558Z" fill="#231F20"/>
<path d="M78.5669 71.3907C77.1139 73.8943 75.7056 76.465 73.9844 78.6557C74.6997 76.5321 75.0127 72.9554 75.1244 70.2283C76.6445 69.5129 77.941 70.3847 78.5669 71.3907Z" fill="#81B0C4"/>
<path d="M86.4146 80.3767C84.7827 80.712 83.6427 82.2991 82.0332 82.1874C82.9274 80.9579 84.4474 80.4214 86.4146 80.3767Z" fill="#231F20"/>
<path d="M87.1291 82.9251C85.7878 83.0593 84.2231 83.2828 82.8818 83.171C83.5301 82.1875 85.989 82.5451 87.1291 82.9251Z" fill="#231F20"/>
<path d="M87.6001 85.1383C86.1024 85.1606 84.2471 85.1383 82.8164 85.0265C83.6659 84.11 86.6389 84.6912 87.6001 85.1383Z" fill="#231F20"/>
<path d="M75.751 91.174C75.9745 93.0517 76.7122 94.9518 76.6228 97.0084C75.7957 97.2766 75.3262 97.5225 74.2085 97.5225C74.1415 95.7789 73.8956 93.0964 73.9626 91.4199C74.4991 91.4646 75.3039 91.0399 75.751 91.174Z" fill="#DCD9D8"/>
<path d="M73.3386 63.4548C72.5786 63.9466 71.9527 64.5502 71.215 65.0867C69.6055 65.1761 68.7337 64.9749 67.5713 64.0584C67.5936 63.9913 67.7054 64.0137 67.7054 63.9243C69.4267 64.6843 71.6173 63.6113 73.3386 63.4548Z" fill="#F0D6B7"/>
<path d="M64.3516 75.146C64.821 73.1118 66.6764 72.0388 68.3529 70.9211C70.0742 73.1118 71.1248 75.9284 72.2872 78.6556C69.5377 77.8285 66.7434 76.5096 64.3516 75.146Z" fill="#81B0C4"/>
<path d="M73.963 91.4422C73.8959 93.1187 74.1195 95.7788 74.2089 97.5448C75.3266 97.5448 75.796 97.2989 76.6231 97.0306C76.7125 94.9741 75.9748 93.074 75.7513 91.1963C75.3042 91.0398 74.4995 91.4645 73.963 91.4422ZM56.7058 81.9641C57.4434 88.6926 58.4941 94.3258 60.4389 100.294C64.7532 101.613 69.9393 101.725 73.7618 100.54C73.0688 97.1871 73.3594 93.0963 72.9571 89.4974C72.6441 86.7925 72.8006 84.0877 72.3759 81.3382C67.7486 80.377 61.2213 81.1146 56.7058 81.9641ZM73.4712 81.3829C73.4265 84.2665 73.6053 87.1279 73.8289 90.0115C74.9466 89.855 75.6842 89.7433 76.7125 89.4974C76.3772 86.7255 76.4219 83.5736 75.729 81.1146C74.9466 81.137 74.2536 81.1146 73.4712 81.3829ZM79.082 80.9135C78.5455 80.8017 77.942 80.9135 77.4502 80.9135C77.6961 83.2606 78.2549 85.8537 78.4561 88.335C79.2385 88.3573 79.6632 87.9773 80.3115 87.8655C80.3562 85.6972 80.1327 82.7018 79.082 80.9135ZM87.5989 88.6926C89.2531 88.2903 90.2814 86.2784 89.8119 84.1995C89.499 82.8135 88.9625 80.1758 88.3589 79.2816C87.9342 78.6334 86.7494 77.7616 85.7882 78.3651C84.2458 79.3487 81.541 79.6393 80.4233 80.824C80.9821 82.7018 81.161 85.2501 81.3845 87.6196C83.3069 87.7314 85.6541 87.0831 87.2636 87.7761C86.1459 88.1338 84.7152 88.1338 83.754 88.6703C84.5588 89.0503 86.3918 88.9832 87.5989 88.6926ZM72.2641 78.6557C71.1017 75.9285 70.0511 73.1119 68.3298 70.9213C66.6533 72.039 64.8202 73.1119 64.3285 75.1462C66.7427 76.5097 69.5369 77.8286 72.2641 78.6557ZM75.1254 70.2283C75.0136 72.9555 74.7007 76.5321 73.9853 78.6557C75.7066 76.4427 77.1149 73.8943 78.5679 71.3907C77.942 70.3848 76.6455 69.513 75.1254 70.2283ZM71.8841 69.0882C71.2358 69.0212 70.677 69.8483 69.8275 69.4906C69.6263 69.7141 69.4475 69.9377 69.2463 70.1612C71.124 72.4413 71.9959 75.6603 73.4489 78.3204C74.2312 75.7497 74.1418 72.9555 74.3207 70.1612C73.2477 70.2059 72.6441 69.1553 71.8841 69.0882ZM69.8052 66.3387C69.7381 67.1211 69.9169 67.367 70.0734 68.2611C72.6218 69.0659 72.197 64.7516 69.8052 66.3387ZM66.9662 65.3998C65.8709 64.7963 64.2167 64.148 62.786 63.8798C61.0201 63.5445 61.1989 66.294 61.266 67.9258C61.333 69.2224 62.0036 70.5859 62.2942 71.4578C62.4284 71.8601 62.4731 72.2848 62.8084 72.3743C63.4119 72.5084 65.4238 71.726 65.9826 71.413C67.1898 70.7648 68.1286 69.7141 69.1569 68.9988C69.1793 68.6635 69.1793 68.3059 69.2016 67.9705C68.5757 67.6576 67.8827 67.4564 66.9662 67.4117C67.5698 67.0987 68.4863 67.0987 69.0451 66.7411C69.0451 66.607 69.0451 66.4728 69.0675 66.3387C68.0392 66.2269 67.6592 65.7799 66.9662 65.3998ZM56.4599 63.4998C55.5434 64.4386 59.0306 65.6904 60.1259 65.7575C60.1259 65.1763 60.4612 64.6175 60.3942 64.1927C59.0753 63.9692 57.354 64.1257 56.4599 63.4998ZM67.7263 63.9245C67.7263 64.0139 67.6145 63.9915 67.5921 64.0586C68.7769 64.9751 69.6487 65.1763 71.2358 65.0869C71.9511 64.5727 72.5994 63.9468 73.3594 63.455C71.6158 63.6115 69.4251 64.6845 67.7263 63.9245ZM78.0538 67.054C78.0091 66.0257 77.7408 63.9021 77.0925 63.5221C75.7513 62.7397 73.3818 65.1092 72.3759 65.4669C72.4876 65.7799 72.6665 66.0258 72.6888 66.4281C73.2924 66.2716 74.0077 66.3834 74.5218 66.6293C73.9183 66.6964 73.27 66.6964 72.8677 66.987C72.7335 67.4117 72.9124 67.9705 72.8006 68.5517C74.2089 68.9541 75.8407 69.1553 77.629 69.2224C77.9643 68.7753 78.0985 67.9258 78.0538 67.054ZM54.9175 64.3939C54.6269 64.1927 52.6821 61.6667 52.4138 61.7785C48.9043 63.1644 45.6182 65.5563 42.6899 67.8364C45.4841 73.8496 46.6242 81.2041 46.8253 88.2903C50.0219 89.788 52.8385 91.9563 57.1976 92.1798C56.6834 88.6256 56.2363 85.429 55.9457 82.0759C54.8504 81.6064 53.2856 82.0982 52.2573 81.9417C52.2573 80.7123 53.8221 81.4052 53.9562 80.5782C54.0457 79.9522 53.0844 79.9075 53.3974 78.924C54.2021 79.2146 54.6269 79.8628 55.4763 80.1087C56.2587 78.4098 55.4763 75.392 55.5881 73.9614C55.6104 73.6931 55.7222 72.486 56.3258 72.6872C56.8622 72.866 56.3034 75.9285 56.3481 77.2698C56.3928 78.5216 56.1916 79.7063 56.7058 80.4887C60.9083 79.9075 65.1779 79.5499 69.7381 79.4157C68.7322 78.991 67.5474 78.5887 66.2509 77.851C65.5356 77.4486 63.3225 76.6215 63.1213 75.9509C62.786 74.8779 63.9708 74.3191 64.172 73.4025C62.0484 74.5649 61.646 72.2848 61.1318 70.6977C60.6848 69.2447 60.4165 68.1494 60.3048 67.3223C58.4494 66.3834 56.4822 65.5116 54.9175 64.3939ZM76.1984 62.0691C79.1268 60.6608 79.6632 67.367 78.5008 69.5353C78.6797 70.1836 79.2832 70.4295 79.5291 71.0107C77.8973 73.939 76.0866 76.6662 74.4101 79.5499C75.6395 78.7675 77.4279 79.4157 78.8809 78.8345C79.4173 78.6334 79.7974 77.4039 80.1997 76.4203C81.3174 73.7379 82.4798 70.3401 82.994 67.7917C83.1057 67.2105 83.4411 65.9363 83.3516 65.4222C83.2175 64.4833 81.9657 63.7904 81.3174 63.2315C80.1327 62.1585 79.395 61.242 78.1432 60.2361C77.6737 60.9738 76.6008 61.4655 76.1984 62.0691ZM48.2336 36.1162C46.8477 37.6586 47.1383 40.5199 47.2948 42.5765C49.8208 40.9894 53.1515 42.7106 53.1291 45.3931C54.3363 45.3707 53.5762 43.8954 53.3527 42.9341C52.6374 39.827 54.5598 36.4739 53.4421 33.6349C51.2738 33.8137 49.5078 34.6856 48.2336 36.1162ZM58.2035 27.197C55.0516 28.0911 51.0055 30.3936 49.709 33.2325C50.7149 33.0761 51.4079 32.5843 52.3915 32.5172C52.7715 32.4949 53.2633 32.6737 53.688 32.5619C54.5374 32.3384 55.2751 30.416 55.9234 29.7006C56.5493 29.0077 57.3093 28.6947 57.8235 28.0688C58.1588 27.9123 58.6506 27.9123 58.6729 27.4205C58.5388 27.2641 58.3823 27.1523 58.2035 27.197ZM74.6336 28.0464C71.3476 26.1911 65.8038 24.8051 62.3166 26.5487C59.5 27.957 55.6998 30.2818 54.4033 33.2102C55.6104 36.0491 54.0457 38.6422 53.9339 41.5259C53.8892 43.0683 54.6492 44.3872 54.7163 46.0637C54.2915 46.7567 53.0397 46.8237 52.1679 46.779C51.8773 45.3037 51.3632 43.6495 49.8431 43.4706C47.6971 43.2247 46.11 45.0131 46.0206 46.8684C45.9088 49.0591 47.6971 52.6805 50.2455 52.4346C51.2291 52.3451 51.475 51.3616 52.5479 51.3616C53.1291 52.524 51.6538 52.8816 51.4973 53.7087C51.4526 53.9323 51.6091 54.7594 51.7208 55.1617C52.1903 57.0618 53.2186 59.5431 54.2245 60.9961C55.521 62.8515 58.047 63.1197 60.7742 63.2986C61.266 62.2479 63.0543 62.3374 64.2167 62.6056C62.8084 62.0468 61.5119 60.7055 60.4389 59.5208C59.2094 58.1572 57.9576 56.7042 57.8905 54.9158C60.2377 58.1572 62.1601 60.9961 66.4074 62.4268C69.6263 63.4998 73.3818 61.935 75.8631 60.1914C76.8914 59.4761 77.4949 58.3136 78.2326 57.2854C80.9598 53.3511 82.2339 47.7626 81.9657 42.3306C81.8539 40.0952 81.8539 37.8598 81.0939 36.3621C80.3115 34.7973 77.6514 33.3667 76.0866 34.7973C75.796 33.2549 77.3831 32.316 79.2385 32.8749C77.9196 31.1536 76.5337 29.1194 74.6336 28.0464ZM80.7586 78.5887C83.3293 77.3145 88.113 75.1685 89.7002 78.5887C90.3037 79.8628 90.9967 81.9864 91.2873 83.3053C91.712 85.1383 90.8178 89.0279 88.9178 89.6315C87.2412 90.168 85.2964 90.1456 83.2846 89.7433C83.0387 89.5421 82.7928 89.2068 82.5916 88.8491C81.161 88.8044 79.7974 88.9162 78.6797 89.5197C78.7914 90.5927 78.0761 90.7492 77.3831 90.9727C76.8914 92.9622 78.3891 95.5553 78.0314 97.3436C77.7855 98.6401 76.1984 98.8413 75.036 99.0648C74.9913 99.7802 75.0807 100.384 75.1701 100.987C74.9019 101.971 73.7171 102.53 72.5771 102.664C68.8439 103.111 63.1884 103.312 59.6118 102.016C58.6059 99.5566 57.8235 96.5836 56.9964 93.7893C53.5092 94.1693 50.6702 92.2916 48.0101 91.0398C47.0936 90.6151 45.8194 90.3692 45.4617 89.6315C45.1264 88.9162 45.2606 87.5526 45.1711 86.2784C44.97 82.9924 44.7688 79.8181 43.9193 76.465C43.5393 74.945 42.8463 73.6261 42.3769 72.1731C41.9298 70.8318 41.1698 69.1553 40.9686 67.8141C40.678 65.8246 42.5557 65.7128 43.7405 64.841C45.5959 63.4998 47.0489 62.7621 49.0607 61.555C49.6643 61.1973 51.4526 60.3031 51.6538 59.8784C52.0562 59.0513 50.9608 57.8889 50.6702 57.2407C50.2008 56.2124 49.9549 55.3406 49.8878 54.3347C48.2113 54.0664 46.9148 53.0605 46.1547 51.9428C44.8805 50.065 43.9864 46.6002 45.1041 43.9848C45.1935 43.7836 45.6182 43.3589 45.6853 43.0459C45.8194 42.42 45.4394 41.5929 45.417 40.9223C45.3053 37.5021 45.9982 34.5514 48.3007 33.5231C49.2396 29.79 52.5926 28.5606 55.7446 26.7052C56.9293 26.0122 58.2258 25.5652 59.5671 25.0734C64.3732 23.3074 71.7723 23.6427 75.7737 26.6605C77.4726 27.9347 80.1774 30.6395 81.1386 32.6066C83.7093 37.7704 83.5081 46.4214 81.7198 52.7252C81.4739 53.5746 81.1386 54.8041 80.6468 55.8324C80.3115 56.5477 79.2609 57.956 79.3726 58.5819C79.5068 59.2302 81.7869 60.9514 82.2787 61.4208C83.1505 62.2703 84.827 63.388 84.9611 64.461C85.1176 65.601 84.4693 67.1658 84.134 68.2611C83.061 71.9272 81.9881 75.3026 80.7586 78.5887Z" fill="#231F20"/>
<path d="M63.658 53.1946C63.7921 53.0158 64.5521 52.7252 65.6251 53.2393C65.6251 53.2393 64.3509 53.4405 64.4627 55.5641L63.9262 55.4524C63.9486 55.4747 63.3897 53.5523 63.658 53.1946Z" fill="#F7E4CD"/>
<path d="M72.9124 71.3458C72.9124 71.6588 72.6442 71.9271 72.3312 71.9271C72.0182 71.9271 71.75 71.6588 71.75 71.3458C71.75 71.0329 72.0182 70.7646 72.3312 70.7646C72.6665 70.7646 72.9124 71.0329 72.9124 71.3458Z" fill="#1D1919"/>
<path d="M73.4935 74.0507C73.4935 74.3636 73.2252 74.6319 72.9123 74.6319C72.5993 74.6319 72.3311 74.3636 72.3311 74.0507C72.3311 73.7377 72.5993 73.4695 72.9123 73.4695C73.2476 73.4695 73.4935 73.7154 73.4935 74.0507Z" fill="#1D1919"/>
</svg>
