<svg width="128" height="128" viewBox="0 0 128 128" fill="none" xmlns="http://www.w3.org/2000/svg">
<g clip-path="url(#clip0_158_1125)">
<path fill-rule="evenodd" clip-rule="evenodd" d="M79.5801 37.2214C75.3644 34.8431 68.1614 33.045 63.6306 35.3025C60.0081 37.119 55.0469 40.1325 53.3957 43.944C54.9707 47.6242 52.96 50.9947 52.8025 54.7301C52.7552 56.7172 53.7475 58.4576 53.8289 60.6154C53.3039 61.5026 51.6632 61.6129 50.5214 61.5499C50.1381 59.6362 49.4714 57.4837 47.4895 57.2711C44.6965 56.9666 42.6464 59.2766 42.5282 61.689C42.3707 64.524 44.7149 69.207 48.0014 68.8946C49.2824 68.7739 49.5974 67.4771 50.9912 67.4771C51.7394 68.9734 49.8231 69.4459 49.6184 70.5064C49.5764 70.782 49.7759 71.8477 49.8914 72.357C50.503 74.835 51.8444 78.027 53.1595 79.917C54.8264 82.2795 58.105 82.6759 61.6356 82.9121C62.2656 81.534 64.5887 81.6521 66.1139 82.0039C64.3 81.2951 62.6069 79.5232 61.192 77.9902C59.5776 76.2157 57.9632 74.289 57.8819 72.0052C60.9137 76.2157 63.3944 79.8802 68.9069 81.7282C73.0806 83.1064 77.9631 81.0615 81.1499 78.8171C82.4886 77.8747 83.2788 76.3759 84.2211 75.0397C87.7649 69.9577 89.4186 62.676 89.0669 55.6305C88.9094 52.7141 88.9094 49.8004 87.9224 47.8736C86.9013 45.8235 83.473 44.0122 81.4255 45.8235C81.0318 43.818 83.0793 42.5947 85.4811 43.3035C83.7486 41.0617 81.9741 38.4262 79.5329 37.0455L79.5801 37.2214ZM80.4726 74.5751C80.133 74.5827 79.7888 74.5923 79.442 74.602C75.0139 74.7253 70.1441 74.8608 68.647 71.1022L68.6181 71.076C66.9667 71.0781 67.7572 71.8173 68.3182 72.342C68.4554 72.4704 68.5789 72.5859 68.6496 72.6746C68.8253 72.8984 69.0072 73.16 69.2005 73.4383C69.81 74.3155 70.534 75.3574 71.5424 75.8955C73.6214 76.998 77.7558 76.536 79.252 75.927C79.8006 75.717 80.2521 75.0844 80.4726 74.5751ZM69.0963 68.8282C69.09 68.825 69.0837 68.8217 69.0775 68.8185V68.8132H69.0906C69.0925 68.8182 69.0944 68.8232 69.0963 68.8282C71.4444 70.0372 75.701 70.1754 78.8714 70.0785C79.0395 70.7585 79.0445 71.5842 79.0494 72.4L79.0499 72.4751C74.9882 72.6848 70.1784 71.6806 69.0963 68.8282ZM86.5833 67.3107C86.5887 67.3006 86.594 67.2904 86.5994 67.2802L86.6099 67.2986C86.601 67.3026 86.5922 67.3067 86.5833 67.3107C85.3426 69.6652 83.578 72.2602 79.9345 72.3412C79.8741 71.5957 79.8164 70.4119 79.9345 69.9682C81.947 69.7734 83.413 68.9789 84.8765 68.1858C85.4357 67.8827 85.9945 67.5799 86.5833 67.3107ZM84.8395 65.5657C84.8583 65.5536 84.877 65.5415 84.8958 65.5294L84.8433 65.5897C84.8419 65.5818 84.8406 65.5738 84.8395 65.5657C82.1765 67.288 79.2108 69.1357 74.8577 68.7056C73.9364 67.8919 73.5846 66.0806 74.4902 64.8784C74.6456 65.1471 74.7162 65.4885 74.7877 65.8341C74.9348 66.5453 75.0855 67.2745 75.9865 67.4246C77.8291 67.7467 79.8894 66.7494 81.5717 65.9351C82.1518 65.6543 82.687 65.3953 83.1528 65.2196C84.0654 63.6704 83.3844 62.9305 82.5659 62.0412C82.3956 61.8561 82.2194 61.6646 82.0503 61.458C81.9532 61.3426 81.8547 61.2258 81.7549 61.1077C79.7438 58.725 77.25 55.7706 77.32 52.2442C77.9794 51.7739 78.165 52.6373 78.2734 53.1413C78.3005 53.2673 78.3227 53.3709 78.3464 53.4255C79.4069 55.9455 82.0844 59.1349 84.0531 61.3005C84.2503 61.5305 84.5023 61.7468 84.7347 61.9463C85.0594 62.225 85.346 62.471 85.3919 62.676C85.5284 63.2549 85.2973 63.896 85.0921 64.4653C84.9386 64.8909 84.7997 65.2763 84.8395 65.5657ZM47.6024 61.1062C48.1515 61.1355 48.4589 61.807 48.7664 62.4788C49.0101 63.0112 49.254 63.5439 49.6184 63.7575L49.6289 63.8205C50.5476 59.3737 44.9826 57.1267 44.4051 61.3005C44.5254 61.2171 44.639 61.0979 44.7561 60.9751C45.0812 60.6343 45.433 60.2655 46.0274 60.555C45.316 61.9331 45.4866 64.65 46.4579 65.5162C46.4572 65.3119 46.4528 65.0894 46.4481 64.8567C46.415 63.2063 46.3716 61.0372 47.6024 61.1062ZM69.3242 50.6828C69.3199 50.6748 69.3155 50.6668 69.3111 50.6587L69.3452 50.6194C69.3379 50.6403 69.3309 50.6615 69.3242 50.6828C69.6008 51.1931 69.8124 51.7107 70.0187 52.215C70.4056 53.1614 70.7736 54.0613 71.5161 54.78C71.5832 54.8454 71.6587 54.9128 71.738 54.9836C72.2634 55.453 72.9585 56.0741 72.532 57.2737C72.4139 57.5914 71.5739 58.3001 71.0856 58.455C69.3164 58.9669 65.1689 58.5337 66.568 56.3287C67.0116 56.3406 67.4997 56.4304 67.9952 56.5217C69.1506 56.7344 70.3466 56.9546 71.1145 56.2106C70.3012 54.8534 68.8311 52.2644 69.3242 50.6828ZM85.7594 50.6246H85.5809L85.6071 50.6272C85.514 52.1752 85.9404 53.2318 86.3727 54.3033C86.5012 54.6219 86.6303 54.9417 86.7464 55.2761C86.2623 55.5778 85.5419 55.617 84.8198 55.6562C84.1911 55.6904 83.561 55.7247 83.0845 55.9324C83.0058 58.9065 87.6861 57.4312 88.3949 55.7827C87.6454 54.6882 87.0716 53.4403 86.4937 52.1835C86.2539 51.6619 86.0134 51.1389 85.7594 50.6246ZM60.6775 50.4566C61.8036 47.934 63.6647 45.5137 67.3975 46.38V46.3747C68.1115 45.1987 66.8279 44.3351 65.8855 44.1855C63.6831 43.8521 60.9925 46.2986 60.3231 48.1387C60.0711 48.8422 59.6695 50.2099 60.6775 50.4566Z" fill="#F2F0ED"/>
<path d="M45.3711 47.7371C43.573 49.7216 43.9536 53.4439 44.1662 56.1056C47.4317 54.045 51.7735 56.2631 51.7341 59.7649C53.296 59.7229 52.3195 57.8119 52.036 56.5755C51.1094 52.5645 53.59 48.2096 52.1436 44.5267C49.3506 44.7472 47.0537 45.8917 45.3764 47.7161L45.3711 47.7371Z" fill="#F2F0ED"/>
<path d="M58.3097 36.1819C54.2147 37.3369 48.9647 40.3136 47.2847 43.9886C48.5841 43.8049 49.4897 43.146 50.776 43.0672C51.2642 43.0252 51.8995 43.2615 52.4586 43.1066C53.5716 42.8336 54.5061 40.311 55.3514 39.4054C56.1651 38.4997 57.1495 38.1034 57.8189 37.2791C58.2572 37.0429 58.8925 37.0849 58.9214 36.4129C58.7297 36.216 58.5276 36.0585 58.3124 36.1372L58.3097 36.1819Z" fill="#F2F0ED"/>
<path d="M62.326 93.3806L62.053 92.4776C61.4624 90.5876 61.108 89.1701 60.9899 88.0676C58.5906 86.9231 56.068 85.7839 54.0231 84.3244C53.6294 84.0487 51.112 80.7806 50.7944 80.8987C46.2295 82.6732 41.977 85.7812 38.1576 88.7317C38.8296 90.1939 39.4176 91.7269 39.9689 93.2992H62.2945L62.326 93.3806Z" fill="#F2F0ED"/>
<path d="M55.9945 83.1877C54.8132 84.3874 59.3282 86.028 60.7562 86.1146C60.7562 85.3534 61.1894 84.6341 61.1106 84.0934C59.4044 83.7836 57.1679 83.9831 56.005 83.1825L55.9945 83.1877Z" fill="#F2F0ED"/>
<path d="M69.6865 85.7077C68.2559 84.9202 66.1139 84.075 64.2659 83.7206C61.9821 83.2901 62.2184 86.8391 62.2971 88.9549C62.3759 90.6427 63.2421 92.4094 63.6359 93.5329C63.8354 94.05 63.8721 94.6091 64.3079 94.7115C65.0954 94.89 67.6941 93.8557 68.4422 93.4541C70.0172 92.5931 71.2352 91.2386 72.574 90.333C72.616 89.8867 72.616 89.4405 72.6527 88.9995C71.7581 88.5532 70.7776 88.3052 69.7784 88.2724C70.6026 87.8786 71.7471 87.8786 72.4952 87.4009L72.5372 86.8942C71.2352 86.8155 70.726 86.2275 69.8571 85.7497L69.6865 85.7077Z" fill="#F2F0ED"/>
<path d="M73.3116 86.889C73.1961 87.8734 73.4324 88.2277 73.6266 89.3644C76.9341 90.3907 76.3409 84.7969 73.2722 86.847L73.3116 86.889Z" fill="#F2F0ED"/>
<path d="M84.0216 87.834C83.9455 86.49 83.5911 83.739 82.7616 83.2665C81.0291 82.2427 77.9159 85.314 76.6191 85.7419C76.7372 86.1356 76.9735 86.4532 77.0129 87.0019C77.761 86.8076 78.706 86.9257 79.3701 87.2434C78.5853 87.3221 77.719 87.3221 77.2071 87.6739C77.0129 88.1857 77.2491 88.9339 77.131 89.6794C78.9422 90.1965 81.0685 90.4747 83.3916 90.5509C83.8221 89.955 83.9823 88.8577 83.9455 87.7106L84.0216 87.834Z" fill="#F2F0ED"/>
<path d="M89.2533 93.4121C89.7381 91.9009 90.1455 90.3659 90.4739 88.8131C90.6314 88.0597 91.0383 86.4034 90.9411 85.7261C90.7863 84.5212 89.1456 83.6287 88.3056 82.8754C86.7726 81.4972 85.8119 80.316 84.2106 79.0192C83.557 80.0036 82.1631 80.6336 81.6302 81.4185C85.4286 79.6099 86.119 88.3091 84.6254 91.1047C84.8616 91.9684 85.6518 92.286 85.9746 93.0341L85.7489 93.4699H89.1351C89.1693 93.4699 89.2139 93.4699 89.2506 93.5066L89.2533 93.4121Z" fill="#F2F0ED"/>
<path fill-rule="evenodd" clip-rule="evenodd" d="M71.839 93.3806L71.8139 93.3439H71.8364L71.839 93.3806ZM79.1149 93.2625C79.1133 93.3017 79.1118 93.3411 79.1103 93.3806L79.1444 93.2625H79.1149ZM84.6405 93.3441C84.6487 93.3563 84.6568 93.3684 84.6647 93.3806V93.3439L84.6405 93.3441ZM79.442 74.602C75.0139 74.7253 70.1441 74.8608 68.647 71.1022L68.6181 71.076C66.9667 71.0781 67.7572 71.8173 68.3182 72.342C68.4554 72.4704 68.5789 72.5859 68.6496 72.6746C68.8253 72.8984 69.0072 73.16 69.2005 73.4383C69.81 74.3155 70.534 75.3574 71.5424 75.8955C73.6214 76.998 77.7558 76.536 79.252 75.927C79.8006 75.717 80.2521 75.0844 80.4726 74.5751C80.133 74.5827 79.7888 74.5923 79.442 74.602ZM69.0963 68.8282L69.0775 68.8185V68.8132H69.0906L69.0963 68.8282ZM78.8714 70.0785C75.701 70.1754 71.4444 70.0372 69.0963 68.8282C70.1784 71.6806 74.9882 72.6848 79.0499 72.4751L79.0494 72.4C79.0445 71.5842 79.0395 70.7585 78.8714 70.0785ZM86.5833 67.3107L86.5994 67.2802L86.6099 67.2986L86.5833 67.3107ZM86.5833 67.3107C85.9945 67.5799 85.4357 67.8827 84.8765 68.1858C83.413 68.9789 81.947 69.7734 79.9345 69.9682C79.8164 70.4119 79.8741 71.5957 79.9345 72.3412C83.578 72.2602 85.3426 69.6652 86.5833 67.3107ZM84.8395 65.5657L84.8958 65.5294L84.8433 65.5897L84.8395 65.5657ZM74.8577 68.7056C79.2108 69.1357 82.1765 67.288 84.8395 65.5657C84.7997 65.2763 84.9386 64.8909 85.0921 64.4653C85.2973 63.896 85.5284 63.2549 85.3919 62.676C85.346 62.471 85.0594 62.225 84.7347 61.9463C84.5023 61.7468 84.2503 61.5305 84.0531 61.3005C82.0844 59.1349 79.4069 55.9455 78.3464 53.4255C78.3227 53.3709 78.3005 53.2673 78.2734 53.1413C78.165 52.6373 77.9794 51.7739 77.32 52.2442C77.25 55.7706 79.7438 58.725 81.7549 61.1077C81.8547 61.2258 81.9532 61.3426 82.0503 61.458C82.2194 61.6646 82.3956 61.8561 82.5659 62.0412C83.3844 62.9305 84.0654 63.6704 83.1528 65.2196C82.687 65.3953 82.1518 65.6543 81.5717 65.9351C79.8894 66.7494 77.8291 67.7467 75.9865 67.4246C75.0855 67.2745 74.9348 66.5453 74.7877 65.8341C74.7162 65.4885 74.6456 65.1471 74.4902 64.8784C73.5846 66.0806 73.9364 67.8919 74.8577 68.7056ZM48.7664 62.4788C49.0101 63.0112 49.254 63.5439 49.6184 63.7575L49.6289 63.8205C50.5476 59.3737 44.9826 57.1267 44.4051 61.3005C44.5254 61.2171 44.639 61.0979 44.7561 60.9751C45.0812 60.6343 45.433 60.2655 46.0274 60.555C45.316 61.9331 45.4866 64.65 46.4579 65.5162C46.4572 65.3119 46.4528 65.0894 46.4481 64.8567C46.415 63.2063 46.3716 61.0372 47.6024 61.1062C48.1515 61.1355 48.4589 61.807 48.7664 62.4788ZM69.3242 50.6828L69.3111 50.6587L69.3452 50.6194C69.3379 50.6403 69.3309 50.6615 69.3242 50.6828ZM70.0187 52.215C69.8124 51.7107 69.6008 51.1931 69.3242 50.6828C68.8311 52.2644 70.3012 54.8534 71.1145 56.2106C70.3466 56.9546 69.1506 56.7344 67.9952 56.5217C67.4997 56.4304 67.0116 56.3406 66.568 56.3287C65.1689 58.5337 69.3164 58.9669 71.0856 58.455C71.5739 58.3001 72.4139 57.5914 72.532 57.2737C72.9585 56.0741 72.2634 55.453 71.738 54.9836C71.6587 54.9128 71.5832 54.8454 71.5161 54.78C70.7736 54.0613 70.4056 53.1614 70.0187 52.215ZM85.7594 50.6246H85.5809L85.6071 50.6272C85.514 52.1752 85.9404 53.2318 86.3727 54.3033C86.5012 54.6219 86.6303 54.9417 86.7464 55.2761C86.2623 55.5778 85.5419 55.617 84.8198 55.6562C84.1911 55.6904 83.561 55.7247 83.0845 55.9324C83.0058 58.9065 87.6861 57.4312 88.3949 55.7827C87.6454 54.6882 87.0716 53.4403 86.4937 52.1835C86.2539 51.6619 86.0134 51.1389 85.7594 50.6246ZM60.6775 50.4566C61.8036 47.934 63.6647 45.5137 67.3975 46.38V46.3747C68.1115 45.1987 66.8279 44.3351 65.8855 44.1855C63.6831 43.8521 60.9925 46.2986 60.3231 48.1387C60.0711 48.8422 59.6695 50.2099 60.6775 50.4566Z" fill="#F2F0ED"/>
<path d="M70.6026 83.7521C70.6026 83.865 70.4425 83.8309 70.4241 83.9201C71.9466 85.104 73.0859 85.3507 75.1544 85.2589C76.0836 84.5711 76.9131 83.781 77.8922 83.1405C75.6479 83.3347 72.8234 84.7339 70.6105 83.7442L70.6026 83.7521Z" fill="#F2F0ED"/>
<path d="M79.189 91.8109C77.7978 91.887 77.0234 90.5509 76.0495 90.4275C75.199 90.3094 74.4745 91.3751 73.372 90.9394C73.1226 91.215 72.8916 91.5352 72.6265 91.7689C73.0307 92.2414 73.4009 92.7532 73.7395 93.3019H75.8789C75.9156 92.8714 76.2332 92.5537 76.6664 92.5537C77.0995 92.5537 77.4119 92.8714 77.4119 93.2625H79.1149C79.1351 92.7582 79.1598 92.2834 79.189 91.8109Z" fill="#F2F0ED"/>
<path d="M80.2548 91.9237L80.176 93.3439L84.6405 93.3441C83.8083 92.1021 82.1602 91.0321 80.2548 91.9237Z" fill="#F2F0ED"/>
<path d="M71.4452 92.832L70.6551 93.3439H71.8139C71.7566 93.2609 71.6994 93.1836 71.6421 93.1063C71.5765 93.0177 71.5109 92.9291 71.4452 92.832Z" fill="#F2F0ED"/>
<path d="M40.5385 95H37.9791C37.9132 94.8293 37.852 94.6569 37.7954 94.4829C37.231 92.7346 36.2361 90.5716 35.9789 88.8286C35.5956 86.2456 38.0264 86.1012 39.5856 84.983C41.9875 83.2505 43.8775 82.2924 46.4815 80.7305C47.2559 80.2606 49.5842 79.0925 49.8441 78.5544C50.3717 77.4834 48.9385 75.9766 48.5579 75.1419C47.9672 73.811 47.6522 72.6822 47.5709 71.375C45.4079 71.0337 43.7515 69.7291 42.7304 68.2644C41.0766 65.8362 39.9321 61.3475 41.3522 57.9324C41.4704 57.662 42.019 57.1317 42.1004 56.717C42.2579 55.9085 41.8247 54.827 41.7854 53.966C41.6279 49.5245 42.5309 45.6972 45.526 44.3585C46.7414 39.5285 51.0726 37.9194 55.1676 35.5201C56.6901 34.6224 58.3806 34.0449 60.1289 33.4017C66.3554 31.0996 75.9498 31.5327 81.1131 35.4571C83.3076 37.1187 86.8251 40.6284 88.0851 43.172C91.3979 49.8789 91.1564 61.0876 88.8385 69.2487C88.5235 70.3539 88.0773 71.9577 87.4394 73.2729C86.9984 74.1916 85.6308 76.0291 85.7988 76.8429C85.9668 77.6671 88.9225 79.9141 89.5577 80.5047C90.697 81.6125 92.8653 83.0641 93.0333 84.4422C93.217 85.9044 92.3822 87.9492 91.957 89.3641C91.3874 91.2567 90.8125 93.1467 90.2403 94.958H40.5332L40.5385 95ZM69.6865 85.7075C68.2559 84.92 66.1139 84.0747 64.2659 83.7204C61.9821 83.2899 62.2184 86.8389 62.2971 88.9546C62.3759 90.6425 63.2421 92.4091 63.6359 93.5326C63.8354 94.0497 63.8721 94.6089 64.3079 94.7112C65.0954 94.8897 67.6941 93.8555 68.4422 93.4539C70.0172 92.5929 71.2352 91.2384 72.574 90.3327C72.616 89.8865 72.616 89.4402 72.6527 88.9992C71.7581 88.553 70.7776 88.305 69.7784 88.2721C70.6026 87.8784 71.7471 87.8784 72.4952 87.4006L72.5372 86.894C71.2352 86.8152 70.726 86.2272 69.8571 85.7495L69.6865 85.7075ZM89.2533 93.4119C89.7381 91.9006 90.1455 90.3656 90.4739 88.8129C90.6314 88.0595 91.0383 86.4031 90.9411 85.7259C90.7863 84.521 89.1456 83.6285 88.3056 82.8751C86.7726 81.497 85.8119 80.3157 84.2106 79.019C83.557 80.0034 82.1631 80.6334 81.6302 81.4182C85.4286 79.6096 86.119 88.3089 84.6254 91.1045C84.8616 91.9681 85.6518 92.2857 85.9746 93.0339L85.7489 93.4696H89.1351C89.1693 93.4696 89.2139 93.4696 89.2506 93.5064L89.2533 93.4119ZM71.839 93.3804C71.7077 93.1861 71.5765 93.026 71.4452 92.8317L70.6551 93.3436H71.8364L71.839 93.3804ZM79.1103 93.3804C79.1313 92.8317 79.1575 92.3199 79.189 91.8106C77.7978 91.8867 77.0234 90.5506 76.0495 90.4272C75.199 90.3091 74.4745 91.3749 73.372 90.9391C73.1226 91.2147 72.8916 91.535 72.6265 91.7686C73.0307 92.2411 73.4009 92.753 73.7395 93.3016H75.8789C75.9156 92.8711 76.2332 92.5535 76.6664 92.5535C77.0995 92.5535 77.4119 92.8711 77.4119 93.2622H79.1444L79.1103 93.3804ZM84.6647 93.3804C83.8405 92.123 82.1789 91.0231 80.2548 91.9235L80.176 93.3436H84.6647V93.3804ZM62.326 93.3804L62.053 92.4774C61.4624 90.5874 61.108 89.1699 60.9899 88.0674C58.5906 86.9229 56.068 85.7836 54.0231 84.3241C53.6294 84.0485 51.112 80.7804 50.7944 80.8985C46.2295 82.673 41.977 85.781 38.1576 88.7315C38.8296 90.1936 39.4176 91.7266 39.9689 93.299H62.2945L62.326 93.3804ZM84.0216 87.8337C83.9455 86.4897 83.5911 83.7387 82.7616 83.2662C81.0291 82.2425 77.9159 85.3137 76.6191 85.7416C76.7372 86.1354 76.9735 86.453 77.0129 87.0016C77.761 86.8074 78.706 86.9255 79.3701 87.2431C78.5853 87.3219 77.719 87.3219 77.2071 87.6736C77.0129 88.1855 77.2491 88.9336 77.131 89.6791C78.9422 90.1962 81.0685 90.4745 83.3916 90.5506C83.8221 89.9547 83.9823 88.8575 83.9455 87.7104L84.0216 87.8337ZM73.3116 86.8887C73.1961 87.8731 73.4324 88.2275 73.6266 89.3641C76.9341 90.3905 76.3409 84.7966 73.2722 86.8467L73.3116 86.8887ZM55.9945 83.1875C54.8132 84.3871 59.3282 86.0277 60.7562 86.1144C60.7562 85.3531 61.1894 84.6339 61.1106 84.0931C59.4044 83.7834 57.1679 83.9829 56.005 83.1822L55.9945 83.1875ZM70.6026 83.7519C70.6026 83.8647 70.4425 83.8306 70.4241 83.9199C71.9466 85.1037 73.0859 85.3505 75.1544 85.2586C76.0836 84.5709 76.9131 83.7807 77.8922 83.1402C75.6479 83.3345 72.8234 84.7336 70.6105 83.744L70.6026 83.7519ZM79.5801 37.2211C75.3644 34.8429 68.1614 33.0447 63.6306 35.3022C60.0081 37.1187 55.0469 40.1322 53.3957 43.9437C54.9707 47.624 52.96 50.9945 52.8025 54.7299C52.7552 56.717 53.7475 58.4574 53.8289 60.6151C53.3039 61.5024 51.6632 61.6126 50.5214 61.5496C50.1381 59.636 49.4714 57.4835 47.4895 57.2709C44.6965 56.9664 42.6464 59.2764 42.5282 61.6887C42.3707 64.5237 44.7149 69.2067 48.0014 68.8944C49.2824 68.7736 49.5974 67.4769 50.9912 67.4769C51.7394 68.9731 49.8231 69.4456 49.6184 70.5061C49.5764 70.7817 49.7759 71.8475 49.8914 72.3567C50.503 74.8347 51.8444 78.0267 53.1595 79.9167C54.8264 82.2792 58.105 82.6756 61.6356 82.9119C62.2656 81.5337 64.5887 81.6519 66.1139 82.0036C64.3 81.2949 62.6069 79.523 61.192 77.99C59.5776 76.2155 57.9632 74.2887 57.8819 72.005C60.9137 76.2155 63.3944 79.88 68.9069 81.728C73.0806 83.1061 77.9631 81.0612 81.1499 78.8169C82.4886 77.8745 83.2788 76.3756 84.2211 75.0395C87.7649 69.9575 89.4186 62.6757 89.0669 55.6302C88.9094 52.7139 88.9094 49.8001 87.9224 47.8734C86.9013 45.8232 83.473 44.012 81.4255 45.8232C81.0318 43.8177 83.0793 42.5945 85.4811 43.3032C83.7486 41.0615 81.9741 38.426 79.5329 37.0452L79.5801 37.2211ZM68.647 71.102C70.2614 75.155 75.7975 74.6799 80.4726 74.5749C80.2521 75.0841 79.8006 75.7167 79.252 75.9267C77.7558 76.5357 73.6214 76.9977 71.5424 75.8952C70.2141 75.1865 69.3794 73.6036 68.6496 72.6744C68.29 72.2229 66.5627 71.0784 68.6181 71.0757L68.647 71.102ZM69.0775 68.8182C71.4216 70.0362 75.6925 70.1754 78.8714 70.0782C79.0446 70.7791 79.0446 71.6349 79.0499 72.4749C74.9811 72.6849 70.1616 71.6769 69.0906 68.813H69.0775V68.8182ZM86.5994 67.28C85.3578 69.6425 83.5937 72.2596 79.9345 72.341C79.8741 71.5955 79.8164 70.4116 79.9345 69.968C82.7275 69.6976 84.4679 68.2722 86.6099 67.2984L86.5994 67.28ZM84.8958 65.5291C82.2183 67.2616 79.2415 69.1385 74.8577 68.7054C73.9364 67.8916 73.5846 66.0804 74.4902 64.8781C74.9654 65.6997 74.6477 67.2012 75.9865 67.4244C78.4645 67.8575 81.3363 65.9045 83.1528 65.2194C84.2553 63.3477 83.032 62.6574 82.0503 61.4577C79.9975 59.0165 77.2465 55.9452 77.32 52.244C78.1443 51.656 78.2282 53.1522 78.3464 53.4252C79.4069 55.9452 82.0844 59.1346 84.0531 61.3002C84.5256 61.8515 85.3131 62.324 85.3919 62.6757C85.6334 63.6995 84.7251 64.9175 84.8433 65.5895L84.8958 65.5291ZM49.6184 63.7572C48.7941 63.2742 48.5867 61.1585 47.6024 61.106C46.198 61.0272 46.4526 63.8622 46.4579 65.516C45.4866 64.6497 45.316 61.9329 46.0274 60.5547C45.2189 60.161 44.8592 60.9852 44.4051 61.3002C44.9826 57.1265 50.5476 59.3735 49.6289 63.8202L49.6184 63.7572ZM45.3711 47.7369C43.573 49.7214 43.9536 53.4436 44.1662 56.1054C47.4317 54.0447 51.7735 56.2629 51.7341 59.7646C53.296 59.7226 52.3195 57.8116 52.036 56.5752C51.1094 52.5642 53.59 48.2094 52.1436 44.5265C49.3506 44.747 47.0537 45.8915 45.3764 47.7159L45.3711 47.7369ZM69.3111 50.6585C70.117 52.1337 70.3716 53.672 71.5161 54.7797C72.028 55.2785 73.0229 55.8927 72.532 57.2735C72.4139 57.5911 71.5739 58.2999 71.0856 58.4547C69.3164 58.9666 65.1689 58.5335 66.568 56.3285C68.0459 56.3679 70.0172 57.2735 71.1145 56.2104C70.2902 54.8349 68.7914 52.1941 69.3452 50.6191L69.3111 50.6585ZM85.5809 50.6244H85.7594C86.6256 52.3779 87.3344 54.2337 88.3949 55.7825C87.6861 57.431 83.0058 58.9062 83.0845 55.9321C84.1083 55.4859 85.8408 55.8402 86.7464 55.2759C86.2398 53.8164 85.4864 52.6351 85.6071 50.627L85.5809 50.6244ZM67.3975 46.3797C63.6647 45.5135 61.8036 47.9337 60.6775 50.4564C59.6695 50.2096 60.0711 48.842 60.3231 48.1385C60.9925 46.2984 63.6831 43.8519 65.8855 44.1852C66.8279 44.3349 68.1115 45.1985 67.3975 46.3745V46.3797ZM58.3097 36.1816C54.2147 37.3366 48.9647 40.3134 47.2847 43.9884C48.5841 43.8046 49.4897 43.1457 50.776 43.067C51.2642 43.025 51.8995 43.2612 52.4586 43.1064C53.5716 42.8334 54.5061 40.3107 55.3514 39.4051C56.1651 38.4995 57.1495 38.1031 57.8189 37.2789C58.2572 37.0426 58.8925 37.0846 58.9214 36.4126C58.7297 36.2157 58.5276 36.0582 58.3124 36.137L58.3097 36.1816Z" fill="#D33833"/>
</g>
<defs>
<clipPath id="clip0_158_1125">
<rect width="63" height="63" fill="white" transform="translate(33 32)"/>
</clipPath>
</defs>
</svg>
