<svg width="128" height="128" viewBox="0 0 128 128" fill="none" xmlns="http://www.w3.org/2000/svg">
<g clip-path="url(#clip0_158_1073)">
<path d="M96.1625 71.1259C96.126 71.0145 96.0758 70.9082 96.0129 70.8094C95.6435 70.1099 94.7458 69.901 93.3357 70.1925C88.9421 71.099 87.2407 70.5412 86.6239 70.1418C90.1903 64.6987 93.1215 58.1246 94.7056 51.9919C95.4269 49.1996 96.8269 42.6276 95.0304 39.4176C94.9156 39.1979 94.7814 38.9889 94.6294 38.7931C91.2028 34.4146 86.1737 32.0659 80.0859 32.0013C76.1138 31.9593 72.7233 32.9211 71.8049 33.2753C71.35 33.1904 70.8928 33.1181 70.4339 33.0585C69.2834 32.8502 68.1179 32.7366 66.9488 32.7189C63.8071 32.67 61.0922 33.421 58.844 34.9528C56.5657 34.0994 46.1177 30.5812 39.6518 35.1622C36.0405 37.7205 34.3735 42.2933 34.6966 48.7537C34.8053 50.9275 36.0437 57.6138 37.998 64.0173C39.2199 68.0208 40.4926 71.1976 41.8073 73.5365C43.2769 76.1786 44.7994 77.7707 46.363 78.2921C47.552 78.6883 49.3732 78.675 51.3009 76.3577C53.4301 73.7972 55.5272 71.5056 56.4687 70.4928C57.625 71.1187 58.8775 71.4562 60.1626 71.4953C59.9389 71.7619 59.7209 72.0433 59.5068 72.3178C58.6061 73.461 58.4188 73.6989 55.52 74.2957C54.6956 74.4658 52.5053 74.9173 52.4734 76.4523C52.4668 76.7776 52.5609 77.0659 52.7177 77.3208C53.3206 78.4452 55.1668 78.941 55.415 79.0032C58.9615 79.8895 62.0705 79.2477 64.3745 77.1996C64.3293 83.1285 64.5805 88.9388 65.2924 90.7194C65.8803 92.1887 67.3169 95.7806 71.8543 95.78C72.52 95.78 73.253 95.7027 74.059 95.53C78.7944 94.5145 80.8508 92.4218 81.6461 87.8075C82.0456 85.4936 82.7134 80.1664 83.078 76.9086C83.1229 76.7218 83.1729 76.5878 83.2295 76.5466C83.2295 76.5466 83.4147 76.4215 84.3648 76.6282C84.4036 76.6366 84.4429 76.6427 84.4825 76.6463L85.1572 76.7056L85.1968 76.7082C87.4472 76.8103 90.2764 76.3292 91.9235 75.5634C93.6344 74.7693 96.7222 72.82 96.1625 71.1259ZM39.8543 63.5618C37.8784 57.0887 36.724 50.5797 36.6326 48.7545C36.344 42.984 37.741 38.9672 40.7844 36.8151C45.6654 33.3641 53.6462 35.378 57.0164 36.4697C57.0079 36.4782 56.9989 36.4859 56.9904 36.4946C51.6121 41.9266 51.7397 51.2066 51.753 51.7739C51.7524 51.9927 51.7705 52.3025 51.796 52.7288C51.8885 54.2895 52.0607 57.1944 51.6007 60.4844C51.1731 63.5416 52.1155 66.534 54.1859 68.694C54.4001 68.9175 54.6239 69.1274 54.8551 69.3249C53.9335 70.3119 51.9308 72.4942 49.7992 75.0587C48.2905 76.8724 47.2488 76.5248 46.9062 76.4106C45.8648 76.0632 44.7457 74.8503 43.616 72.8966C42.3414 70.6669 41.0555 67.4973 39.8543 63.5618ZM55.8184 77.0808C55.3637 76.9671 54.9492 76.78 54.6699 76.6099C54.9061 76.5052 55.3007 76.3702 55.9542 76.2354C59.3646 75.5336 59.8913 75.038 61.0415 73.5774C61.3051 73.2426 61.6038 72.8633 62.0176 72.4012C62.1066 72.3014 62.1733 72.1838 62.2134 72.0563C62.6673 71.6542 62.9373 71.7642 63.3745 71.9454C63.7891 72.1171 64.1925 72.6364 64.3564 73.2083C64.4338 73.4783 64.5209 73.9909 64.2363 74.3893C61.8331 77.7531 58.3324 77.7096 55.8184 77.0808ZM61.3832 66.4827L61.2437 66.8574C60.8903 67.805 60.5615 68.686 60.3577 69.5229C58.5841 69.5173 56.8583 68.7596 55.5463 67.3905C53.8777 65.6495 53.1197 63.2278 53.4668 60.7457C53.9526 57.2699 53.7732 54.2433 53.6767 52.6174C53.6635 52.3897 53.6515 52.1904 53.6443 52.033C54.4301 51.3365 58.0715 49.3856 60.6678 49.9804C61.8528 50.252 62.5749 51.0585 62.8749 52.4466C64.4285 59.6319 63.0806 62.6266 61.9974 65.0333C61.7742 65.5292 61.5634 65.9977 61.3832 66.4827ZM80.9523 78.6341C80.9511 78.6464 80.9499 78.6588 80.9487 78.6712C80.9047 79.1318 80.8553 79.6486 80.788 80.2177L80.4 81.3825C80.3692 81.4748 80.3529 81.5714 80.3517 81.6687C80.336 82.9302 80.2082 83.3932 80.0461 83.9789C79.8776 84.588 79.6865 85.2787 79.5693 86.7892C79.277 90.5477 77.2355 92.7066 73.1456 93.5831C69.1182 94.447 68.4038 92.2628 67.7743 90.3364C67.7098 90.1345 67.6417 89.9337 67.5699 89.7342C66.9975 88.1775 67.062 85.9821 67.1516 82.944C67.1955 81.4527 67.0854 77.8913 66.2741 75.9118C66.2858 75.1326 66.3023 74.3414 66.3246 73.5418C66.3273 73.4405 66.3136 73.3395 66.2839 73.2426C66.2582 73.0558 66.2192 72.871 66.1673 72.6898C65.8415 71.5516 65.0477 70.5994 64.0952 70.2048C63.7168 70.048 63.0221 69.7604 62.1877 69.9738C62.3657 69.2404 62.6742 68.4126 63.0088 67.5159L63.1494 67.1385C63.3075 66.7133 63.5055 66.273 63.7155 65.8066C64.8489 63.2884 66.4011 59.8397 64.7163 52.0482C64.0854 49.13 61.978 47.705 58.7837 48.0359C56.8684 48.2341 55.1166 49.0069 54.2425 49.45C54.0673 49.5388 53.8938 49.631 53.7222 49.7266C53.9661 46.7863 54.8878 41.2914 58.3348 37.8149C58.5909 37.5569 58.8599 37.3121 59.1408 37.0814C59.2803 37.0542 59.4118 36.9957 59.5254 36.9103C61.5249 35.3939 64.0285 34.6498 66.9717 34.6979C68.0589 34.7157 69.1022 34.788 70.0921 34.9132C75.245 35.855 78.7128 38.758 80.8175 41.2452C82.9815 43.8025 84.1532 46.3781 84.621 47.7675C81.1045 47.4098 78.7123 48.1045 77.4996 49.8377C74.8618 53.6084 78.9427 60.9272 80.9042 64.4444C81.2637 65.0891 81.5744 65.6461 81.6719 65.8829C82.3105 67.4309 83.1375 68.4641 83.7413 69.2186C83.9263 69.4498 84.1059 69.6741 84.2423 69.8697C83.1771 70.1766 81.2637 70.8862 81.4381 74.4326C81.4054 74.848 81.3257 75.6202 81.2164 76.5979C81.0939 77.1499 81.0299 77.8212 80.9523 78.6341ZM83.3188 74.326C83.2112 72.116 84.0339 71.8851 84.9045 71.6406C85.025 71.6076 85.1446 71.5716 85.2633 71.5327C85.3756 71.6322 85.4947 71.7237 85.6199 71.8064C87.1355 72.807 89.8249 72.9261 93.6105 72.1636C93.0747 72.6337 92.2315 73.225 91.0771 73.761C89.988 74.2668 88.1653 74.646 86.4336 74.7273C84.521 74.8166 83.5479 74.5128 83.3188 74.326ZM84.8322 49.6878C84.8165 50.6201 84.6882 51.4662 84.5521 52.3498C84.406 53.3001 84.2545 54.2829 84.2162 55.4756C84.1785 56.6364 84.3236 57.8431 84.4639 59.0103C84.7472 61.3675 85.0379 63.7946 83.9125 66.1893C83.7257 65.8581 83.5592 65.5159 83.4139 65.1646C83.2739 64.8255 82.9704 64.2807 82.55 63.527C80.914 60.5929 77.0824 53.7219 79.0439 50.9182C80.0524 49.476 82.6071 49.4138 84.8322 49.6878ZM85.4392 68.3267C85.3642 68.2312 85.2886 68.136 85.2125 68.0413L85.1182 67.9233C87.048 64.7356 86.6707 61.582 86.3348 58.7855C86.1969 57.638 86.0666 56.5543 86.0996 55.5364C86.1339 54.4572 86.2766 53.5319 86.4145 52.6368C86.5843 51.534 86.7568 50.3931 86.7092 49.0479C86.7448 48.9068 86.7592 48.7401 86.7406 48.5424C86.6191 47.2522 85.1463 43.3922 82.1447 39.8976C80.53 38.0179 78.1861 35.9188 74.9989 34.4776C76.3944 34.1943 78.2751 33.9368 80.3788 33.9836C85.8306 34.1047 90.144 36.1454 93.1991 40.049C93.264 40.1338 93.3232 40.2227 93.3764 40.3153C95.298 43.9178 92.6424 56.9914 85.4392 68.3267ZM62.0091 52.0729C61.9426 52.5497 61.1882 53.1957 60.3585 53.1957C60.2866 53.1957 60.2147 53.1908 60.1435 53.1808C59.6458 53.1117 59.143 52.7981 58.7991 52.3421C58.6774 52.1813 58.4794 51.8691 58.5187 51.5863C58.5333 51.4798 58.5881 51.3246 58.7645 51.1909C59.0786 50.9533 59.6994 50.8651 60.3845 50.9605C61.2251 51.0777 62.0923 51.4755 62.0091 52.0729ZM83.0844 50.9796C83.1139 51.1901 82.9542 51.5138 82.6775 51.804C82.496 51.9945 82.1141 52.3251 81.5935 52.3971C81.5275 52.4063 81.4609 52.4109 81.3942 52.4109C80.6142 52.4109 79.9554 51.788 79.9042 51.4231C79.8404 50.9541 80.606 50.5977 81.3953 50.4877C82.1846 50.3777 83.0193 50.5111 83.0844 50.9796Z" fill="#316193"/>
<path fill-rule="evenodd" clip-rule="evenodd" d="M85.2125 68.0413C85.2886 68.136 85.3642 68.2312 85.4392 68.3267C92.6424 56.9914 95.298 43.9178 93.3764 40.3153C93.3232 40.2227 93.264 40.1338 93.1991 40.049C90.144 36.1454 85.8306 34.1047 80.3788 33.9836C78.2751 33.9368 76.3944 34.1943 74.9989 34.4776C78.1861 35.9188 80.53 38.0179 82.1447 39.8976C85.1463 43.3922 86.6191 47.2522 86.7406 48.5424C86.7592 48.7401 86.7448 48.9068 86.7092 49.0479C86.7568 50.3931 86.5843 51.534 86.4145 52.6368C86.2766 53.5319 86.1339 54.4572 86.0996 55.5364C86.0666 56.5543 86.1969 57.638 86.3348 58.7855C86.6707 61.582 87.048 64.7356 85.1182 67.9233L85.2125 68.0413Z" fill="#316193"/>
<path fill-rule="evenodd" clip-rule="evenodd" d="M80.9487 78.6712L80.9523 78.6341C81.0299 77.8212 81.0939 77.1499 81.2164 76.5979C81.3257 75.6202 81.4054 74.848 81.4381 74.4326C81.2637 70.8862 83.1771 70.1766 84.2423 69.8697C84.1074 69.6762 83.9242 69.4472 83.7413 69.2186C83.1375 68.4641 82.3105 67.4309 81.6719 65.8829C81.5744 65.6461 81.2637 65.0891 80.9042 64.4444C78.9427 60.9272 74.8618 53.6084 77.4996 49.8377C78.7123 48.1045 81.1045 47.4098 84.621 47.7675C84.1532 46.3781 82.9815 43.8025 80.8175 41.2452C78.7128 38.758 75.245 35.855 70.0921 34.9132C69.1022 34.788 68.0589 34.7157 66.9717 34.6979C64.0285 34.6498 61.5249 35.3939 59.5254 36.9103C59.4118 36.9957 59.2803 37.0542 59.1408 37.0814C58.8599 37.3121 58.5909 37.5569 58.3348 37.8149C54.8878 41.2914 53.9661 46.7863 53.7222 49.7266C53.8938 49.631 54.0673 49.5388 54.2425 49.45C55.1166 49.0069 56.8684 48.2341 58.7837 48.0359C61.978 47.705 64.0854 49.13 64.7163 52.0482C66.4011 59.8397 64.8489 63.2884 63.7155 65.8066C63.5055 66.273 63.3075 66.7133 63.1494 67.1385L63.0088 67.5159C62.6742 68.4126 62.3657 69.2404 62.1877 69.9738C63.0221 69.7604 63.7168 70.048 64.0952 70.2048C65.0477 70.5994 65.8415 71.5516 66.1673 72.6898C66.2192 72.871 66.2582 73.0558 66.2839 73.2426C66.3136 73.3395 66.3273 73.4405 66.3246 73.5418C66.3023 74.3414 66.2858 75.1326 66.2741 75.9118C67.0854 77.8913 67.1955 81.4527 67.1516 82.944C67.062 85.9821 66.9975 88.1775 67.5699 89.7342C67.6417 89.9337 67.7098 90.1345 67.7743 90.3364C68.4038 92.2628 69.1182 94.447 73.1456 93.5831C77.2355 92.7066 79.277 90.5477 79.5693 86.7892C79.6865 85.2787 79.8776 84.588 80.0461 83.9789C80.2082 83.3932 80.336 82.9302 80.3517 81.6687C80.3529 81.5714 80.3692 81.4748 80.4 81.3825L80.788 80.2177C80.8553 79.6486 80.9047 79.1318 80.9487 78.6712Z" fill="#316193"/>
<path fill-rule="evenodd" clip-rule="evenodd" d="M84.5521 52.3498C84.6882 51.4662 84.8165 50.6201 84.8322 49.6878C82.6071 49.4138 80.0524 49.476 79.0439 50.9182C77.0824 53.7219 80.914 60.5929 82.55 63.527C82.9704 64.2807 83.2739 64.8255 83.4139 65.1646C83.5592 65.5159 83.7257 65.8581 83.9125 66.1893C85.0379 63.7946 84.7472 61.3675 84.4639 59.0103C84.3236 57.8431 84.1785 56.6364 84.2162 55.4756C84.2544 54.2855 84.4063 53.2982 84.5521 52.3498ZM83.0844 50.9796C83.1139 51.1901 82.9542 51.5138 82.6775 51.804C82.496 51.9945 82.1141 52.3251 81.5935 52.3971C81.5275 52.4063 81.4609 52.4109 81.3942 52.4109C80.6142 52.4109 79.9554 51.788 79.9042 51.4231C79.8404 50.9541 80.606 50.5977 81.3953 50.4877C82.1846 50.3777 83.0193 50.5111 83.0844 50.9796Z" fill="#316193"/>
<path fill-rule="evenodd" clip-rule="evenodd" d="M61.2437 66.8574L61.3832 66.4827C61.5634 65.9977 61.7742 65.5292 61.9974 65.0333C63.0806 62.6266 64.4285 59.6319 62.8749 52.4466C62.5749 51.0585 61.8528 50.252 60.6678 49.9804C58.0715 49.3856 54.4301 51.3365 53.6443 52.033C53.6506 52.1706 53.6605 52.3402 53.6718 52.5328C53.6734 52.5605 53.6751 52.5888 53.6767 52.6174C53.7732 54.2433 53.9526 57.2699 53.4668 60.7457C53.1197 63.2278 53.8777 65.6495 55.5463 67.3905C56.8583 68.7596 58.5841 69.5173 60.3577 69.5229C60.5615 68.686 60.8903 67.805 61.2437 66.8574ZM62.0091 52.0729C61.9426 52.5497 61.1882 53.1957 60.3585 53.1957C60.2866 53.1957 60.2147 53.1908 60.1435 53.1808C59.6458 53.1117 59.143 52.7981 58.7991 52.3421C58.6774 52.1813 58.4794 51.8691 58.5187 51.5863C58.5333 51.4798 58.5881 51.3246 58.7645 51.1909C59.0786 50.9533 59.6994 50.8651 60.3845 50.9605C61.2251 51.0777 62.0923 51.4755 62.0091 52.0729Z" fill="#316193"/>
<path fill-rule="evenodd" clip-rule="evenodd" d="M36.6326 48.7545C36.724 50.5797 37.8784 57.0887 39.8543 63.5618C41.0555 67.4973 42.3414 70.6669 43.616 72.8966C44.7457 74.8503 45.8648 76.0632 46.9062 76.4106C47.2488 76.5248 48.2905 76.8724 49.7992 75.0587C51.9308 72.4942 53.9335 70.3119 54.8551 69.3249C54.6239 69.1274 54.4001 68.9175 54.1859 68.694C52.1155 66.534 51.1731 63.5416 51.6007 60.4844C52.0607 57.1944 51.8885 54.2895 51.796 52.7288C51.7705 52.3025 51.7524 51.9927 51.753 51.7739C51.7397 51.2066 51.6121 41.9266 56.9904 36.4946C56.995 36.4898 57.0116 36.4741 57.0164 36.4697C57.0126 36.4735 57.0204 36.466 57.0164 36.4697C53.6462 35.378 45.6654 33.3641 40.7844 36.8151C37.741 38.9672 36.344 42.984 36.6326 48.7545Z" fill="#316193"/>
<path fill-rule="evenodd" clip-rule="evenodd" d="M54.6699 76.6099C54.9492 76.78 55.3637 76.9671 55.8184 77.0808C58.3324 77.7096 61.8331 77.7531 64.2363 74.3893C64.5209 73.9909 64.4338 73.4783 64.3564 73.2083C64.1925 72.6364 63.7891 72.1171 63.3745 71.9454C62.9373 71.7642 62.6673 71.6542 62.2134 72.0563C62.1733 72.1838 62.1066 72.3014 62.0176 72.4012C61.6038 72.8633 61.3051 73.2426 61.0415 73.5774C59.8913 75.038 59.3646 75.5336 55.9542 76.2354C55.3007 76.3702 54.9061 76.5052 54.6699 76.6099Z" fill="#316193"/>
<path fill-rule="evenodd" clip-rule="evenodd" d="M84.9045 71.6406C84.0339 71.8851 83.2112 72.116 83.3188 74.326C83.5479 74.5128 84.521 74.8166 86.4336 74.7273C88.1653 74.646 89.988 74.2668 91.0771 73.761C92.2315 73.225 93.0747 72.6337 93.6105 72.1636C89.8249 72.9261 87.1355 72.807 85.6199 71.8064C85.4947 71.7237 85.3756 71.6322 85.2633 71.5327C85.1446 71.5716 85.025 71.6076 84.9045 71.6406Z" fill="#316193"/>
<path d="M96.1625 71.1259C96.126 71.0145 96.0758 70.9082 96.0129 70.8094C95.6435 70.1099 94.7458 69.901 93.3357 70.1925C88.9421 71.099 87.2407 70.5412 86.6239 70.1418C90.1903 64.6987 93.1215 58.1246 94.7056 51.9919C95.4269 49.1996 96.8269 42.6276 95.0304 39.4176C94.9156 39.1979 94.7814 38.9889 94.6294 38.7931C91.2028 34.4146 86.1737 32.0659 80.0859 32.0013C76.1138 31.9593 72.7233 32.9211 71.8049 33.2753C71.35 33.1904 70.8928 33.1181 70.4339 33.0585C69.2834 32.8502 68.1179 32.7366 66.9488 32.7189C63.8071 32.67 61.0922 33.421 58.844 34.9528C56.5657 34.0994 46.1177 30.5812 39.6518 35.1622C36.0405 37.7205 34.3735 42.2933 34.6966 48.7537C34.8053 50.9275 36.0437 57.6138 37.998 64.0173C39.2199 68.0208 40.4926 71.1976 41.8073 73.5365C43.2769 76.1786 44.7994 77.7707 46.363 78.2921C47.552 78.6883 49.3732 78.675 51.3009 76.3577C53.4301 73.7972 55.5272 71.5056 56.4687 70.4928C57.625 71.1187 58.8775 71.4562 60.1626 71.4953L60.1637 71.5062C59.9399 71.7728 59.7209 72.0433 59.5068 72.3178C58.6061 73.461 58.4188 73.6989 55.52 74.2957C54.6956 74.4658 52.5053 74.9173 52.4734 76.4523C52.4668 76.7776 52.5609 77.0659 52.7177 77.3208C53.3206 78.4452 55.1668 78.941 55.415 79.0032C58.9615 79.8895 62.0705 79.2477 64.3745 77.1996C64.3293 83.1285 64.5805 88.9388 65.2924 90.7194C65.8803 92.1887 67.3169 95.7806 71.8543 95.78C72.52 95.78 73.253 95.7027 74.059 95.53C78.7944 94.5145 80.8508 92.4218 81.6461 87.8075C82.0456 85.4936 82.7134 80.1664 83.078 76.9086C83.1229 76.7218 83.1729 76.5878 83.2295 76.5466C83.2295 76.5466 83.4147 76.4215 84.3648 76.6282C84.4036 76.6366 84.4429 76.6427 84.4825 76.6463L85.1572 76.7056L85.1968 76.7082C87.4472 76.8103 90.2764 76.3292 91.9235 75.5634C93.6344 74.7693 96.7222 72.82 96.1625 71.1259ZM39.8543 63.5618C37.8784 57.0887 36.724 50.5797 36.6326 48.7545C36.344 42.984 37.741 38.9672 40.7844 36.8151C45.6654 33.3641 53.6462 35.378 57.0164 36.4697C57.0079 36.4782 56.9989 36.4859 56.9904 36.4946C51.6121 41.9266 51.7397 51.2066 51.753 51.7739C51.7524 51.9927 51.7705 52.3025 51.796 52.7288C51.8885 54.2895 52.0607 57.1944 51.6007 60.4844C51.1731 63.5416 52.1155 66.534 54.1859 68.694C54.4001 68.9175 54.6239 69.1274 54.8551 69.3249C53.9335 70.3119 51.9308 72.4942 49.7992 75.0587C48.2905 76.8724 47.2488 76.5248 46.9062 76.4106C45.8648 76.0632 44.7457 74.8503 43.616 72.8966C42.3414 70.6669 41.0555 67.4973 39.8543 63.5618ZM55.8184 77.0808C55.3637 76.9671 54.9492 76.78 54.6699 76.6099C54.9061 76.5052 55.3007 76.3702 55.9542 76.2354C59.3646 75.5336 59.8913 75.038 61.0415 73.5774C61.3051 73.2426 61.6038 72.8633 62.0176 72.4012C62.1066 72.3014 62.1733 72.1838 62.2134 72.0563C62.6673 71.6542 62.9373 71.7642 63.3745 71.9454C63.7891 72.1171 64.1925 72.6364 64.3564 73.2083C64.4338 73.4783 64.5209 73.9909 64.2363 74.3893C61.8331 77.7531 58.3324 77.7096 55.8184 77.0808ZM61.3832 66.4827L61.2437 66.8574C60.8903 67.805 60.5615 68.686 60.3577 69.5229C58.5841 69.5173 56.8583 68.7596 55.5463 67.3905C53.8777 65.6495 53.1197 63.2278 53.4668 60.7457C53.9526 57.2699 53.7732 54.2433 53.6767 52.6174C53.6635 52.3897 53.6515 52.1904 53.6443 52.033C54.4301 51.3365 58.0715 49.3856 60.6678 49.9804C61.8528 50.252 62.5749 51.0585 62.8749 52.4466C64.4285 59.6319 63.0806 62.6266 61.9974 65.0333C61.7742 65.5292 61.5634 65.9977 61.3832 66.4827ZM80.9523 78.6341C80.9074 79.1039 80.8571 79.6333 80.788 80.2177L80.4 81.3825C80.3692 81.4748 80.3529 81.5714 80.3517 81.6687C80.336 82.9302 80.2082 83.3932 80.0461 83.9789C79.8776 84.588 79.6865 85.2787 79.5693 86.7892C79.277 90.5477 77.2355 92.7066 73.1456 93.5831C69.1182 94.447 68.4038 92.2628 67.7743 90.3364C67.7098 90.1345 67.6417 89.9337 67.5699 89.7342C66.9975 88.1775 67.062 85.9821 67.1516 82.944C67.1955 81.4527 67.0854 77.8913 66.2741 75.9118C66.2858 75.1326 66.3023 74.3414 66.3246 73.5418C66.3273 73.4405 66.3136 73.3395 66.2839 73.2426C66.2582 73.0558 66.2192 72.871 66.1673 72.6898C65.8415 71.5516 65.0477 70.5994 64.0952 70.2048C63.7168 70.048 63.0221 69.7604 62.1877 69.9738C62.3657 69.2404 62.6742 68.4126 63.0088 67.5159L63.1494 67.1385C63.3075 66.7133 63.5055 66.273 63.7155 65.8066C64.8489 63.2884 66.4011 59.8397 64.7163 52.0482C64.0854 49.13 61.978 47.705 58.7837 48.0359C56.8684 48.2341 55.1166 49.0069 54.2425 49.45C54.0673 49.5388 53.8938 49.631 53.7222 49.7266C53.9661 46.7863 54.8878 41.2914 58.3348 37.8149C58.5909 37.5569 58.8599 37.3121 59.1408 37.0814C59.2803 37.0542 59.4118 36.9957 59.5254 36.9103C61.5249 35.3939 64.0285 34.6498 66.9717 34.6979C68.0589 34.7157 69.1022 34.788 70.0921 34.9132C75.245 35.855 78.7128 38.758 80.8175 41.2452C82.9815 43.8025 84.1532 46.3781 84.621 47.7675C81.1045 47.4098 78.7123 48.1045 77.4996 49.8377C74.8618 53.6084 78.9427 60.9272 80.9042 64.4444C81.2637 65.0891 81.5744 65.6461 81.6719 65.8829C82.3105 67.4309 83.1375 68.4641 83.7413 69.2186C83.9263 69.4498 84.1059 69.6741 84.2423 69.8697C83.1771 70.1766 81.2637 70.8862 81.4381 74.4326C81.4054 74.848 81.3257 75.6202 81.2164 76.5979C81.0939 77.1499 81.0299 77.8212 80.9523 78.6341ZM83.3188 74.326C83.2112 72.116 84.0339 71.8851 84.9045 71.6406C85.025 71.6076 85.1446 71.5716 85.2633 71.5327C85.3756 71.6322 85.4947 71.7237 85.6199 71.8064C87.1355 72.807 89.8249 72.9261 93.6105 72.1636C93.0747 72.6337 92.2315 73.225 91.0771 73.761C89.988 74.2668 88.1653 74.646 86.4336 74.7273C84.521 74.8166 83.5479 74.5128 83.3188 74.326ZM84.8322 49.6878C84.8165 50.6201 84.6882 51.4662 84.5521 52.3498C84.406 53.3001 84.2545 54.2829 84.2162 55.4756C84.1785 56.6364 84.3236 57.8431 84.4639 59.0103C84.7472 61.3675 85.0379 63.7946 83.9125 66.1893C83.7257 65.8581 83.5592 65.5159 83.4139 65.1646C83.2739 64.8255 82.9704 64.2807 82.55 63.527C80.914 60.5929 77.0824 53.7219 79.0439 50.9182C80.0524 49.476 82.6071 49.4138 84.8322 49.6878ZM85.4392 68.3267C85.3642 68.2312 85.2886 68.136 85.2125 68.0413L85.1182 67.9233C87.048 64.7356 86.6707 61.582 86.3348 58.7855C86.1969 57.638 86.0666 56.5543 86.0996 55.5364C86.1339 54.4572 86.2766 53.5319 86.4145 52.6368C86.5843 51.534 86.7568 50.3931 86.7092 49.0479C86.7448 48.9068 86.7592 48.7401 86.7406 48.5424C86.6191 47.2522 85.1463 43.3922 82.1447 39.8976C80.53 38.0179 78.1861 35.9188 74.9989 34.4776C76.3944 34.1943 78.2751 33.9368 80.3788 33.9836C85.8306 34.1047 90.144 36.1454 93.1991 40.049C93.264 40.1338 93.3232 40.2227 93.3764 40.3153C95.298 43.9178 92.6424 56.9914 85.4392 68.3267ZM62.0091 52.0729C61.9426 52.5497 61.1882 53.1957 60.3585 53.1957C60.2866 53.1957 60.2147 53.1908 60.1435 53.1808C59.6458 53.1117 59.143 52.7981 58.7991 52.3421C58.6774 52.1813 58.4794 51.8691 58.5187 51.5863C58.5333 51.4798 58.5881 51.3246 58.7645 51.1909C59.0786 50.9533 59.6994 50.8651 60.3845 50.9605C61.2251 51.0777 62.0923 51.4755 62.0091 52.0729ZM83.0844 50.9796C83.1139 51.1901 82.9542 51.5138 82.6775 51.804C82.496 51.9945 82.1141 52.3251 81.5935 52.3971C81.5275 52.4063 81.4609 52.4109 81.3942 52.4109C80.6142 52.4109 79.9554 51.788 79.9042 51.4231C79.8404 50.9541 80.606 50.5977 81.3953 50.4877C82.1846 50.3777 83.0193 50.5111 83.0844 50.9796Z" fill="white"/>
</g>
<defs>
<clipPath id="clip0_158_1073">
<rect width="63.78" height="63.78" fill="white" transform="translate(32 32)"/>
</clipPath>
</defs>
</svg>
